<?xml version="1.0" encoding="utf-8"?>
<COLLADA xmlns="http://www.collada.org/2005/11/COLLADASchema" version="1.4.1" xmlns:xsi="http://www.w3.org/2001/XMLSchema-instance">
  <asset>
    <contributor>
      <author>Blender User</author>
      <authoring_tool>Blender 3.4.0 commit date:2022-12-06, commit time:18:46, hash:a95bf1ac01be</authoring_tool>
    </contributor>
    <created>2023-09-29T23:14:36</created>
    <modified>2023-09-29T23:14:36</modified>
    <unit name="meter" meter="1"/>
    <up_axis>Z_UP</up_axis>
  </asset>
  <library_effects>
    <effect id="Default_OBJ-effect">
      <profile_COMMON>
        <technique sid="common">
          <lambert>
            <emission>
              <color sid="emission">0 0 0 1</color>
            </emission>
            <diffuse>
              <color sid="diffuse">0.8 0.8 0.8 1</color>
            </diffuse>
            <reflectivity>
              <float sid="specular">0.5</float>
            </reflectivity>
          </lambert>
        </technique>
      </profile_COMMON>
    </effect>
  </library_effects>
  <library_images/>
  <library_materials>
    <material id="Default_OBJ-material" name="Default OBJ">
      <instance_effect url="#Default_OBJ-effect"/>
    </material>
  </library_materials>
  <library_geometries>
    <geometry id="SkillObj_OverGrow_Seed_Model-mesh" name="SkillObj_OverGrow_Seed_Model">
      <mesh>
        <source id="SkillObj_OverGrow_Seed_Model-mesh-positions">
          <float_array id="SkillObj_OverGrow_Seed_Model-mesh-positions-array" count="777">0.01874446 0.02705037 0.007595419 0.0127623 0.02635985 0.01248484 0.004586577 0.01183336 0.004486918 0.0332995 0.04396796 0.01349323 0.0225889 0.04256063 0.02209782 0.0423839 0.04608207 0 0.02360188 0.028162 0 0.008474349 0.01209086 0 0.05106186 0.06722974 0.02069073 0.03453153 0.06536316 0.03378087 0.06523561 0.06993949 0 0.0632115 0.08989226 0.02561384 0.04286026 0.08791762 0.04192852 0.08021581 0.09186279 0 0.06873261 0.1110846 0.02785104 0.04677069 0.1082442 0.04575395 0.08663088 0.1114872 0 0.06908309 0.1244539 0.02799308 0.04708546 0.1224584 0.04606187 0.08682209 0.1261867 0 0.06408166 0.1405879 0.02596646 0.04367673 0.1383968 0.04272723 0.08053648 0.1437874 0 0.05539643 0.1558012 0.0224471 0.03775697 0.1534258 0.03693616 0.06962102 0.1603838 0 0.04134219 0.171827 0.01675224 0.02817791 0.1692574 0.02756541 0.05195796 0.1778665 0 0.02846992 0.1110846 0.06723845 0.02618306 0.08989226 0.06183737 0 0.09186279 0.07847201 0 0.06993949 0.0638175 0.02115046 0.06722974 0.04995185 0 0.04608207 0.04146248 0.01379311 0.04396796 0.0325756 0 0.028162 0.02308881 0.00776422 0.02705037 0.01833701 0 0.1114872 0.08474761 0.02861511 0.1244539 0.06758129 0 0.1261867 0.08493465 0.02654349 0.1405879 0.06268864 0 0.1437874 0.07878565 0.02294594 0.1558012 0.05419218 0 0.1603838 0.06810748 0.01712447 0.171827 0.04044348 0 0.1778665 0.05082845 -0.02861511 0.1244539 0.06758129 -0.02846992 0.1110846 0.06723845 -0.04708546 0.1224584 0.04606187 -0.04677069 0.1082442 0.04575395 -0.06908309 0.1244539 0.02799308 -0.06873261 0.1110846 0.02785104 -0.04286026 0.08791762 0.04192852 -0.0632115 0.08989226 0.02561384 -0.03453153 0.06536316 0.03378087 -0.05106186 0.06722974 0.02069073 -0.0225889 0.04256063 0.02209782 -0.0332995 0.04396796 0.01349323 -0.0127623 0.02635985 0.01248484 -0.01874446 0.02705037 0.007595419 -0.0423839 0.04608207 0 -0.02360188 0.028162 0 -0.06523561 0.06993949 0 -0.08021581 0.09186279 0 -0.08663088 0.1114872 0 -0.08682209 0.1261867 0 -0.08053642 0.1437874 0 -0.00776416 0.02705037 0.01833701 -0.01379305 0.04396796 0.0325756 -0.02115046 0.06722974 0.04995185 -0.026183 0.08989226 0.06183737 0 0.01209086 0.008290112 -0.004586577 0.01183336 0.004486918 0 2.72346e-4 0 -0.008474349 0.01209086 0 0.008474349 0.01209086 0 0.004586577 0.01183336 -0.004486918 0 0.01209086 -0.008290112 -0.004586577 0.01183336 -0.004486918 -0.008474349 0.01209086 0 -0.01874446 0.02705037 -0.007595419 0.01874446 0.02705037 -0.007595419 0.0127623 0.02635985 -0.01248484 0.02360188 0.028162 0 0.0332995 0.04396796 -0.01349323 0.0225889 0.04256063 -0.02209782 0.0423839 0.04608207 0 0.05106186 0.06722974 -0.02069073 0.03453153 0.06536316 -0.03378087 0.06523561 0.06993949 0 0.0632115 0.08989226 -0.02561384 0.04286026 0.08791762 -0.04192852 0.08021581 0.09186279 0 0.06873261 0.1110846 -0.02785104 0.04677069 0.1082442 -0.04575395 0.08663088 0.1114872 0 0.06908309 0.1244539 -0.02799308 0.04708546 0.1224584 -0.04606187 0.08682209 0.1261867 0 0.06408166 0.1405879 -0.02596646 0.04367673 0.1383968 -0.04272723 0.08053648 0.1437874 0 0.05539643 0.1558012 -0.0224471 0.03775697 0.1534258 -0.03693616 0.06962102 0.1603838 0 0.04134219 0.171827 -0.01675224 0.02817791 0.1692574 -0.02756541 0.05195796 0.1778665 0 0.02846992 0.1110846 -0.06723845 0.02618306 0.08989226 -0.06183737 0 0.09186279 -0.07847201 0 0.06993949 -0.0638175 0.02115046 0.06722974 -0.04995185 0 0.04608207 -0.04146248 0.01379311 0.04396796 -0.0325756 0 0.028162 -0.02308881 0.00776422 0.02705037 -0.01833701 0 0.1114872 -0.08474761 -0.00776416 0.02705037 -0.01833701 -0.01379305 0.04396796 -0.0325756 -0.0225889 0.04256063 -0.02209782 -0.0127623 0.02635985 -0.01248484 -0.0332995 0.04396796 -0.01349323 -0.0423839 0.04608207 0 -0.02360188 0.028162 0 -0.05106186 0.06722974 -0.02069073 -0.03453153 0.06536316 -0.03378087 -0.06523561 0.06993949 0 -0.0632115 0.08989226 -0.02561384 -0.04286026 0.08791762 -0.04192852 -0.08021581 0.09186279 0 -0.06873261 0.1110846 -0.02785104 -0.04677069 0.1082442 -0.04575395 -0.08663088 0.1114872 0 -0.06908309 0.1244539 -0.02799308 -0.04708546 0.1224584 -0.04606187 -0.08682209 0.1261867 0 -0.06408166 0.1405879 -0.02596646 -0.04367667 0.1383968 -0.04272723 -0.08053642 0.1437874 0 -0.05539643 0.1558012 -0.0224471 -0.03775697 0.1534258 -0.03693616 -0.06962096 0.1603838 0 -0.04134219 0.171827 -0.01675224 -0.02817791 0.1692574 -0.02756541 -0.05195796 0.1778665 0 -0.02846992 0.1110846 -0.06723845 -0.026183 0.08989226 -0.06183737 -0.02115046 0.06722974 -0.04995185 -0.02861511 0.1244539 -0.06758129 0 0.1261867 -0.08493465 0.02861511 0.1244539 -0.06758129 0.02654349 0.1405879 -0.06268864 0 0.1437874 -0.07878565 0.02294594 0.1558012 -0.05419218 0 0.1603838 -0.06810748 0.01712447 0.171827 -0.04044348 0 0.1778665 -0.05082845 -0.02654349 0.1405879 -0.06268864 -0.02294594 0.1558012 -0.05419218 -0.01712447 0.171827 -0.04044348 -0.06408166 0.1405879 0.02596646 -0.04367667 0.1383968 0.04272723 -0.05539643 0.1558012 0.0224471 -0.03775697 0.1534258 0.03693616 -0.06962096 0.1603838 0 -0.04134219 0.171827 0.01675224 -0.02817791 0.1692574 0.02756541 -0.05195796 0.1778665 0 -0.02654349 0.1405879 0.06268864 -0.02294594 0.1558012 0.05419218 -0.01712447 0.171827 0.04044348 0.04134219 0.171827 0.01675224 0 0.1488723 0 0.02817791 0.1692574 0.02756541 0.05195796 0.1778665 0 0.01712447 0.171827 0.04044348 0 0.1778665 0.05082845 0.04134219 0.171827 -0.01675224 0.02817791 0.1692574 -0.02756541 0.05195796 0.1778665 0 0.01712447 0.171827 -0.04044348 0 0.1778665 -0.05082845 -0.02817791 0.1692574 0.02756541 0 0.1488723 0 -0.04134219 0.171827 0.01675224 -0.05195796 0.1778665 0 -0.01712447 0.171827 0.04044348 0 0.1778665 0.05082845 -0.02817791 0.1692574 -0.02756541 -0.04134219 0.171827 -0.01675224 -0.05195796 0.1778665 0 -0.01712447 0.171827 -0.04044348 0 0.1778665 -0.05082845 0 0.159244 0.02325463 -0.02325463 0.159244 0 0 0.1159508 0 0.02325463 0.159244 0 0 0.159244 0.02325463 0 0.1159508 0 0 0.1848156 0.006351888 -0.006351888 0.1848156 0 -0.02325463 0.159244 0 0 0.159244 0.02325463 0.006351888 0.1848156 0 0 0.1848156 0.006351888 0 0.159244 0.02325463 0.02325463 0.159244 0 0 0.2125064 0.01860046 -0.01860046 0.2125064 0 -0.006351888 0.1848156 0 0 0.1848156 0.006351888 0.01860046 0.2125064 0 0 0.2125064 0.01860046 0 0.1848156 0.006351888 0.006351888 0.1848156 0 0 0.2399595 0.01146727 0 0.2674126 0 -0.01146727 0.2399595 0 -0.01860046 0.2125064 0 0 0.2125064 0.01860046 0.01146727 0.2399595 0 0 0.2674126 0 0 0.2399595 0.01146727 0 0.2125064 0.01860046 0.01860046 0.2125064 0 -0.02325463 0.159244 0 0 0.159244 -0.02325463 0 0.1159508 0 0 0.159244 -0.02325463 0.02325463 0.159244 0 0 0.1159508 0 0 0.1848156 -0.006351888 0 0.159244 -0.02325463 -0.02325463 0.159244 0 -0.006351888 0.1848156 0 0.006351888 0.1848156 0 0.02325463 0.159244 0 0 0.159244 -0.02325463 0 0.1848156 -0.006351888 0 0.2125064 -0.01860046 0 0.1848156 -0.006351888 -0.006351888 0.1848156 0 -0.01860046 0.2125064 0 0.01860046 0.2125064 0 0.006351888 0.1848156 0 0 0.1848156 -0.006351888 0 0.2125064 -0.01860046 0 0.2674126 0 0 0.2399595 -0.01146727 -0.01146727 0.2399595 0 -0.01860046 0.2125064 0 0 0.2125064 -0.01860046 0 0.2674126 0 0.01146727 0.2399595 0 0 0.2399595 -0.01146727 0 0.2125064 -0.01860046 0.01860046 0.2125064 0</float_array>
          <technique_common>
            <accessor source="#SkillObj_OverGrow_Seed_Model-mesh-positions-array" count="259" stride="3">
              <param name="X" type="float"/>
              <param name="Y" type="float"/>
              <param name="Z" type="float"/>
            </accessor>
          </technique_common>
        </source>
        <source id="SkillObj_OverGrow_Seed_Model-mesh-normals">
          <float_array id="SkillObj_OverGrow_Seed_Model-mesh-normals-array" count="762">0.6013559 -0.6625499 0.446541 0.5378348 -0.6391163 0.5497855 0.5676732 -0.5837703 0.580482 0.6121982 -0.6372815 0.4680659 0.5524339 -0.6132835 0.5645354 0.7200188 -0.6939547 1.09375e-5 0.6976047 -0.7164828 -1.66893e-6 0.72185 -0.6920496 -1.21295e-5 0.6530019 -0.5494364 0.5212564 0.5941705 -0.5274552 0.60725 0.7974634 -0.6033674 2.20537e-5 0.7116762 -0.3763054 0.5932211 0.6508713 -0.3654823 0.6654241 0.9076886 -0.4196444 -1.21593e-5 0.7525205 -0.1622315 0.6382741 0.6890613 -0.169658 0.7045643 0.9824051 -0.1867629 1.91927e-5 0.7458725 0.1507487 0.6488059 0.6925644 0.1365997 0.7083044 0.9832199 0.1824244 -9.98378e-6 0.6782526 0.3848147 0.6260121 0.6479118 0.3758112 0.662553 0.8919522 0.45213 -1.76132e-5 0.5766326 0.5552846 0.5992946 0.5811903 0.5557487 0.594442 0.7596145 0.6503736 2.00868e-5 0.5088537 0.6303586 0.5862729 0.5409953 0.6352433 0.5511717 0.6709421 0.7415098 2.99886e-7 0.6223639 -0.1615176 0.7658821 0.5784665 -0.374684 0.7245608 0 -0.4130709 0.910699 4.50295e-7 -0.5956202 0.8032663 0.508076 -0.5472502 0.6651135 -1.88127e-7 -0.6861792 0.7274325 0.4556424 -0.6349942 0.623837 -8.48435e-7 -0.7086572 0.705553 0.4342105 -0.6602148 0.612844 0 -0.1832986 0.9830574 0.6330714 0.1501934 0.759383 -1.6643e-6 0.1790842 0.9838338 0.6114026 0.3840402 0.6918815 -8.00496e-7 0.4451045 0.8954786 0.5863443 0.5554162 0.5896723 -1.70935e-6 0.6429256 0.7659288 0.5735872 0.6313166 0.5219551 -1.9134e-6 0.7341194 0.6790205 -0.6330715 0.1501935 0.759383 -0.6223636 -0.1615172 0.7658824 -0.6925638 0.1365997 0.7083051 -0.6890612 -0.1696581 0.7045642 -0.7458726 0.1507486 0.6488058 -0.7525221 -0.1622301 0.6382727 -0.6508937 -0.3655068 0.6653887 -0.7116779 -0.3763028 0.5932208 -0.5941709 -0.5274553 0.6072495 -0.653002 -0.5494361 0.5212566 -0.5524335 -0.6132835 0.5645358 -0.6121974 -0.6372815 0.4680669 -0.5378566 -0.6391167 0.5497639 -0.6013559 -0.6625499 0.446541 -0.7200188 -0.6939546 1.12951e-5 -0.6976061 -0.7164815 -1.57952e-6 -0.7974635 -0.6033673 2.13683e-5 -0.9076887 -0.4196442 -1.21295e-5 -0.9824054 -0.1867615 1.93715e-5 -0.9832198 0.1824252 -1.04308e-5 -0.8919519 0.4521304 -1.82092e-5 -0.434211 -0.660215 0.6128435 -0.4556428 -0.6349942 0.6238366 -0.508075 -0.5472517 0.6651132 -0.5784664 -0.3746827 0.7245616 1.43602e-6 -0.6832477 0.7301867 -0.5676723 -0.5837703 0.5804829 5.78761e-5 -1 2.7597e-5 -0.7218497 -0.6920499 -1.19805e-5 0.7218497 -0.6920499 1.20699e-5 -5.78761e-5 -1 -2.75522e-5 0.5676743 -0.5837704 -0.580481 -8.50298e-7 -0.6832477 -0.7301867 -0.5676723 -0.5837703 -0.5804829 -0.7218496 -0.69205 1.20997e-5 -0.6013556 -0.6625499 -0.4465414 0.6013559 -0.6625499 -0.446541 0.537857 -0.6391166 -0.5497636 0.6976062 -0.7164815 1.51992e-6 0.6121971 -0.6372816 -0.4680672 0.5524336 -0.6132835 -0.5645358 0.7200178 -0.6939557 -1.10865e-5 0.6530013 -0.5494375 -0.521256 0.5941705 -0.5274551 -0.60725 0.7974632 -0.6033677 -2.19345e-5 0.7116763 -0.3763054 -0.593221 0.6508713 -0.3654823 -0.6654242 0.9076885 -0.4196445 1.20103e-5 0.7525213 -0.1622307 -0.6382734 0.6890625 -0.1696583 -0.704563 0.9824052 -0.186762 -1.93417e-5 0.7458733 0.150748 -0.6488052 0.6925695 0.1365518 -0.7083087 0.9832199 0.1824245 1.00136e-5 0.6782523 0.3848173 -0.6260107 0.6479123 0.3758113 -0.6625524 0.891952 0.4521302 1.7643e-5 0.5766317 0.555287 -0.5992931 0.5811902 0.5557484 -0.5944424 0.7596146 0.6503736 -2.0206e-5 0.5088538 0.6303586 -0.5862729 0.5409581 0.6352646 -0.5511835 0.670942 0.7415099 -2.98023e-7 0.622362 -0.1615158 -0.7658841 0.5784665 -0.3746841 -0.7245609 0 -0.4129623 -0.9107481 0 -0.5956201 -0.8032664 0.5080752 -0.5472514 -0.6651132 0 -0.6861792 -0.7274325 0.4556421 -0.6349942 -0.6238371 -1.17371e-6 -0.7086572 -0.705553 0.4342098 -0.6602146 -0.6128447 1.17859e-6 -0.1832986 -0.9830574 -0.4342098 -0.6602146 -0.6128447 -0.455642 -0.6349941 -0.6238372 -0.5524334 -0.6132835 -0.5645359 -0.5378566 -0.6391167 -0.5497639 -0.6121973 -0.6372817 -0.4680668 -0.7200183 -0.6939551 -1.12653e-5 -0.6976047 -0.7164829 1.60933e-6 -0.6530018 -0.5494366 -0.5212563 -0.5941705 -0.5274551 -0.60725 -0.7974632 -0.6033677 -2.15173e-5 -0.7116761 -0.3763054 -0.5932213 -0.6508713 -0.3654822 -0.6654242 -0.9076886 -0.4196444 1.2219e-5 -0.7525207 -0.1622313 -0.638274 -0.6890614 -0.169658 -0.7045642 -0.9824052 -0.186762 -1.92523e-5 -0.7458727 0.1507487 -0.6488057 -0.6925644 0.1365997 -0.7083044 -0.9832198 0.1824253 1.055e-5 -0.6782524 0.384818 -0.6260102 -0.6479115 0.3758116 -0.662553 -0.891952 0.4521301 1.80006e-5 -0.5766326 0.5552846 -0.5992946 -0.5811904 0.5557487 -0.594442 -0.7596147 0.6503735 -1.98483e-5 -0.5088539 0.6303586 -0.5862728 -0.5409957 0.6352431 -0.5511714 -0.6709423 0.7415097 -4.66593e-7 -0.6223641 -0.1615176 -0.765882 -0.5784666 -0.3746841 -0.7245608 -0.508076 -0.5472502 -0.6651136 -0.6330716 0.1501935 -0.759383 1.64047e-6 0.1790842 -0.9838338 0.6330716 0.1501935 -0.759383 0.6114022 0.3840406 -0.6918816 6.95814e-7 0.4451045 -0.8954786 0.586345 0.5554157 -0.5896719 1.19302e-6 0.6429256 -0.7659287 0.5735872 0.6313166 -0.521955 1.9134e-6 0.7341194 -0.6790205 -0.6114013 0.3840419 -0.6918818 -0.5863442 0.5554162 -0.5896723 -0.5735872 0.6313169 -0.5219548 -0.6782524 0.3848174 0.6260105 -0.647912 0.3758118 0.6625524 -0.5766318 0.555287 0.5992931 -0.5811902 0.5557484 0.5944424 -0.7596146 0.6503735 1.99378e-5 -0.5088539 0.6303586 0.5862728 -0.5409585 0.6352645 0.5511834 -0.6709422 0.7415097 3.57628e-7 -0.6114025 0.3840404 0.6918815 -0.5863453 0.5554154 0.5896719 -0.5735474 0.6313328 0.5219794 -0.4607601 0.8843736 -0.07472372 2.77162e-6 1 -4.5374e-6 -0.3220892 0.8882189 -0.3276062 -0.4872944 0.8732378 -2.0328e-5 -0.0753901 0.8805746 -0.4678727 1.08527e-5 0.8686153 -0.495487 2.83122e-6 1 4.50015e-6 -0.4607601 0.8843736 0.07472372 -0.3220892 0.8882189 0.3276062 -0.4872944 0.8732377 2.03277e-5 -0.0753901 0.8805746 0.4678726 1.09118e-5 0.8686155 0.495487 0.3220891 0.888219 -0.3276061 -3.03984e-6 1 -4.58956e-6 0.4607584 0.8843744 -0.07472372 0.4872943 0.8732378 2.66742e-5 0.0753901 0.8805749 -0.4678723 -1.09104e-5 0.8686153 -0.4954873 -2.93553e-6 1 4.51505e-6 0.3220891 0.8882188 0.3276064 0.4607584 0.8843744 0.0747233 0.4872943 0.8732378 -2.76095e-5 0.0753901 0.8805748 0.4678723 -1.09101e-5 0.8686152 0.4954873 -0.6610319 -0.3550688 0.6610319 0.6610319 -0.3550688 0.6610319 -0.6405889 0.4234269 0.6405899 -0.6405884 0.4234265 0.6405908 -0.6405892 0.4234272 0.6405895 -0.6405894 0.4234273 0.6405892 0.6405892 0.4234271 0.6405897 0.6405891 0.4234271 0.6405898 0.6405892 0.4234271 0.6405895 0.6405892 0.4234271 0.6405895 -0.674866 -0.2985157 0.6748661 -0.6748661 -0.2985157 0.6748661 -0.6748659 -0.2985156 0.6748663 -0.6748657 -0.2985156 0.6748666 0.6748664 -0.2985159 0.6748657 0.6748664 -0.2985159 0.6748656 0.6748662 -0.2985158 0.6748659 0.6748661 -0.2985157 0.674866 -0.6922501 0.203908 0.6922509 -0.6781451 0.2832648 0.6781448 -0.6922502 0.203913 0.6922494 -0.6954661 0.1807039 0.695466 -0.6954662 0.1807039 0.6954659 0.6922506 0.2039079 0.6922505 0.6781443 0.2832645 0.6781457 0.6922493 0.2039129 0.6922503 0.6954659 0.1807038 0.6954662 0.6954656 0.1807038 0.6954666 -0.6610319 -0.3550688 -0.6610318 0.6610319 -0.3550688 -0.6610319 -0.6405891 0.4234271 -0.6405897 -0.6405892 0.4234271 -0.6405895 -0.6405892 0.4234271 -0.6405895 -0.6405891 0.423427 -0.6405897 0.6405892 0.4234271 -0.6405897 0.6405892 0.4234271 -0.6405895 0.6405892 0.4234271 -0.6405896 0.6405891 0.4234271 -0.6405897 -0.6748659 -0.2985156 -0.6748663 -0.6748657 -0.2985156 -0.6748666 -0.6748658 -0.2985156 -0.6748664 -0.674866 -0.2985156 -0.6748663 0.6748662 -0.2985157 -0.674866 0.6748658 -0.2985156 -0.6748665 0.674866 -0.2985157 -0.6748662 0.6748663 -0.2985158 -0.6748658 -0.6781451 0.2832648 -0.6781448 -0.6922501 0.203908 -0.6922509 -0.69225 0.2039129 -0.6922495 -0.6954661 0.1807038 -0.6954661 -0.6954662 0.1807039 -0.6954659 0.6781441 0.2832643 -0.678146 0.6922506 0.203908 -0.6922505 0.6922494 0.2039129 -0.6922502 0.695466 0.1807038 -0.6954662 0.6954656 0.1807038 -0.6954666</float_array>
          <technique_common>
            <accessor source="#SkillObj_OverGrow_Seed_Model-mesh-normals-array" count="254" stride="3">
              <param name="X" type="float"/>
              <param name="Y" type="float"/>
              <param name="Z" type="float"/>
            </accessor>
          </technique_common>
        </source>
        <source id="SkillObj_OverGrow_Seed_Model-mesh-map-0">
          <float_array id="SkillObj_OverGrow_Seed_Model-mesh-map-0-array" count="2016">0.4192269 0.2669127 0.4531033 0.2763236 0.4955804 0.2076503 0.4192269 0.2669127 0.3456376 0.3447305 0.4531033 0.2763236 0.3456376 0.3447305 0.405619 0.3557903 0.4531033 0.2763236 0.2770928 0.3225889 0.3456376 0.3447305 0.4192269 0.2669127 0.3827484 0.2500466 0.2770928 0.3225889 0.4192269 0.2669127 0.4716576 0.1966683 0.3827484 0.2500466 0.4192269 0.2669127 0.4955804 0.2076503 0.4716576 0.1966683 0.4192269 0.2669127 0.3456376 0.3447305 0.2647518 0.4572268 0.405619 0.3557903 0.2647518 0.4572268 0.3524637 0.4652333 0.405619 0.3557903 0.1589648 0.4382717 0.2647518 0.4572268 0.3456376 0.3447305 0.2770928 0.3225889 0.1589648 0.4382717 0.3456376 0.3447305 0.2647518 0.4572268 0.2154935 0.5637978 0.3524637 0.4652333 0.2154935 0.5637978 0.3182347 0.5685552 0.3524637 0.4652333 0.08978593 0.5500137 0.2154935 0.5637978 0.2647518 0.4572268 0.1589648 0.4382717 0.08978593 0.5500137 0.2647518 0.4572268 0.2154935 0.5637978 0.1925514 0.6582577 0.3182347 0.5685552 0.1925514 0.6582577 0.301445 0.6583004 0.3182347 0.5685552 0.06045937 0.6451831 0.1925514 0.6582577 0.2154935 0.5637978 0.08978593 0.5500137 0.06045937 0.6451831 0.2154935 0.5637978 0.1925514 0.6582577 0.187511 0.7166554 0.301445 0.6583004 0.187511 0.7166554 0.2967475 0.720611 0.301445 0.6583004 0.05531907 0.7147173 0.187511 0.7166554 0.1925514 0.6582577 0.06045937 0.6451831 0.05531907 0.7147173 0.1925514 0.6582577 0.187511 0.7166554 0.1942228 0.7908002 0.2967475 0.720611 0.1942228 0.7908002 0.2999739 0.7928507 0.2967475 0.720611 0.06857156 0.8018639 0.1942228 0.7908002 0.187511 0.7166554 0.05531907 0.7147173 0.06857156 0.8018639 0.187511 0.7166554 0.1942228 0.7908002 0.2115184 0.8667035 0.2999739 0.7928507 0.2115184 0.8667035 0.3089131 0.8663977 0.2999739 0.7928507 0.1008314 0.8889063 0.2115184 0.8667035 0.1942228 0.7908002 0.06857156 0.8018639 0.1008314 0.8889063 0.1942228 0.7908002 0.2115184 0.8667035 0.2427629 0.9563857 0.3089131 0.8663977 0.2427629 0.9563857 0.3230763 0.9521356 0.3089131 0.8663977 0.1577254 0.984946 0.2427629 0.9563857 0.2115184 0.8667035 0.1008314 0.8889063 0.1577254 0.984946 0.2115184 0.8667035 0.301445 0.6583004 0.2967475 0.720611 0.4027709 0.6806178 0.301445 0.6583004 0.4027709 0.6806178 0.4103568 0.5961869 0.4103568 0.5961869 0.4027709 0.6806178 0.520667 0.6189187 0.4103568 0.5961869 0.520667 0.6189187 0.520667 0.5283704 0.4273433 0.4971498 0.4103568 0.5961869 0.520667 0.5283704 0.4273433 0.4971498 0.520667 0.5283704 0.520667 0.4088582 0.4558108 0.382836 0.4273433 0.4971498 0.520667 0.4088582 0.4558108 0.382836 0.520667 0.4088582 0.520667 0.3085606 0.4823052 0.2932186 0.4558108 0.382836 0.520667 0.3085606 0.405619 0.3557903 0.4558108 0.382836 0.4823052 0.2932186 0.4531033 0.2763236 0.405619 0.3557903 0.4823052 0.2932186 0.3524637 0.4652333 0.4273433 0.4971498 0.4558108 0.382836 0.405619 0.3557903 0.3524637 0.4652333 0.4558108 0.382836 0.3182347 0.5685552 0.4103568 0.5961869 0.4273433 0.4971498 0.3524637 0.4652333 0.3182347 0.5685552 0.4273433 0.4971498 0.4027709 0.6806178 0.520667 0.6880237 0.520667 0.6189187 0.3182347 0.5685552 0.301445 0.6583004 0.4103568 0.5961869 0.4027709 0.6806178 0.401721 0.7324706 0.520667 0.6880237 0.401721 0.7324706 0.520667 0.7367505 0.520667 0.6880237 0.401721 0.7324706 0.4020717 0.7983256 0.520667 0.7367505 0.4020717 0.7983256 0.520667 0.8003186 0.520667 0.7367505 0.2999739 0.7928507 0.4020717 0.7983256 0.401721 0.7324706 0.2967475 0.720611 0.2999739 0.7928507 0.401721 0.7324706 0.2967475 0.720611 0.401721 0.7324706 0.4027709 0.6806178 0.4020717 0.7983256 0.405415 0.8679425 0.520667 0.8003186 0.405415 0.8679425 0.520667 0.8698317 0.520667 0.8003186 0.3089131 0.8663977 0.405415 0.8679425 0.4020717 0.7983256 0.2999739 0.7928507 0.3089131 0.8663977 0.4020717 0.7983256 0.405415 0.8679425 0.408507 0.9546524 0.520667 0.8698317 0.408507 0.9546524 0.5207255 0.965442 0.520667 0.8698317 0.3230763 0.9521356 0.408507 0.9546524 0.405415 0.8679425 0.3089131 0.8663977 0.3230763 0.9521356 0.405415 0.8679425 0.520667 0.7367505 0.6397368 0.7323776 0.520667 0.6880237 0.6397368 0.7323776 0.6386665 0.6805257 0.520667 0.6880237 0.6397368 0.7323776 0.7447057 0.7204358 0.6386665 0.6805257 0.7447057 0.7204358 0.7399616 0.658129 0.6386665 0.6805257 0.7447057 0.7204358 0.8539407 0.7166554 0.7399616 0.658129 0.8539407 0.7166554 0.8488774 0.6582577 0.7399616 0.658129 0.7399616 0.658129 0.8488774 0.6582577 0.7232163 0.5683972 0.8488774 0.6582577 0.8258984 0.5637978 0.7232163 0.5683972 0.7232163 0.5683972 0.8258984 0.5637978 0.6888897 0.4651678 0.8258984 0.5637978 0.7765987 0.4572268 0.6888897 0.4651678 0.6888897 0.4651678 0.7765987 0.4572268 0.635832 0.3557456 0.7765987 0.4572268 0.6956691 0.3447305 0.635832 0.3557456 0.635832 0.3557456 0.6956691 0.3447305 0.5880066 0.2762716 0.6956691 0.3447305 0.6218757 0.2668735 0.5880066 0.2762716 0.6956691 0.3447305 0.7643582 0.3225889 0.6218757 0.2668735 0.7643582 0.3225889 0.658522 0.2499933 0.6218757 0.2668735 0.8824862 0.4382717 0.7643582 0.3225889 0.6956691 0.3447305 0.7765987 0.4572268 0.8824862 0.4382717 0.6956691 0.3447305 0.9516651 0.5500137 0.8824862 0.4382717 0.7765987 0.4572268 0.8258984 0.5637978 0.9516651 0.5500137 0.7765987 0.4572268 0.9809916 0.6451831 0.9516651 0.5500137 0.8258984 0.5637978 0.8488774 0.6582577 0.9809916 0.6451831 0.8258984 0.5637978 0.9861319 0.7147173 0.9809916 0.6451831 0.8488774 0.6582577 0.8539407 0.7166554 0.9861319 0.7147173 0.8488774 0.6582577 0.9728794 0.8018639 0.9861319 0.7147173 0.8539407 0.7166554 0.635832 0.3557456 0.5880066 0.2762716 0.5588178 0.2931892 0.5855107 0.3828108 0.635832 0.3557456 0.5588178 0.2931892 0.6888897 0.4651678 0.635832 0.3557456 0.5855107 0.3828108 0.5855107 0.3828108 0.5588178 0.2931892 0.520667 0.3085606 0.520667 0.4088582 0.5855107 0.3828108 0.520667 0.3085606 0.6140225 0.4971134 0.5855107 0.3828108 0.520667 0.4088582 0.520667 0.5283704 0.6140225 0.4971134 0.520667 0.4088582 0.6140225 0.4971134 0.6888897 0.4651678 0.5855107 0.3828108 0.6310942 0.5961007 0.6140225 0.4971134 0.520667 0.5283704 0.520667 0.6189187 0.6310942 0.5961007 0.520667 0.5283704 0.7232163 0.5683972 0.6888897 0.4651678 0.6140225 0.4971134 0.6310942 0.5961007 0.7232163 0.5683972 0.6140225 0.4971134 0.6386665 0.6805257 0.6310942 0.5961007 0.520667 0.6189187 0.520667 0.6880237 0.6386665 0.6805257 0.520667 0.6189187 0.7399616 0.658129 0.7232163 0.5683972 0.6310942 0.5961007 0.6386665 0.6805257 0.7399616 0.658129 0.6310942 0.5961007 0.520667 0.3085606 0.5588178 0.2931892 0.520667 0.2182301 0.5454768 0.2076312 0.520667 0.2182301 0.5588178 0.2931892 0.5454768 0.2076312 0.5207255 0.1579627 0.520667 0.2182301 0.520667 0.2182301 0.5207255 0.1579627 0.4955804 0.2076503 0.4955804 0.2076503 0.5207255 0.1579627 0.4716576 0.1966683 0.520667 0.2182301 0.4955804 0.2076503 0.4823052 0.2932186 0.5695924 0.1966683 0.5207255 0.1579627 0.5454768 0.2076312 0.5695924 0.1966683 0.5454768 0.2076312 0.6218757 0.2668735 0.4955804 0.2076503 0.4531033 0.2763236 0.4823052 0.2932186 0.4823052 0.2932186 0.520667 0.3085606 0.520667 0.2182301 0.5880066 0.2762716 0.6218757 0.2668735 0.5454768 0.2076312 0.5588178 0.2931892 0.5880066 0.2762716 0.5454768 0.2076312 0.6218757 0.2668735 0.658522 0.2499933 0.5695924 0.1966683 0.5695924 0.1966683 0.5207255 0.1579627 0.5458706 0.2076503 0.5458706 0.2076503 0.5207255 0.1579627 0.520784 0.2182301 0.520784 0.2182301 0.5207255 0.1579627 0.4959742 0.2076312 0.4959742 0.2076312 0.5207255 0.1579627 0.4720596 0.1966683 0.4959742 0.2076312 0.4720596 0.1966683 0.4195753 0.2668343 0.5695924 0.1966683 0.5458706 0.2076503 0.6222241 0.2668735 0.5883477 0.2763236 0.6222241 0.2668735 0.5458706 0.2076503 0.6222241 0.2668735 0.658522 0.2499933 0.5695924 0.1966683 0.6959576 0.3447305 0.6222241 0.2668735 0.5883477 0.2763236 0.635832 0.355835 0.6959576 0.3447305 0.5883477 0.2763236 0.7643582 0.3225889 0.658522 0.2499933 0.6222241 0.2668735 0.6959576 0.3447305 0.7643582 0.3225889 0.6222241 0.2668735 0.7767997 0.4572268 0.6959576 0.3447305 0.635832 0.355835 0.6890848 0.4651678 0.7767997 0.4572268 0.635832 0.355835 0.8824862 0.4382717 0.7643582 0.3225889 0.6959576 0.3447305 0.7767997 0.4572268 0.8824862 0.4382717 0.6959576 0.3447305 0.8260164 0.5637978 0.7767997 0.4572268 0.6890848 0.4651678 0.7232163 0.5685552 0.8260164 0.5637978 0.6890848 0.4651678 0.9516651 0.5500137 0.8824862 0.4382717 0.7767997 0.4572268 0.8260164 0.5637978 0.9516651 0.5500137 0.7767997 0.4572268 0.8488774 0.6582577 0.8260164 0.5637978 0.7232163 0.5685552 0.740006 0.6583004 0.8488774 0.6582577 0.7232163 0.5685552 0.9809916 0.6451831 0.9516651 0.5500137 0.8260164 0.5637978 0.8488774 0.6582577 0.9809916 0.6451831 0.8260164 0.5637978 0.8539407 0.7166554 0.8488774 0.6582577 0.740006 0.6583004 0.7447057 0.720611 0.8539407 0.7166554 0.740006 0.6583004 0.9861319 0.7147173 0.9809916 0.6451831 0.8488774 0.6582577 0.8539407 0.7166554 0.9861319 0.7147173 0.8488774 0.6582577 0.8472282 0.7908002 0.8539407 0.7166554 0.7447057 0.720611 0.7414771 0.7928507 0.8472282 0.7908002 0.7447057 0.720611 0.9728794 0.8018639 0.9861319 0.7147173 0.8539407 0.7166554 0.8472282 0.7908002 0.9728794 0.8018639 0.8539407 0.7166554 0.8299326 0.8667035 0.8472282 0.7908002 0.7414771 0.7928507 0.7324784 0.8663148 0.8299326 0.8667035 0.7414771 0.7928507 0.9406196 0.8889063 0.9728794 0.8018639 0.8472282 0.7908002 0.8299326 0.8667035 0.9406196 0.8889063 0.8472282 0.7908002 0.7986881 0.9563857 0.8299326 0.8667035 0.7324784 0.8663148 0.7183747 0.9521356 0.7986881 0.9563857 0.7324784 0.8663148 0.8837255 0.984946 0.9406196 0.8889063 0.8299326 0.8667035 0.7986881 0.9563857 0.8837255 0.984946 0.8299326 0.8667035 0.7447057 0.720611 0.740006 0.6583004 0.6386665 0.6806178 0.6386665 0.6806178 0.740006 0.6583004 0.6310942 0.5961869 0.6386665 0.6806178 0.6310942 0.5961869 0.520784 0.6189187 0.520784 0.6189187 0.6310942 0.5961869 0.520784 0.5283704 0.6310942 0.5961869 0.6141929 0.4971134 0.520784 0.5283704 0.520784 0.5283704 0.6141929 0.4971134 0.520784 0.4088582 0.6141929 0.4971134 0.5857697 0.3828108 0.520784 0.4088582 0.520784 0.4088582 0.5857697 0.3828108 0.520784 0.3085606 0.5857697 0.3828108 0.5591458 0.2932186 0.520784 0.3085606 0.520784 0.3085606 0.5591458 0.2932186 0.520784 0.2182301 0.5857697 0.3828108 0.635832 0.355835 0.5591458 0.2932186 0.635832 0.355835 0.5883477 0.2763236 0.5591458 0.2932186 0.5591458 0.2932186 0.5883477 0.2763236 0.5458706 0.2076503 0.5458706 0.2076503 0.520784 0.2182301 0.5591458 0.2932186 0.6890848 0.4651678 0.635832 0.355835 0.5857697 0.3828108 0.6141929 0.4971134 0.6890848 0.4651678 0.5857697 0.3828108 0.7232163 0.5685552 0.6890848 0.4651678 0.6141929 0.4971134 0.6310942 0.5961869 0.7232163 0.5685552 0.6141929 0.4971134 0.520784 0.6880237 0.6386665 0.6806178 0.520784 0.6189187 0.740006 0.6583004 0.7232163 0.5685552 0.6310942 0.5961869 0.4826332 0.2931892 0.520784 0.3085606 0.520784 0.2182301 0.4558108 0.3827856 0.520784 0.4088582 0.520784 0.3085606 0.4826332 0.2931892 0.4558108 0.3827856 0.520784 0.3085606 0.405619 0.3557903 0.4558108 0.3827856 0.4826332 0.2931892 0.4534443 0.2762716 0.405619 0.3557903 0.4826332 0.2931892 0.3456376 0.3447305 0.405619 0.3557903 0.4534443 0.2762716 0.4195753 0.2668343 0.3456376 0.3447305 0.4534443 0.2762716 0.2770928 0.3225889 0.3456376 0.3447305 0.4195753 0.2668343 0.3831097 0.24994 0.2770928 0.3225889 0.4195753 0.2668343 0.3456376 0.3447305 0.2647518 0.4572268 0.405619 0.3557903 0.2647518 0.4572268 0.3524637 0.4651023 0.405619 0.3557903 0.405619 0.3557903 0.3524637 0.4651023 0.4558108 0.3827856 0.1589648 0.4382717 0.2647518 0.4572268 0.3456376 0.3447305 0.2770928 0.3225889 0.1589648 0.4382717 0.3456376 0.3447305 0.2647518 0.4572268 0.2154935 0.5637978 0.3524637 0.4651023 0.2154935 0.5637978 0.3182347 0.5683972 0.3524637 0.4651023 0.08978593 0.5500137 0.2154935 0.5637978 0.2647518 0.4572268 0.1589648 0.4382717 0.08978593 0.5500137 0.2647518 0.4572268 0.2154935 0.5637978 0.1925957 0.6582577 0.3182347 0.5683972 0.1925957 0.6582577 0.3014894 0.658129 0.3182347 0.5683972 0.06045937 0.6451831 0.1925957 0.6582577 0.2154935 0.5637978 0.08978593 0.5500137 0.06045937 0.6451831 0.2154935 0.5637978 0.1925957 0.6582577 0.1875095 0.7166554 0.3014894 0.658129 0.1875095 0.7166554 0.296743 0.7204358 0.3014894 0.658129 0.05531907 0.7147173 0.1875095 0.7166554 0.1925957 0.6582577 0.06045937 0.6451831 0.05531907 0.7147173 0.1925957 0.6582577 0.1875095 0.7166554 0.1942228 0.7908002 0.296743 0.7204358 0.1942228 0.7908002 0.2999126 0.7928507 0.296743 0.7204358 0.06857156 0.8018639 0.1942228 0.7908002 0.1875095 0.7166554 0.05531907 0.7147173 0.06857156 0.8018639 0.1875095 0.7166554 0.1942228 0.7908002 0.2113991 0.8667035 0.2999126 0.7928507 0.2113991 0.8667035 0.3089131 0.8662318 0.2999126 0.7928507 0.1008314 0.8889063 0.2113991 0.8667035 0.1942228 0.7908002 0.06857156 0.8018639 0.1008314 0.8889063 0.1942228 0.7908002 0.2113991 0.8667035 0.2427629 0.9563857 0.3089131 0.8662318 0.2427629 0.9563857 0.3230763 0.9521356 0.3089131 0.8662318 0.1577254 0.984946 0.2427629 0.9563857 0.2113991 0.8667035 0.1008314 0.8889063 0.1577254 0.984946 0.2113991 0.8667035 0.3014894 0.658129 0.296743 0.7204358 0.4027981 0.6805257 0.3014894 0.658129 0.4027981 0.6805257 0.4103568 0.5961007 0.4103568 0.5961007 0.4027981 0.6805257 0.520784 0.6189187 0.4103568 0.5961007 0.520784 0.6189187 0.520784 0.5283704 0.4273433 0.497077 0.4103568 0.5961007 0.520784 0.5283704 0.4273433 0.497077 0.520784 0.5283704 0.520784 0.4088582 0.4558108 0.3827856 0.4273433 0.497077 0.520784 0.4088582 0.3524637 0.4651023 0.4273433 0.497077 0.4558108 0.3827856 0.3182347 0.5683972 0.4103568 0.5961007 0.4273433 0.497077 0.3524637 0.4651023 0.3182347 0.5683972 0.4273433 0.497077 0.4027981 0.6805257 0.520784 0.6880237 0.520784 0.6189187 0.3182347 0.5683972 0.3014894 0.658129 0.4103568 0.5961007 0.4027981 0.6805257 0.4017074 0.7323776 0.520784 0.6880237 0.4017074 0.7323776 0.520784 0.7367505 0.520784 0.6880237 0.520784 0.7367505 0.6397368 0.7324706 0.520784 0.6880237 0.6397368 0.7324706 0.6386665 0.6806178 0.520784 0.6880237 0.6397368 0.7324706 0.7447057 0.720611 0.6386665 0.6806178 0.6394119 0.7983256 0.6397368 0.7324706 0.520784 0.7367505 0.520784 0.8003186 0.6394119 0.7983256 0.520784 0.7367505 0.7414771 0.7928507 0.7447057 0.720611 0.6397368 0.7324706 0.6394119 0.7983256 0.7414771 0.7928507 0.6397368 0.7324706 0.636036 0.8678973 0.6394119 0.7983256 0.520784 0.8003186 0.520784 0.8698317 0.636036 0.8678973 0.520784 0.8003186 0.7324784 0.8663148 0.7414771 0.7928507 0.6394119 0.7983256 0.636036 0.8678973 0.7324784 0.8663148 0.6394119 0.7983256 0.632944 0.9546524 0.636036 0.8678973 0.520784 0.8698317 0.5207255 0.965442 0.632944 0.9546524 0.520784 0.8698317 0.7183747 0.9521356 0.7324784 0.8663148 0.636036 0.8678973 0.632944 0.9546524 0.7183747 0.9521356 0.636036 0.8678973 0.4020063 0.7982327 0.520784 0.8003186 0.520784 0.7367505 0.4017074 0.7323776 0.4020063 0.7982327 0.520784 0.7367505 0.2999126 0.7928507 0.4020063 0.7982327 0.4017074 0.7323776 0.296743 0.7204358 0.2999126 0.7928507 0.4017074 0.7323776 0.405415 0.8678521 0.520784 0.8698317 0.520784 0.8003186 0.4020063 0.7982327 0.405415 0.8678521 0.520784 0.8003186 0.3089131 0.8662318 0.405415 0.8678521 0.4020063 0.7982327 0.2999126 0.7928507 0.3089131 0.8662318 0.4020063 0.7982327 0.408507 0.9546524 0.5207255 0.965442 0.520784 0.8698317 0.405415 0.8678521 0.408507 0.9546524 0.520784 0.8698317 0.3230763 0.9521356 0.408507 0.9546524 0.405415 0.8678521 0.3089131 0.8662318 0.3230763 0.9521356 0.405415 0.8678521 0.296743 0.7204358 0.4017074 0.7323776 0.4027981 0.6805257 0.8472282 0.7908002 0.8539407 0.7166554 0.7447057 0.7204358 0.7415384 0.7928507 0.8472282 0.7908002 0.7447057 0.7204358 0.8472282 0.7908002 0.9728794 0.8018639 0.8539407 0.7166554 0.8300519 0.8667035 0.8472282 0.7908002 0.7415384 0.7928507 0.7325974 0.8663148 0.8300519 0.8667035 0.7415384 0.7928507 0.9406196 0.8889063 0.9728794 0.8018639 0.8472282 0.7908002 0.8300519 0.8667035 0.9406196 0.8889063 0.8472282 0.7908002 0.7986881 0.9563857 0.8300519 0.8667035 0.7325974 0.8663148 0.7183747 0.9521356 0.7986881 0.9563857 0.7325974 0.8663148 0.8837255 0.984946 0.9406196 0.8889063 0.8300519 0.8667035 0.7986881 0.9563857 0.8837255 0.984946 0.8300519 0.8667035 0.7415384 0.7928507 0.7447057 0.7204358 0.6397368 0.7323776 0.6394119 0.7982327 0.7415384 0.7928507 0.6397368 0.7323776 0.7325974 0.8663148 0.7415384 0.7928507 0.6394119 0.7982327 0.6394119 0.7982327 0.6397368 0.7323776 0.520667 0.7367505 0.520667 0.8003186 0.6394119 0.7982327 0.520667 0.7367505 0.636036 0.8678973 0.6394119 0.7982327 0.520667 0.8003186 0.636036 0.8678973 0.7325974 0.8663148 0.6394119 0.7982327 0.7183747 0.9521356 0.7325974 0.8663148 0.636036 0.8678973 0.520667 0.8698317 0.636036 0.8678973 0.520667 0.8003186 0.632944 0.9546524 0.636036 0.8678973 0.520667 0.8698317 0.632944 0.9546524 0.7183747 0.9521356 0.636036 0.8678973 0.5207255 0.965442 0.632944 0.9546524 0.520667 0.8698317 0.8455597 0.2378414 0.9153328 0.05477333 0.7996704 0.176446 0.9153327 0.2953986 0.9153328 0.05477333 0.8455597 0.2378414 0.7996704 0.176446 0.9153328 0.05477333 0.7453804 0.1267355 0.7453804 0.1267355 0.9153328 0.05477333 0.6979258 0.05477333 0.9153328 0.05477333 0.8455597 0.2378414 0.7996704 0.176446 0.9153328 0.05477333 0.9153327 0.2953986 0.8455597 0.2378414 0.9153328 0.05477333 0.7996704 0.176446 0.7453804 0.1267355 0.9153328 0.05477333 0.7453804 0.1267355 0.6979258 0.05477333 0.7996704 0.176446 0.9153328 0.05477333 0.8455597 0.2378416 0.8455597 0.2378416 0.9153328 0.05477333 0.9153328 0.2953986 0.7453804 0.1267354 0.9153328 0.05477333 0.7996704 0.176446 0.6979258 0.05477333 0.9153328 0.05477333 0.7453804 0.1267354 0.9153328 0.05477333 0.7996704 0.176446 0.8455597 0.2378416 0.9153328 0.05477333 0.8455597 0.2378416 0.9153328 0.2953986 0.9153328 0.05477333 0.7453804 0.1267354 0.7996704 0.176446 0.9153328 0.05477333 0.6979258 0.05477333 0.7453804 0.1267354 0.1670593 0.1074213 0.1670592 0.008944928 0.01317322 0.1074213 0.1670591 0.2103911 0.1670593 0.1074213 0.01317322 0.1074213 0.2640385 0.1074213 0.2640386 0.07561457 0.1670592 0.008944928 0.1670593 0.1074213 0.2640385 0.1074213 0.1670592 0.008944928 0.2640385 0.1437214 0.2640385 0.1074213 0.1670593 0.1074213 0.1670591 0.2103911 0.2640385 0.1437214 0.1670593 0.1074213 0.361953 0.1074213 0.3619531 0.0256868 0.2640386 0.07561457 0.2640385 0.1074213 0.361953 0.1074213 0.2640386 0.07561457 0.3619531 0.1936492 0.361953 0.1074213 0.2640385 0.1074213 0.2640385 0.1437214 0.3619531 0.1936492 0.2640385 0.1074213 0.4569292 0.1074213 0.5515403 0.1074213 0.4569292 0.05507934 0.4569292 0.1074213 0.4569292 0.05507934 0.3619531 0.0256868 0.361953 0.1074213 0.4569292 0.1074213 0.3619531 0.0256868 0.4569292 0.1642566 0.5515403 0.1074213 0.4569292 0.1074213 0.4569292 0.1642566 0.4569292 0.1074213 0.361953 0.1074213 0.3619531 0.1936492 0.4569292 0.1642566 0.361953 0.1074213 0.4959742 0.2076312 0.4534443 0.2762716 0.4826332 0.2931892 0.4195753 0.2668343 0.4534443 0.2762716 0.4959742 0.2076312 0.520784 0.2182301 0.4959742 0.2076312 0.4826332 0.2931892 0.4720596 0.1966683 0.3831097 0.24994 0.4195753 0.2668343 0.1670592 0.2103911 0.1670593 0.1074213 0.01317322 0.1074213 0.1670593 0.1074213 0.1670591 0.008944928 0.01317322 0.1074213 0.2640385 0.1074213 0.1670593 0.1074213 0.1670592 0.2103911 0.2640386 0.1437214 0.2640385 0.1074213 0.1670592 0.2103911 0.2640385 0.07561457 0.1670591 0.008944928 0.1670593 0.1074213 0.2640385 0.1074213 0.2640385 0.07561457 0.1670593 0.1074213 0.361953 0.1074213 0.2640385 0.1074213 0.2640386 0.1437214 0.3619531 0.1936492 0.361953 0.1074213 0.2640386 0.1437214 0.3619531 0.0256868 0.2640385 0.07561457 0.2640385 0.1074213 0.361953 0.1074213 0.3619531 0.0256868 0.2640385 0.1074213 0.5515403 0.1074213 0.4569292 0.1074213 0.4569292 0.1642566 0.4569292 0.1642566 0.4569292 0.1074213 0.3619531 0.1936492 0.4569292 0.1074213 0.361953 0.1074213 0.3619531 0.1936492 0.5515403 0.1074213 0.4569292 0.05507934 0.4569292 0.1074213 0.4569292 0.1074213 0.4569292 0.05507934 0.361953 0.1074213 0.4569292 0.05507934 0.3619531 0.0256868 0.361953 0.1074213</float_array>
          <technique_common>
            <accessor source="#SkillObj_OverGrow_Seed_Model-mesh-map-0-array" count="1008" stride="2">
              <param name="S" type="float"/>
              <param name="T" type="float"/>
            </accessor>
          </technique_common>
        </source>
        <vertices id="SkillObj_OverGrow_Seed_Model-mesh-vertices">
          <input semantic="POSITION" source="#SkillObj_OverGrow_Seed_Model-mesh-positions"/>
        </vertices>
        <triangles material="Default_OBJ-material" count="336">
          <input semantic="VERTEX" source="#SkillObj_OverGrow_Seed_Model-mesh-vertices" offset="0"/>
          <input semantic="NORMAL" source="#SkillObj_OverGrow_Seed_Model-mesh-normals" offset="1"/>
          <input semantic="TEXCOORD" source="#SkillObj_OverGrow_Seed_Model-mesh-map-0" offset="2" set="0"/>
          <p>0 0 0 1 1 1 2 2 2 0 0 3 3 3 4 1 1 5 3 3 6 4 4 7 1 1 8 5 5 9 3 3 10 0 0 11 6 6 12 5 5 13 0 0 14 7 7 15 6 6 16 0 0 17 2 2 18 7 7 19 0 0 20 3 3 21 8 8 22 4 4 23 8 8 24 9 9 25 4 4 26 10 10 27 8 8 28 3 3 29 5 5 30 10 10 31 3 3 32 8 8 33 11 11 34 9 9 35 11 11 36 12 12 37 9 9 38 13 13 39 11 11 40 8 8 41 10 10 42 13 13 43 8 8 44 11 11 45 14 14 46 12 12 47 14 14 48 15 15 49 12 12 50 16 16 51 14 14 52 11 11 53 13 13 54 16 16 55 11 11 56 14 14 57 17 17 58 15 15 59 17 17 60 18 18 61 15 15 62 19 19 63 17 17 64 14 14 65 16 16 66 19 19 67 14 14 68 17 17 69 20 20 70 18 18 71 20 20 72 21 21 73 18 18 74 22 22 75 20 20 76 17 17 77 19 19 78 22 22 79 17 17 80 20 20 81 23 23 82 21 21 83 23 23 84 24 24 85 21 21 86 25 25 87 23 23 88 20 20 89 22 22 90 25 25 91 20 20 92 23 23 93 26 26 94 24 24 95 26 26 96 27 27 97 24 24 98 28 28 99 26 26 100 23 23 101 25 25 102 28 28 103 23 23 104 15 15 105 18 18 106 29 29 107 15 15 108 29 29 109 30 30 110 30 30 111 29 29 112 31 31 113 30 30 114 31 31 115 32 32 116 33 33 117 30 30 118 32 32 119 33 33 120 32 32 121 34 34 122 35 35 123 33 33 124 34 34 125 35 35 126 34 34 127 36 36 128 37 37 129 35 35 130 36 36 131 4 4 132 35 35 133 37 37 134 1 1 135 4 4 136 37 37 137 9 9 138 33 33 139 35 35 140 4 4 141 9 9 142 35 35 143 12 12 144 30 30 145 33 33 146 9 9 147 12 12 148 33 33 149 29 29 150 38 38 151 31 31 152 12 12 153 15 15 154 30 30 155 29 29 156 39 39 157 38 38 158 39 39 159 40 40 160 38 38 161 39 39 162 41 41 163 40 40 164 41 41 165 42 42 166 40 40 167 21 21 168 41 41 169 39 39 170 18 18 171 21 21 172 39 39 173 18 18 174 39 39 175 29 29 176 41 41 177 43 43 178 42 42 179 43 43 180 44 44 181 42 42 182 24 24 183 43 43 184 41 41 185 21 21 186 24 24 187 41 41 188 43 43 189 45 45 190 44 44 191 45 45 192 46 46 193 44 44 194 27 27 195 45 45 196 43 43 197 24 24 198 27 27 199 43 43 200 40 40 201 47 47 202 38 38 203 47 47 204 48 48 205 38 38 206 47 47 207 49 49 208 48 48 209 49 49 210 50 50 211 48 48 212 49 49 213 51 51 214 50 50 215 51 51 216 52 52 217 50 50 218 50 50 219 52 52 220 53 53 221 52 52 222 54 54 223 53 53 224 53 53 225 54 54 226 55 55 227 54 54 228 56 56 229 55 55 230 55 55 231 56 56 232 57 57 233 56 56 234 58 58 235 57 57 236 57 57 237 58 58 238 59 59 239 58 58 240 60 60 241 59 59 242 58 58 243 61 61 244 60 60 245 61 61 246 62 62 247 60 60 248 63 63 249 61 61 250 58 58 251 56 56 252 63 63 253 58 58 254 64 64 255 63 63 256 56 56 257 54 54 258 64 64 259 56 56 260 65 65 261 64 64 262 54 54 263 52 52 264 65 65 265 54 54 266 66 66 267 65 65 268 52 52 269 51 51 270 66 66 271 52 52 272 67 67 273 66 66 274 51 51 275 57 57 276 59 59 277 68 68 278 69 69 279 57 57 280 68 68 281 55 55 282 57 57 283 69 69 284 69 69 285 68 68 286 36 36 287 34 34 288 69 69 289 36 36 290 70 70 291 69 69 292 34 34 293 32 32 294 70 70 295 34 34 296 70 70 297 55 55 298 69 69 299 71 71 300 70 70 301 32 32 302 31 31 303 71 71 304 32 32 305 53 53 306 55 55 307 70 70 308 71 71 309 53 53 310 70 70 311 48 48 312 71 71 313 31 31 314 38 38 315 48 48 316 31 31 317 50 50 318 53 53 319 71 71 320 48 48 321 50 50 322 71 71 323 36 36 324 68 68 325 72 72 326 73 73 327 72 72 328 68 68 329 73 73 330 74 74 331 72 72 332 72 72 333 74 74 334 2 2 335 2 2 336 74 74 337 7 7 338 72 72 339 2 2 340 37 37 341 75 75 342 74 74 343 73 73 344 75 75 345 73 73 346 60 60 347 2 2 348 1 1 349 37 37 350 37 37 351 36 36 352 72 72 353 59 59 354 60 60 355 73 73 356 68 68 357 59 59 358 73 73 359 60 60 360 62 62 361 75 75 362 76 76 363 74 77 364 77 78 365 77 78 366 74 77 367 78 79 368 78 79 369 74 77 370 79 80 371 79 80 372 74 77 373 80 81 374 79 80 375 80 81 376 81 82 377 76 76 378 77 78 379 82 83 380 83 84 381 82 83 382 77 78 383 82 83 384 84 85 385 76 76 386 85 86 387 82 83 388 83 84 389 86 87 390 85 86 391 83 84 392 87 88 393 84 85 394 82 83 395 85 86 396 87 88 397 82 83 398 88 89 399 85 86 400 86 87 401 89 90 402 88 89 403 86 87 404 90 91 405 87 88 406 85 86 407 88 89 408 90 91 409 85 86 410 91 92 411 88 89 412 89 90 413 92 93 414 91 92 415 89 90 416 93 94 417 90 91 418 88 89 419 91 92 420 93 94 421 88 89 422 94 95 423 91 92 424 92 93 425 95 96 426 94 95 427 92 93 428 96 97 429 93 94 430 91 92 431 94 95 432 96 97 433 91 92 434 97 98 435 94 95 436 95 96 437 98 99 438 97 98 439 95 96 440 99 100 441 96 97 442 94 95 443 97 98 444 99 100 445 94 95 446 100 101 447 97 98 448 98 99 449 101 102 450 100 101 451 98 99 452 102 103 453 99 100 454 97 98 455 100 101 456 102 103 457 97 98 458 103 104 459 100 101 460 101 102 461 104 105 462 103 104 463 101 102 464 105 106 465 102 103 466 100 101 467 103 104 468 105 106 469 100 101 470 106 107 471 103 104 472 104 105 473 107 108 474 106 107 475 104 105 476 108 109 477 105 106 478 103 104 479 106 107 480 108 109 481 103 104 482 98 99 483 95 96 484 109 110 485 109 110 486 95 96 487 110 111 488 109 110 489 110 111 490 111 112 491 111 112 492 110 111 493 112 113 494 110 111 495 113 114 496 112 113 497 112 113 498 113 114 499 114 115 500 113 114 501 115 116 502 114 115 503 114 115 504 115 116 505 116 117 506 115 116 507 117 118 508 116 117 509 116 117 510 117 118 511 78 79 512 115 116 513 86 87 514 117 118 515 86 87 516 83 84 517 117 118 518 117 118 519 83 84 520 77 78 521 77 78 522 78 79 523 117 118 524 89 90 525 86 87 526 115 116 527 113 114 528 89 90 529 115 116 530 92 93 531 89 90 532 113 114 533 110 111 534 92 93 535 113 114 536 118 119 537 109 110 538 111 112 539 95 96 540 92 93 541 110 111 542 119 120 543 116 117 544 78 79 545 120 121 546 114 115 547 116 117 548 119 120 549 120 121 550 116 117 551 121 122 552 120 121 553 119 120 554 122 123 555 121 122 556 119 120 557 123 124 558 121 122 559 122 123 560 81 82 561 123 124 562 122 123 563 124 125 564 123 124 565 81 82 566 125 126 567 124 125 568 81 82 569 123 124 570 126 127 571 121 122 572 126 127 573 127 128 574 121 122 575 121 122 576 127 128 577 120 121 578 128 129 579 126 127 580 123 124 581 124 125 582 128 129 583 123 124 584 126 127 585 129 130 586 127 128 587 129 130 588 130 131 589 127 128 590 131 132 591 129 130 592 126 127 593 128 129 594 131 132 595 126 127 596 129 130 597 132 133 598 130 131 599 132 133 600 133 134 601 130 131 602 134 135 603 132 133 604 129 130 605 131 132 606 134 135 607 129 130 608 132 133 609 135 136 610 133 134 611 135 136 612 136 137 613 133 134 614 137 138 615 135 136 616 132 133 617 134 135 618 137 138 619 132 133 620 135 136 621 138 139 622 136 137 623 138 139 624 139 140 625 136 137 626 140 141 627 138 139 628 135 136 629 137 138 630 140 141 631 135 136 632 138 139 633 141 142 634 139 140 635 141 142 636 142 143 637 139 140 638 143 144 639 141 142 640 138 139 641 140 141 642 143 144 643 138 139 644 141 142 645 144 145 646 142 143 647 144 145 648 145 146 649 142 143 650 146 147 651 144 145 652 141 142 653 143 144 654 146 147 655 141 142 656 133 134 657 136 137 658 147 148 659 133 134 660 147 148 661 148 149 662 148 149 663 147 148 664 111 112 665 148 149 666 111 112 667 112 113 668 149 150 669 148 149 670 112 113 671 149 150 672 112 113 673 114 115 674 120 121 675 149 150 676 114 115 677 127 128 678 149 150 679 120 121 680 130 131 681 148 149 682 149 150 683 127 128 684 130 131 685 149 150 686 147 148 687 118 119 688 111 112 689 130 131 690 133 134 691 148 149 692 147 148 693 150 151 694 118 119 695 150 151 696 151 152 697 118 119 698 151 152 699 152 153 700 118 119 701 152 153 702 109 110 703 118 119 704 152 153 705 98 99 706 109 110 707 153 154 708 152 153 709 151 152 710 154 155 711 153 154 712 151 152 713 101 102 714 98 99 715 152 153 716 153 154 717 101 102 718 152 153 719 155 156 720 153 154 721 154 155 722 156 157 723 155 156 724 154 155 725 104 105 726 101 102 727 153 154 728 155 156 729 104 105 730 153 154 731 157 158 732 155 156 733 156 157 734 158 159 735 157 158 736 156 157 737 107 108 738 104 105 739 155 156 740 157 158 741 107 108 742 155 156 743 159 160 744 154 155 745 151 152 746 150 151 747 159 160 748 151 152 749 139 140 750 159 160 751 150 151 752 136 137 753 139 140 754 150 151 755 160 161 756 156 157 757 154 155 758 159 160 759 160 161 760 154 155 761 142 143 762 160 161 763 159 160 764 139 140 765 142 143 766 159 160 767 161 162 768 158 159 769 156 157 770 160 161 771 161 162 772 156 157 773 145 146 774 161 162 775 160 161 776 142 143 777 145 146 778 160 161 779 136 137 780 150 151 781 147 148 782 162 163 783 51 51 784 49 49 785 163 164 786 162 163 787 49 49 788 162 163 789 67 67 790 51 51 791 164 165 792 162 163 793 163 164 794 165 166 795 164 165 796 163 164 797 166 167 798 67 67 799 162 163 800 164 165 801 166 167 802 162 163 803 167 168 804 164 165 805 165 166 806 168 169 807 167 168 808 165 166 809 169 170 810 166 167 811 164 165 812 167 168 813 169 170 814 164 165 815 163 164 816 49 49 817 47 47 818 170 171 819 163 164 820 47 47 821 165 166 822 163 164 823 170 171 824 170 171 825 47 47 826 40 40 827 42 42 828 170 171 829 40 40 830 171 172 831 170 171 832 42 42 833 171 172 834 165 166 835 170 171 836 168 169 837 165 166 838 171 172 839 44 44 840 171 172 841 42 42 842 172 173 843 171 172 844 44 44 845 172 173 846 168 169 847 171 172 848 46 46 849 172 173 850 44 44 851 173 174 852 174 175 853 175 176 854 176 177 855 174 175 856 173 174 857 175 176 858 174 175 859 177 178 860 177 178 861 174 175 862 178 179 863 174 180 864 179 181 865 180 182 866 174 180 867 181 183 868 179 181 869 174 180 870 180 182 871 182 184 872 174 180 873 182 184 874 183 185 875 184 186 876 185 187 877 186 188 878 186 188 879 185 187 880 187 189 881 188 190 882 185 187 883 184 186 884 189 191 885 185 187 886 188 190 887 185 192 888 190 193 889 191 194 890 185 192 891 191 194 892 192 195 893 185 192 894 193 196 895 190 193 896 185 192 897 194 197 898 193 196 899 195 198 900 196 198 901 197 198 902 198 199 903 199 199 904 200 199 905 201 200 906 202 201 907 203 202 908 204 203 909 201 200 910 203 202 911 205 204 912 206 205 913 207 206 914 208 207 915 205 204 916 207 206 917 209 208 918 210 209 919 211 210 920 212 211 921 209 208 922 211 210 923 213 212 924 214 213 925 215 214 926 216 215 927 213 212 928 215 214 929 217 216 930 218 217 931 219 218 932 217 216 933 219 218 934 220 219 935 221 220 936 217 216 937 220 219 938 222 221 939 223 222 940 224 223 941 222 221 942 224 223 943 225 224 944 226 225 945 222 221 946 225 224 947 79 80 948 122 123 949 119 120 950 81 82 951 122 123 952 79 80 953 78 79 954 79 80 955 119 120 956 80 81 957 125 126 958 81 82 959 227 226 960 228 226 961 229 226 962 230 227 963 231 227 964 232 227 965 233 228 966 234 229 967 235 230 968 236 231 969 233 228 970 235 230 971 237 232 972 238 233 973 239 234 974 240 235 975 237 232 976 239 234 977 241 236 978 242 237 979 243 238 980 244 239 981 241 236 982 243 238 983 245 240 984 246 241 985 247 242 986 248 243 987 245 240 988 247 242 989 249 244 990 250 245 991 251 246 992 251 246 993 250 245 994 252 247 995 250 245 996 253 248 997 252 247 998 254 249 999 255 250 1000 256 251 1001 256 251 1002 255 250 1003 257 252 1004 255 250 1005 258 253 1006 257 252 1007</p>
        </triangles>
      </mesh>
    </geometry>
  </library_geometries>
  <library_visual_scenes>
    <visual_scene id="Scene" name="Scene"/>
  </library_visual_scenes>
  <scene>
    <instance_visual_scene url="#Scene"/>
  </scene>
</COLLADA>