<?xml version="1.0" encoding="utf-8"?>
<COLLADA xmlns="http://www.collada.org/2005/11/COLLADASchema" version="1.4.1" xmlns:xsi="http://www.w3.org/2001/XMLSchema-instance">
  <asset>
    <contributor>
      <author>Blender User</author>
      <authoring_tool>Blender 3.4.0 commit date:2022-12-06, commit time:18:46, hash:a95bf1ac01be</authoring_tool>
    </contributor>
    <created>2023-09-29T23:16:02</created>
    <modified>2023-09-29T23:16:02</modified>
    <unit name="meter" meter="1"/>
    <up_axis>Z_UP</up_axis>
  </asset>
  <library_effects>
    <effect id="Default_OBJ_002-effect">
      <profile_COMMON>
        <technique sid="common">
          <lambert>
            <emission>
              <color sid="emission">0 0 0 1</color>
            </emission>
            <diffuse>
              <color sid="diffuse">0.8 0.8 0.8 1</color>
            </diffuse>
            <reflectivity>
              <float sid="specular">0.5</float>
            </reflectivity>
          </lambert>
        </technique>
      </profile_COMMON>
    </effect>
  </library_effects>
  <library_images/>
  <library_materials>
    <material id="Default_OBJ_002-material" name="Default OBJ.002">
      <instance_effect url="#Default_OBJ_002-effect"/>
    </material>
  </library_materials>
  <library_geometries>
    <geometry id="SkillObj_OverGrow_Seed2_Model-mesh" name="SkillObj_OverGrow_Seed2_Model">
      <mesh>
        <source id="SkillObj_OverGrow_Seed2_Model-mesh-positions">
          <float_array id="SkillObj_OverGrow_Seed2_Model-mesh-positions-array" count="1779">0 0.3490722 -0.1565564 0.01471799 0.3517898 -0.1528741 0 0.3700289 -0.1602455 0 0.3289023 -0.1476441 0.03149175 0.3352883 -0.1400288 0.02294999 0.3156303 -0.1313364 -0.01471799 0.3517898 -0.1528741 -0.03149175 0.3352883 -0.1400288 0.04763484 0.3206294 -0.1247734 -0.02295023 0.3156316 -0.1313372 -0.04763484 0.3206294 -0.1247734 0 0.3111868 -0.1337382 0.02901542 0.3015444 -0.117154 0 0.2964288 -0.118803 -0.02902007 0.3015555 -0.1171488 0.02445089 0.2825371 -0.09688627 0.04933226 0.2897552 -0.09461033 0.02679836 0.2713927 -0.07326275 0 0.2805108 -0.09804886 0 0.2667427 -0.07103604 0.005129456 0.2626653 -0.05735719 0.05230766 0.2801675 -0.07400858 0.07396721 0.2938954 -0.07440024 0.07252824 0.2850992 -0.05698472 0.0544824 0.2719122 -0.04740798 0.06097179 0.3106563 -0.1102904 0.07005536 0.3016105 -0.09238082 0.03743159 0.2667163 -0.04967427 0.02230042 0.2634458 -0.05339473 0.0266273 0.2614642 -0.03711515 0.01479482 0.2609005 -0.04518622 0.04056328 0.2653598 -0.03397315 0.05494713 0.2709557 -0.03620487 0.06569612 0.2777585 -0.04411345 -0.02679836 0.2713927 -0.07326275 -0.02445089 0.2825447 -0.09688627 -0.04933226 0.2898769 -0.09462165 -0.05230766 0.2801863 -0.07400858 -0.07396721 0.2939046 -0.07440024 -0.07252824 0.2851034 -0.05698472 -0.0544824 0.2719122 -0.04740798 -0.06097179 0.3106613 -0.1102904 -0.07005536 0.3016275 -0.09238082 -0.03743159 0.2667163 -0.04967427 -0.02230042 0.2634444 -0.05339473 -0.0266273 0.2614642 -0.03711515 -0.01479482 0.2609224 -0.04518622 -0.005129456 0.2626609 -0.05735719 -0.04056328 0.2653471 -0.03397315 -0.05494713 0.2709557 -0.03620487 -0.06569612 0.2777585 -0.04411345 -0.00660783 0.08337664 -0.08518141 -0.006762504 0.09630668 -0.08976745 0 0.09468519 -0.09915733 0 0.1114071 -0.1004019 -0.006711781 0.1100564 -0.09030348 0 0.07914543 -0.09311896 0 0.06125706 -0.08152019 -0.006386995 0.06662011 -0.07429885 0 0.01739579 -0.04574173 -0.005666136 0.02308398 -0.03877508 0 -0.02082914 -0.01589035 -0.006671369 0.1231784 -0.08834224 0 0.1268133 -0.09658092 0 0.1476251 -0.08657211 -0.006698369 0.1430016 -0.0815919 0 0.1651591 -0.0746479 -0.006469368 0.1598309 -0.07030546 0 0.1786159 -0.06330233 -0.005932033 0.178068 -0.05187755 0 0.185039 -0.05400037 0 0.1858139 -0.04863679 -0.005790829 0.1773185 -0.04704922 0 0.1834322 -0.04276472 -0.00544095 0.1675677 -0.02672207 0 0.1736817 -0.02234917 -0.00544095 0.1659708 -0.02167189 0 0.1740692 -0.01521784 -0.006775021 0.1665852 -0.0133689 0.005790829 0.1773185 -0.04704922 0 0.1834322 -0.04276472 0 0.1736817 -0.02234917 0.00544095 0.1675677 -0.02672207 0 0.1858139 -0.04863679 0.005932033 0.178068 -0.05187755 0 0.185039 -0.05400037 0 0.1786159 -0.06330233 0.006469368 0.1598309 -0.07030546 0 0.1651591 -0.0746479 0.006698369 0.1430016 -0.0815919 0 0.1476251 -0.08657211 0 0.1268133 -0.09658092 0.006671369 0.1231784 -0.08834224 0 0.1114071 -0.1004019 0.00544095 0.1659708 -0.02167189 0 0.1740692 -0.01521784 0.006775021 0.1665852 -0.0133689 0.006711781 0.1100564 -0.09030348 0.006693124 0.09630668 -0.08976745 0 0.09468519 -0.09915733 0.00660783 0.08337664 -0.08518141 0 0.07914543 -0.09311896 0.006386995 0.06662011 -0.07429885 0 0.06125706 -0.08152019 0.005666136 0.02308398 -0.03877508 0 0.01739579 -0.04574173 0 -0.02082914 -0.01589035 0.004881262 -0.02062618 -0.004881262 0 -0.04339379 0 -0.005790829 0.1773185 -0.04704922 0.005790829 0.1773185 -0.04704922 0.00544095 0.1675677 -0.02672207 -0.00544095 0.1675677 -0.02672207 -0.005932033 0.178068 -0.05187755 0.005932033 0.178068 -0.05187755 -0.006469368 0.1598309 -0.07030546 0.006469368 0.1598309 -0.07030546 -0.006698369 0.1430016 -0.0815919 0.006698369 0.1430016 -0.0815919 -0.006671369 0.1231784 -0.08834224 0.006671369 0.1231784 -0.08834224 -0.006711781 0.1100564 -0.09030348 0.006711781 0.1100564 -0.09030348 0.00544095 0.1659708 -0.02167189 -0.00544095 0.1659708 -0.02167189 -0.006762504 0.09630668 -0.08976745 0.006693124 0.09630668 -0.08976745 -0.00660783 0.08337664 -0.08518141 0.00660783 0.08337664 -0.08518141 -0.006386995 0.06662011 -0.07429885 0.006386995 0.06662011 -0.07429885 -0.005666136 0.02308398 -0.03877508 0.005666136 0.02308398 -0.03877508 -0.004881262 -0.02062618 -0.004881262 0.004881262 -0.02062618 -0.004881262 0 -0.04339379 0 -0.004881262 -0.02062618 -0.004881262 0.006775021 0.1665852 -0.0133689 -0.006775021 0.1665852 -0.0133689 -0.00544095 0.1659708 -0.02167189 0.00544095 0.1659708 -0.02167189 0.08518141 0.08337664 -0.00660783 0.08976745 0.09630668 -0.006762504 0.09915733 0.09468519 0 0.1004019 0.1114071 0 0.09030348 0.1100564 -0.006711781 0.09311896 0.07914543 0 0.08152019 0.06125706 0 0.07429885 0.06662011 -0.006386995 0.04574173 0.01739579 0 0.03877508 0.02308398 -0.005666136 0.01589035 -0.02082914 0 0.08834224 0.1231784 -0.006671369 0.09658092 0.1268133 0 0.08657211 0.1476251 0 0.0815919 0.1430016 -0.006698369 0.0746479 0.1651591 0 0.07030546 0.1598309 -0.006469368 0.06330233 0.1786159 0 0.05187755 0.178068 -0.005932033 0.05400037 0.185039 0 0.04863679 0.1858139 0 0.04704922 0.1773185 -0.005790829 0.04276472 0.1834322 0 0.02672207 0.1675677 -0.00544095 0.02234917 0.1736817 0 0.02167189 0.1659708 -0.00544095 0.01521784 0.1740692 0 0.0133689 0.1665852 -0.006775021 0.04704922 0.1773185 0.005790829 0.04276472 0.1834322 0 0.02234917 0.1736817 0 0.02672207 0.1675677 0.00544095 0.04863679 0.1858139 0 0.05187755 0.178068 0.005932033 0.05400037 0.185039 0 0.06330233 0.1786159 0 0.07030546 0.1598309 0.006469368 0.0746479 0.1651591 0 0.0815919 0.1430016 0.006698369 0.08657211 0.1476251 0 0.09658092 0.1268133 0 0.08834224 0.1231784 0.006671369 0.1004019 0.1114071 0 0.02167189 0.1659708 0.00544095 0.01521784 0.1740692 0 0.0133689 0.1665852 0.006775021 0.09030348 0.1100564 0.006711781 0.08976745 0.09630668 0.006693124 0.09915733 0.09468519 0 0.08518141 0.08337664 0.00660783 0.09311896 0.07914543 0 0.07429885 0.06662011 0.006386995 0.08152019 0.06125706 0 0.03877508 0.02308398 0.005666136 0.04574173 0.01739579 0 0.01589035 -0.02082914 0 0.004881262 -0.02062618 0.004881262 0 -0.04339379 0 0.04704922 0.1773185 -0.005790829 0.04704922 0.1773185 0.005790829 0.02672207 0.1675677 0.00544095 0.02672207 0.1675677 -0.00544095 0.05187755 0.178068 -0.005932033 0.05187755 0.178068 0.005932033 0.07030546 0.1598309 -0.006469368 0.07030546 0.1598309 0.006469368 0.0815919 0.1430016 -0.006698369 0.0815919 0.1430016 0.006698369 0.08834224 0.1231784 -0.006671369 0.08834224 0.1231784 0.006671369 0.09030348 0.1100564 -0.006711781 0.09030348 0.1100564 0.006711781 0.02167189 0.1659708 0.00544095 0.02167189 0.1659708 -0.00544095 0.08976745 0.09630668 -0.006762504 0.08976745 0.09630668 0.006693124 0.08518141 0.08337664 -0.00660783 0.08518141 0.08337664 0.00660783 0.07429885 0.06662011 -0.006386995 0.07429885 0.06662011 0.006386995 0.03877508 0.02308398 -0.005666136 0.03877508 0.02308398 0.005666136 0.004881262 -0.02062618 -0.004881262 0.004881262 -0.02062618 0.004881262 0 -0.04339379 0 0.004881262 -0.02062618 -0.004881262 0.0133689 0.1665852 0.006775021 0.0133689 0.1665852 -0.006775021 0.02167189 0.1659708 -0.00544095 0.02167189 0.1659708 0.00544095 -0.006775021 0.1665852 0.0133689 -0.0133689 0.1665852 0.006775021 -0.02619194 0.1567696 0 0 0.1567696 0.02619194 -0.01521784 0.1740692 0 0 0.1740692 0.01521784 0 0.185035 0.008342444 -0.008342444 0.185035 0 -0.02014392 0.1665852 0 0 0.1665852 0.02014392 0.02619194 0.1567696 0 0.02014392 0.1665852 0 0.0133689 0.1665852 0.006775021 0 0.1567696 0.02619194 0.006775021 0.1665852 0.0133689 0 0.1740692 0.01521784 0.01521784 0.1740692 0 0.008342444 0.185035 0 0 0.185035 0.008342444 0 0.1665852 0.02014392 0 0.2123628 0.02059787 -0.02059787 0.2123628 0 -0.008342444 0.185035 0 0 0.185035 0.008342444 0.02059787 0.2123628 0 0 0.2123628 0.02059787 0 0.185035 0.008342444 0.008342444 0.185035 0 0 0.2405838 0.01336997 0 0.2694151 0 -0.01336997 0.2405838 0 -0.02059787 0.2123628 0 0 0.2123628 0.02059787 0.01336997 0.2405838 0 0 0.2694151 0 0 0.2405838 0.01336997 0 0.2123628 0.02059787 0.02059787 0.2123628 0 -0.02014392 0.1665852 0 -0.0133689 0.1665852 -0.006775021 -0.02619194 0.1567696 0 -0.006775021 0.1665852 -0.0133689 0 0.1740692 -0.01521784 -0.01521784 0.1740692 0 -0.008342444 0.185035 0 0 0.185035 -0.008342444 0 0.1567696 -0.02619194 0 0.1665852 -0.02014392 0 0.1665852 -0.02014392 0.006775021 0.1665852 -0.0133689 0 0.1567696 -0.02619194 0.0133689 0.1665852 -0.006775021 0.01521784 0.1740692 0 0 0.1740692 -0.01521784 0 0.185035 -0.008342444 0.008342444 0.185035 0 0.02619194 0.1567696 0 0.02014392 0.1665852 0 0 0.2123628 -0.02059787 0 0.185035 -0.008342444 -0.008342444 0.185035 0 -0.02059787 0.2123628 0 0.02059787 0.2123628 0 0.008342444 0.185035 0 0 0.185035 -0.008342444 0 0.2123628 -0.02059787 0 0.2694151 0 0 0.2405838 -0.01336997 -0.01336997 0.2405838 0 -0.02059787 0.2123628 0 0 0.2123628 -0.02059787 0 0.2694151 0 0.01336997 0.2405838 0 0 0.2405838 -0.01336997 0 0.2123628 -0.02059787 0.02059787 0.2123628 0 0.00660783 0.08337664 0.08518141 0.006762504 0.09630668 0.08976745 0 0.09468519 0.09915733 0 0.1114071 0.1004019 0.006711781 0.1100564 0.09030348 0 0.07914543 0.09311896 0 0.06125706 0.08152019 0.006386995 0.06662011 0.07429885 0 0.01739579 0.04574173 0.005666136 0.02308398 0.03877508 0 -0.02082914 0.01589035 0.006671369 0.1231784 0.08834224 0 0.1268133 0.09658092 0 0.1476251 0.08947074 0.006698369 0.1430016 0.0815919 0 0.1651591 0.0771473 0.006469368 0.1598309 0.07030546 0 0.1786159 0.06330233 0.005932033 0.178068 0.05187755 0 0.185039 0.05400037 0 0.1858139 0.04863679 0.005790829 0.1773185 0.04704922 0 0.1834322 0.04276472 0.00544095 0.1675677 0.02672207 0 0.1736817 0.02234917 0.00544095 0.1659708 0.02167189 0 0.1740692 0.01521784 0.006775021 0.1665852 0.0133689 -0.005790829 0.1773185 0.04704922 0 0.1834322 0.04276472 0 0.1736817 0.02234917 -0.00544095 0.1675677 0.02672207 0 0.1858139 0.04863679 -0.005932033 0.178068 0.05187755 0 0.185039 0.05400037 0 0.1786159 0.06330233 -0.006469368 0.1598309 0.07030546 0 0.1651591 0.0771473 -0.006698369 0.1430016 0.0815919 0 0.1476251 0.08947074 0 0.1268133 0.09658092 -0.006671369 0.1231784 0.08834224 0 0.1114071 0.1004019 -0.00544095 0.1659708 0.02167189 0 0.1740692 0.01521784 -0.006775021 0.1665852 0.0133689 -0.006711781 0.1100564 0.09030348 -0.006693124 0.09630668 0.08976745 0 0.09468519 0.09915733 -0.00660783 0.08337664 0.08518141 0 0.07914543 0.09311896 -0.006386995 0.06662011 0.07429885 0 0.06125706 0.08152019 -0.005666136 0.02308398 0.03877508 0 0.01739579 0.04574173 0 -0.02082914 0.01589035 -0.004881262 -0.02062618 0.004881262 0 -0.04339379 0 0.005790829 0.1773185 0.04704922 -0.005790829 0.1773185 0.04704922 -0.00544095 0.1675677 0.02672207 0.00544095 0.1675677 0.02672207 0.005932033 0.178068 0.05187755 -0.005932033 0.178068 0.05187755 0.006469368 0.1598309 0.07030546 -0.006469368 0.1598309 0.07030546 0.006698369 0.1430016 0.0815919 -0.006698369 0.1430016 0.0815919 0.006671369 0.1231784 0.08834224 -0.006671369 0.1231784 0.08834224 0.006711781 0.1100564 0.09030348 -0.006711781 0.1100564 0.09030348 -0.00544095 0.1659708 0.02167189 0.00544095 0.1659708 0.02167189 0.006762504 0.09630668 0.08976745 -0.006693124 0.09630668 0.08976745 0.00660783 0.08337664 0.08518141 -0.00660783 0.08337664 0.08518141 0.006386995 0.06662011 0.07429885 -0.006386995 0.06662011 0.07429885 0.005666136 0.02308398 0.03877508 -0.005666136 0.02308398 0.03877508 0.004881262 -0.02062618 0.004881262 -0.004881262 -0.02062618 0.004881262 0 -0.04339379 0 0.004881262 -0.02062618 0.004881262 -0.006775021 0.1665852 0.0133689 0.006775021 0.1665852 0.0133689 0.00544095 0.1659708 0.02167189 -0.00544095 0.1659708 0.02167189 0.004881262 -0.02062618 -0.004881262 -0.004881262 -0.02062618 -0.004881262 -0.004881262 -0.02062618 0.004881262 0.004881262 -0.02062618 0.004881262 -0.08518141 0.08337664 0.00660783 -0.08976745 0.09630668 0.006762504 -0.09915733 0.09468519 0 -0.1004019 0.1114071 0 -0.09030348 0.1100564 0.006711781 -0.09311896 0.07914543 0 -0.08152019 0.06125706 0 -0.07429885 0.06662011 0.006386995 -0.04574173 0.01739579 0 -0.03877508 0.02308398 0.005666136 -0.01589035 -0.02082914 0 -0.08834224 0.1231784 0.006671369 -0.09658092 0.1268133 0 -0.08657211 0.1476251 0 -0.0815919 0.1430016 0.006698369 -0.0746479 0.1651591 0 -0.07030546 0.1598309 0.006469368 -0.06330233 0.1786159 0 -0.05187755 0.178068 0.005932033 -0.05400037 0.185039 0 -0.04863679 0.1858139 0 -0.04704922 0.1773185 0.005790829 -0.04276472 0.1834322 0 -0.02672207 0.1675677 0.00544095 -0.02234917 0.1736817 0 -0.02167189 0.1659708 0.00544095 -0.01521784 0.1740692 0 -0.0133689 0.1665852 0.006775021 -0.04704922 0.1773185 -0.005790829 -0.04276472 0.1834322 0 -0.02234917 0.1736817 0 -0.02672207 0.1675677 -0.00544095 -0.04863679 0.1858139 0 -0.05187755 0.178068 -0.005932033 -0.05400037 0.185039 0 -0.06330233 0.1786159 0 -0.07030546 0.1598309 -0.006469368 -0.0746479 0.1651591 0 -0.0815919 0.1430016 -0.006698369 -0.08657211 0.1476251 0 -0.09658092 0.1268133 0 -0.08834224 0.1231784 -0.006671369 -0.1004019 0.1114071 0 -0.02167189 0.1659708 -0.00544095 -0.01521784 0.1740692 0 -0.0133689 0.1665852 -0.006775021 -0.09030348 0.1100564 -0.006711781 -0.08976745 0.09630668 -0.006693124 -0.09915733 0.09468519 0 -0.08518141 0.08337664 -0.00660783 -0.09311896 0.07914543 0 -0.07429885 0.06662011 -0.006386995 -0.08152019 0.06125706 0 -0.03877508 0.02308398 -0.005666136 -0.04574173 0.01739579 0 -0.01589035 -0.02082914 0 -0.004881262 -0.02062618 -0.004881262 0 -0.04339379 0 -0.04704922 0.1773185 0.005790829 -0.04704922 0.1773185 -0.005790829 -0.02672207 0.1675677 -0.00544095 -0.02672207 0.1675677 0.00544095 -0.05187755 0.178068 0.005932033 -0.05187755 0.178068 -0.005932033 -0.07030546 0.1598309 0.006469368 -0.07030546 0.1598309 -0.006469368 -0.0815919 0.1430016 0.006698369 -0.0815919 0.1430016 -0.006698369 -0.08834224 0.1231784 0.006671369 -0.08834224 0.1231784 -0.006671369 -0.09030348 0.1100564 0.006711781 -0.09030348 0.1100564 -0.006711781 -0.02167189 0.1659708 -0.00544095 -0.02167189 0.1659708 0.00544095 -0.08976745 0.09630668 0.006762504 -0.08976745 0.09630668 -0.006693124 -0.08518141 0.08337664 0.00660783 -0.08518141 0.08337664 -0.00660783 -0.07429885 0.06662011 0.006386995 -0.07429885 0.06662011 -0.006386995 -0.03877508 0.02308398 0.005666136 -0.03877508 0.02308398 -0.005666136 -0.004881262 -0.02062618 0.004881262 -0.004881262 -0.02062618 -0.004881262 0 -0.04339379 0 -0.004881262 -0.02062618 0.004881262 -0.0133689 0.1665852 -0.006775021 -0.0133689 0.1665852 0.006775021 -0.02167189 0.1659708 0.00544095 -0.02167189 0.1659708 -0.00544095 -0.1355818 0.3490722 0.07827818 -0.1397519 0.3517898 0.06369084 -0.1387766 0.3700289 0.0801227 -0.1278635 0.3289023 0.07382202 -0.1370144 0.3352883 0.04274171 -0.1252154 0.3156309 0.04579234 -0.1250339 0.3517898 0.08918327 -0.1055226 0.3352883 0.09728705 -0.1318743 0.3206294 0.02113366 -0.1022663 0.3156316 0.08554416 -0.08423948 0.3206294 0.1036397 -0.1158207 0.3111868 0.06686908 -0.1159664 0.3015438 0.03344941 -0.1028865 0.2964288 0.05940145 -0.08694368 0.3015555 0.08370643 -0.09613144 0.2825371 0.02726799 -0.1066011 0.2897552 0.004582107 -0.07684659 0.2713927 0.01342326 -0.08491283 0.2805108 0.0490244 -0.06151902 0.2667427 0.03551799 -0.05223757 0.2626653 0.02423632 -0.09024715 0.2801675 -0.008295416 -0.1014161 0.2938954 -0.02685731 -0.08561438 0.2850992 -0.03431892 -0.06829774 0.2719122 -0.0234791 -0.1260002 0.3106563 0.002342045 -0.1150318 0.3016105 -0.01447927 -0.06173497 0.2667163 -0.007579565 -0.05739146 0.2634458 0.007384598 -0.04545629 0.2614642 -0.004502356 -0.04652982 0.2609005 0.009780406 -0.04970329 0.2653598 -0.01814228 -0.05882787 0.2709557 -0.02948313 -0.07105141 0.2777585 -0.03483778 -0.05004823 0.2713927 0.05983948 -0.07168048 0.2825447 0.06961828 -0.05727863 0.2898769 0.09003382 -0.03793948 0.2801863 0.08230406 -0.02744889 0.2939046 0.1012576 -0.01308608 0.2851034 0.0913037 -0.01381528 0.2719122 0.07088714 -0.06502842 0.3106613 0.1079483 -0.04497647 0.3016275 0.1068601 -0.02430337 0.2667163 0.05725383 -0.03509098 0.2634444 0.04601013 -0.01882898 0.2614642 0.04161751 -0.031735 0.2609224 0.03540581 -0.04710805 0.2626609 0.03312087 -0.009139955 0.2653471 0.05211544 -0.003880739 0.2709557 0.06568807 -0.005355298 0.2777585 0.07895123 0.1355818 0.3490722 0.07827818 0.1250339 0.3517898 0.08918327 0.1387766 0.3700289 0.0801227 0.1278635 0.3289023 0.07382202 0.1055226 0.3352883 0.09728705 0.1022657 0.3156303 0.08554357 0.1397519 0.3517898 0.06369084 0.1370144 0.3352883 0.04274171 0.08423948 0.3206294 0.1036397 0.1252162 0.3156324 0.04579252 0.1318743 0.3206294 0.02113366 0.1158207 0.3111868 0.06686908 0.0869506 0.3015444 0.08370506 0.1028864 0.2964288 0.05940151 0.1159641 0.3015546 0.03344279 0.07168048 0.2825371 0.06961828 0.05726879 0.2897552 0.09002816 0.05004823 0.2713927 0.05983948 0.08491283 0.2805108 0.0490244 0.06151902 0.2667427 0.03551799 0.04710805 0.2626653 0.03312087 0.03793948 0.2801675 0.08230406 0.02744889 0.2938954 0.1012576 0.01308608 0.2850992 0.0913037 0.01381528 0.2719122 0.07088714 0.06502842 0.3106563 0.1079483 0.04497647 0.3016105 0.1068601 0.02430337 0.2667163 0.05725383 0.03509098 0.2634458 0.04601013 0.01882898 0.2614642 0.04161751 0.031735 0.2609005 0.03540581 0.009139955 0.2653598 0.05211544 0.003880739 0.2709557 0.06568807 0.005355298 0.2777585 0.07895123 0.07684659 0.2713927 0.01342326 0.09613144 0.2825447 0.02726799 0.1066109 0.2898769 0.004587829 0.09024715 0.2801863 -0.008295416 0.1014161 0.2939046 -0.02685731 0.08561438 0.2851034 -0.03431892 0.06829774 0.2719122 -0.0234791 0.1260002 0.3106613 0.002342045 0.1150318 0.3016275 -0.01447927 0.06173497 0.2667163 -0.007579565 0.05739146 0.2634444 0.007384598 0.04545629 0.2614642 -0.004502356 0.04652982 0.2609224 0.009780406 0.05223757 0.2626609 0.02423632 0.04970329 0.2653471 -0.01814228 0.05882787 0.2709557 -0.02948313 0.07105141 0.2777585 -0.03483778</float_array>
          <technique_common>
            <accessor source="#SkillObj_OverGrow_Seed2_Model-mesh-positions-array" count="593" stride="3">
              <param name="X" type="float"/>
              <param name="Y" type="float"/>
              <param name="Z" type="float"/>
            </accessor>
          </technique_common>
        </source>
        <source id="SkillObj_OverGrow_Seed2_Model-mesh-normals">
          <float_array id="SkillObj_OverGrow_Seed2_Model-mesh-normals-array" count="1770">1.31642e-6 0.3563401 0.9343563 -0.2882916 0.3601884 0.8872161 0 0.1733674 0.9848572 -3.43472e-6 0.4670456 0.8842333 -0.2995601 0.4491613 0.8417351 -0.2565376 0.6046956 0.7540105 0.2882915 0.3601885 0.887216 0.2995607 0.4491576 0.8417368 -0.3223984 0.5884596 0.7414678 0.2565778 0.6048177 0.7538988 0.3223186 0.5887114 0.7413027 7.53973e-5 0.6694193 0.7428849 -0.2565017 0.673214 0.6935342 1.39081e-4 0.7245541 0.689218 0.2568085 0.673547 0.6930972 -0.2092345 0.8271421 0.5215908 -0.3425123 0.7825517 0.5199022 -0.2267878 0.8874861 0.4011679 9.05788e-5 0.8516368 0.5241324 -2.93041e-6 0.9094191 0.415881 -0.1251842 0.9388871 0.3206556 -0.3607744 0.8470314 0.3903583 -0.486782 0.7762976 0.4005063 -0.475536 0.8209012 0.3162068 -0.3892199 0.8877659 0.2457225 -0.3538994 0.6499236 0.6725731 -0.4698719 0.727243 0.500338 -0.2954004 0.920546 0.2556045 -0.1877831 0.9419671 0.2782724 -0.2494208 0.9548202 0.1615794 -0.1239814 0.9741758 0.1887065 -0.3084171 0.9417456 0.1341425 -0.3927848 0.9147729 0.09439647 -0.4966359 0.8478084 0.1859403 0.2277197 0.8868948 0.4019471 0.2106141 0.8265565 0.5219636 0.3430616 0.7821437 0.520154 0.3612927 0.8461538 0.3917797 0.4855905 0.7764528 0.4016504 0.4753103 0.8208721 0.3166215 0.3892205 0.8876342 0.2461971 0.353427 0.6511138 0.6716699 0.4674372 0.7290018 0.500059 0.2955324 0.9203953 0.2559945 0.1876557 0.9420703 0.2780092 0.248748 0.9549778 0.1616845 0.1226882 0.9746209 0.1872484 0.1251918 0.9389238 0.320545 0.3083063 0.9417017 0.1347038 0.3932262 0.9145827 0.09440147 0.496656 0.8477631 0.1860931 -0.8101559 -0.2917604 -0.5084519 -0.8189576 -0.1142499 -0.562366 -0.8140624 -0.1187121 -0.5685156 -0.8231121 0.04052442 -0.5664312 -0.8342903 0.02976351 -0.5505217 -0.8094282 -0.2928652 -0.5089756 -0.825374 -0.3473675 -0.445077 -0.8252557 -0.3471875 -0.4454368 -0.8352885 -0.3478088 -0.4258195 -0.8363217 -0.3472546 -0.424241 -0.8714861 -0.3043094 -0.3845878 -0.8092686 0.2208462 -0.544345 -0.8048653 0.2309457 -0.5466772 -0.8065447 0.2934082 -0.5132226 -0.8065026 0.2922148 -0.5139691 -0.8063339 0.3466033 -0.4792616 -0.8096929 0.3470764 -0.4732184 -0.816823 0.4018306 -0.4139233 -0.8206977 0.4663553 -0.3301034 -0.7719358 0.5731499 -0.2749806 -0.7844964 0.6143469 0.08451813 -0.7931327 0.5546537 0.2515949 -0.7897338 0.5511509 0.269357 -0.7922529 0.5495178 0.265265 -0.8001216 0.5551058 0.227295 -0.7904202 0.6119875 -0.02659589 -0.7867137 0.6090068 -0.1009577 -0.7511072 0.6384621 -0.1679413 0.7931328 0.5546569 0.2515873 0.7897301 0.5511589 0.2693515 0.8001208 0.5551127 0.2272809 0.7922485 0.549516 0.2652822 0.7844979 0.6143451 0.08451807 0.8206972 0.4663554 -0.3301044 0.7719355 0.5731497 -0.274982 0.8168231 0.4018308 -0.413923 0.8096935 0.3470762 -0.4732176 0.8063341 0.3466035 -0.4792612 0.8065066 0.2922124 -0.513964 0.8065299 0.2934136 -0.5132426 0.8048588 0.230934 -0.5466918 0.8092753 0.2208507 -0.5443331 0.8237751 0.03962349 -0.5655304 0.7904204 0.6119872 -0.02659475 0.7867329 0.6089885 -0.1009175 0.7511082 0.6384618 -0.1679375 0.8342099 0.02761751 -0.5507553 0.8211212 -0.1123168 -0.5595935 0.8162781 -0.1173357 -0.565617 0.8104989 -0.2913358 -0.5081487 0.8094262 -0.2928559 -0.508984 0.8252686 -0.347192 -0.4454094 0.8253802 -0.3473711 -0.4450629 0.8363327 -0.3472431 -0.4242286 0.8352863 -0.3478113 -0.4258219 0.871472 -0.3043548 -0.3845841 0.8760681 -0.292897 -0.3830353 0.8816161 -0.2717463 -0.3858848 -1.45892e-6 -0.9241288 -0.382081 5.85453e-7 -0.924121 -0.3821002 2.46982e-6 -0.909637 -0.4154044 2.62726e-6 -0.9096391 -0.4153997 -5.75837e-6 -0.7479351 0.6637718 8.12486e-6 -0.7479344 0.6637727 -1.01866e-6 -0.6093369 0.7929116 1.38552e-6 -0.609336 0.7929122 5.95398e-5 -0.4836972 0.8752355 2.41853e-6 -0.4836981 0.875235 -2.80669e-4 -0.3241985 0.9459891 -2.45038e-6 -0.3242059 0.9459866 0 -0.05217343 0.9986381 -7.03435e-6 -0.05232417 0.9986302 0 -0.9534677 -0.3014953 0 -0.9534677 -0.3014953 8.68653e-6 0.1876515 0.9822357 0 0.1876534 0.9822354 -1.7244e-7 0.4600505 0.8878927 1.28133e-4 0.4602117 0.8878093 1.34821e-6 0.6084077 0.7936247 2.68253e-4 0.6083805 0.7936455 4.12628e-7 0.6232284 0.7820399 1.12172e-5 0.6233037 0.7819799 0 0.6127793 0.7902542 0 0.6127793 0.7902542 -0.8816162 -0.2717463 -0.3858847 -0.8760685 -0.2928969 -0.3830348 -4.64556e-7 -0.9972726 0.07380628 -1.09642e-6 -0.9972728 0.07380473 -7.17214e-7 -0.9972727 0.07380568 0 -0.9972726 0.07380747 0.5084521 -0.2917606 -0.8101557 0.5623661 -0.11425 -0.8189575 0.5685157 -0.1187122 -0.8140623 0.5664311 0.0405246 -0.8231121 0.5505217 0.02976351 -0.8342903 0.5089757 -0.2928653 -0.8094281 0.4450771 -0.3473678 -0.825374 0.4453933 -0.3471954 -0.8252759 0.4258195 -0.3478088 -0.8352885 0.4242411 -0.3472546 -0.8363217 0.3845835 -0.3043548 -0.8714722 0.5443452 0.2208461 -0.8092684 0.5466768 0.2309457 -0.8048656 0.5132222 0.2934082 -0.8065448 0.513969 0.2922148 -0.8065026 0.4792613 0.3466031 -0.8063343 0.4732178 0.3470761 -0.8096932 0.4139235 0.4018306 -0.816823 0.3301035 0.4663555 -0.8206975 0.274982 0.5731494 -0.7719357 -0.08451908 0.6143463 -0.7844969 -0.2515949 0.554654 -0.7931324 -0.2693567 0.5511513 -0.7897337 -0.2652645 0.5495206 -0.7922512 -0.2272937 0.5551061 -0.8001219 0.02659589 0.6119872 -0.7904205 0.1009193 0.6089883 -0.7867329 0.1679369 0.6384633 -0.7511072 -0.2515887 0.5546532 0.7931349 -0.2693521 0.5511583 0.7897304 -0.2272793 0.5551126 0.8001214 -0.2652804 0.5495178 0.7922478 -0.0845195 0.6143465 0.7844966 0.3301035 0.4663561 0.8206971 0.2749815 0.5731496 0.7719357 0.4139236 0.4018309 0.8168228 0.4732179 0.3470767 0.8096929 0.4792615 0.3466033 0.806334 0.5139633 0.2922119 0.8065074 0.5132413 0.2934127 0.8065311 0.546689 0.2309304 0.8048617 0.5443338 0.2208508 0.8092748 0.5655515 0.03958034 0.8237628 0.0265963 0.6119871 0.7904205 0.1009579 0.6090074 0.7867133 0.1679381 0.6384633 0.7511069 0.5507552 0.02761769 0.8342099 0.5595936 -0.1123167 0.8211213 0.5656082 -0.1173847 0.8162771 0.5081492 -0.2913359 0.8104987 0.5089826 -0.292855 0.8094274 0.4454095 -0.3471921 0.8252685 0.4450629 -0.3473712 0.8253801 0.4242289 -0.3472431 0.8363326 0.425822 -0.3478114 0.8352861 0.384584 -0.3043548 0.871472 0.3830353 -0.2928969 0.8760682 0.3858848 -0.2717463 0.8816162 0.3820824 -0.9241284 -5.05708e-7 0.3820966 -0.9241224 1.96125e-6 0.4154051 -0.9096366 -2.6793e-5 0.4154003 -0.9096387 -2.31154e-6 -0.6637723 -0.7479348 -7.35838e-6 -0.6637772 -0.7479304 8.08574e-6 -0.7929113 -0.6093372 -1.22385e-6 -0.792912 -0.6093363 1.54512e-6 -0.8752354 -0.4836974 6.00213e-5 -0.875235 -0.483698 -1.62149e-6 -0.9459892 -0.3241983 -2.80594e-4 -0.9459866 -0.3242059 -1.18085e-6 -0.9986381 -0.05217373 0 -0.9986278 -0.05237054 -6.89367e-6 0.3014965 -0.9534674 0 0.3014963 -0.9534674 0 -0.9822357 0.1876516 8.68653e-6 -0.9822353 0.1876537 0 -0.8878925 0.4600511 -1.7244e-7 -0.8878092 0.4602119 1.28133e-4 -0.7936248 0.6084076 6.9433e-7 -0.7936458 0.6083801 2.68253e-4 -0.7819799 0.6233038 0 -0.7821001 0.623153 8.81932e-6 -0.7902541 0.6127793 0 -0.7902542 0.6127793 0 0.3858847 -0.2717463 -0.8816161 0.3830348 -0.2928969 -0.8760685 -0.07380825 -0.9972724 0 -0.07380729 -0.9972726 0 -0.07380783 -0.9972726 0 -0.0738089 -0.9972724 0 -0.646126 0.4062541 0.6461262 -0.6461122 0.4062984 0.646112 -0.6482501 0.3994287 0.6482504 -0.6482496 0.3994284 0.6482511 -0.6446486 0.410921 0.6446488 -0.6446486 0.4109213 0.6446487 -0.6464245 0.4053031 0.6464247 -0.6464246 0.4053032 0.6464244 -0.6482498 0.3994285 0.6482508 -0.648249 0.3994279 0.6482521 0.6482505 0.3994285 0.6482502 0.6482508 0.399429 0.6482495 0.6461259 0.406254 0.6461262 0.6482498 0.3994285 0.6482508 0.6461256 0.4062549 0.646126 0.6446763 0.4108341 0.6446766 0.6446623 0.4108781 0.6446626 0.6464246 0.4053033 0.6464245 0.6464242 0.4053031 0.646425 0.6482496 0.3994283 0.6482511 -0.6740287 -0.3022751 0.6740291 -0.6740288 -0.3022751 0.674029 -0.6740286 -0.302275 0.6740291 -0.6740286 -0.3022751 0.6740292 0.6740292 -0.3022754 0.6740285 0.674029 -0.3022753 0.6740286 0.6740293 -0.3022754 0.6740283 0.6740295 -0.3022754 0.674028 -0.6914113 0.20953 0.6914099 -0.6719058 0.3115851 0.6719059 -0.6914101 0.2095301 0.6914111 -0.6957886 0.1782027 0.6957888 -0.6957883 0.1782026 0.6957892 0.6914098 0.20953 0.6914113 0.6719057 0.3115851 0.6719058 0.69141 0.2095301 0.6914112 0.6957886 0.1782027 0.6957888 0.6957882 0.1782026 0.6957892 -0.6482499 0.3994283 -0.6482508 -0.6461263 0.4062535 -0.6461262 -0.6482498 0.3994285 -0.6482509 -0.6461258 0.4062544 -0.6461261 -0.6446484 0.4109211 -0.644649 -0.6446621 0.4108778 -0.6446628 -0.6464247 0.4053033 -0.6464244 -0.6464253 0.4053036 -0.6464235 -0.6482502 0.3994287 -0.6482504 -0.6482502 0.3994285 -0.6482504 0.6482515 0.3994287 -0.6482489 0.6461116 0.4062981 -0.6461129 0.6482509 0.3994292 -0.6482493 0.6461114 0.4062987 -0.6461125 0.6446488 0.4109206 -0.6446489 0.6446624 0.4108773 -0.6446629 0.6464242 0.405303 -0.646425 0.6464239 0.4053028 -0.6464254 0.6482506 0.399429 -0.6482498 0.6482498 0.3994285 -0.6482508 -0.674029 -0.3022753 -0.6740287 -0.6740283 -0.3022749 -0.6740295 -0.6740287 -0.3022751 -0.674029 -0.6740292 -0.3022754 -0.6740284 0.6740286 -0.302275 -0.6740292 0.6740289 -0.3022752 -0.6740288 0.6740288 -0.3022751 -0.6740291 0.6740285 -0.302275 -0.6740293 -0.6719054 0.3115849 -0.6719063 -0.691411 0.2095299 -0.6914102 -0.6914117 0.2095299 -0.6914095 -0.6957883 0.1782026 -0.6957891 -0.6957877 0.1782025 -0.6957898 0.6719061 0.3115853 -0.6719054 0.6914101 0.2095301 -0.691411 0.69141 0.2095301 -0.6914112 0.6957888 0.1782028 -0.6957885 0.6957888 0.1782028 -0.6957886 0.8101559 -0.2917604 0.5084519 0.8189576 -0.1142499 0.562366 0.8140624 -0.1187121 0.5685156 0.8231121 0.04052442 0.5664312 0.8342903 0.02976351 0.5505217 0.8094282 -0.2928652 0.5089756 0.825374 -0.3473675 0.445077 0.8252557 -0.3471875 0.4454368 0.8352885 -0.3478088 0.4258195 0.8363217 -0.3472546 0.424241 0.8714861 -0.3043094 0.3845878 0.8095127 0.220775 0.5440108 0.8048648 0.2309541 0.5466745 0.8065333 0.293424 0.5132314 0.8065606 0.292147 0.5139166 0.8063306 0.3466306 0.4792476 0.8096917 0.347081 0.4732168 0.8168121 0.401858 0.413918 0.8206977 0.4663553 0.3301034 0.7719358 0.5731499 0.2749806 0.7844964 0.6143469 -0.08451813 0.7931327 0.5546537 -0.2515949 0.7897338 0.5511509 -0.269357 0.7922529 0.5495178 -0.265265 0.8001217 0.5551058 -0.2272947 0.7904202 0.6119875 0.02659511 0.7867326 0.6089888 0.1009182 0.7511075 0.6384624 0.1679387 -0.7931328 0.5546569 -0.2515873 -0.7897301 0.5511589 -0.2693515 -0.800121 0.5551128 -0.2272801 -0.7922485 0.549516 -0.2652822 -0.7844979 0.6143451 -0.08451807 -0.8206972 0.4663554 0.3301044 -0.7719355 0.5731497 0.274982 -0.8168094 0.4018588 0.4139227 -0.8096919 0.3470811 0.4732165 -0.8063307 0.3466308 0.4792473 -0.8065113 0.2921908 0.513969 -0.806534 0.2934264 0.5132288 -0.8048665 0.230928 0.5466831 -0.8092753 0.2208507 0.5443331 -0.8237751 0.03962349 0.5655304 -0.7904202 0.6119875 0.02659571 -0.7867143 0.6090059 0.1009587 -0.7511074 0.6384624 0.1679393 -0.8342099 0.02761751 0.5507553 -0.8211212 -0.1123168 0.5595935 -0.8162781 -0.1173357 0.565617 -0.8104989 -0.2913358 0.5081487 -0.8094262 -0.2928559 0.508984 -0.8252686 -0.347192 0.4454094 -0.8253802 -0.3473711 0.4450629 -0.8363327 -0.3472431 0.4242286 -0.8352863 -0.3478113 0.4258219 -0.871472 -0.3043548 0.3845841 -0.8760681 -0.292897 0.3830353 -0.8816161 -0.2717463 0.3858848 1.45892e-6 -0.9241288 0.382081 -5.85453e-7 -0.924121 0.3821002 -2.46982e-6 -0.909637 0.4154044 -2.62726e-6 -0.9096391 0.4153997 5.75837e-6 -0.7479351 -0.6637718 -8.12486e-6 -0.7479344 -0.6637727 1.01866e-6 -0.6093369 -0.7929116 -1.38552e-6 -0.609336 -0.7929122 -5.95398e-5 -0.4836972 -0.8752355 -2.41853e-6 -0.4836981 -0.875235 2.80669e-4 -0.3241985 -0.9459891 2.45038e-6 -0.3242059 -0.9459866 0 -0.05217343 -0.9986381 7.03435e-6 -0.05232417 -0.9986302 0 -0.9534677 0.3014953 0 -0.9534677 0.3014953 -8.68653e-6 0.1876515 -0.9822357 0 0.1876534 -0.9822354 1.7244e-7 0.4600505 -0.8878927 -1.28133e-4 0.4602117 -0.8878093 -1.34821e-6 0.6084077 -0.7936247 -2.68253e-4 0.6083805 -0.7936455 -4.12628e-7 0.6232284 -0.7820399 -1.12172e-5 0.6233037 -0.7819799 0 0.6127793 -0.7902542 0 0.6127793 -0.7902542 0.8816162 -0.2717463 0.3858847 0.8760685 -0.2928969 0.3830348 0 -0.9972726 -0.07380628 0 -0.9972728 -0.07380473 0 -0.9972727 -0.07380568 0 -0.9972726 -0.07380747 0 1 0 -0.5084521 -0.2917606 0.8101557 -0.5623661 -0.11425 0.8189575 -0.5685157 -0.1187122 0.8140623 -0.5664311 0.0405246 0.8231121 -0.5505217 0.02976351 0.8342903 -0.5089757 -0.2928653 0.8094281 -0.4450771 -0.3473678 0.825374 -0.4453933 -0.3471954 0.8252759 -0.4258195 -0.3478088 0.8352885 -0.4242411 -0.3472546 0.8363217 -0.3845835 -0.3043548 0.8714722 -0.5443452 0.2208461 0.8092684 -0.5466768 0.2309457 0.8048656 -0.5132222 0.2934082 0.8065448 -0.513969 0.2922148 0.8065026 -0.4792613 0.3466031 0.8063343 -0.4732178 0.3470761 0.8096932 -0.4139235 0.4018306 0.816823 -0.3301035 0.4663555 0.8206975 -0.274982 0.5731494 0.7719357 0.08451908 0.6143463 0.7844969 0.2515949 0.554654 0.7931324 0.2693567 0.5511513 0.7897337 0.2652645 0.5495206 0.7922512 0.2272937 0.5551061 0.8001219 -0.02659589 0.6119872 0.7904205 -0.1009193 0.6089883 0.7867329 -0.1679369 0.6384633 0.7511072 0.2515887 0.5546532 -0.7931349 0.2693521 0.5511583 -0.7897304 0.2272793 0.5551126 -0.8001214 0.2652804 0.5495178 -0.7922478 0.0845195 0.6143465 -0.7844966 -0.3301035 0.4663561 -0.8206971 -0.2749815 0.5731496 -0.7719357 -0.4139236 0.4018309 -0.8168228 -0.4732179 0.3470767 -0.8096929 -0.4792615 0.3466033 -0.806334 -0.5139633 0.2922119 -0.8065074 -0.5132413 0.2934127 -0.8065311 -0.546689 0.2309304 -0.8048617 -0.5443338 0.2208508 -0.8092748 -0.5655515 0.03958034 -0.8237628 -0.02659589 0.6119866 -0.7904209 -0.1009187 0.6089885 -0.7867329 -0.1679368 0.638462 -0.7511082 -0.5507552 0.02761769 -0.8342099 -0.5595936 -0.1123167 -0.8211213 -0.5656082 -0.1173847 -0.8162771 -0.5081492 -0.2913359 -0.8104987 -0.5089826 -0.292855 -0.8094274 -0.4454095 -0.3471921 -0.8252685 -0.4450629 -0.3473712 -0.8253801 -0.4242289 -0.3472431 -0.8363326 -0.425822 -0.3478114 -0.8352861 -0.384584 -0.3043548 -0.871472 -0.3830353 -0.2928969 -0.8760682 -0.3858848 -0.2717463 -0.8816162 -0.3820824 -0.9241284 5.05708e-7 -0.3820966 -0.9241224 -1.96125e-6 -0.4154051 -0.9096366 2.6793e-5 -0.4154003 -0.9096387 2.31154e-6 0.6637723 -0.7479348 7.35838e-6 0.6637772 -0.7479304 -8.08574e-6 0.7929113 -0.6093372 1.22385e-6 0.792912 -0.6093363 -1.54512e-6 0.8752354 -0.4836974 -6.00213e-5 0.875235 -0.483698 1.62149e-6 0.9459892 -0.3241983 2.80594e-4 0.9459866 -0.3242059 1.18085e-6 0.9986381 -0.05217373 0 0.9986278 -0.05237054 6.89367e-6 -0.3014965 -0.9534674 0 -0.3014963 -0.9534674 0 0.9822357 0.1876516 -8.68653e-6 0.9822353 0.1876537 0 0.8878925 0.4600511 1.7244e-7 0.8878092 0.4602119 -1.28133e-4 0.7936248 0.6084076 -6.9433e-7 0.7936458 0.6083801 -2.68253e-4 0.7819799 0.6233038 0 0.7821001 0.623153 -8.81932e-6 0.7902541 0.6127793 0 0.7902542 0.6127793 0 -0.3858847 -0.2717463 0.8816161 -0.3830348 -0.2928969 0.8760685 0.07380712 -0.9972726 8.74458e-7 0.07380712 -0.9972726 2.06385e-6 0.07380712 -0.9972726 1.35005e-6 0.07380712 -0.9972726 0 0.8091761 0.3563394 -0.4671793 0.9124981 0.3601871 -0.1939397 0.8529116 0.1733669 -0.4924285 0.7657874 0.4670124 -0.4421188 0.8787366 0.4491757 -0.1614415 0.7812731 0.6046784 -0.1548435 0.6242058 0.3601882 -0.693276 0.5791844 0.4491562 -0.6802972 0.803338 0.5884478 -0.09152811 0.5246059 0.6048179 -0.5991528 0.4807881 0.5887306 -0.6497994 0.643332 0.6693888 -0.371541 0.7288791 0.6732016 -0.1246389 0.5968385 0.7245272 -0.3447376 0.4718344 0.6735481 -0.5689511 0.5563216 0.8271467 -0.07959133 0.6215016 0.7825538 0.03667962 0.4608156 0.8874862 -0.004179716 0.4538664 0.8516371 -0.2621445 0.3601654 0.9094189 -0.2079378 0.3402886 0.9388869 -0.05191397 0.5184474 0.8470315 0.1172606 0.590178 0.7763259 0.2213777 0.5116109 0.8209015 0.2537226 0.4074109 0.8877663 0.2142137 0.7594223 0.6499156 -0.02979427 0.6682112 0.7272648 0.1567794 0.36906 0.9205461 0.1280223 0.3348825 0.9419671 0.0234887 0.2646417 0.9548203 0.1352148 0.225416 0.9741757 0.0130167 0.2703626 0.9417407 0.2000716 0.2781212 0.9147908 0.2929273 0.4093461 0.8478087 0.3371295 0.234236 0.886895 -0.3981842 0.3467264 0.8265564 -0.4433797 0.2789363 0.782143 -0.5571776 0.1586474 0.8461512 -0.508782 0.1050885 0.7764374 -0.6213707 0.0365017 0.8208749 -0.5699406 0.01860189 0.8876343 -0.4601733 0.4049698 0.6511138 -0.6419115 0.1993457 0.7290019 -0.6548416 0.07393109 0.9203951 -0.3839365 0.1469359 0.94207 -0.3015196 0.01564711 0.954978 -0.296264 0.100776 0.9746223 -0.1998891 0.215004 0.9389237 -0.2686925 -0.03749656 0.9417019 -0.3343526 -0.11486 0.9145832 -0.3877434 -0.08716446 0.8477627 -0.5231643 -0.8091774 0.3563398 -0.4671767 -0.6242085 0.360189 -0.6932732 -0.8529115 0.173367 -0.4924287 -0.7657841 0.4670134 -0.4421237 -0.5791833 0.4491592 -0.6802961 -0.5247234 0.6046968 -0.5991721 -0.9124981 0.3601872 -0.1939393 -0.8787368 0.4491752 -0.1614412 -0.4809306 0.5884608 -0.6499382 -0.7811914 0.6048076 -0.1547508 -0.8031571 0.5886968 -0.0915144 -0.6434364 0.6693865 -0.3713642 -0.4723669 0.6732146 -0.568904 -0.596951 0.7245503 -0.3444944 -0.7286528 0.6735364 -0.124153 -0.3470938 0.827142 -0.4419979 -0.2789869 0.7825534 -0.5565757 -0.2340139 0.8875068 -0.3969497 -0.4539571 0.851637 -0.2619875 -0.3601629 0.9094188 -0.2079429 -0.2151057 0.9388867 -0.2687404 -0.1576728 0.8470315 -0.5076188 -0.103414 0.7763118 -0.6218084 -0.03607499 0.8209014 -0.5699295 -0.01819086 0.8877665 -0.4599345 -0.4055157 0.6499239 -0.6427721 -0.1983309 0.7272639 -0.6570784 -0.07365965 0.9205463 -0.383626 -0.1470995 0.9419671 -0.3017613 -0.01522219 0.9548202 -0.2967944 -0.1014782 0.9741746 -0.2017079 0.03803807 0.9417451 -0.3341698 0.1146213 0.9147914 -0.3873227 0.08728998 0.8478094 -0.5230676 -0.4619559 0.886895 -0.003762543 -0.5573318 0.8265629 -0.07858216 -0.6219964 0.7821442 0.0370261 -0.5199372 0.846154 0.1169986 -0.5906351 0.7764526 0.2197079 -0.5118345 0.8208743 0.253359 -0.4078224 0.8876344 0.213977 -0.7584063 0.6511029 -0.02974957 -0.666812 0.7289803 0.1547562 -0.3694636 0.9203953 0.1279418 -0.3345915 0.9420701 0.02351009 -0.2643947 0.9549784 0.13458 -0.2234876 0.9746238 0.01271629 -0.3401973 0.9389234 -0.0518527 -0.2708094 0.941702 0.199649 -0.2783642 0.9145832 0.2933446 -0.4094905 0.8477632 0.3370685</float_array>
          <technique_common>
            <accessor source="#SkillObj_OverGrow_Seed2_Model-mesh-normals-array" count="590" stride="3">
              <param name="X" type="float"/>
              <param name="Y" type="float"/>
              <param name="Z" type="float"/>
            </accessor>
          </technique_common>
        </source>
        <source id="SkillObj_OverGrow_Seed2_Model-mesh-map-0">
          <float_array id="SkillObj_OverGrow_Seed2_Model-mesh-map-0-array" count="3588">0.01530456 0.1326904 0.1097412 0.1105957 0.01530456 0.01262664 0.01530456 0.1326904 0.01530456 0.2459716 0.1097412 0.1105957 0.01530456 0.2459716 0.2164306 0.2218017 0.1097412 0.1105957 0.01530456 0.2459716 0.1588134 0.3366699 0.2164306 0.2218017 0.1097412 0.1105957 0.01530456 0.1326904 0.01530456 0.01262664 0.01530456 0.2459716 0.01530456 0.1326904 0.1097412 0.1105957 0.2164306 0.2218017 0.01530456 0.2459716 0.1097412 0.1105957 0.3190918 0.3334961 0.2164306 0.2218017 0.1588134 0.3366699 0.01530456 0.2459716 0.2164306 0.2218017 0.1588134 0.3366699 0.3190918 0.3334961 0.1588134 0.3366699 0.2164306 0.2218017 0.015419 0.3679199 0.1588134 0.3366699 0.01530456 0.2459716 0.1588134 0.3366699 0.015419 0.3679199 0.01530456 0.2459716 0.194458 0.4394531 0.1588134 0.3366699 0.015419 0.3679199 8.26359e-4 0.4736328 0.194458 0.4394531 0.015419 0.3679199 0.015419 0.3679199 0.1588134 0.3366699 8.26359e-4 0.4736328 0.1588134 0.3366699 0.19458 0.4394531 8.26359e-4 0.4736328 0.1636962 0.5908203 0.194458 0.4394531 8.26359e-4 0.4736328 0.3220215 0.5810547 0.194458 0.4394531 0.1636962 0.5908203 0.3220215 0.5810547 0.1636962 0.5908203 0.1795654 0.75 0.1795654 0.75 0.1636962 0.5908203 0.01530456 0.5893555 0.01530456 0.5893555 0.1636962 0.5908203 8.26359e-4 0.4736328 0.1795654 0.75 0.01530456 0.5893555 0.01530456 0.7719727 0.01530456 0.7719727 0.05731201 0.8588867 0.1795654 0.75 0.3427734 0.7197266 0.3220215 0.5810547 0.1795654 0.75 0.3427734 0.7197266 0.4941406 0.6777344 0.3220215 0.5810547 0.3427734 0.7197266 0.4882813 0.7978516 0.4941406 0.6777344 0.3427734 0.7197266 0.3671875 0.887207 0.4882813 0.7978516 0.4042969 0.4401856 0.194458 0.4394531 0.3220215 0.5810547 0.4650879 0.559082 0.4042969 0.4401856 0.3220215 0.5810547 0.4650879 0.559082 0.3220215 0.5810547 0.4941406 0.6777344 0.3427734 0.7197266 0.1795654 0.75 0.2563477 0.8901367 0.3671875 0.887207 0.3427734 0.7197266 0.2563477 0.8901367 0.2563477 0.8901367 0.1795654 0.75 0.1590576 0.8779297 0.1590576 0.8779297 0.1795654 0.75 0.05731201 0.8588867 0.1590576 0.8779297 0.1987304 0.9770508 0.2563477 0.8901367 0.1590576 0.8779297 0.1259765 0.9326172 0.1987304 0.9770508 0.1590576 0.8779297 0.05731201 0.8588867 0.1259765 0.9326172 0.3671875 0.887207 0.2563477 0.8901367 0.2866211 0.9853516 0.2563477 0.8901367 0.1987304 0.9770508 0.2866211 0.9853516 0.3671875 0.887207 0.2866211 0.9853516 0.3798828 0.9560547 0.3671875 0.887207 0.3798828 0.9560547 0.4484863 0.8911133 0.3671875 0.887207 0.4484863 0.8911133 0.4882813 0.7978516 0.01530456 0.5893555 0.1795654 0.75 0.01530456 0.7719727 0.1636962 0.5908203 0.1795654 0.75 0.01530456 0.5893555 0.1636962 0.5908203 0.3220215 0.5810547 0.1795654 0.75 0.19458 0.4394531 0.3220215 0.5810547 0.1636962 0.5908203 0.3220215 0.5810547 0.3427734 0.7197266 0.1795654 0.75 0.4941406 0.6777344 0.3427734 0.7197266 0.3220215 0.5810547 0.4882813 0.7978516 0.3427734 0.7197266 0.4941406 0.6777344 0.3671875 0.887207 0.3427734 0.7197266 0.4882813 0.7978516 0.19458 0.4394531 0.4042969 0.4401856 0.3220215 0.5810547 0.4042969 0.4401856 0.4650879 0.559082 0.3220215 0.5810547 0.3220215 0.5810547 0.4650879 0.559082 0.4941406 0.6777344 0.1795654 0.75 0.3427734 0.7197266 0.2563477 0.8901367 0.3427734 0.7197266 0.3671875 0.887207 0.2563477 0.8901367 0.1795654 0.75 0.2563477 0.8901367 0.1590576 0.8779297 0.1987304 0.9770508 0.1590576 0.8779297 0.2563477 0.8901367 0.1259765 0.9326172 0.1590576 0.8779297 0.1987304 0.9770508 0.05731201 0.8588867 0.1590576 0.8779297 0.1259765 0.9326172 0.1795654 0.75 0.1590576 0.8779297 0.05731201 0.8588867 0.05731201 0.8588867 0.01530456 0.7719727 0.1795654 0.75 0.2563477 0.8901367 0.3671875 0.887207 0.2866211 0.9853516 0.1987304 0.9770508 0.2563477 0.8901367 0.2866211 0.9853516 0.2866211 0.9853516 0.3671875 0.887207 0.3798828 0.9560547 0.3798828 0.9560547 0.3671875 0.887207 0.4484863 0.8911133 0.4484863 0.8911133 0.3671875 0.887207 0.4882813 0.7978516 0.4042969 0.4401856 0.19458 0.4394531 0.1588134 0.3366699 0.3190918 0.3334961 0.4042969 0.4401856 0.1588134 0.3366699 0.19458 0.4394531 0.1636962 0.5908203 8.26359e-4 0.4736328 0.1636962 0.5908203 0.01530456 0.5893555 8.26359e-4 0.4736328 0.609375 0.5708008 0.609375 0.6088867 0.5830078 0.6088867 0.5830078 0.6088867 0.609375 0.6088867 0.5830078 0.6464844 0.5830078 0.6464844 0.609375 0.6088867 0.609375 0.6464844 0.5830078 0.5708008 0.609375 0.5708008 0.5830078 0.6088867 0.5830078 0.5708008 0.5830078 0.5175781 0.609375 0.5708008 0.5830078 0.5175781 0.609375 0.5175781 0.609375 0.5708008 0.5830078 0.5175781 0.5830078 0.3706055 0.609375 0.5175781 0.5830078 0.3706055 0.609375 0.3706055 0.609375 0.5175781 0.609375 0.3706055 0.5830078 0.3706055 0.5830078 0.243164 0.5830078 0.6464844 0.609375 0.6464844 0.609375 0.6831055 0.5830078 0.6464844 0.609375 0.6831055 0.5830078 0.6831055 0.5830078 0.6831055 0.609375 0.6831055 0.5830078 0.7416992 0.609375 0.6831055 0.609375 0.7416992 0.5830078 0.7416992 0.5830078 0.7416992 0.609375 0.7416992 0.5830078 0.7958984 0.609375 0.7416992 0.609375 0.7958984 0.5830078 0.7958984 0.5830078 0.7958984 0.609375 0.7958984 0.5830078 0.8388672 0.609375 0.7958984 0.609375 0.8613281 0.5830078 0.8388672 0.5830078 0.8388672 0.609375 0.8613281 0.5830078 0.8613281 0.5830078 0.8701172 0.5830078 0.8613281 0.609375 0.8613281 0.5830078 0.8701172 0.609375 0.8613281 0.609375 0.8735352 0.5830078 0.8701172 0.609375 0.8735352 0.5830078 0.8813477 0.5830078 0.8813477 0.609375 0.8735352 0.609375 0.9345703 0.5830078 0.940918 0.5830078 0.8813477 0.609375 0.9345703 0.609375 0.9345703 0.609375 0.9467774 0.5830078 0.940918 0.609375 0.9467774 0.5830078 0.9609375 0.5830078 0.940918 0.609375 0.9467774 0.609375 0.9672852 0.5830078 0.9609375 0.5571289 0.8735352 0.5830078 0.8813477 0.5830078 0.940918 0.5571289 0.9350586 0.5571289 0.8735352 0.5830078 0.940918 0.5830078 0.8701172 0.5830078 0.8813477 0.5571289 0.8735352 0.5830078 0.8701172 0.5571289 0.8735352 0.5571289 0.8613281 0.5830078 0.8613281 0.5830078 0.8701172 0.5571289 0.8613281 0.5830078 0.8613281 0.5571289 0.8613281 0.5830078 0.8388672 0.5830078 0.8388672 0.5571289 0.8613281 0.5571289 0.7958984 0.5830078 0.7958984 0.5830078 0.8388672 0.5571289 0.7958984 0.5830078 0.7958984 0.5571289 0.7958984 0.5571289 0.7416992 0.5830078 0.7416992 0.5830078 0.7958984 0.5571289 0.7416992 0.5830078 0.7416992 0.5571289 0.7416992 0.5830078 0.6831055 0.5571289 0.7416992 0.5571289 0.6831055 0.5830078 0.6831055 0.5830078 0.6464844 0.5830078 0.6831055 0.5571289 0.6831055 0.5830078 0.940918 0.5571289 0.9482422 0.5571289 0.9350586 0.5830078 0.940918 0.5830078 0.9609375 0.5571289 0.9482422 0.5830078 0.9609375 0.5571289 0.9692383 0.5571289 0.9482422 0.5830078 0.6464844 0.5571289 0.6831055 0.5571289 0.6464844 0.5830078 0.6464844 0.5571289 0.6464844 0.5571289 0.6088867 0.5830078 0.6088867 0.5830078 0.6464844 0.5571289 0.6088867 0.5830078 0.6088867 0.5571289 0.6088867 0.5571289 0.5708008 0.5830078 0.5708008 0.5830078 0.6088867 0.5571289 0.5708008 0.5571289 0.5708008 0.5571289 0.5175781 0.5830078 0.5708008 0.5571289 0.5175781 0.5830078 0.5175781 0.5830078 0.5708008 0.5571289 0.5175781 0.5571289 0.3706055 0.5830078 0.5175781 0.5571289 0.3706055 0.5830078 0.3706055 0.5830078 0.5175781 0.5830078 0.243164 0.5830078 0.3706055 0.5571289 0.3706055 0.5571289 0.2263183 0.5830078 0.243164 0.5571289 0.3706055 0.5830078 0.1710205 0.5830078 0.243164 0.5571289 0.2263183 0.5258789 0.8735352 0.5571289 0.8735352 0.5571289 0.9350586 0.5258789 0.9350586 0.5258789 0.8735352 0.5571289 0.9350586 0.5571289 0.8735352 0.5258789 0.8735352 0.5258789 0.8613281 0.5571289 0.8613281 0.5571289 0.8735352 0.5258789 0.8613281 0.5571289 0.8613281 0.5258789 0.8613281 0.5258789 0.7958984 0.5571289 0.7958984 0.5571289 0.8613281 0.5258789 0.7958984 0.5571289 0.7958984 0.5258789 0.7958984 0.5258789 0.7416992 0.5571289 0.7416992 0.5571289 0.7958984 0.5258789 0.7416992 0.5571289 0.7416992 0.5258789 0.7416992 0.5258789 0.6831055 0.5571289 0.6831055 0.5571289 0.7416992 0.5258789 0.6831055 0.5571289 0.6831055 0.5258789 0.6831055 0.5258789 0.6464844 0.5571289 0.6464844 0.5571289 0.6831055 0.5258789 0.6464844 0.5571289 0.9350586 0.5571289 0.9482422 0.5258789 0.9350586 0.5571289 0.9482422 0.5258789 0.9482422 0.5258789 0.9350586 0.5571289 0.6464844 0.5258789 0.6464844 0.5258789 0.6088867 0.5571289 0.6088867 0.5571289 0.6464844 0.5258789 0.6088867 0.5571289 0.6088867 0.5258789 0.6088867 0.5258789 0.5708008 0.5571289 0.5708008 0.5571289 0.6088867 0.5258789 0.5708008 0.5258789 0.5708008 0.5258789 0.5175781 0.5571289 0.5708008 0.5258789 0.5175781 0.5571289 0.5175781 0.5571289 0.5708008 0.5258789 0.5175781 0.5258789 0.3706055 0.5571289 0.5175781 0.5258789 0.3706055 0.5571289 0.3706055 0.5571289 0.5175781 0.5258789 0.3706055 0.5258789 0.2263183 0.5571289 0.3706055 0.5258789 0.2263183 0.5571289 0.2263183 0.5571289 0.3706055 0.5830078 0.243164 0.5830078 0.1710205 0.609375 0.2260742 0.609375 0.2260742 0.609375 0.3706055 0.5830078 0.243164 0.5571289 0.9692383 0.5258789 0.9692383 0.5258789 0.9482422 0.5571289 0.9482422 0.5571289 0.9692383 0.5258789 0.9482422 0.609375 0.5708008 0.609375 0.6088867 0.5830078 0.6088867 0.5830078 0.6088867 0.609375 0.6088867 0.5830078 0.6464844 0.5830078 0.6464844 0.609375 0.6088867 0.609375 0.6464844 0.5830078 0.5708008 0.609375 0.5708008 0.5830078 0.6088867 0.5830078 0.5708008 0.5830078 0.5175781 0.609375 0.5708008 0.5830078 0.5175781 0.609375 0.5175781 0.609375 0.5708008 0.5830078 0.5175781 0.5830078 0.3706055 0.609375 0.5175781 0.5830078 0.3706055 0.609375 0.3706055 0.609375 0.5175781 0.609375 0.3706055 0.5830078 0.3706055 0.5830078 0.243164 0.5830078 0.6464844 0.609375 0.6464844 0.609375 0.6831055 0.5830078 0.6464844 0.609375 0.6831055 0.5830078 0.6831055 0.5830078 0.6831055 0.609375 0.6831055 0.5830078 0.7416992 0.609375 0.6831055 0.609375 0.7416992 0.5830078 0.7416992 0.5830078 0.7416992 0.609375 0.7416992 0.5830078 0.7958984 0.609375 0.7416992 0.609375 0.7958984 0.5830078 0.7958984 0.5830078 0.7958984 0.609375 0.7958984 0.5830078 0.8388672 0.609375 0.7958984 0.609375 0.8613281 0.5830078 0.8388672 0.5830078 0.8388672 0.609375 0.8613281 0.5830078 0.8613281 0.5830078 0.8701172 0.5830078 0.8613281 0.609375 0.8613281 0.5830078 0.8701172 0.609375 0.8613281 0.609375 0.8735352 0.5830078 0.8701172 0.609375 0.8735352 0.5830078 0.8813477 0.5830078 0.8813477 0.609375 0.8735352 0.609375 0.9345703 0.5830078 0.940918 0.5830078 0.8813477 0.609375 0.9345703 0.609375 0.9345703 0.609375 0.9467774 0.5830078 0.940918 0.609375 0.9467774 0.5830078 0.9609375 0.5830078 0.940918 0.609375 0.9467774 0.609375 0.9672852 0.5830078 0.9609375 0.5571289 0.8735352 0.5830078 0.8813477 0.5830078 0.940918 0.5571289 0.9350586 0.5571289 0.8735352 0.5830078 0.940918 0.5830078 0.8701172 0.5830078 0.8813477 0.5571289 0.8735352 0.5830078 0.8701172 0.5571289 0.8735352 0.5571289 0.8613281 0.5830078 0.8613281 0.5830078 0.8701172 0.5571289 0.8613281 0.5830078 0.8613281 0.5571289 0.8613281 0.5830078 0.8388672 0.5830078 0.8388672 0.5571289 0.8613281 0.5571289 0.7958984 0.5830078 0.7958984 0.5830078 0.8388672 0.5571289 0.7958984 0.5830078 0.7958984 0.5571289 0.7958984 0.5571289 0.7416992 0.5830078 0.7416992 0.5830078 0.7958984 0.5571289 0.7416992 0.5830078 0.7416992 0.5571289 0.7416992 0.5830078 0.6831055 0.5571289 0.7416992 0.5571289 0.6831055 0.5830078 0.6831055 0.5830078 0.6464844 0.5830078 0.6831055 0.5571289 0.6831055 0.5830078 0.940918 0.5571289 0.9482422 0.5571289 0.9350586 0.5830078 0.940918 0.5830078 0.9609375 0.5571289 0.9482422 0.5830078 0.9609375 0.5571289 0.9692383 0.5571289 0.9482422 0.5830078 0.6464844 0.5571289 0.6831055 0.5571289 0.6464844 0.5830078 0.6464844 0.5571289 0.6464844 0.5571289 0.6088867 0.5830078 0.6088867 0.5830078 0.6464844 0.5571289 0.6088867 0.5830078 0.6088867 0.5571289 0.6088867 0.5571289 0.5708008 0.5830078 0.5708008 0.5830078 0.6088867 0.5571289 0.5708008 0.5571289 0.5708008 0.5571289 0.5175781 0.5830078 0.5708008 0.5571289 0.5175781 0.5830078 0.5175781 0.5830078 0.5708008 0.5571289 0.5175781 0.5571289 0.3706055 0.5830078 0.5175781 0.5571289 0.3706055 0.5830078 0.3706055 0.5830078 0.5175781 0.5830078 0.243164 0.5830078 0.3706055 0.5571289 0.3706055 0.5571289 0.2263183 0.5830078 0.243164 0.5571289 0.3706055 0.5830078 0.1710205 0.5830078 0.243164 0.5571289 0.2263183 0.5258789 0.8735352 0.5571289 0.8735352 0.5571289 0.9350586 0.5258789 0.9350586 0.5258789 0.8735352 0.5571289 0.9350586 0.5571289 0.8735352 0.5258789 0.8735352 0.5258789 0.8613281 0.5571289 0.8613281 0.5571289 0.8735352 0.5258789 0.8613281 0.5571289 0.8613281 0.5258789 0.8613281 0.5258789 0.7958984 0.5571289 0.7958984 0.5571289 0.8613281 0.5258789 0.7958984 0.5571289 0.7958984 0.5258789 0.7958984 0.5258789 0.7416992 0.5571289 0.7416992 0.5571289 0.7958984 0.5258789 0.7416992 0.5571289 0.7416992 0.5258789 0.7416992 0.5258789 0.6831055 0.5571289 0.6831055 0.5571289 0.7416992 0.5258789 0.6831055 0.5571289 0.6831055 0.5258789 0.6831055 0.5258789 0.6464844 0.5571289 0.6464844 0.5571289 0.6831055 0.5258789 0.6464844 0.5571289 0.9350586 0.5571289 0.9482422 0.5258789 0.9350586 0.5571289 0.9482422 0.5258789 0.9482422 0.5258789 0.9350586 0.5571289 0.6464844 0.5258789 0.6464844 0.5258789 0.6088867 0.5571289 0.6088867 0.5571289 0.6464844 0.5258789 0.6088867 0.5571289 0.6088867 0.5258789 0.6088867 0.5258789 0.5708008 0.5571289 0.5708008 0.5571289 0.6088867 0.5258789 0.5708008 0.5258789 0.5708008 0.5258789 0.5175781 0.5571289 0.5708008 0.5258789 0.5175781 0.5571289 0.5175781 0.5571289 0.5708008 0.5258789 0.5175781 0.5258789 0.3706055 0.5571289 0.5175781 0.5258789 0.3706055 0.5571289 0.3706055 0.5571289 0.5175781 0.5258789 0.3706055 0.5258789 0.2263183 0.5571289 0.3706055 0.5258789 0.2263183 0.5571289 0.2263183 0.5571289 0.3706055 0.5830078 0.243164 0.5830078 0.1710205 0.609375 0.2260742 0.609375 0.2260742 0.609375 0.3706055 0.5830078 0.243164 0.5571289 0.9692383 0.5258789 0.9692383 0.5258789 0.9482422 0.5571289 0.9482422 0.5571289 0.9692383 0.5258789 0.9482422 0.263916 0.08062744 0.263916 0.05499267 0.2364501 0.00894165 0.2364501 0.1074218 0.263916 0.08062744 0.2364501 0.00894165 0.263916 0.05499267 0.263916 0.08062744 0.2922363 0.04724121 0.263916 0.08062744 0.2922363 0.1074218 0.2922363 0.04724121 0.2922363 0.1074218 0.3334961 0.1074218 0.2922363 0.04724121 0.3334961 0.1074218 0.3334961 0.07562255 0.2922363 0.04724121 0.263916 0.05499267 0.263916 0.02783203 0.2364501 0.00894165 0.2364501 0.1074218 0.263916 0.1074218 0.263916 0.08062744 0.2364501 0.2104492 0.263916 0.1915283 0.263916 0.1628417 0.2364501 0.2104492 0.263916 0.1628417 0.2364501 0.1074218 0.263916 0.1628417 0.263916 0.1357421 0.2364501 0.1074218 0.263916 0.1357421 0.263916 0.1628417 0.2922363 0.1074218 0.263916 0.1628417 0.2922363 0.1721191 0.2922363 0.1074218 0.2922363 0.1721191 0.3334961 0.1436767 0.2922363 0.1074218 0.3334961 0.1436767 0.3334961 0.1074218 0.2922363 0.1074218 0.263916 0.1357421 0.263916 0.1074218 0.2364501 0.1074218 0.4313965 0.1074218 0.4313965 0.02568054 0.3334961 0.07562255 0.3334961 0.1074218 0.4313965 0.1074218 0.3334961 0.07562255 0.4313965 0.1936035 0.4313965 0.1074218 0.3334961 0.1074218 0.3334961 0.1436767 0.4313965 0.1936035 0.3334961 0.1074218 0.5263672 0.1074218 0.6210938 0.1074218 0.5263672 0.05508422 0.5263672 0.1074218 0.5263672 0.05508422 0.4313965 0.02568054 0.4313965 0.1074218 0.5263672 0.1074218 0.4313965 0.02568054 0.5263672 0.1643066 0.6210938 0.1074218 0.5263672 0.1074218 0.5263672 0.1643066 0.5263672 0.1074218 0.4313965 0.1074218 0.4313965 0.1936035 0.5263672 0.1643066 0.4313965 0.1074218 0.263916 0.1915283 0.263916 0.1628417 0.2364501 0.2104492 0.263916 0.1628417 0.263916 0.1361083 0.2364501 0.2104492 0.263916 0.1361083 0.263916 0.1628417 0.2922363 0.1074218 0.263916 0.1628417 0.2922363 0.1721191 0.2922363 0.1074218 0.2922363 0.1721191 0.3334961 0.1436767 0.2922363 0.1074218 0.3334961 0.1436767 0.3334961 0.1074218 0.2922363 0.1074218 0.263916 0.1361083 0.2364501 0.1074218 0.2364501 0.2104492 0.263916 0.1361083 0.263916 0.1074218 0.2364501 0.1074218 0.263916 0.1074218 0.263916 0.08032226 0.2364501 0.1074218 0.263916 0.08032226 0.263916 0.05493164 0.2364501 0.1074218 0.263916 0.05493164 0.263916 0.08032226 0.2922363 0.04724121 0.263916 0.08032226 0.2922363 0.1074218 0.2922363 0.04724121 0.2922363 0.1074218 0.3334961 0.1074218 0.2922363 0.04724121 0.3334961 0.1074218 0.3334961 0.07562255 0.2922363 0.04724121 0.263916 0.05493164 0.2364501 0.00894165 0.2364501 0.1074218 0.263916 0.05493164 0.263916 0.02783203 0.2364501 0.00894165 0.4313965 0.1074218 0.3334961 0.1074218 0.3334961 0.1436767 0.4313965 0.1936035 0.4313965 0.1074218 0.3334961 0.1436767 0.4313965 0.02568054 0.3334961 0.07562255 0.3334961 0.1074218 0.4313965 0.1074218 0.4313965 0.02568054 0.3334961 0.1074218 0.6210938 0.1074218 0.5263672 0.1074218 0.5263672 0.1643066 0.5263672 0.1643066 0.5263672 0.1074218 0.4313965 0.1936035 0.5263672 0.1074218 0.4313965 0.1074218 0.4313965 0.1936035 0.6210938 0.1074218 0.5263672 0.05508422 0.5263672 0.1074218 0.5263672 0.1074218 0.5263672 0.05508422 0.4313965 0.1074218 0.5263672 0.05508422 0.4313965 0.02568054 0.4313965 0.1074218 0.609375 0.5708008 0.609375 0.6088867 0.5830078 0.6088867 0.5830078 0.6088867 0.609375 0.6088867 0.5830078 0.6464844 0.5830078 0.6464844 0.609375 0.6088867 0.609375 0.6464844 0.5830078 0.5708008 0.609375 0.5708008 0.5830078 0.6088867 0.5830078 0.5708008 0.5830078 0.5175781 0.609375 0.5708008 0.5830078 0.5175781 0.609375 0.5175781 0.609375 0.5708008 0.5830078 0.5175781 0.5830078 0.3706055 0.609375 0.5175781 0.5830078 0.3706055 0.609375 0.3706055 0.609375 0.5175781 0.609375 0.3706055 0.5830078 0.3706055 0.5830078 0.243164 0.5830078 0.6464844 0.609375 0.6464844 0.609375 0.6831055 0.5830078 0.6464844 0.609375 0.6831055 0.5830078 0.6831055 0.5830078 0.6831055 0.609375 0.6831055 0.5830078 0.7416992 0.609375 0.6831055 0.609375 0.7416992 0.5830078 0.7416992 0.5830078 0.7416992 0.609375 0.7416992 0.5830078 0.7958984 0.609375 0.7416992 0.609375 0.7958984 0.5830078 0.7958984 0.5830078 0.7958984 0.609375 0.7958984 0.5830078 0.8388672 0.609375 0.7958984 0.609375 0.8613281 0.5830078 0.8388672 0.5830078 0.8388672 0.609375 0.8613281 0.5830078 0.8613281 0.5830078 0.8701172 0.5830078 0.8613281 0.609375 0.8613281 0.5830078 0.8701172 0.609375 0.8613281 0.609375 0.8735352 0.5830078 0.8701172 0.609375 0.8735352 0.5830078 0.8813477 0.5830078 0.8813477 0.609375 0.8735352 0.609375 0.9345703 0.5830078 0.940918 0.5830078 0.8813477 0.609375 0.9345703 0.609375 0.9345703 0.609375 0.9467774 0.5830078 0.940918 0.609375 0.9467774 0.5830078 0.9609375 0.5830078 0.940918 0.609375 0.9467774 0.609375 0.9672852 0.5830078 0.9609375 0.5571289 0.8735352 0.5830078 0.8813477 0.5830078 0.940918 0.5571289 0.9350586 0.5571289 0.8735352 0.5830078 0.940918 0.5830078 0.8701172 0.5830078 0.8813477 0.5571289 0.8735352 0.5830078 0.8701172 0.5571289 0.8735352 0.5571289 0.8613281 0.5830078 0.8613281 0.5830078 0.8701172 0.5571289 0.8613281 0.5830078 0.8613281 0.5571289 0.8613281 0.5830078 0.8388672 0.5830078 0.8388672 0.5571289 0.8613281 0.5571289 0.7958984 0.5830078 0.7958984 0.5830078 0.8388672 0.5571289 0.7958984 0.5830078 0.7958984 0.5571289 0.7958984 0.5571289 0.7416992 0.5830078 0.7416992 0.5830078 0.7958984 0.5571289 0.7416992 0.5830078 0.7416992 0.5571289 0.7416992 0.5830078 0.6831055 0.5571289 0.7416992 0.5571289 0.6831055 0.5830078 0.6831055 0.5830078 0.6464844 0.5830078 0.6831055 0.5571289 0.6831055 0.5830078 0.940918 0.5571289 0.9482422 0.5571289 0.9350586 0.5830078 0.940918 0.5830078 0.9609375 0.5571289 0.9482422 0.5830078 0.9609375 0.5571289 0.9692383 0.5571289 0.9482422 0.5830078 0.6464844 0.5571289 0.6831055 0.5571289 0.6464844 0.5830078 0.6464844 0.5571289 0.6464844 0.5571289 0.6088867 0.5830078 0.6088867 0.5830078 0.6464844 0.5571289 0.6088867 0.5830078 0.6088867 0.5571289 0.6088867 0.5571289 0.5708008 0.5830078 0.5708008 0.5830078 0.6088867 0.5571289 0.5708008 0.5571289 0.5708008 0.5571289 0.5175781 0.5830078 0.5708008 0.5571289 0.5175781 0.5830078 0.5175781 0.5830078 0.5708008 0.5571289 0.5175781 0.5571289 0.3706055 0.5830078 0.5175781 0.5571289 0.3706055 0.5830078 0.3706055 0.5830078 0.5175781 0.5830078 0.243164 0.5830078 0.3706055 0.5571289 0.3706055 0.5571289 0.2263183 0.5830078 0.243164 0.5571289 0.3706055 0.5830078 0.1710205 0.5830078 0.243164 0.5571289 0.2263183 0.5258789 0.8735352 0.5571289 0.8735352 0.5571289 0.9350586 0.5258789 0.9350586 0.5258789 0.8735352 0.5571289 0.9350586 0.5571289 0.8735352 0.5258789 0.8735352 0.5258789 0.8613281 0.5571289 0.8613281 0.5571289 0.8735352 0.5258789 0.8613281 0.5571289 0.8613281 0.5258789 0.8613281 0.5258789 0.7958984 0.5571289 0.7958984 0.5571289 0.8613281 0.5258789 0.7958984 0.5571289 0.7958984 0.5258789 0.7958984 0.5258789 0.7416992 0.5571289 0.7416992 0.5571289 0.7958984 0.5258789 0.7416992 0.5571289 0.7416992 0.5258789 0.7416992 0.5258789 0.6831055 0.5571289 0.6831055 0.5571289 0.7416992 0.5258789 0.6831055 0.5571289 0.6831055 0.5258789 0.6831055 0.5258789 0.6464844 0.5571289 0.6464844 0.5571289 0.6831055 0.5258789 0.6464844 0.5571289 0.9350586 0.5571289 0.9482422 0.5258789 0.9350586 0.5571289 0.9482422 0.5258789 0.9482422 0.5258789 0.9350586 0.5571289 0.6464844 0.5258789 0.6464844 0.5258789 0.6088867 0.5571289 0.6088867 0.5571289 0.6464844 0.5258789 0.6088867 0.5571289 0.6088867 0.5258789 0.6088867 0.5258789 0.5708008 0.5571289 0.5708008 0.5571289 0.6088867 0.5258789 0.5708008 0.5258789 0.5708008 0.5258789 0.5175781 0.5571289 0.5708008 0.5258789 0.5175781 0.5571289 0.5175781 0.5571289 0.5708008 0.5258789 0.5175781 0.5258789 0.3706055 0.5571289 0.5175781 0.5258789 0.3706055 0.5571289 0.3706055 0.5571289 0.5175781 0.5258789 0.3706055 0.5258789 0.2263183 0.5571289 0.3706055 0.5258789 0.2263183 0.5571289 0.2263183 0.5571289 0.3706055 0.5830078 0.243164 0.5830078 0.1710205 0.609375 0.2260742 0.609375 0.2260742 0.609375 0.3706055 0.5830078 0.243164 0.5571289 0.9692383 0.5258789 0.9692383 0.5258789 0.9482422 0.5571289 0.9482422 0.5571289 0.9692383 0.5258789 0.9482422 0.550293 0.2163085 0.515625 0.2163085 0.515625 0.1815185 0.550293 0.1815185 0.550293 0.2163085 0.515625 0.1815185 0.609375 0.5708008 0.609375 0.6088867 0.5830078 0.6088867 0.5830078 0.6088867 0.609375 0.6088867 0.5830078 0.6464844 0.5830078 0.6464844 0.609375 0.6088867 0.609375 0.6464844 0.5830078 0.5708008 0.609375 0.5708008 0.5830078 0.6088867 0.5830078 0.5708008 0.5830078 0.5175781 0.609375 0.5708008 0.5830078 0.5175781 0.609375 0.5175781 0.609375 0.5708008 0.5830078 0.5175781 0.5830078 0.3706055 0.609375 0.5175781 0.5830078 0.3706055 0.609375 0.3706055 0.609375 0.5175781 0.609375 0.3706055 0.5830078 0.3706055 0.5830078 0.243164 0.5830078 0.6464844 0.609375 0.6464844 0.609375 0.6831055 0.5830078 0.6464844 0.609375 0.6831055 0.5830078 0.6831055 0.5830078 0.6831055 0.609375 0.6831055 0.5830078 0.7416992 0.609375 0.6831055 0.609375 0.7416992 0.5830078 0.7416992 0.5830078 0.7416992 0.609375 0.7416992 0.5830078 0.7958984 0.609375 0.7416992 0.609375 0.7958984 0.5830078 0.7958984 0.5830078 0.7958984 0.609375 0.7958984 0.5830078 0.8388672 0.609375 0.7958984 0.609375 0.8613281 0.5830078 0.8388672 0.5830078 0.8388672 0.609375 0.8613281 0.5830078 0.8613281 0.5830078 0.8701172 0.5830078 0.8613281 0.609375 0.8613281 0.5830078 0.8701172 0.609375 0.8613281 0.609375 0.8735352 0.5830078 0.8701172 0.609375 0.8735352 0.5830078 0.8813477 0.5830078 0.8813477 0.609375 0.8735352 0.609375 0.9345703 0.5830078 0.940918 0.5830078 0.8813477 0.609375 0.9345703 0.609375 0.9345703 0.609375 0.9467774 0.5830078 0.940918 0.609375 0.9467774 0.5830078 0.9609375 0.5830078 0.940918 0.609375 0.9467774 0.609375 0.9672852 0.5830078 0.9609375 0.5571289 0.8735352 0.5830078 0.8813477 0.5830078 0.940918 0.5571289 0.9350586 0.5571289 0.8735352 0.5830078 0.940918 0.5830078 0.8701172 0.5830078 0.8813477 0.5571289 0.8735352 0.5830078 0.8701172 0.5571289 0.8735352 0.5571289 0.8613281 0.5830078 0.8613281 0.5830078 0.8701172 0.5571289 0.8613281 0.5830078 0.8613281 0.5571289 0.8613281 0.5830078 0.8388672 0.5830078 0.8388672 0.5571289 0.8613281 0.5571289 0.7958984 0.5830078 0.7958984 0.5830078 0.8388672 0.5571289 0.7958984 0.5830078 0.7958984 0.5571289 0.7958984 0.5571289 0.7416992 0.5830078 0.7416992 0.5830078 0.7958984 0.5571289 0.7416992 0.5830078 0.7416992 0.5571289 0.7416992 0.5830078 0.6831055 0.5571289 0.7416992 0.5571289 0.6831055 0.5830078 0.6831055 0.5830078 0.6464844 0.5830078 0.6831055 0.5571289 0.6831055 0.5830078 0.940918 0.5571289 0.9482422 0.5571289 0.9350586 0.5830078 0.940918 0.5830078 0.9609375 0.5571289 0.9482422 0.5830078 0.9609375 0.5571289 0.9692383 0.5571289 0.9482422 0.5830078 0.6464844 0.5571289 0.6831055 0.5571289 0.6464844 0.5830078 0.6464844 0.5571289 0.6464844 0.5571289 0.6088867 0.5830078 0.6088867 0.5830078 0.6464844 0.5571289 0.6088867 0.5830078 0.6088867 0.5571289 0.6088867 0.5571289 0.5708008 0.5830078 0.5708008 0.5830078 0.6088867 0.5571289 0.5708008 0.5571289 0.5708008 0.5571289 0.5175781 0.5830078 0.5708008 0.5571289 0.5175781 0.5830078 0.5175781 0.5830078 0.5708008 0.5571289 0.5175781 0.5571289 0.3706055 0.5830078 0.5175781 0.5571289 0.3706055 0.5830078 0.3706055 0.5830078 0.5175781 0.5830078 0.243164 0.5830078 0.3706055 0.5571289 0.3706055 0.5571289 0.2263183 0.5830078 0.243164 0.5571289 0.3706055 0.5830078 0.1710205 0.5830078 0.243164 0.5571289 0.2263183 0.5258789 0.8735352 0.5571289 0.8735352 0.5571289 0.9350586 0.5258789 0.9350586 0.5258789 0.8735352 0.5571289 0.9350586 0.5571289 0.8735352 0.5258789 0.8735352 0.5258789 0.8613281 0.5571289 0.8613281 0.5571289 0.8735352 0.5258789 0.8613281 0.5571289 0.8613281 0.5258789 0.8613281 0.5258789 0.7958984 0.5571289 0.7958984 0.5571289 0.8613281 0.5258789 0.7958984 0.5571289 0.7958984 0.5258789 0.7958984 0.5258789 0.7416992 0.5571289 0.7416992 0.5571289 0.7958984 0.5258789 0.7416992 0.5571289 0.7416992 0.5258789 0.7416992 0.5258789 0.6831055 0.5571289 0.6831055 0.5571289 0.7416992 0.5258789 0.6831055 0.5571289 0.6831055 0.5258789 0.6831055 0.5258789 0.6464844 0.5571289 0.6464844 0.5571289 0.6831055 0.5258789 0.6464844 0.5571289 0.9350586 0.5571289 0.9482422 0.5258789 0.9350586 0.5571289 0.9482422 0.5258789 0.9482422 0.5258789 0.9350586 0.5571289 0.6464844 0.5258789 0.6464844 0.5258789 0.6088867 0.5571289 0.6088867 0.5571289 0.6464844 0.5258789 0.6088867 0.5571289 0.6088867 0.5258789 0.6088867 0.5258789 0.5708008 0.5571289 0.5708008 0.5571289 0.6088867 0.5258789 0.5708008 0.5258789 0.5708008 0.5258789 0.5175781 0.5571289 0.5708008 0.5258789 0.5175781 0.5571289 0.5175781 0.5571289 0.5708008 0.5258789 0.5175781 0.5258789 0.3706055 0.5571289 0.5175781 0.5258789 0.3706055 0.5571289 0.3706055 0.5571289 0.5175781 0.5258789 0.3706055 0.5258789 0.2263183 0.5571289 0.3706055 0.5258789 0.2263183 0.5571289 0.2263183 0.5571289 0.3706055 0.5830078 0.243164 0.5830078 0.1710205 0.609375 0.2260742 0.609375 0.2260742 0.609375 0.3706055 0.5830078 0.243164 0.5571289 0.9692383 0.5258789 0.9692383 0.5258789 0.9482422 0.5571289 0.9482422 0.5571289 0.9692383 0.5258789 0.9482422 0.01530456 0.1326904 0.1097412 0.1105957 0.01530456 0.01262664 0.01530456 0.1326904 0.01530456 0.2459716 0.1097412 0.1105957 0.01530456 0.2459716 0.2164306 0.2218017 0.1097412 0.1105957 0.01530456 0.2459716 0.1588134 0.3366699 0.2164306 0.2218017 0.1097412 0.1105957 0.01530456 0.1326904 0.01530456 0.01262664 0.01530456 0.2459716 0.01530456 0.1326904 0.1097412 0.1105957 0.2164306 0.2218017 0.01530456 0.2459716 0.1097412 0.1105957 0.3190918 0.3334961 0.2164306 0.2218017 0.1588134 0.3366699 0.01530456 0.2459716 0.2164306 0.2218017 0.1588134 0.3366699 0.3190918 0.3334961 0.1588134 0.3366699 0.2164306 0.2218017 0.015419 0.3679199 0.1588134 0.3366699 0.01530456 0.2459716 0.1588134 0.3366699 0.015419 0.3679199 0.01530456 0.2459716 0.194458 0.4394531 0.1588134 0.3366699 0.015419 0.3679199 8.24928e-4 0.4736328 0.194458 0.4394531 0.015419 0.3679199 0.015419 0.3679199 0.1588134 0.3366699 8.24928e-4 0.4736328 0.1588134 0.3366699 0.19458 0.4394531 8.24928e-4 0.4736328 0.1636962 0.5908203 0.194458 0.4394531 8.24928e-4 0.4736328 0.3220215 0.5810547 0.194458 0.4394531 0.1636962 0.5908203 0.3220215 0.5810547 0.1636962 0.5908203 0.1795654 0.75 0.1795654 0.75 0.1636962 0.5908203 0.01530456 0.5893555 0.01530456 0.5893555 0.1636962 0.5908203 8.24928e-4 0.4736328 0.1795654 0.75 0.01530456 0.5893555 0.01530456 0.7719727 0.01530456 0.7719727 0.05731201 0.8588867 0.1795654 0.75 0.3427734 0.7197266 0.3220215 0.5810547 0.1795654 0.75 0.3427734 0.7197266 0.4941406 0.6777344 0.3220215 0.5810547 0.3427734 0.7197266 0.4882813 0.7978516 0.4941406 0.6777344 0.3427734 0.7197266 0.3671875 0.887207 0.4882813 0.7978516 0.4042969 0.4404297 0.194458 0.4394531 0.3220215 0.5810547 0.4650879 0.559082 0.4042969 0.4404297 0.3220215 0.5810547 0.4650879 0.559082 0.3220215 0.5810547 0.4941406 0.6777344 0.3427734 0.7197266 0.1795654 0.75 0.2563477 0.8901367 0.3671875 0.887207 0.3427734 0.7197266 0.2563477 0.8901367 0.2563477 0.8901367 0.1795654 0.75 0.1590576 0.8779297 0.1590576 0.8779297 0.1795654 0.75 0.05731201 0.8588867 0.1590576 0.8779297 0.1987304 0.9770508 0.2563477 0.8901367 0.1590576 0.8779297 0.1259765 0.9326172 0.1987304 0.9770508 0.1590576 0.8779297 0.05731201 0.8588867 0.1259765 0.9326172 0.3671875 0.887207 0.2563477 0.8901367 0.2866211 0.9853516 0.2563477 0.8901367 0.1987304 0.9770508 0.2866211 0.9853516 0.3671875 0.887207 0.2866211 0.9853516 0.3798828 0.9560547 0.3671875 0.887207 0.3798828 0.9560547 0.4484863 0.8911133 0.3671875 0.887207 0.4484863 0.8911133 0.4882813 0.7978516 0.01530456 0.5893555 0.1795654 0.75 0.01530456 0.7719727 0.1636962 0.5908203 0.1795654 0.75 0.01530456 0.5893555 0.1636962 0.5908203 0.3220215 0.5810547 0.1795654 0.75 0.19458 0.4394531 0.3220215 0.5810547 0.1636962 0.5908203 0.3220215 0.5810547 0.3427734 0.7197266 0.1795654 0.75 0.4941406 0.6777344 0.3427734 0.7197266 0.3220215 0.5810547 0.4882813 0.7978516 0.3427734 0.7197266 0.4941406 0.6777344 0.3671875 0.887207 0.3427734 0.7197266 0.4882813 0.7978516 0.19458 0.4394531 0.4042969 0.4404297 0.3220215 0.5810547 0.4042969 0.4404297 0.4650879 0.559082 0.3220215 0.5810547 0.3220215 0.5810547 0.4650879 0.559082 0.4941406 0.6777344 0.1795654 0.75 0.3427734 0.7197266 0.2563477 0.8901367 0.3427734 0.7197266 0.3671875 0.887207 0.2563477 0.8901367 0.1795654 0.75 0.2563477 0.8901367 0.1590576 0.8779297 0.1987304 0.9770508 0.1590576 0.8779297 0.2563477 0.8901367 0.1259765 0.9326172 0.1590576 0.8779297 0.1987304 0.9770508 0.05731201 0.8588867 0.1590576 0.8779297 0.1259765 0.9326172 0.1795654 0.75 0.1590576 0.8779297 0.05731201 0.8588867 0.05731201 0.8588867 0.01530456 0.7719727 0.1795654 0.75 0.2563477 0.8901367 0.3671875 0.887207 0.2866211 0.9853516 0.1987304 0.9770508 0.2563477 0.8901367 0.2866211 0.9853516 0.2866211 0.9853516 0.3671875 0.887207 0.3798828 0.9560547 0.3798828 0.9560547 0.3671875 0.887207 0.4484863 0.8911133 0.4484863 0.8911133 0.3671875 0.887207 0.4882813 0.7978516 0.4042969 0.4404297 0.19458 0.4394531 0.1588134 0.3366699 0.3190918 0.3334961 0.4042969 0.4404297 0.1588134 0.3366699 0.19458 0.4394531 0.1636962 0.5908203 8.24928e-4 0.4736328 0.1636962 0.5908203 0.01530456 0.5893555 8.24928e-4 0.4736328 0.01530456 0.1326904 0.1097412 0.1105957 0.01530456 0.01262664 0.01530456 0.1326904 0.01530456 0.2459716 0.1097412 0.1105957 0.01530456 0.2459716 0.2164306 0.2218017 0.1097412 0.1105957 0.01530456 0.2459716 0.1588134 0.3366699 0.2164306 0.2218017 0.1097412 0.1105957 0.01530456 0.1326904 0.01530456 0.01262664 0.01530456 0.2459716 0.01530456 0.1326904 0.1097412 0.1105957 0.2164306 0.2218017 0.01530456 0.2459716 0.1097412 0.1105957 0.3190918 0.3334961 0.2164306 0.2218017 0.1588134 0.3366699 0.01530456 0.2459716 0.2164306 0.2218017 0.1588134 0.3366699 0.3190918 0.3334961 0.1588134 0.3366699 0.2164306 0.2218017 0.015419 0.3679199 0.1588134 0.3366699 0.01530456 0.2459716 0.1588134 0.3366699 0.015419 0.3679199 0.01530456 0.2459716 0.194458 0.4394531 0.1588134 0.3366699 0.015419 0.3679199 8.24928e-4 0.4736328 0.194458 0.4394531 0.015419 0.3679199 0.015419 0.3679199 0.1588134 0.3366699 8.24928e-4 0.4736328 0.1588134 0.3366699 0.19458 0.4394531 8.24928e-4 0.4736328 0.1636962 0.5908203 0.194458 0.4394531 8.24928e-4 0.4736328 0.3220215 0.5810547 0.194458 0.4394531 0.1636962 0.5908203 0.3220215 0.5810547 0.1636962 0.5908203 0.1795654 0.75 0.1795654 0.75 0.1636962 0.5908203 0.01530456 0.5893555 0.01530456 0.5893555 0.1636962 0.5908203 8.24928e-4 0.4736328 0.1795654 0.75 0.01530456 0.5893555 0.01530456 0.7719727 0.01530456 0.7719727 0.05731201 0.8588867 0.1795654 0.75 0.3427734 0.7197266 0.3220215 0.5810547 0.1795654 0.75 0.3427734 0.7197266 0.4941406 0.6777344 0.3220215 0.5810547 0.3427734 0.7197266 0.4882813 0.7978516 0.4941406 0.6777344 0.3427734 0.7197266 0.3671875 0.887207 0.4882813 0.7978516 0.4042969 0.4404297 0.194458 0.4394531 0.3220215 0.5810547 0.4650879 0.559082 0.4042969 0.4404297 0.3220215 0.5810547 0.4650879 0.559082 0.3220215 0.5810547 0.4941406 0.6777344 0.3427734 0.7197266 0.1795654 0.75 0.2563477 0.8901367 0.3671875 0.887207 0.3427734 0.7197266 0.2563477 0.8901367 0.2563477 0.8901367 0.1795654 0.75 0.1590576 0.8779297 0.1590576 0.8779297 0.1795654 0.75 0.05731201 0.8588867 0.1590576 0.8779297 0.1987304 0.9770508 0.2563477 0.8901367 0.1590576 0.8779297 0.1259765 0.9326172 0.1987304 0.9770508 0.1590576 0.8779297 0.05731201 0.8588867 0.1259765 0.9326172 0.3671875 0.887207 0.2563477 0.8901367 0.2866211 0.9853516 0.2563477 0.8901367 0.1987304 0.9770508 0.2866211 0.9853516 0.3671875 0.887207 0.2866211 0.9853516 0.3798828 0.9560547 0.3671875 0.887207 0.3798828 0.9560547 0.4484863 0.8911133 0.3671875 0.887207 0.4484863 0.8911133 0.4882813 0.7978516 0.01530456 0.5893555 0.1795654 0.75 0.01530456 0.7719727 0.1636962 0.5908203 0.1795654 0.75 0.01530456 0.5893555 0.1636962 0.5908203 0.3220215 0.5810547 0.1795654 0.75 0.19458 0.4394531 0.3220215 0.5810547 0.1636962 0.5908203 0.3220215 0.5810547 0.3427734 0.7197266 0.1795654 0.75 0.4941406 0.6777344 0.3427734 0.7197266 0.3220215 0.5810547 0.4882813 0.7978516 0.3427734 0.7197266 0.4941406 0.6777344 0.3671875 0.887207 0.3427734 0.7197266 0.4882813 0.7978516 0.19458 0.4394531 0.4042969 0.4404297 0.3220215 0.5810547 0.4042969 0.4404297 0.4650879 0.559082 0.3220215 0.5810547 0.3220215 0.5810547 0.4650879 0.559082 0.4941406 0.6777344 0.1795654 0.75 0.3427734 0.7197266 0.2563477 0.8901367 0.3427734 0.7197266 0.3671875 0.887207 0.2563477 0.8901367 0.1795654 0.75 0.2563477 0.8901367 0.1590576 0.8779297 0.1987304 0.9770508 0.1590576 0.8779297 0.2563477 0.8901367 0.1259765 0.9326172 0.1590576 0.8779297 0.1987304 0.9770508 0.05731201 0.8588867 0.1590576 0.8779297 0.1259765 0.9326172 0.1795654 0.75 0.1590576 0.8779297 0.05731201 0.8588867 0.05731201 0.8588867 0.01530456 0.7719727 0.1795654 0.75 0.2563477 0.8901367 0.3671875 0.887207 0.2866211 0.9853516 0.1987304 0.9770508 0.2563477 0.8901367 0.2866211 0.9853516 0.2866211 0.9853516 0.3671875 0.887207 0.3798828 0.9560547 0.3798828 0.9560547 0.3671875 0.887207 0.4484863 0.8911133 0.4484863 0.8911133 0.3671875 0.887207 0.4882813 0.7978516 0.4042969 0.4404297 0.19458 0.4394531 0.1588134 0.3366699 0.3190918 0.3334961 0.4042969 0.4404297 0.1588134 0.3366699 0.19458 0.4394531 0.1636962 0.5908203 8.24928e-4 0.4736328 0.1636962 0.5908203 0.01530456 0.5893555 8.24928e-4 0.4736328 0.4042969 0.4401856 0.3190918 0.3334961 0.1588134 0.3366699 0.194458 0.4394531 0.4042969 0.4401856 0.1588134 0.3366699 0.4042969 0.4404297 0.3190918 0.3334961 0.1588134 0.3366699 0.194458 0.4394531 0.4042969 0.4404297 0.1588134 0.3366699 0.4042969 0.4404297 0.3190918 0.3334961 0.1588134 0.3366699 0.194458 0.4394531 0.4042969 0.4404297 0.1588134 0.3366699</float_array>
          <technique_common>
            <accessor source="#SkillObj_OverGrow_Seed2_Model-mesh-map-0-array" count="1794" stride="2">
              <param name="S" type="float"/>
              <param name="T" type="float"/>
            </accessor>
          </technique_common>
        </source>
        <vertices id="SkillObj_OverGrow_Seed2_Model-mesh-vertices">
          <input semantic="POSITION" source="#SkillObj_OverGrow_Seed2_Model-mesh-positions"/>
        </vertices>
        <triangles material="Default_OBJ_002-material" count="598">
          <input semantic="VERTEX" source="#SkillObj_OverGrow_Seed2_Model-mesh-vertices" offset="0"/>
          <input semantic="NORMAL" source="#SkillObj_OverGrow_Seed2_Model-mesh-normals" offset="1"/>
          <input semantic="TEXCOORD" source="#SkillObj_OverGrow_Seed2_Model-mesh-map-0" offset="2" set="0"/>
          <p>0 0 0 1 1 1 2 2 2 0 0 3 3 3 4 1 1 5 3 3 6 4 4 7 1 1 8 3 3 9 5 5 10 4 4 11 6 6 12 0 0 13 2 2 14 3 3 15 0 0 16 6 6 17 7 7 18 3 3 19 6 6 20 8 8 21 4 4 22 5 5 23 3 3 24 7 7 25 9 9 26 10 10 27 9 9 28 7 7 29 11 11 30 5 5 31 3 3 32 9 9 33 11 11 34 3 3 35 12 12 36 5 5 37 11 11 38 13 13 39 12 12 40 11 11 41 11 11 42 9 9 43 13 13 44 9 9 45 14 14 46 13 13 47 15 15 48 12 12 49 13 13 50 16 16 51 12 12 52 15 15 53 16 16 54 15 15 55 17 17 56 17 17 57 15 15 58 18 18 59 18 18 60 15 15 61 13 13 62 17 17 63 18 18 64 19 19 65 19 19 66 20 20 67 17 17 68 21 21 69 16 16 70 17 17 71 21 21 72 22 22 73 16 16 74 21 21 75 23 23 76 22 22 77 21 21 78 24 24 79 23 23 80 25 25 81 12 12 82 16 16 83 26 26 84 25 25 85 16 16 86 26 26 87 16 16 88 22 22 89 21 21 90 17 17 91 27 27 92 24 24 93 21 21 94 27 27 95 27 27 96 17 17 97 28 28 98 28 28 99 17 17 100 20 20 101 28 28 102 29 29 103 27 27 104 28 28 105 30 30 106 29 29 107 28 28 108 20 20 109 30 30 110 24 24 111 27 27 112 31 31 113 27 27 114 29 29 115 31 31 116 24 24 117 31 31 118 32 32 119 24 24 120 32 32 121 33 33 122 24 24 123 33 33 124 23 23 125 18 18 126 34 34 127 19 19 128 35 35 129 34 34 130 18 18 131 35 35 132 36 36 133 34 34 134 14 14 135 36 36 136 35 35 137 36 36 138 37 37 139 34 34 140 38 38 141 37 37 142 36 36 143 39 39 144 37 37 145 38 38 146 40 40 147 37 37 148 39 39 149 14 14 150 41 41 151 36 36 152 41 41 153 42 42 154 36 36 155 36 36 156 42 42 157 38 38 158 34 34 159 37 37 160 43 43 161 37 37 162 40 40 163 43 43 164 34 34 165 43 43 166 44 44 167 45 45 168 44 44 169 43 43 170 46 46 171 44 44 172 45 45 173 47 47 174 44 44 175 46 46 176 34 34 177 44 44 178 47 47 179 47 47 180 19 19 181 34 34 182 43 43 183 40 40 184 48 48 185 45 45 186 43 43 187 48 48 188 48 48 189 40 40 190 49 49 191 49 49 192 40 40 193 50 50 194 50 50 195 40 40 196 39 39 197 41 41 198 14 14 199 9 9 200 10 10 201 41 41 202 9 9 203 14 14 204 35 35 205 13 13 206 35 35 207 18 18 208 13 13 209 51 51 210 52 52 211 53 53 212 53 53 213 52 52 214 54 54 215 54 54 216 52 52 217 55 55 218 56 56 219 51 51 220 53 53 221 56 56 222 57 57 223 51 51 224 57 57 225 58 58 226 51 51 227 57 57 228 59 59 229 58 58 230 59 59 231 60 60 232 58 58 233 60 60 234 59 59 235 61 61 236 54 54 237 55 55 238 62 62 239 54 54 240 62 62 241 63 63 242 63 63 243 62 62 244 64 64 245 62 62 246 65 65 247 64 64 248 64 64 249 65 65 250 66 66 251 65 65 252 67 67 253 66 66 254 66 66 255 67 67 256 68 68 257 67 67 258 69 69 259 68 68 260 68 68 261 69 69 262 70 70 263 71 71 264 70 70 265 69 69 266 71 71 267 69 69 268 72 72 269 71 71 270 72 72 271 73 73 272 73 73 273 72 72 274 74 74 275 75 75 276 73 73 277 74 74 278 74 74 279 76 76 280 75 75 281 76 76 282 77 77 283 75 75 284 76 76 285 78 78 286 77 77 287 79 79 288 80 80 289 81 81 290 82 82 291 79 79 292 81 81 293 83 83 294 80 80 295 79 79 296 83 83 297 79 79 298 84 84 299 85 85 300 83 83 301 84 84 302 85 85 303 84 84 304 86 86 305 86 86 306 84 84 307 87 87 308 88 88 309 86 86 310 87 87 311 88 88 312 87 87 313 89 89 314 90 90 315 88 88 316 89 89 317 90 90 318 89 89 319 91 91 320 89 89 321 92 92 322 91 91 323 93 93 324 91 91 325 92 92 326 81 81 327 94 94 328 82 82 329 81 81 330 95 95 331 94 94 332 95 95 333 96 96 334 94 94 335 93 93 336 92 92 337 97 97 338 93 93 339 97 97 340 98 98 341 99 99 342 93 93 343 98 98 344 99 99 345 98 98 346 100 100 347 101 101 348 99 99 349 100 100 350 100 100 351 102 102 352 101 101 353 102 102 354 103 103 355 101 101 356 102 102 357 104 104 358 103 103 359 104 104 360 105 105 361 103 103 362 106 106 363 105 105 364 104 104 365 107 107 366 106 106 367 104 104 368 108 108 369 106 106 370 107 107 371 109 109 372 110 110 373 111 111 374 112 112 375 109 109 376 111 111 377 110 110 378 109 109 379 113 113 380 114 114 381 110 110 382 113 113 383 114 114 384 113 113 385 115 115 386 116 116 387 114 114 388 115 115 389 116 116 390 115 115 391 117 117 392 118 118 393 116 116 394 117 117 395 118 118 396 117 117 397 119 119 398 120 120 399 118 118 400 119 119 401 120 120 402 119 119 403 121 121 404 122 122 405 120 120 406 121 121 407 111 111 408 123 123 409 112 112 410 123 123 411 124 124 412 112 112 413 122 122 414 121 121 415 125 125 416 126 126 417 122 122 418 125 125 419 126 126 420 125 125 421 127 127 422 128 128 423 126 126 424 127 127 425 127 127 426 129 129 427 128 128 428 129 129 429 130 130 430 128 128 431 129 129 432 131 131 433 130 130 434 131 131 435 132 132 436 130 130 437 131 131 438 133 133 439 132 132 440 133 133 441 134 134 442 132 132 443 61 61 444 135 135 445 136 136 446 136 136 447 60 60 448 61 61 449 137 137 450 138 138 451 139 139 452 140 140 453 137 137 454 139 139 455 141 141 456 142 142 457 143 143 458 143 143 459 142 142 460 144 144 461 144 144 462 142 142 463 145 145 464 146 146 465 141 141 466 143 143 467 146 146 468 147 147 469 141 141 470 147 147 471 148 148 472 141 141 473 147 147 474 149 149 475 148 148 476 149 149 477 150 150 478 148 148 479 150 150 480 149 149 481 151 151 482 144 144 483 145 145 484 152 152 485 144 144 486 152 152 487 153 153 488 153 153 489 152 152 490 154 154 491 152 152 492 155 155 493 154 154 494 154 154 495 155 155 496 156 156 497 155 155 498 157 157 499 156 156 500 156 156 501 157 157 502 158 158 503 157 157 504 159 159 505 158 158 506 158 158 507 159 159 508 160 160 509 161 161 510 160 160 511 159 159 512 161 161 513 159 159 514 162 162 515 161 161 516 162 162 517 163 163 518 163 163 519 162 162 520 164 164 521 165 165 522 163 163 523 164 164 524 164 164 525 166 166 526 165 165 527 166 166 528 167 167 529 165 165 530 166 166 531 168 168 532 167 167 533 169 169 534 170 170 535 171 171 536 172 172 537 169 169 538 171 171 539 173 173 540 170 170 541 169 169 542 173 173 543 169 169 544 174 174 545 175 175 546 173 173 547 174 174 548 175 175 549 174 174 550 176 176 551 176 176 552 174 174 553 177 177 554 178 178 555 176 176 556 177 177 557 178 178 558 177 177 559 179 179 560 180 180 561 178 178 562 179 179 563 180 180 564 179 179 565 181 181 566 179 179 567 182 182 568 181 181 569 183 183 570 181 181 571 182 182 572 171 171 573 184 184 574 172 172 575 171 171 576 185 185 577 184 184 578 185 185 579 186 186 580 184 184 581 183 183 582 182 182 583 187 187 584 183 183 585 187 187 586 188 188 587 189 189 588 183 183 589 188 188 590 189 189 591 188 188 592 190 190 593 191 191 594 189 189 595 190 190 596 190 190 597 192 192 598 191 191 599 192 192 600 193 193 601 191 191 602 192 192 603 194 194 604 193 193 605 194 194 606 195 195 607 193 193 608 196 196 609 195 195 610 194 194 611 197 197 612 196 196 613 194 194 614 198 198 615 196 196 616 197 197 617 199 199 618 200 200 619 201 201 620 202 202 621 199 199 622 201 201 623 200 200 624 199 199 625 203 203 626 204 204 627 200 200 628 203 203 629 204 204 630 203 203 631 205 205 632 206 206 633 204 204 634 205 205 635 206 206 636 205 205 637 207 207 638 208 208 639 206 206 640 207 207 641 208 208 642 207 207 643 209 209 644 210 210 645 208 208 646 209 209 647 210 210 648 209 209 649 211 211 650 212 212 651 210 210 652 211 211 653 201 201 654 213 213 655 202 202 656 213 213 657 214 214 658 202 202 659 212 212 660 211 211 661 215 215 662 216 216 663 212 212 664 215 215 665 216 216 666 215 215 667 217 217 668 218 218 669 216 216 670 217 217 671 217 217 672 219 219 673 218 218 674 219 219 675 220 220 676 218 218 677 219 219 678 221 221 679 220 220 680 221 221 681 222 222 682 220 220 683 221 221 684 223 223 685 222 222 686 223 223 687 224 224 688 222 222 689 151 151 690 225 225 691 226 226 692 226 226 693 150 150 694 151 151 695 227 227 696 228 228 697 229 229 698 230 230 699 227 227 700 229 229 701 231 231 702 232 232 703 233 233 704 234 234 705 231 231 706 233 233 707 232 232 708 231 231 709 235 235 710 231 231 711 236 236 712 235 235 713 236 236 714 237 237 715 235 235 716 237 237 717 238 238 718 235 235 719 232 232 720 239 239 721 233 233 722 234 234 723 240 240 724 231 231 725 241 241 726 242 242 727 243 243 728 241 241 729 243 243 730 244 244 731 243 243 732 245 245 733 244 244 734 245 245 735 243 243 736 246 246 737 243 243 738 247 247 739 246 246 740 247 247 741 248 248 742 246 246 743 248 248 744 249 249 745 246 246 746 245 245 747 250 250 748 244 244 749 251 251 750 252 252 751 253 253 752 254 254 753 251 251 754 253 253 755 255 255 756 256 256 757 257 257 758 258 258 759 255 255 760 257 257 761 259 259 762 260 260 763 261 261 764 259 259 765 261 261 766 262 262 767 263 263 768 259 259 769 262 262 770 264 264 771 265 265 772 266 266 773 264 264 774 266 266 775 267 267 776 268 268 777 264 264 778 267 267 779 269 269 780 270 270 781 271 271 782 270 270 783 272 272 784 271 271 785 272 272 786 270 270 787 273 273 788 270 270 789 274 274 790 273 273 791 274 274 792 275 275 793 273 273 794 275 275 795 276 276 796 273 273 797 272 272 798 277 277 799 271 271 800 272 272 801 278 278 802 277 277 803 279 279 804 280 280 805 281 281 806 280 280 807 282 282 808 281 281 809 282 282 810 280 280 811 283 283 812 280 280 813 284 284 814 283 283 815 284 284 816 285 285 817 283 283 818 285 285 819 286 286 820 283 283 821 282 282 822 287 287 823 281 281 824 282 282 825 288 288 826 287 287 827 289 289 828 290 290 829 291 291 830 292 292 831 289 289 832 291 291 833 293 293 834 294 294 835 295 295 836 296 296 837 293 293 838 295 295 839 297 297 840 298 298 841 299 299 842 299 299 843 298 298 844 300 300 845 298 298 846 301 301 847 300 300 848 302 302 849 303 303 850 304 304 851 304 304 852 303 303 853 305 305 854 303 303 855 306 306 856 305 305 857 307 307 858 308 308 859 309 309 860 309 309 861 308 308 862 310 310 863 310 310 864 308 308 865 311 311 866 312 312 867 307 307 868 309 309 869 312 312 870 313 313 871 307 307 872 313 313 873 314 314 874 307 307 875 313 313 876 315 315 877 314 314 878 315 315 879 316 316 880 314 314 881 316 316 882 315 315 883 317 317 884 310 310 885 311 311 886 318 318 887 310 310 888 318 318 889 319 319 890 319 319 891 318 318 892 320 320 893 318 318 894 321 321 895 320 320 896 320 320 897 321 321 898 322 322 899 321 321 900 323 323 901 322 322 902 322 322 903 323 323 904 324 324 905 323 323 906 325 325 907 324 324 908 324 324 909 325 325 910 326 326 911 327 327 912 326 326 913 325 325 914 327 327 915 325 325 916 328 328 917 327 327 918 328 328 919 329 329 920 329 329 921 328 328 922 330 330 923 331 331 924 329 329 925 330 330 926 330 330 927 332 332 928 331 331 929 332 332 930 333 333 931 331 331 932 332 332 933 334 334 934 333 333 935 335 335 936 336 336 937 337 337 938 338 338 939 335 335 940 337 337 941 339 339 942 336 336 943 335 335 944 339 339 945 335 335 946 340 340 947 341 341 948 339 339 949 340 340 950 341 341 951 340 340 952 342 342 953 342 342 954 340 340 955 343 343 956 344 344 957 342 342 958 343 343 959 344 344 960 343 343 961 345 345 962 346 346 963 344 344 964 345 345 965 346 346 966 345 345 967 347 347 968 345 345 969 348 348 970 347 347 971 349 349 972 347 347 973 348 348 974 337 337 975 350 350 976 338 338 977 337 337 978 351 351 979 350 350 980 351 351 981 352 352 982 350 350 983 349 349 984 348 348 985 353 353 986 349 349 987 353 353 988 354 354 989 355 355 990 349 349 991 354 354 992 355 355 993 354 354 994 356 356 995 357 357 996 355 355 997 356 356 998 356 356 999 358 358 1000 357 357 1001 358 358 1002 359 359 1003 357 357 1004 358 358 1005 360 360 1006 359 359 1007 360 360 1008 361 361 1009 359 359 1010 362 362 1011 361 361 1012 360 360 1013 363 363 1014 362 362 1015 360 360 1016 364 364 1017 362 362 1018 363 363 1019 365 365 1020 366 366 1021 367 367 1022 368 368 1023 365 365 1024 367 367 1025 366 366 1026 365 365 1027 369 369 1028 370 370 1029 366 366 1030 369 369 1031 370 370 1032 369 369 1033 371 371 1034 372 372 1035 370 370 1036 371 371 1037 372 372 1038 371 371 1039 373 373 1040 374 374 1041 372 372 1042 373 373 1043 374 374 1044 373 373 1045 375 375 1046 376 376 1047 374 374 1048 375 375 1049 376 376 1050 375 375 1051 377 377 1052 378 378 1053 376 376 1054 377 377 1055 367 367 1056 379 379 1057 368 368 1058 379 379 1059 380 380 1060 368 368 1061 378 378 1062 377 377 1063 381 381 1064 382 382 1065 378 378 1066 381 381 1067 382 382 1068 381 381 1069 383 383 1070 384 384 1071 382 382 1072 383 383 1073 383 383 1074 385 385 1075 384 384 1076 385 385 1077 386 386 1078 384 384 1079 385 385 1080 387 387 1081 386 386 1082 387 387 1083 388 388 1084 386 386 1085 387 387 1086 389 389 1087 388 388 1088 389 389 1089 390 390 1090 388 388 1091 317 317 1092 391 391 1093 392 392 1094 392 392 1095 316 316 1096 317 317 1097 393 393 1098 394 394 1099 395 395 1100 396 396 1101 393 393 1102 395 395 1103 397 397 1104 398 397 1105 399 397 1106 400 397 1107 397 397 1108 399 397 1109 401 398 1110 402 399 1111 403 400 1112 403 400 1113 402 399 1114 404 401 1115 404 401 1116 402 399 1117 405 402 1118 406 403 1119 401 398 1120 403 400 1121 406 403 1122 407 404 1123 401 398 1124 407 404 1125 408 405 1126 401 398 1127 407 404 1128 409 406 1129 408 405 1130 409 406 1131 410 407 1132 408 405 1133 410 407 1134 409 406 1135 411 408 1136 404 401 1137 405 402 1138 412 409 1139 404 401 1140 412 409 1141 413 410 1142 413 410 1143 412 409 1144 414 411 1145 412 409 1146 415 412 1147 414 411 1148 414 411 1149 415 412 1150 416 413 1151 415 412 1152 417 414 1153 416 413 1154 416 413 1155 417 414 1156 418 415 1157 417 414 1158 419 416 1159 418 415 1160 418 415 1161 419 416 1162 420 417 1163 421 418 1164 420 417 1165 419 416 1166 421 418 1167 419 416 1168 422 419 1169 421 418 1170 422 419 1171 423 420 1172 423 420 1173 422 419 1174 424 421 1175 425 422 1176 423 420 1177 424 421 1178 424 421 1179 426 423 1180 425 422 1181 426 423 1182 427 424 1183 425 422 1184 426 423 1185 428 425 1186 427 424 1187 429 426 1188 430 427 1189 431 428 1190 432 429 1191 429 426 1192 431 428 1193 433 430 1194 430 427 1195 429 426 1196 433 430 1197 429 426 1198 434 431 1199 435 432 1200 433 430 1201 434 431 1202 435 432 1203 434 431 1204 436 433 1205 436 433 1206 434 431 1207 437 434 1208 438 435 1209 436 433 1210 437 434 1211 438 435 1212 437 434 1213 439 436 1214 440 437 1215 438 435 1216 439 436 1217 440 437 1218 439 436 1219 441 438 1220 439 436 1221 442 439 1222 441 438 1223 443 440 1224 441 438 1225 442 439 1226 431 428 1227 444 441 1228 432 429 1229 431 428 1230 445 442 1231 444 441 1232 445 442 1233 446 443 1234 444 441 1235 443 440 1236 442 439 1237 447 444 1238 443 440 1239 447 444 1240 448 445 1241 449 446 1242 443 440 1243 448 445 1244 449 446 1245 448 445 1246 450 447 1247 451 448 1248 449 446 1249 450 447 1250 450 447 1251 452 449 1252 451 448 1253 452 449 1254 453 450 1255 451 448 1256 452 449 1257 454 451 1258 453 450 1259 454 451 1260 455 452 1261 453 450 1262 456 453 1263 455 452 1264 454 451 1265 457 454 1266 456 453 1267 454 451 1268 458 455 1269 456 453 1270 457 454 1271 459 456 1272 460 457 1273 461 458 1274 462 459 1275 459 456 1276 461 458 1277 460 457 1278 459 456 1279 463 460 1280 464 461 1281 460 457 1282 463 460 1283 464 461 1284 463 460 1285 465 462 1286 466 463 1287 464 461 1288 465 462 1289 466 463 1290 465 462 1291 467 464 1292 468 465 1293 466 463 1294 467 464 1295 468 465 1296 467 464 1297 469 466 1298 470 467 1299 468 465 1300 469 466 1301 470 467 1302 469 466 1303 471 468 1304 472 469 1305 470 467 1306 471 468 1307 461 458 1308 473 470 1309 462 459 1310 473 470 1311 474 471 1312 462 459 1313 472 469 1314 471 468 1315 475 472 1316 476 473 1317 472 469 1318 475 472 1319 476 473 1320 475 472 1321 477 474 1322 478 475 1323 476 473 1324 477 474 1325 477 474 1326 479 476 1327 478 475 1328 479 476 1329 480 477 1330 478 475 1331 479 476 1332 481 478 1333 480 477 1334 481 478 1335 482 479 1336 480 477 1337 481 478 1338 483 480 1339 482 479 1340 483 480 1341 484 481 1342 482 479 1343 411 408 1344 485 482 1345 486 483 1346 486 483 1347 410 407 1348 411 408 1349 487 484 1350 488 485 1351 489 486 1352 490 487 1353 487 484 1354 489 486 1355 491 488 1356 492 489 1357 493 490 1358 491 488 1359 494 491 1360 492 489 1361 494 491 1362 495 492 1363 492 489 1364 494 491 1365 496 493 1366 495 492 1367 497 494 1368 491 488 1369 493 490 1370 494 491 1371 491 488 1372 497 494 1373 498 495 1374 494 491 1375 497 494 1376 499 496 1377 495 492 1378 496 493 1379 494 491 1380 498 495 1381 500 497 1382 501 498 1383 500 497 1384 498 495 1385 502 499 1386 496 493 1387 494 491 1388 500 497 1389 502 499 1390 494 491 1391 503 500 1392 496 493 1393 502 499 1394 504 501 1395 503 500 1396 502 499 1397 502 499 1398 500 497 1399 504 501 1400 500 497 1401 505 502 1402 504 501 1403 506 503 1404 503 500 1405 504 501 1406 507 504 1407 503 500 1408 506 503 1409 507 504 1410 506 503 1411 508 505 1412 508 505 1413 506 503 1414 509 506 1415 509 506 1416 506 503 1417 504 501 1418 508 505 1419 509 506 1420 510 507 1421 510 507 1422 511 508 1423 508 505 1424 512 509 1425 507 504 1426 508 505 1427 512 509 1428 513 510 1429 507 504 1430 512 509 1431 514 511 1432 513 510 1433 512 509 1434 515 512 1435 514 511 1436 516 513 1437 503 500 1438 507 504 1439 517 514 1440 516 513 1441 507 504 1442 517 514 1443 507 504 1444 513 510 1445 512 509 1446 508 505 1447 518 515 1448 515 512 1449 512 509 1450 518 515 1451 518 515 1452 508 505 1453 519 516 1454 519 516 1455 508 505 1456 511 508 1457 519 516 1458 520 517 1459 518 515 1460 519 516 1461 521 518 1462 520 517 1463 519 516 1464 511 508 1465 521 518 1466 515 512 1467 518 515 1468 522 519 1469 518 515 1470 520 517 1471 522 519 1472 515 512 1473 522 519 1474 523 520 1475 515 512 1476 523 520 1477 524 521 1478 515 512 1479 524 521 1480 514 511 1481 509 506 1482 525 522 1483 510 507 1484 526 523 1485 525 522 1486 509 506 1487 526 523 1488 527 524 1489 525 522 1490 505 502 1491 527 524 1492 526 523 1493 527 524 1494 528 525 1495 525 522 1496 529 526 1497 528 525 1498 527 524 1499 530 527 1500 528 525 1501 529 526 1502 531 528 1503 528 525 1504 530 527 1505 505 502 1506 532 529 1507 527 524 1508 532 529 1509 533 530 1510 527 524 1511 527 524 1512 533 530 1513 529 526 1514 525 522 1515 528 525 1516 534 531 1517 528 525 1518 531 528 1519 534 531 1520 525 522 1521 534 531 1522 535 532 1523 536 533 1524 535 532 1525 534 531 1526 537 534 1527 535 532 1528 536 533 1529 538 535 1530 535 532 1531 537 534 1532 525 522 1533 535 532 1534 538 535 1535 538 535 1536 510 507 1537 525 522 1538 534 531 1539 531 528 1540 539 536 1541 536 533 1542 534 531 1543 539 536 1544 539 536 1545 531 528 1546 540 537 1547 540 537 1548 531 528 1549 541 538 1550 541 538 1551 531 528 1552 530 527 1553 532 529 1554 505 502 1555 500 497 1556 501 498 1557 532 529 1558 500 497 1559 505 502 1560 526 523 1561 504 501 1562 526 523 1563 509 506 1564 504 501 1565 542 539 1566 543 540 1567 544 541 1568 542 539 1569 545 542 1570 543 540 1571 545 542 1572 546 543 1573 543 540 1574 545 542 1575 547 544 1576 546 543 1577 548 545 1578 542 539 1579 544 541 1580 545 542 1581 542 539 1582 548 545 1583 549 546 1584 545 542 1585 548 545 1586 550 547 1587 546 543 1588 547 544 1589 545 542 1590 549 546 1591 551 548 1592 552 549 1593 551 548 1594 549 546 1595 553 550 1596 547 544 1597 545 542 1598 551 548 1599 553 550 1600 545 542 1601 554 551 1602 547 544 1603 553 550 1604 555 552 1605 554 551 1606 553 550 1607 553 550 1608 551 548 1609 555 552 1610 551 548 1611 556 553 1612 555 552 1613 557 554 1614 554 551 1615 555 552 1616 558 555 1617 554 551 1618 557 554 1619 558 555 1620 557 554 1621 559 556 1622 559 556 1623 557 554 1624 560 557 1625 560 557 1626 557 554 1627 555 552 1628 559 556 1629 560 557 1630 561 558 1631 561 558 1632 562 559 1633 559 556 1634 563 560 1635 558 555 1636 559 556 1637 563 560 1638 564 561 1639 558 555 1640 563 560 1641 565 562 1642 564 561 1643 563 560 1644 566 563 1645 565 562 1646 567 564 1647 554 551 1648 558 555 1649 568 565 1650 567 564 1651 558 555 1652 568 565 1653 558 555 1654 564 561 1655 563 560 1656 559 556 1657 569 566 1658 566 563 1659 563 560 1660 569 566 1661 569 566 1662 559 556 1663 570 567 1664 570 567 1665 559 556 1666 562 559 1667 570 567 1668 571 568 1669 569 566 1670 570 567 1671 572 569 1672 571 568 1673 570 567 1674 562 559 1675 572 569 1676 566 563 1677 569 566 1678 573 570 1679 569 566 1680 571 568 1681 573 570 1682 566 563 1683 573 570 1684 574 571 1685 566 563 1686 574 571 1687 575 572 1688 566 563 1689 575 572 1690 565 562 1691 560 557 1692 576 573 1693 561 558 1694 577 574 1695 576 573 1696 560 557 1697 577 574 1698 578 575 1699 576 573 1700 556 553 1701 578 575 1702 577 574 1703 578 575 1704 579 576 1705 576 573 1706 580 577 1707 579 576 1708 578 575 1709 581 578 1710 579 576 1711 580 577 1712 582 579 1713 579 576 1714 581 578 1715 556 553 1716 583 580 1717 578 575 1718 583 580 1719 584 581 1720 578 575 1721 578 575 1722 584 581 1723 580 577 1724 576 573 1725 579 576 1726 585 582 1727 579 576 1728 582 579 1729 585 582 1730 576 573 1731 585 582 1732 586 583 1733 587 584 1734 586 583 1735 585 582 1736 588 585 1737 586 583 1738 587 584 1739 589 586 1740 586 583 1741 588 585 1742 576 573 1743 586 583 1744 589 586 1745 589 586 1746 561 558 1747 576 573 1748 585 582 1749 582 579 1750 590 587 1751 587 584 1752 585 582 1753 590 587 1754 590 587 1755 582 579 1756 591 588 1757 591 588 1758 582 579 1759 592 589 1760 592 589 1761 582 579 1762 581 578 1763 583 580 1764 556 553 1765 551 548 1766 552 549 1767 583 580 1768 551 548 1769 556 553 1770 577 574 1771 555 552 1772 577 574 1773 560 557 1774 555 552 1775 25 25 1776 8 8 1777 5 5 1778 12 12 1779 25 25 1780 5 5 1781 516 513 1782 499 496 1783 496 493 1784 503 500 1785 516 513 1786 496 493 1787 567 564 1788 550 547 1789 547 544 1790 554 551 1791 567 564 1792 547 544 1793</p>
        </triangles>
      </mesh>
    </geometry>
  </library_geometries>
  <library_visual_scenes>
    <visual_scene id="Scene" name="Scene"/>
  </library_visual_scenes>
  <scene>
    <instance_visual_scene url="#Scene"/>
  </scene>
</COLLADA>