# Blender 3.4.0
# www.blender.org
mtllib 草原核本体.mtl
o SkillObj_OverGrow_Seed_Model
v 0.018745 0.027050 0.007595
v 0.012762 0.026360 0.012485
v 0.004587 0.011833 0.004487
v 0.033300 0.043968 0.013493
v 0.022589 0.042561 0.022098
v 0.042384 0.046082 0.000000
v 0.023602 0.028162 0.000000
v 0.008474 0.012091 0.000000
v 0.051062 0.067230 0.020691
v 0.034532 0.065363 0.033781
v 0.065236 0.069940 0.000000
v 0.063212 0.089892 0.025614
v 0.042860 0.087918 0.041929
v 0.080216 0.091863 0.000000
v 0.068733 0.111085 0.027851
v 0.046771 0.108244 0.045754
v 0.086631 0.111487 0.000000
v 0.069083 0.124454 0.027993
v 0.047086 0.122458 0.046062
v 0.086822 0.126187 0.000000
v 0.064082 0.140588 0.025967
v 0.043677 0.138397 0.042727
v 0.080536 0.143787 0.000000
v 0.055396 0.155801 0.022447
v 0.037757 0.153426 0.036936
v 0.069621 0.160384 0.000000
v 0.041342 0.171827 0.016752
v 0.028178 0.169257 0.027565
v 0.051958 0.177867 0.000000
v 0.028470 0.111085 0.067238
v 0.026183 0.089892 0.061837
v 0.000000 0.091863 0.078472
v 0.000000 0.069940 0.063818
v 0.021151 0.067230 0.049952
v 0.000000 0.046082 0.041463
v 0.013793 0.043968 0.032576
v 0.000000 0.028162 0.023089
v 0.007764 0.027050 0.018337
v 0.000000 0.111487 0.084748
v 0.028615 0.124454 0.067581
v 0.000000 0.126187 0.084935
v 0.026544 0.140588 0.062689
v 0.000000 0.143787 0.078786
v 0.022946 0.155801 0.054192
v 0.000000 0.160384 0.068108
v 0.017125 0.171827 0.040444
v 0.000000 0.177867 0.050829
v -0.028615 0.124454 0.067581
v -0.028470 0.111085 0.067238
v -0.047086 0.122458 0.046062
v -0.046771 0.108244 0.045754
v -0.069083 0.124454 0.027993
v -0.068733 0.111085 0.027851
v -0.042860 0.087918 0.041929
v -0.063212 0.089892 0.025614
v -0.034532 0.065363 0.033781
v -0.051062 0.067230 0.020691
v -0.022589 0.042561 0.022098
v -0.033300 0.043968 0.013493
v -0.012762 0.026360 0.012485
v -0.018744 0.027050 0.007595
v -0.042384 0.046082 0.000000
v -0.023602 0.028162 0.000000
v -0.065236 0.069940 0.000000
v -0.080216 0.091863 0.000000
v -0.086631 0.111487 0.000000
v -0.086822 0.126187 0.000000
v -0.080536 0.143787 0.000000
v -0.007764 0.027050 0.018337
v -0.013793 0.043968 0.032576
v -0.021151 0.067230 0.049952
v -0.026183 0.089892 0.061837
v 0.000000 0.012091 0.008290
v -0.004587 0.011833 0.004487
v 0.000000 0.000272 0.000000
v -0.008474 0.012091 0.000000
v 0.008474 0.012091 0.000000
v 0.004587 0.011833 -0.004487
v 0.000000 0.012091 -0.008290
v -0.004587 0.011833 -0.004487
v -0.008474 0.012091 0.000000
v -0.018744 0.027050 -0.007595
v 0.018745 0.027050 -0.007595
v 0.012762 0.026360 -0.012485
v 0.023602 0.028162 0.000000
v 0.033300 0.043968 -0.013493
v 0.022589 0.042561 -0.022098
v 0.042384 0.046082 0.000000
v 0.051062 0.067230 -0.020691
v 0.034532 0.065363 -0.033781
v 0.065236 0.069940 0.000000
v 0.063212 0.089892 -0.025614
v 0.042860 0.087918 -0.041929
v 0.080216 0.091863 0.000000
v 0.068733 0.111085 -0.027851
v 0.046771 0.108244 -0.045754
v 0.086631 0.111487 0.000000
v 0.069083 0.124454 -0.027993
v 0.047086 0.122458 -0.046062
v 0.086822 0.126187 0.000000
v 0.064082 0.140588 -0.025966
v 0.043677 0.138397 -0.042727
v 0.080536 0.143787 0.000000
v 0.055396 0.155801 -0.022447
v 0.037757 0.153426 -0.036936
v 0.069621 0.160384 0.000000
v 0.041342 0.171827 -0.016752
v 0.028178 0.169257 -0.027565
v 0.051958 0.177867 0.000000
v 0.028470 0.111085 -0.067238
v 0.026183 0.089892 -0.061837
v 0.000000 0.091863 -0.078472
v 0.000000 0.069940 -0.063817
v 0.021151 0.067230 -0.049952
v 0.000000 0.046082 -0.041463
v 0.013793 0.043968 -0.032576
v 0.000000 0.028162 -0.023089
v 0.007764 0.027050 -0.018337
v 0.000000 0.111487 -0.084748
v -0.007764 0.027050 -0.018337
v -0.013793 0.043968 -0.032576
v -0.022589 0.042561 -0.022098
v -0.012762 0.026360 -0.012485
v -0.033300 0.043968 -0.013493
v -0.042384 0.046082 0.000000
v -0.023602 0.028162 0.000000
v -0.051062 0.067230 -0.020691
v -0.034532 0.065363 -0.033781
v -0.065236 0.069940 0.000000
v -0.063212 0.089892 -0.025614
v -0.042860 0.087918 -0.041929
v -0.080216 0.091863 0.000000
v -0.068733 0.111085 -0.027851
v -0.046771 0.108244 -0.045754
v -0.086631 0.111487 0.000000
v -0.069083 0.124454 -0.027993
v -0.047086 0.122458 -0.046062
v -0.086822 0.126187 0.000000
v -0.064082 0.140588 -0.025966
v -0.043677 0.138397 -0.042727
v -0.080536 0.143787 0.000000
v -0.055396 0.155801 -0.022447
v -0.037757 0.153426 -0.036936
v -0.069621 0.160384 0.000000
v -0.041342 0.171827 -0.016752
v -0.028178 0.169257 -0.027565
v -0.051958 0.177867 0.000000
v -0.028470 0.111085 -0.067238
v -0.026183 0.089892 -0.061837
v -0.021151 0.067230 -0.049952
v -0.028615 0.124454 -0.067581
v 0.000000 0.126187 -0.084935
v 0.028615 0.124454 -0.067581
v 0.026544 0.140588 -0.062689
v 0.000000 0.143787 -0.078786
v 0.022946 0.155801 -0.054192
v 0.000000 0.160384 -0.068108
v 0.017125 0.171827 -0.040443
v 0.000000 0.177867 -0.050828
v -0.026544 0.140588 -0.062689
v -0.022946 0.155801 -0.054192
v -0.017125 0.171827 -0.040443
v -0.064082 0.140588 0.025967
v -0.043677 0.138397 0.042727
v -0.055396 0.155801 0.022447
v -0.037757 0.153426 0.036936
v -0.069621 0.160384 0.000000
v -0.041342 0.171827 0.016752
v -0.028178 0.169257 0.027565
v -0.051958 0.177867 0.000000
v -0.026544 0.140588 0.062689
v -0.022946 0.155801 0.054192
v -0.017125 0.171827 0.040444
v 0.041342 0.171827 0.016752
v 0.000000 0.148872 0.000000
v 0.028178 0.169257 0.027565
v 0.051958 0.177867 0.000000
v 0.017125 0.171827 0.040444
v 0.000000 0.177867 0.050829
v 0.041342 0.171827 -0.016752
v 0.028178 0.169257 -0.027565
v 0.051958 0.177867 0.000000
v 0.017125 0.171827 -0.040443
v 0.000000 0.177867 -0.050828
v -0.028178 0.169257 0.027565
v 0.000000 0.148872 0.000000
v -0.041342 0.171827 0.016752
v -0.051958 0.177867 0.000000
v -0.017125 0.171827 0.040444
v 0.000000 0.177867 0.050829
v -0.028178 0.169257 -0.027565
v -0.041342 0.171827 -0.016752
v -0.051958 0.177867 0.000000
v -0.017125 0.171827 -0.040443
v 0.000000 0.177867 -0.050828
v -0.000000 0.159244 0.023255
v -0.023255 0.159244 0.000000
v 0.000000 0.115951 0.000000
v 0.023255 0.159244 0.000000
v -0.000000 0.159244 0.023255
v 0.000000 0.115951 0.000000
v -0.000000 0.184816 0.006352
v -0.006352 0.184816 0.000000
v -0.023255 0.159244 0.000000
v -0.000000 0.159244 0.023255
v 0.006352 0.184816 0.000000
v -0.000000 0.184816 0.006352
v -0.000000 0.159244 0.023255
v 0.023255 0.159244 0.000000
v -0.000000 0.212506 0.018601
v -0.018600 0.212506 0.000000
v -0.006352 0.184816 0.000000
v -0.000000 0.184816 0.006352
v 0.018600 0.212506 0.000000
v -0.000000 0.212506 0.018601
v -0.000000 0.184816 0.006352
v 0.006352 0.184816 0.000000
v -0.000000 0.239960 0.011467
v 0.000000 0.267413 0.000000
v -0.011467 0.239960 0.000000
v -0.018600 0.212506 0.000000
v -0.000000 0.212506 0.018601
v 0.011467 0.239960 0.000000
v 0.000000 0.267413 0.000000
v -0.000000 0.239960 0.011467
v -0.000000 0.212506 0.018601
v 0.018600 0.212506 0.000000
v -0.023255 0.159244 0.000000
v -0.000000 0.159244 -0.023255
v 0.000000 0.115951 0.000000
v -0.000000 0.159244 -0.023255
v 0.023255 0.159244 0.000000
v 0.000000 0.115951 0.000000
v -0.000000 0.184816 -0.006352
v -0.000000 0.159244 -0.023255
v -0.023255 0.159244 0.000000
v -0.006352 0.184816 0.000000
v 0.006352 0.184816 0.000000
v 0.023255 0.159244 0.000000
v -0.000000 0.159244 -0.023255
v -0.000000 0.184816 -0.006352
v -0.000000 0.212506 -0.018600
v -0.000000 0.184816 -0.006352
v -0.006352 0.184816 0.000000
v -0.018600 0.212506 0.000000
v 0.018600 0.212506 0.000000
v 0.006352 0.184816 0.000000
v -0.000000 0.184816 -0.006352
v -0.000000 0.212506 -0.018600
v 0.000000 0.267413 0.000000
v -0.000000 0.239960 -0.011467
v -0.011467 0.239960 0.000000
v -0.018600 0.212506 0.000000
v -0.000000 0.212506 -0.018600
v 0.000000 0.267413 0.000000
v 0.011467 0.239960 0.000000
v -0.000000 0.239960 -0.011467
v -0.000000 0.212506 -0.018600
v 0.018600 0.212506 0.000000
vn 0.6014 -0.6625 0.4465
vn 0.5378 -0.6391 0.5498
vn 0.5677 -0.5838 0.5805
vn 0.6122 -0.6373 0.4681
vn 0.5524 -0.6133 0.5645
vn 0.7200 -0.6940 -0.0000
vn 0.6976 -0.7165 -0.0000
vn 0.7218 -0.6920 -0.0000
vn 0.6530 -0.5494 0.5213
vn 0.5942 -0.5275 0.6072
vn 0.7975 -0.6034 -0.0000
vn 0.7117 -0.3763 0.5932
vn 0.6509 -0.3655 0.6654
vn 0.9077 -0.4196 -0.0000
vn 0.7525 -0.1622 0.6383
vn 0.6891 -0.1697 0.7046
vn 0.9824 -0.1868 -0.0000
vn 0.7459 0.1507 0.6488
vn 0.6926 0.1366 0.7083
vn 0.9832 0.1824 -0.0000
vn 0.6783 0.3848 0.6260
vn 0.6479 0.3758 0.6626
vn 0.8920 0.4521 -0.0000
vn 0.5766 0.5553 0.5993
vn 0.5812 0.5557 0.5944
vn 0.7596 0.6504 -0.0000
vn 0.5089 0.6304 0.5863
vn 0.5410 0.6352 0.5512
vn 0.6709 0.7415 -0.0000
vn 0.6224 -0.1615 0.7659
vn 0.5785 -0.3747 0.7246
vn -0.0000 -0.4131 0.9107
vn -0.0000 -0.5956 0.8033
vn 0.5081 -0.5473 0.6651
vn -0.0000 -0.6862 0.7274
vn 0.4556 -0.6350 0.6238
vn -0.0000 -0.7087 0.7056
vn 0.4342 -0.6602 0.6128
vn -0.0000 -0.1833 0.9831
vn 0.6331 0.1502 0.7594
vn -0.0000 0.1791 0.9838
vn 0.6114 0.3840 0.6919
vn -0.0000 0.4451 0.8955
vn 0.5863 0.5554 0.5897
vn -0.0000 0.6429 0.7659
vn 0.5736 0.6313 0.5220
vn -0.0000 0.7341 0.6790
vn -0.6331 0.1502 0.7594
vn -0.6224 -0.1615 0.7659
vn -0.6926 0.1366 0.7083
vn -0.6891 -0.1697 0.7046
vn -0.7459 0.1507 0.6488
vn -0.7525 -0.1622 0.6383
vn -0.6509 -0.3655 0.6654
vn -0.7117 -0.3763 0.5932
vn -0.5942 -0.5275 0.6072
vn -0.6530 -0.5494 0.5213
vn -0.5524 -0.6133 0.5645
vn -0.6122 -0.6373 0.4681
vn -0.5379 -0.6391 0.5498
vn -0.6014 -0.6625 0.4465
vn -0.7200 -0.6940 -0.0000
vn -0.6976 -0.7165 -0.0000
vn -0.7975 -0.6034 -0.0000
vn -0.9077 -0.4196 -0.0000
vn -0.9824 -0.1868 -0.0000
vn -0.9832 0.1824 -0.0000
vn -0.8920 0.4521 -0.0000
vn -0.4342 -0.6602 0.6128
vn -0.4556 -0.6350 0.6238
vn -0.5081 -0.5473 0.6651
vn -0.5785 -0.3747 0.7246
vn -0.0000 -0.6832 0.7302
vn -0.5677 -0.5838 0.5805
vn 0.0001 -1.0000 -0.0000
vn -0.7218 -0.6920 -0.0000
vn -0.0001 -1.0000 -0.0000
vn 0.5677 -0.5838 -0.5805
vn -0.0000 -0.6832 -0.7302
vn -0.5677 -0.5838 -0.5805
vn -0.7218 -0.6921 -0.0000
vn -0.6014 -0.6625 -0.4465
vn 0.6014 -0.6625 -0.4465
vn 0.5379 -0.6391 -0.5498
vn 0.6122 -0.6373 -0.4681
vn 0.5524 -0.6133 -0.5645
vn 0.6530 -0.5494 -0.5213
vn 0.5942 -0.5275 -0.6073
vn 0.7117 -0.3763 -0.5932
vn 0.6509 -0.3655 -0.6654
vn 0.7525 -0.1622 -0.6383
vn 0.6891 -0.1697 -0.7046
vn 0.7459 0.1507 -0.6488
vn 0.6926 0.1366 -0.7083
vn 0.6783 0.3848 -0.6260
vn 0.6479 0.3758 -0.6626
vn 0.5766 0.5553 -0.5993
vn 0.5812 0.5557 -0.5944
vn 0.5089 0.6304 -0.5863
vn 0.5410 0.6353 -0.5512
vn 0.6224 -0.1615 -0.7659
vn 0.5785 -0.3747 -0.7246
vn -0.0000 -0.4130 -0.9107
vn -0.0000 -0.5956 -0.8033
vn 0.5081 -0.5473 -0.6651
vn -0.0000 -0.6862 -0.7274
vn 0.4556 -0.6350 -0.6238
vn -0.0000 -0.7087 -0.7056
vn 0.4342 -0.6602 -0.6128
vn -0.0000 -0.1833 -0.9831
vn -0.4342 -0.6602 -0.6128
vn -0.4556 -0.6350 -0.6238
vn -0.5524 -0.6133 -0.5645
vn -0.5379 -0.6391 -0.5498
vn -0.6122 -0.6373 -0.4681
vn -0.6530 -0.5494 -0.5213
vn -0.5942 -0.5275 -0.6073
vn -0.7117 -0.3763 -0.5932
vn -0.6509 -0.3655 -0.6654
vn -0.7525 -0.1622 -0.6383
vn -0.6891 -0.1697 -0.7046
vn -0.7459 0.1507 -0.6488
vn -0.6926 0.1366 -0.7083
vn -0.6783 0.3848 -0.6260
vn -0.6479 0.3758 -0.6626
vn -0.5766 0.5553 -0.5993
vn -0.5812 0.5557 -0.5944
vn -0.7596 0.6504 -0.0000
vn -0.5089 0.6304 -0.5863
vn -0.5410 0.6352 -0.5512
vn -0.6709 0.7415 -0.0000
vn -0.6224 -0.1615 -0.7659
vn -0.5785 -0.3747 -0.7246
vn -0.5081 -0.5473 -0.6651
vn -0.6331 0.1502 -0.7594
vn -0.0000 0.1791 -0.9838
vn 0.6331 0.1502 -0.7594
vn 0.6114 0.3840 -0.6919
vn -0.0000 0.4451 -0.8955
vn 0.5863 0.5554 -0.5897
vn -0.0000 0.6429 -0.7659
vn 0.5736 0.6313 -0.5220
vn -0.0000 0.7341 -0.6790
vn -0.6114 0.3840 -0.6919
vn -0.5863 0.5554 -0.5897
vn -0.5736 0.6313 -0.5220
vn -0.6783 0.3848 0.6260
vn -0.6479 0.3758 0.6626
vn -0.5766 0.5553 0.5993
vn -0.5812 0.5557 0.5944
vn -0.5089 0.6304 0.5863
vn -0.5410 0.6353 0.5512
vn -0.6114 0.3840 0.6919
vn -0.5863 0.5554 0.5897
vn -0.5735 0.6313 0.5220
vn -0.4608 0.8844 -0.0747
vn -0.0000 1.0000 -0.0000
vn -0.3221 0.8882 -0.3276
vn -0.4873 0.8732 -0.0000
vn -0.0754 0.8806 -0.4679
vn -0.0000 0.8686 -0.4955
vn -0.4608 0.8844 0.0747
vn -0.3221 0.8882 0.3276
vn -0.0754 0.8806 0.4679
vn -0.0000 0.8686 0.4955
vn 0.3221 0.8882 -0.3276
vn 0.4608 0.8844 -0.0747
vn 0.4873 0.8732 -0.0000
vn 0.0754 0.8806 -0.4679
vn 0.3221 0.8882 0.3276
vn 0.4608 0.8844 0.0747
vn 0.0754 0.8806 0.4679
vn -0.6610 -0.3551 0.6610
vn 0.6610 -0.3551 0.6610
vn -0.6406 0.4234 0.6406
vn 0.6406 0.4234 0.6406
vn -0.6749 -0.2985 0.6749
vn 0.6749 -0.2985 0.6749
vn -0.6923 0.2039 0.6923
vn -0.6781 0.2833 0.6781
vn -0.6923 0.2039 0.6922
vn -0.6955 0.1807 0.6955
vn 0.6923 0.2039 0.6923
vn 0.6781 0.2833 0.6781
vn 0.6922 0.2039 0.6923
vn 0.6955 0.1807 0.6955
vn -0.6610 -0.3551 -0.6610
vn 0.6610 -0.3551 -0.6610
vn -0.6406 0.4234 -0.6406
vn 0.6406 0.4234 -0.6406
vn -0.6749 -0.2985 -0.6749
vn 0.6749 -0.2985 -0.6749
vn -0.6781 0.2833 -0.6781
vn -0.6923 0.2039 -0.6923
vn -0.6923 0.2039 -0.6922
vn -0.6955 0.1807 -0.6955
vn 0.6781 0.2833 -0.6781
vn 0.6923 0.2039 -0.6923
vn 0.6922 0.2039 -0.6923
vn 0.6955 0.1807 -0.6955
vt 0.419227 0.266913
vt 0.453103 0.276324
vt 0.495580 0.207650
vt 0.345638 0.344730
vt 0.405619 0.355790
vt 0.277093 0.322589
vt 0.382748 0.250047
vt 0.471658 0.196668
vt 0.264752 0.457227
vt 0.352464 0.465233
vt 0.158965 0.438272
vt 0.215494 0.563798
vt 0.318235 0.568555
vt 0.089786 0.550014
vt 0.192551 0.658258
vt 0.301445 0.658300
vt 0.060459 0.645183
vt 0.187511 0.716655
vt 0.296747 0.720611
vt 0.055319 0.714717
vt 0.194223 0.790800
vt 0.299974 0.792851
vt 0.068572 0.801864
vt 0.211518 0.866703
vt 0.308913 0.866398
vt 0.100831 0.888906
vt 0.242763 0.956386
vt 0.323076 0.952136
vt 0.157725 0.984946
vt 0.402771 0.680618
vt 0.410357 0.596187
vt 0.520667 0.618919
vt 0.520667 0.528370
vt 0.427343 0.497150
vt 0.520667 0.408858
vt 0.455811 0.382836
vt 0.520667 0.308561
vt 0.482305 0.293219
vt 0.520667 0.688024
vt 0.401721 0.732471
vt 0.520667 0.736750
vt 0.402072 0.798326
vt 0.520667 0.800319
vt 0.405415 0.867942
vt 0.520667 0.869832
vt 0.408507 0.954652
vt 0.520725 0.965442
vt 0.639737 0.732378
vt 0.638667 0.680526
vt 0.744706 0.720436
vt 0.739962 0.658129
vt 0.853941 0.716655
vt 0.848877 0.658258
vt 0.723216 0.568397
vt 0.825898 0.563798
vt 0.688890 0.465168
vt 0.776599 0.457227
vt 0.635832 0.355746
vt 0.695669 0.344730
vt 0.588007 0.276272
vt 0.621876 0.266874
vt 0.764358 0.322589
vt 0.658522 0.249993
vt 0.882486 0.438272
vt 0.951665 0.550014
vt 0.980992 0.645183
vt 0.986132 0.714717
vt 0.972879 0.801864
vt 0.558818 0.293189
vt 0.585511 0.382811
vt 0.614022 0.497113
vt 0.631094 0.596101
vt 0.520667 0.218230
vt 0.545477 0.207631
vt 0.520725 0.157963
vt 0.569592 0.196668
vt 0.569592 0.196668
vt 0.545871 0.207650
vt 0.520784 0.218230
vt 0.495974 0.207631
vt 0.472060 0.196668
vt 0.419575 0.266834
vt 0.622224 0.266874
vt 0.588348 0.276324
vt 0.658522 0.249993
vt 0.695958 0.344730
vt 0.635832 0.355835
vt 0.764358 0.322589
vt 0.776800 0.457227
vt 0.689085 0.465168
vt 0.882486 0.438272
vt 0.826016 0.563798
vt 0.723216 0.568555
vt 0.951665 0.550014
vt 0.848877 0.658258
vt 0.740006 0.658300
vt 0.980992 0.645183
vt 0.853941 0.716655
vt 0.744706 0.720611
vt 0.986132 0.714717
vt 0.847228 0.790800
vt 0.741477 0.792851
vt 0.972879 0.801864
vt 0.829933 0.866703
vt 0.732478 0.866315
vt 0.940620 0.888906
vt 0.798688 0.956386
vt 0.718375 0.952136
vt 0.883726 0.984946
vt 0.638667 0.680618
vt 0.631094 0.596187
vt 0.520784 0.618919
vt 0.520784 0.528370
vt 0.614193 0.497113
vt 0.520784 0.408858
vt 0.585770 0.382811
vt 0.520784 0.308561
vt 0.559146 0.293219
vt 0.520784 0.688024
vt 0.482633 0.293189
vt 0.455811 0.382786
vt 0.405619 0.355790
vt 0.453444 0.276272
vt 0.345638 0.344730
vt 0.277093 0.322589
vt 0.383110 0.249940
vt 0.264752 0.457227
vt 0.352464 0.465102
vt 0.158965 0.438272
vt 0.215494 0.563798
vt 0.318235 0.568397
vt 0.089786 0.550014
vt 0.192596 0.658258
vt 0.301489 0.658129
vt 0.060459 0.645183
vt 0.187510 0.716655
vt 0.296743 0.720436
vt 0.055319 0.714717
vt 0.194223 0.790800
vt 0.299913 0.792851
vt 0.068572 0.801864
vt 0.211399 0.866703
vt 0.308913 0.866232
vt 0.100831 0.888906
vt 0.242763 0.956386
vt 0.323076 0.952136
vt 0.157725 0.984946
vt 0.402798 0.680526
vt 0.410357 0.596101
vt 0.427343 0.497077
vt 0.401707 0.732378
vt 0.520784 0.736750
vt 0.639737 0.732471
vt 0.639412 0.798326
vt 0.520784 0.800319
vt 0.636036 0.867897
vt 0.520784 0.869832
vt 0.632944 0.954652
vt 0.520725 0.965442
vt 0.402006 0.798233
vt 0.405415 0.867852
vt 0.408507 0.954652
vt 0.847228 0.790800
vt 0.741538 0.792851
vt 0.830052 0.866703
vt 0.732597 0.866315
vt 0.940620 0.888906
vt 0.798688 0.956386
vt 0.718375 0.952136
vt 0.883726 0.984946
vt 0.639412 0.798233
vt 0.636036 0.867897
vt 0.632944 0.954652
vt 0.845560 0.237841
vt 0.915333 0.054773
vt 0.799670 0.176446
vt 0.915333 0.295399
vt 0.745380 0.126736
vt 0.697926 0.054773
vt 0.845560 0.237841
vt 0.799670 0.176446
vt 0.915333 0.295399
vt 0.745380 0.126736
vt 0.697926 0.054773
vt 0.799670 0.176446
vt 0.915333 0.054773
vt 0.845560 0.237842
vt 0.915333 0.295399
vt 0.745380 0.126735
vt 0.697926 0.054773
vt 0.799670 0.176446
vt 0.845560 0.237842
vt 0.915333 0.295399
vt 0.745380 0.126735
vt 0.697926 0.054773
vt 0.167059 0.107421
vt 0.167059 0.008945
vt 0.013173 0.107421
vt 0.167059 0.210391
vt 0.167059 0.107421
vt 0.013173 0.107421
vt 0.264039 0.107421
vt 0.264039 0.075615
vt 0.167059 0.008945
vt 0.167059 0.107421
vt 0.264039 0.143721
vt 0.264039 0.107421
vt 0.167059 0.107421
vt 0.167059 0.210391
vt 0.361953 0.107421
vt 0.361953 0.025687
vt 0.264039 0.075615
vt 0.264039 0.107421
vt 0.361953 0.193649
vt 0.361953 0.107421
vt 0.264039 0.107421
vt 0.264039 0.143721
vt 0.456929 0.107421
vt 0.551540 0.107421
vt 0.456929 0.055079
vt 0.361953 0.025687
vt 0.361953 0.107421
vt 0.456929 0.164257
vt 0.551540 0.107421
vt 0.456929 0.107421
vt 0.361953 0.107421
vt 0.361953 0.193649
vt 0.167059 0.210391
vt 0.167059 0.107421
vt 0.013173 0.107421
vt 0.167059 0.107421
vt 0.167059 0.008945
vt 0.013173 0.107421
vt 0.264039 0.107421
vt 0.167059 0.107421
vt 0.167059 0.210391
vt 0.264039 0.143721
vt 0.264039 0.075615
vt 0.167059 0.008945
vt 0.167059 0.107421
vt 0.264039 0.107421
vt 0.361953 0.107421
vt 0.264039 0.107421
vt 0.264039 0.143721
vt 0.361953 0.193649
vt 0.361953 0.025687
vt 0.264039 0.075615
vt 0.264039 0.107421
vt 0.361953 0.107421
vt 0.551540 0.107421
vt 0.456929 0.107421
vt 0.456929 0.164257
vt 0.361953 0.193649
vt 0.361953 0.107421
vt 0.551540 0.107421
vt 0.456929 0.055079
vt 0.456929 0.107421
vt 0.361953 0.107421
vt 0.361953 0.025687
s 1
usemtl Default_OBJ
f 1/1/1 2/2/2 3/3/3
f 1/1/1 4/4/4 2/2/2
f 4/4/4 5/5/5 2/2/2
f 6/6/6 4/4/4 1/1/1
f 7/7/7 6/6/6 1/1/1
f 8/8/8 7/7/7 1/1/1
f 3/3/3 8/8/8 1/1/1
f 4/4/4 9/9/9 5/5/5
f 9/9/9 10/10/10 5/5/5
f 11/11/11 9/9/9 4/4/4
f 6/6/6 11/11/11 4/4/4
f 9/9/9 12/12/12 10/10/10
f 12/12/12 13/13/13 10/10/10
f 14/14/14 12/12/12 9/9/9
f 11/11/11 14/14/14 9/9/9
f 12/12/12 15/15/15 13/13/13
f 15/15/15 16/16/16 13/13/13
f 17/17/17 15/15/15 12/12/12
f 14/14/14 17/17/17 12/12/12
f 15/15/15 18/18/18 16/16/16
f 18/18/18 19/19/19 16/16/16
f 20/20/20 18/18/18 15/15/15
f 17/17/17 20/20/20 15/15/15
f 18/18/18 21/21/21 19/19/19
f 21/21/21 22/22/22 19/19/19
f 23/23/23 21/21/21 18/18/18
f 20/20/20 23/23/23 18/18/18
f 21/21/21 24/24/24 22/22/22
f 24/24/24 25/25/25 22/22/22
f 26/26/26 24/24/24 21/21/21
f 23/23/23 26/26/26 21/21/21
f 24/24/24 27/27/27 25/25/25
f 27/27/27 28/28/28 25/25/25
f 29/29/29 27/27/27 24/24/24
f 26/26/26 29/29/29 24/24/24
f 16/16/16 19/19/19 30/30/30
f 16/16/16 30/30/30 31/31/31
f 31/31/31 30/30/30 32/32/32
f 31/31/31 32/32/32 33/33/33
f 34/34/34 31/31/31 33/33/33
f 34/34/34 33/33/33 35/35/35
f 36/36/36 34/34/34 35/35/35
f 36/36/36 35/35/35 37/37/37
f 38/38/38 36/36/36 37/37/37
f 5/5/5 36/36/36 38/38/38
f 2/2/2 5/5/5 38/38/38
f 10/10/10 34/34/34 36/36/36
f 5/5/5 10/10/10 36/36/36
f 13/13/13 31/31/31 34/34/34
f 10/10/10 13/13/13 34/34/34
f 30/30/30 39/39/39 32/32/32
f 13/13/13 16/16/16 31/31/31
f 30/30/30 40/40/40 39/39/39
f 40/40/40 41/41/41 39/39/39
f 40/40/40 42/42/42 41/41/41
f 42/42/42 43/43/43 41/41/41
f 22/22/22 42/42/42 40/40/40
f 19/19/19 22/22/22 40/40/40
f 19/19/19 40/40/40 30/30/30
f 42/42/42 44/44/44 43/43/43
f 44/44/44 45/45/45 43/43/43
f 25/25/25 44/44/44 42/42/42
f 22/22/22 25/25/25 42/42/42
f 44/44/44 46/46/46 45/45/45
f 46/46/46 47/47/47 45/45/45
f 28/28/28 46/46/46 44/44/44
f 25/25/25 28/28/28 44/44/44
f 41/41/41 48/48/48 39/39/39
f 48/48/48 49/49/49 39/39/39
f 48/48/48 50/50/50 49/49/49
f 50/50/50 51/51/51 49/49/49
f 50/50/50 52/52/52 51/51/51
f 52/52/52 53/53/53 51/51/51
f 51/51/51 53/53/53 54/54/54
f 53/53/53 55/55/55 54/54/54
f 54/54/54 55/55/55 56/56/56
f 55/55/55 57/57/57 56/56/56
f 56/56/56 57/57/57 58/58/58
f 57/57/57 59/59/59 58/58/58
f 58/58/58 59/59/59 60/60/60
f 59/59/59 61/61/61 60/60/60
f 59/59/59 62/62/62 61/61/61
f 62/62/62 63/63/63 61/61/61
f 64/64/64 62/62/62 59/59/59
f 57/57/57 64/64/64 59/59/59
f 65/65/65 64/64/64 57/57/57
f 55/55/55 65/65/65 57/57/57
f 66/66/66 65/65/65 55/55/55
f 53/53/53 66/66/66 55/55/55
f 67/67/67 66/66/66 53/53/53
f 52/52/52 67/67/67 53/53/53
f 68/68/68 67/67/67 52/52/52
f 58/58/58 60/60/60 69/69/69
f 70/70/70 58/58/58 69/69/69
f 56/56/56 58/58/58 70/70/70
f 70/70/70 69/69/69 37/37/37
f 35/35/35 70/70/70 37/37/37
f 71/71/71 70/70/70 35/35/35
f 33/33/33 71/71/71 35/35/35
f 71/71/71 56/56/56 70/70/70
f 72/72/72 71/71/71 33/33/33
f 32/32/32 72/72/72 33/33/33
f 54/54/54 56/56/56 71/71/71
f 72/72/72 54/54/54 71/71/71
f 49/49/49 72/72/72 32/32/32
f 39/39/39 49/49/49 32/32/32
f 51/51/51 54/54/54 72/72/72
f 49/49/49 51/51/51 72/72/72
f 37/37/37 69/69/69 73/73/73
f 74/74/74 73/73/73 69/69/69
f 74/74/74 75/75/75 73/73/73
f 73/73/73 75/75/75 3/3/3
f 3/3/3 75/75/75 8/8/8
f 73/73/73 3/3/3 38/38/38
f 76/76/76 75/75/75 74/74/74
f 76/76/76 74/74/74 61/61/61
f 3/3/3 2/2/2 38/38/38
f 38/38/38 37/37/37 73/73/73
f 60/60/60 61/61/61 74/74/74
f 69/69/69 60/60/60 74/74/74
f 61/61/61 63/63/63 76/76/76
f 77/77/8 75/75/77 78/78/78
f 78/78/78 75/75/77 79/79/79
f 79/79/79 75/75/77 80/80/80
f 80/80/80 75/75/77 81/81/81
f 80/80/80 81/81/81 82/82/82
f 77/77/8 78/78/78 83/83/83
f 84/84/84 83/83/83 78/78/78
f 83/83/83 85/85/7 77/77/8
f 86/86/85 83/83/83 84/84/84
f 87/87/86 86/86/85 84/84/84
f 88/88/6 85/85/7 83/83/83
f 86/86/85 88/88/6 83/83/83
f 89/89/87 86/86/85 87/87/86
f 90/90/88 89/89/87 87/87/86
f 91/91/11 88/88/6 86/86/85
f 89/89/87 91/91/11 86/86/85
f 92/92/89 89/89/87 90/90/88
f 93/93/90 92/92/89 90/90/88
f 94/94/14 91/91/11 89/89/87
f 92/92/89 94/94/14 89/89/87
f 95/95/91 92/92/89 93/93/90
f 96/96/92 95/95/91 93/93/90
f 97/97/17 94/94/14 92/92/89
f 95/95/91 97/97/17 92/92/89
f 98/98/93 95/95/91 96/96/92
f 99/99/94 98/98/93 96/96/92
f 100/100/20 97/97/17 95/95/91
f 98/98/93 100/100/20 95/95/91
f 101/101/95 98/98/93 99/99/94
f 102/102/96 101/101/95 99/99/94
f 103/103/23 100/100/20 98/98/93
f 101/101/95 103/103/23 98/98/93
f 104/104/97 101/101/95 102/102/96
f 105/105/98 104/104/97 102/102/96
f 106/106/26 103/103/23 101/101/95
f 104/104/97 106/106/26 101/101/95
f 107/107/99 104/104/97 105/105/98
f 108/108/100 107/107/99 105/105/98
f 109/109/29 106/106/26 104/104/97
f 107/107/99 109/109/29 104/104/97
f 99/99/94 96/96/92 110/110/101
f 110/110/101 96/96/92 111/111/102
f 110/110/101 111/111/102 112/112/103
f 112/112/103 111/111/102 113/113/104
f 111/111/102 114/114/105 113/113/104
f 113/113/104 114/114/105 115/115/106
f 114/114/105 116/116/107 115/115/106
f 115/115/106 116/116/107 117/117/108
f 116/116/107 118/118/109 117/117/108
f 117/117/108 118/118/109 79/79/79
f 116/116/107 87/87/86 118/118/109
f 87/87/86 84/84/84 118/118/109
f 118/118/109 84/84/84 78/78/78
f 78/78/78 79/79/79 118/118/109
f 90/90/88 87/87/86 116/116/107
f 114/114/105 90/90/88 116/116/107
f 93/93/90 90/90/88 114/114/105
f 111/111/102 93/93/90 114/114/105
f 119/119/110 110/110/101 112/112/103
f 96/96/92 93/93/90 111/111/102
f 120/120/111 117/117/108 79/79/79
f 121/121/112 115/115/106 117/117/108
f 120/120/111 121/121/112 117/117/108
f 122/122/113 121/121/112 120/120/111
f 123/123/114 122/122/113 120/120/111
f 124/124/115 122/122/113 123/123/114
f 82/82/82 124/124/115 123/123/114
f 125/125/62 124/124/115 82/82/82
f 126/126/63 125/125/62 82/82/82
f 124/124/115 127/127/116 122/122/113
f 127/127/116 128/128/117 122/122/113
f 122/122/113 128/128/117 121/121/112
f 129/129/64 127/127/116 124/124/115
f 125/125/62 129/129/64 124/124/115
f 127/127/116 130/130/118 128/128/117
f 130/130/118 131/131/119 128/128/117
f 132/132/65 130/130/118 127/127/116
f 129/129/64 132/132/65 127/127/116
f 130/130/118 133/133/120 131/131/119
f 133/133/120 134/134/121 131/131/119
f 135/135/66 133/133/120 130/130/118
f 132/132/65 135/135/66 130/130/118
f 133/133/120 136/136/122 134/134/121
f 136/136/122 137/137/123 134/134/121
f 138/138/67 136/136/122 133/133/120
f 135/135/66 138/138/67 133/133/120
f 136/136/122 139/139/124 137/137/123
f 139/139/124 140/140/125 137/137/123
f 141/141/68 139/139/124 136/136/122
f 138/138/67 141/141/68 136/136/122
f 139/139/124 142/142/126 140/140/125
f 142/142/126 143/143/127 140/140/125
f 144/144/128 142/142/126 139/139/124
f 141/141/68 144/144/128 139/139/124
f 142/142/126 145/145/129 143/143/127
f 145/145/129 146/146/130 143/143/127
f 147/147/131 145/145/129 142/142/126
f 144/144/128 147/147/131 142/142/126
f 134/134/121 137/137/123 148/148/132
f 134/134/121 148/148/132 149/149/133
f 149/149/133 148/148/132 112/112/103
f 149/149/133 112/112/103 113/113/104
f 150/150/134 149/149/133 113/113/104
f 150/150/134 113/113/104 115/115/106
f 121/121/112 150/150/134 115/115/106
f 128/128/117 150/150/134 121/121/112
f 131/131/119 149/149/133 150/150/134
f 128/128/117 131/131/119 150/150/134
f 148/148/132 119/119/110 112/112/103
f 131/131/119 134/134/121 149/149/133
f 148/148/132 151/151/135 119/119/110
f 151/151/135 152/152/136 119/119/110
f 152/152/136 153/153/137 119/119/110
f 153/153/137 110/110/101 119/119/110
f 153/153/137 99/99/94 110/110/101
f 154/154/138 153/153/137 152/152/136
f 155/155/139 154/154/138 152/152/136
f 102/102/96 99/99/94 153/153/137
f 154/154/138 102/102/96 153/153/137
f 156/156/140 154/154/138 155/155/139
f 157/157/141 156/156/140 155/155/139
f 105/105/98 102/102/96 154/154/138
f 156/156/140 105/105/98 154/154/138
f 158/158/142 156/156/140 157/157/141
f 159/159/143 158/158/142 157/157/141
f 108/108/100 105/105/98 156/156/140
f 158/158/142 108/108/100 156/156/140
f 160/160/144 155/155/139 152/152/136
f 151/151/135 160/160/144 152/152/136
f 140/140/125 160/160/144 151/151/135
f 137/137/123 140/140/125 151/151/135
f 161/161/145 157/157/141 155/155/139
f 160/160/144 161/161/145 155/155/139
f 143/143/127 161/161/145 160/160/144
f 140/140/125 143/143/127 160/160/144
f 162/162/146 159/159/143 157/157/141
f 161/161/145 162/162/146 157/157/141
f 146/146/130 162/162/146 161/161/145
f 143/143/127 146/146/130 161/161/145
f 137/137/123 151/151/135 148/148/132
f 163/163/147 52/52/52 50/50/50
f 164/164/148 163/163/147 50/50/50
f 163/163/147 68/68/68 52/52/52
f 165/165/149 163/163/147 164/164/148
f 166/166/150 165/165/149 164/164/148
f 167/167/128 68/68/68 163/163/147
f 165/165/149 167/167/128 163/163/147
f 168/168/151 165/165/149 166/166/150
f 169/169/152 168/168/151 166/166/150
f 170/170/131 167/167/128 165/165/149
f 168/168/151 170/170/131 165/165/149
f 164/164/148 50/50/50 48/48/48
f 171/171/153 164/164/148 48/48/48
f 166/166/150 164/164/148 171/171/153
f 171/171/153 48/48/48 41/41/41
f 43/43/43 171/171/153 41/41/41
f 172/172/154 171/171/153 43/43/43
f 172/172/154 166/166/150 171/171/153
f 169/169/152 166/166/150 172/172/154
f 45/45/45 172/172/154 43/43/43
f 173/173/155 172/172/154 45/45/45
f 173/173/155 169/169/152 172/172/154
f 47/47/47 173/173/155 45/45/45
f 174/174/156 175/175/157 176/176/158
f 177/177/159 175/175/157 174/174/156
f 176/176/158 175/175/157 178/178/160
f 178/178/160 175/175/157 179/179/161
f 175/175/157 180/180/162 181/181/163
f 175/175/157 182/182/159 180/180/162
f 175/175/157 181/181/163 183/183/164
f 175/175/157 183/183/164 184/184/165
f 185/185/166 186/186/157 187/187/167
f 187/187/167 186/186/157 188/188/168
f 189/189/169 186/186/157 185/185/166
f 190/190/161 186/186/157 189/189/169
f 186/186/157 191/191/170 192/192/171
f 186/186/157 192/192/171 193/193/168
f 186/186/157 194/194/172 191/191/170
f 186/186/157 195/195/165 194/194/172
f 196/196/173 197/197/173 198/198/173
f 199/199/174 200/200/174 201/201/174
f 202/202/175 203/203/175 204/204/175
f 205/205/175 202/202/175 204/204/175
f 206/206/176 207/207/176 208/208/176
f 209/209/176 206/206/176 208/208/176
f 210/210/177 211/211/177 212/212/177
f 213/213/177 210/210/177 212/212/177
f 214/214/178 215/215/178 216/216/178
f 217/217/178 214/214/178 216/216/178
f 218/218/179 219/219/180 220/220/181
f 218/218/179 220/220/181 221/221/182
f 222/222/182 218/218/179 221/221/182
f 223/223/183 224/224/184 225/225/185
f 223/223/183 225/225/185 226/226/186
f 227/227/186 223/223/183 226/226/186
f 80/80/80 123/123/114 120/120/111
f 82/82/82 123/123/114 80/80/80
f 79/79/79 80/80/80 120/120/111
f 81/81/81 126/126/63 82/82/82
f 228/228/187 229/229/187 230/230/187
f 231/231/188 232/232/188 233/233/188
f 234/234/189 235/235/189 236/236/189
f 237/237/189 234/234/189 236/236/189
f 238/238/190 239/239/190 240/240/190
f 241/241/190 238/238/190 240/240/190
f 242/242/191 243/243/191 244/244/191
f 245/245/191 242/242/191 244/244/191
f 246/246/192 247/247/192 248/248/192
f 249/249/192 246/246/192 248/248/192
f 250/250/193 251/251/194 252/252/195
f 252/252/195 251/251/194 253/253/196
f 251/251/194 254/254/196 253/253/196
f 255/255/197 256/256/198 257/257/199
f 257/257/199 256/256/198 258/258/200
f 256/256/198 259/259/200 258/258/200
o SkillObj_OverGrow_Seed2_Model
v -1.000000 0.349072 -0.156556
v -0.985282 0.351790 -0.152874
v -1.000000 0.370029 -0.160245
v -1.000000 0.328902 -0.147644
v -0.968508 0.335288 -0.140029
v -0.977050 0.315630 -0.131336
v -1.014718 0.351790 -0.152874
v -1.031492 0.335288 -0.140029
v -0.952365 0.320629 -0.124773
v -1.022950 0.315632 -0.131337
v -1.047635 0.320629 -0.124773
v -1.000000 0.311187 -0.133738
v -0.970985 0.301544 -0.117154
v -1.000000 0.296429 -0.118803
v -1.029020 0.301556 -0.117149
v -0.975549 0.282537 -0.096886
v -0.950668 0.289755 -0.094610
v -0.973202 0.271393 -0.073263
v -1.000000 0.280511 -0.098049
v -1.000000 0.266743 -0.071036
v -0.994870 0.262665 -0.057357
v -0.947692 0.280167 -0.074009
v -0.926033 0.293895 -0.074400
v -0.927472 0.285099 -0.056985
v -0.945518 0.271912 -0.047408
v -0.939028 0.310656 -0.110290
v -0.929945 0.301611 -0.092381
v -0.962568 0.266716 -0.049674
v -0.977700 0.263446 -0.053395
v -0.973373 0.261464 -0.037115
v -0.985205 0.260900 -0.045186
v -0.959437 0.265360 -0.033973
v -0.945053 0.270956 -0.036205
v -0.934304 0.277759 -0.044113
v -1.026798 0.271393 -0.073263
v -1.024451 0.282545 -0.096886
v -1.049332 0.289877 -0.094622
v -1.052308 0.280186 -0.074009
v -1.073967 0.293905 -0.074400
v -1.072528 0.285103 -0.056985
v -1.054482 0.271912 -0.047408
v -1.060972 0.310661 -0.110290
v -1.070055 0.301628 -0.092381
v -1.037432 0.266716 -0.049674
v -1.022300 0.263444 -0.053395
v -1.026627 0.261464 -0.037115
v -1.014795 0.260922 -0.045186
v -1.005129 0.262661 -0.057357
v -1.040563 0.265347 -0.033973
v -1.054947 0.270956 -0.036205
v -1.065696 0.277759 -0.044113
v -1.006608 0.083377 -0.085181
v -1.006763 0.096307 -0.089767
v -1.000000 0.094685 -0.099157
v -1.000000 0.111407 -0.100402
v -1.006712 0.110056 -0.090303
v -1.000000 0.079145 -0.093119
v -1.000000 0.061257 -0.081520
v -1.006387 0.066620 -0.074299
v -1.000000 0.017396 -0.045742
v -1.005666 0.023084 -0.038775
v -1.000000 -0.020829 -0.015890
v -1.006671 0.123178 -0.088342
v -1.000000 0.126813 -0.096581
v -1.000000 0.147625 -0.086572
v -1.006698 0.143002 -0.081592
v -1.000000 0.165159 -0.074648
v -1.006469 0.159831 -0.070305
v -1.000000 0.178616 -0.063302
v -1.005932 0.178068 -0.051878
v -1.000000 0.185039 -0.054000
v -1.000000 0.185814 -0.048637
v -1.005791 0.177318 -0.047049
v -1.000000 0.183432 -0.042765
v -1.005441 0.167568 -0.026722
v -1.000000 0.173682 -0.022349
v -1.005441 0.165971 -0.021672
v -1.000000 0.174069 -0.015218
v -1.006775 0.166585 -0.013369
v -0.994209 0.177318 -0.047049
v -1.000000 0.183432 -0.042765
v -1.000000 0.173682 -0.022349
v -0.994559 0.167568 -0.026722
v -1.000000 0.185814 -0.048637
v -0.994068 0.178068 -0.051878
v -1.000000 0.185039 -0.054000
v -1.000000 0.178616 -0.063302
v -0.993531 0.159831 -0.070305
v -1.000000 0.165159 -0.074648
v -0.993302 0.143002 -0.081592
v -1.000000 0.147625 -0.086572
v -1.000000 0.126813 -0.096581
v -0.993329 0.123178 -0.088342
v -1.000000 0.111407 -0.100402
v -0.994559 0.165971 -0.021672
v -1.000000 0.174069 -0.015218
v -0.993225 0.166585 -0.013369
v -0.993288 0.110056 -0.090303
v -0.993307 0.096307 -0.089767
v -1.000000 0.094685 -0.099157
v -0.993392 0.083377 -0.085181
v -1.000000 0.079145 -0.093119
v -0.993613 0.066620 -0.074299
v -1.000000 0.061257 -0.081520
v -0.994334 0.023084 -0.038775
v -1.000000 0.017396 -0.045742
v -1.000000 -0.020829 -0.015890
v -0.995119 -0.020626 -0.004881
v -1.000000 -0.043394 -0.000000
v -1.005791 0.177318 -0.047049
v -0.994209 0.177318 -0.047049
v -0.994559 0.167568 -0.026722
v -1.005441 0.167568 -0.026722
v -1.005932 0.178068 -0.051878
v -0.994068 0.178068 -0.051878
v -1.006469 0.159831 -0.070305
v -0.993531 0.159831 -0.070305
v -1.006698 0.143002 -0.081592
v -0.993302 0.143002 -0.081592
v -1.006671 0.123178 -0.088342
v -0.993329 0.123178 -0.088342
v -1.006712 0.110056 -0.090303
v -0.993288 0.110056 -0.090303
v -0.994559 0.165971 -0.021672
v -1.005441 0.165971 -0.021672
v -1.006763 0.096307 -0.089767
v -0.993307 0.096307 -0.089767
v -1.006608 0.083377 -0.085181
v -0.993392 0.083377 -0.085181
v -1.006387 0.066620 -0.074299
v -0.993613 0.066620 -0.074299
v -1.005666 0.023084 -0.038775
v -0.994334 0.023084 -0.038775
v -1.004881 -0.020626 -0.004881
v -0.995119 -0.020626 -0.004881
v -1.000000 -0.043394 -0.000000
v -1.004881 -0.020626 -0.004881
v -0.993225 0.166585 -0.013369
v -1.006775 0.166585 -0.013369
v -1.005441 0.165971 -0.021672
v -0.994559 0.165971 -0.021672
v -0.914819 0.083377 -0.006608
v -0.910233 0.096307 -0.006763
v -0.900843 0.094685 0.000000
v -0.899598 0.111407 0.000000
v -0.909697 0.110056 -0.006712
v -0.906881 0.079145 0.000000
v -0.918480 0.061257 0.000000
v -0.925701 0.066620 -0.006387
v -0.954258 0.017396 0.000000
v -0.961225 0.023084 -0.005666
v -0.984110 -0.020829 -0.000000
v -0.911658 0.123178 -0.006671
v -0.903419 0.126813 0.000000
v -0.913428 0.147625 0.000000
v -0.918408 0.143002 -0.006698
v -0.925352 0.165159 0.000000
v -0.929695 0.159831 -0.006469
v -0.936698 0.178616 0.000000
v -0.948122 0.178068 -0.005932
v -0.946000 0.185039 0.000000
v -0.951363 0.185814 0.000000
v -0.952951 0.177318 -0.005791
v -0.957235 0.183432 0.000000
v -0.973278 0.167568 -0.005441
v -0.977651 0.173682 0.000000
v -0.978328 0.165971 -0.005441
v -0.984782 0.174069 0.000000
v -0.986631 0.166585 -0.006775
v -0.952951 0.177318 0.005791
v -0.957235 0.183432 0.000000
v -0.977651 0.173682 0.000000
v -0.973278 0.167568 0.005441
v -0.951363 0.185814 0.000000
v -0.948122 0.178068 0.005932
v -0.946000 0.185039 0.000000
v -0.936698 0.178616 0.000000
v -0.929695 0.159831 0.006469
v -0.925352 0.165159 0.000000
v -0.918408 0.143002 0.006698
v -0.913428 0.147625 0.000000
v -0.903419 0.126813 0.000000
v -0.911658 0.123178 0.006671
v -0.899598 0.111407 0.000000
v -0.978328 0.165971 0.005441
v -0.984782 0.174069 0.000000
v -0.986631 0.166585 0.006775
v -0.909697 0.110056 0.006712
v -0.910233 0.096307 0.006693
v -0.900843 0.094685 0.000000
v -0.914819 0.083377 0.006608
v -0.906881 0.079145 0.000000
v -0.925701 0.066620 0.006387
v -0.918480 0.061257 0.000000
v -0.961225 0.023084 0.005666
v -0.954258 0.017396 0.000000
v -0.984110 -0.020829 -0.000000
v -0.995119 -0.020626 0.004881
v -1.000000 -0.043394 -0.000000
v -0.952951 0.177318 -0.005791
v -0.952951 0.177318 0.005791
v -0.973278 0.167568 0.005441
v -0.973278 0.167568 -0.005441
v -0.948122 0.178068 -0.005932
v -0.948122 0.178068 0.005932
v -0.929695 0.159831 -0.006469
v -0.929695 0.159831 0.006469
v -0.918408 0.143002 -0.006698
v -0.918408 0.143002 0.006698
v -0.911658 0.123178 -0.006671
v -0.911658 0.123178 0.006671
v -0.909697 0.110056 -0.006712
v -0.909697 0.110056 0.006712
v -0.978328 0.165971 0.005441
v -0.978328 0.165971 -0.005441
v -0.910233 0.096307 -0.006763
v -0.910233 0.096307 0.006693
v -0.914819 0.083377 -0.006608
v -0.914819 0.083377 0.006608
v -0.925701 0.066620 -0.006387
v -0.925701 0.066620 0.006387
v -0.961225 0.023084 -0.005666
v -0.961225 0.023084 0.005666
v -0.995119 -0.020626 -0.004881
v -0.995119 -0.020626 0.004881
v -1.000000 -0.043394 -0.000000
v -0.995119 -0.020626 -0.004881
v -0.986631 0.166585 0.006775
v -0.986631 0.166585 -0.006775
v -0.978328 0.165971 -0.005441
v -0.978328 0.165971 0.005441
v -1.006775 0.166585 0.013369
v -1.013369 0.166585 0.006775
v -1.026192 0.156770 0.000000
v -1.000000 0.156770 0.026192
v -1.015218 0.174069 0.000000
v -1.000000 0.174069 0.015218
v -1.000000 0.185035 0.008342
v -1.008343 0.185035 0.000000
v -1.020144 0.166585 0.000000
v -1.000000 0.166585 0.020144
v -0.973808 0.156770 0.000000
v -0.979856 0.166585 0.000000
v -0.986631 0.166585 0.006775
v -1.000000 0.156770 0.026192
v -0.993225 0.166585 0.013369
v -1.000000 0.174069 0.015218
v -0.984782 0.174069 0.000000
v -0.991658 0.185035 0.000000
v -1.000000 0.185035 0.008342
v -1.000000 0.166585 0.020144
v -1.000000 0.212363 0.020598
v -1.020598 0.212363 0.000000
v -1.008343 0.185035 0.000000
v -1.000000 0.185035 0.008342
v -0.979402 0.212363 0.000000
v -1.000000 0.212363 0.020598
v -1.000000 0.185035 0.008342
v -0.991658 0.185035 0.000000
v -1.000000 0.240584 0.013370
v -1.000000 0.269415 0.000000
v -1.013370 0.240584 0.000000
v -1.020598 0.212363 0.000000
v -1.000000 0.212363 0.020598
v -0.986630 0.240584 0.000000
v -1.000000 0.269415 0.000000
v -1.000000 0.240584 0.013370
v -1.000000 0.212363 0.020598
v -0.979402 0.212363 0.000000
v -1.020144 0.166585 0.000000
v -1.013369 0.166585 -0.006775
v -1.026192 0.156770 0.000000
v -1.006775 0.166585 -0.013369
v -1.000000 0.174069 -0.015218
v -1.015218 0.174069 0.000000
v -1.008343 0.185035 0.000000
v -1.000000 0.185035 -0.008342
v -1.000000 0.156770 -0.026192
v -1.000000 0.166585 -0.020144
v -1.000000 0.166585 -0.020144
v -0.993225 0.166585 -0.013369
v -1.000000 0.156770 -0.026192
v -0.986631 0.166585 -0.006775
v -0.984782 0.174069 0.000000
v -1.000000 0.174069 -0.015218
v -1.000000 0.185035 -0.008342
v -0.991658 0.185035 0.000000
v -0.973808 0.156770 0.000000
v -0.979856 0.166585 0.000000
v -1.000000 0.212363 -0.020598
v -1.000000 0.185035 -0.008342
v -1.008343 0.185035 0.000000
v -1.020598 0.212363 0.000000
v -0.979402 0.212363 0.000000
v -0.991658 0.185035 0.000000
v -1.000000 0.185035 -0.008342
v -1.000000 0.212363 -0.020598
v -1.000000 0.269415 0.000000
v -1.000000 0.240584 -0.013370
v -1.013370 0.240584 0.000000
v -1.020598 0.212363 0.000000
v -1.000000 0.212363 -0.020598
v -1.000000 0.269415 0.000000
v -0.986630 0.240584 0.000000
v -1.000000 0.240584 -0.013370
v -1.000000 0.212363 -0.020598
v -0.979402 0.212363 0.000000
v -0.993392 0.083377 0.085181
v -0.993237 0.096307 0.089768
v -1.000000 0.094685 0.099157
v -1.000000 0.111407 0.100402
v -0.993288 0.110056 0.090303
v -1.000000 0.079145 0.093119
v -1.000000 0.061257 0.081520
v -0.993613 0.066620 0.074299
v -1.000000 0.017396 0.045742
v -0.994334 0.023084 0.038775
v -1.000000 -0.020829 0.015890
v -0.993329 0.123178 0.088342
v -1.000000 0.126813 0.096581
v -1.000000 0.147625 0.089471
v -0.993302 0.143002 0.081592
v -1.000000 0.165159 0.077147
v -0.993531 0.159831 0.070306
v -1.000000 0.178616 0.063302
v -0.994068 0.178068 0.051878
v -1.000000 0.185039 0.054000
v -1.000000 0.185814 0.048637
v -0.994209 0.177318 0.047049
v -1.000000 0.183432 0.042765
v -0.994559 0.167568 0.026722
v -1.000000 0.173682 0.022349
v -0.994559 0.165971 0.021672
v -1.000000 0.174069 0.015218
v -0.993225 0.166585 0.013369
v -1.005791 0.177318 0.047049
v -1.000000 0.183432 0.042765
v -1.000000 0.173682 0.022349
v -1.005441 0.167568 0.026722
v -1.000000 0.185814 0.048637
v -1.005932 0.178068 0.051878
v -1.000000 0.185039 0.054000
v -1.000000 0.178616 0.063302
v -1.006469 0.159831 0.070306
v -1.000000 0.165159 0.077147
v -1.006698 0.143002 0.081592
v -1.000000 0.147625 0.089471
v -1.000000 0.126813 0.096581
v -1.006671 0.123178 0.088342
v -1.000000 0.111407 0.100402
v -1.005441 0.165971 0.021672
v -1.000000 0.174069 0.015218
v -1.006775 0.166585 0.013369
v -1.006712 0.110056 0.090303
v -1.006693 0.096307 0.089768
v -1.000000 0.094685 0.099157
v -1.006608 0.083377 0.085181
v -1.000000 0.079145 0.093119
v -1.006387 0.066620 0.074299
v -1.000000 0.061257 0.081520
v -1.005666 0.023084 0.038775
v -1.000000 0.017396 0.045742
v -1.000000 -0.020829 0.015890
v -1.004881 -0.020626 0.004881
v -1.000000 -0.043394 -0.000000
v -0.994209 0.177318 0.047049
v -1.005791 0.177318 0.047049
v -1.005441 0.167568 0.026722
v -0.994559 0.167568 0.026722
v -0.994068 0.178068 0.051878
v -1.005932 0.178068 0.051878
v -0.993531 0.159831 0.070306
v -1.006469 0.159831 0.070306
v -0.993302 0.143002 0.081592
v -1.006698 0.143002 0.081592
v -0.993329 0.123178 0.088342
v -1.006671 0.123178 0.088342
v -0.993288 0.110056 0.090303
v -1.006712 0.110056 0.090303
v -1.005441 0.165971 0.021672
v -0.994559 0.165971 0.021672
v -0.993237 0.096307 0.089768
v -1.006693 0.096307 0.089768
v -0.993392 0.083377 0.085181
v -1.006608 0.083377 0.085181
v -0.993613 0.066620 0.074299
v -1.006387 0.066620 0.074299
v -0.994334 0.023084 0.038775
v -1.005666 0.023084 0.038775
v -0.995119 -0.020626 0.004881
v -1.004881 -0.020626 0.004881
v -1.000000 -0.043394 -0.000000
v -0.995119 -0.020626 0.004881
v -1.006775 0.166585 0.013369
v -0.993225 0.166585 0.013369
v -0.994559 0.165971 0.021672
v -1.005441 0.165971 0.021672
v -0.995119 -0.020626 -0.004881
v -1.004881 -0.020626 -0.004881
v -1.004881 -0.020626 0.004881
v -0.995119 -0.020626 0.004881
v -1.085181 0.083377 0.006608
v -1.089767 0.096307 0.006763
v -1.099157 0.094685 0.000000
v -1.100402 0.111407 0.000000
v -1.090303 0.110056 0.006712
v -1.093119 0.079145 0.000000
v -1.081520 0.061257 0.000000
v -1.074299 0.066620 0.006387
v -1.045742 0.017396 0.000000
v -1.038775 0.023084 0.005666
v -1.015890 -0.020829 -0.000000
v -1.088342 0.123178 0.006671
v -1.096581 0.126813 0.000000
v -1.086572 0.147625 0.000000
v -1.081592 0.143002 0.006698
v -1.074648 0.165159 0.000000
v -1.070305 0.159831 0.006469
v -1.063302 0.178616 0.000000
v -1.051878 0.178068 0.005932
v -1.054000 0.185039 0.000000
v -1.048637 0.185814 0.000000
v -1.047049 0.177318 0.005791
v -1.042765 0.183432 0.000000
v -1.026722 0.167568 0.005441
v -1.022349 0.173682 0.000000
v -1.021672 0.165971 0.005441
v -1.015218 0.174069 0.000000
v -1.013369 0.166585 0.006775
v -1.047049 0.177318 -0.005791
v -1.042765 0.183432 0.000000
v -1.022349 0.173682 0.000000
v -1.026722 0.167568 -0.005441
v -1.048637 0.185814 0.000000
v -1.051878 0.178068 -0.005932
v -1.054000 0.185039 0.000000
v -1.063302 0.178616 0.000000
v -1.070305 0.159831 -0.006469
v -1.074648 0.165159 0.000000
v -1.081592 0.143002 -0.006698
v -1.086572 0.147625 0.000000
v -1.096581 0.126813 0.000000
v -1.088342 0.123178 -0.006671
v -1.100402 0.111407 0.000000
v -1.021672 0.165971 -0.005441
v -1.015218 0.174069 0.000000
v -1.013369 0.166585 -0.006775
v -1.090303 0.110056 -0.006712
v -1.089767 0.096307 -0.006693
v -1.099157 0.094685 0.000000
v -1.085181 0.083377 -0.006608
v -1.093119 0.079145 0.000000
v -1.074299 0.066620 -0.006387
v -1.081520 0.061257 0.000000
v -1.038775 0.023084 -0.005666
v -1.045742 0.017396 0.000000
v -1.015890 -0.020829 -0.000000
v -1.004881 -0.020626 -0.004881
v -1.000000 -0.043394 -0.000000
v -1.047049 0.177318 0.005791
v -1.047049 0.177318 -0.005791
v -1.026722 0.167568 -0.005441
v -1.026722 0.167568 0.005441
v -1.051878 0.178068 0.005932
v -1.051878 0.178068 -0.005932
v -1.070305 0.159831 0.006469
v -1.070305 0.159831 -0.006469
v -1.081592 0.143002 0.006698
v -1.081592 0.143002 -0.006698
v -1.088342 0.123178 0.006671
v -1.088342 0.123178 -0.006671
v -1.090303 0.110056 0.006712
v -1.090303 0.110056 -0.006712
v -1.021672 0.165971 -0.005441
v -1.021672 0.165971 0.005441
v -1.089767 0.096307 0.006763
v -1.089767 0.096307 -0.006693
v -1.085181 0.083377 0.006608
v -1.085181 0.083377 -0.006608
v -1.074299 0.066620 0.006387
v -1.074299 0.066620 -0.006387
v -1.038775 0.023084 0.005666
v -1.038775 0.023084 -0.005666
v -1.004881 -0.020626 0.004881
v -1.004881 -0.020626 -0.004881
v -1.000000 -0.043394 -0.000000
v -1.004881 -0.020626 0.004881
v -1.013369 0.166585 -0.006775
v -1.013369 0.166585 0.006775
v -1.021672 0.165971 0.005441
v -1.021672 0.165971 -0.005441
v -1.135582 0.349072 0.078278
v -1.139752 0.351790 0.063691
v -1.138777 0.370029 0.080123
v -1.127864 0.328902 0.073822
v -1.137014 0.335288 0.042742
v -1.125215 0.315631 0.045792
v -1.125034 0.351790 0.089183
v -1.105523 0.335288 0.097287
v -1.131874 0.320629 0.021134
v -1.102266 0.315632 0.085544
v -1.084239 0.320629 0.103640
v -1.115821 0.311187 0.066869
v -1.115966 0.301544 0.033450
v -1.102887 0.296429 0.059401
v -1.086944 0.301555 0.083707
v -1.096131 0.282537 0.027268
v -1.106601 0.289755 0.004582
v -1.076847 0.271393 0.013423
v -1.084913 0.280511 0.049024
v -1.061519 0.266743 0.035518
v -1.052238 0.262665 0.024236
v -1.090247 0.280167 -0.008295
v -1.101416 0.293895 -0.026857
v -1.085614 0.285099 -0.034319
v -1.068298 0.271912 -0.023479
v -1.126000 0.310656 0.002342
v -1.115032 0.301611 -0.014479
v -1.061735 0.266716 -0.007580
v -1.057391 0.263446 0.007385
v -1.045456 0.261464 -0.004502
v -1.046530 0.260900 0.009780
v -1.049703 0.265360 -0.018142
v -1.058828 0.270956 -0.029483
v -1.071051 0.277759 -0.034838
v -1.050048 0.271393 0.059840
v -1.071681 0.282545 0.069618
v -1.057279 0.289877 0.090034
v -1.037940 0.280186 0.082304
v -1.027449 0.293905 0.101258
v -1.013086 0.285103 0.091304
v -1.013815 0.271912 0.070887
v -1.065028 0.310661 0.107948
v -1.044976 0.301628 0.106860
v -1.024303 0.266716 0.057254
v -1.035091 0.263444 0.046010
v -1.018829 0.261464 0.041618
v -1.031735 0.260922 0.035406
v -1.047108 0.262661 0.033121
v -1.009140 0.265347 0.052116
v -1.003881 0.270956 0.065688
v -1.005355 0.277759 0.078951
v -0.864418 0.349072 0.078278
v -0.874966 0.351790 0.089183
v -0.861223 0.370029 0.080123
v -0.872136 0.328902 0.073822
v -0.894477 0.335288 0.097287
v -0.897734 0.315630 0.085544
v -0.860248 0.351790 0.063691
v -0.862986 0.335288 0.042742
v -0.915760 0.320629 0.103640
v -0.874784 0.315632 0.045793
v -0.868126 0.320629 0.021134
v -0.884179 0.311187 0.066869
v -0.913049 0.301544 0.083705
v -0.897114 0.296429 0.059402
v -0.884036 0.301555 0.033443
v -0.928319 0.282537 0.069618
v -0.942731 0.289755 0.090028
v -0.949952 0.271393 0.059840
v -0.915087 0.280511 0.049024
v -0.938481 0.266743 0.035518
v -0.952892 0.262665 0.033121
v -0.962061 0.280167 0.082304
v -0.972551 0.293895 0.101258
v -0.986914 0.285099 0.091304
v -0.986185 0.271912 0.070887
v -0.934972 0.310656 0.107948
v -0.955024 0.301611 0.106860
v -0.975697 0.266716 0.057254
v -0.964909 0.263446 0.046010
v -0.981171 0.261464 0.041618
v -0.968265 0.260900 0.035406
v -0.990860 0.265360 0.052116
v -0.996119 0.270956 0.065688
v -0.994645 0.277759 0.078951
v -0.923153 0.271393 0.013423
v -0.903869 0.282545 0.027268
v -0.893389 0.289877 0.004588
v -0.909753 0.280186 -0.008295
v -0.898584 0.293905 -0.026857
v -0.914386 0.285103 -0.034319
v -0.931702 0.271912 -0.023479
v -0.874000 0.310661 0.002342
v -0.884968 0.301628 -0.014479
v -0.938265 0.266716 -0.007580
v -0.942609 0.263444 0.007385
v -0.954544 0.261464 -0.004502
v -0.953470 0.260922 0.009780
v -0.947762 0.262661 0.024236
v -0.950297 0.265347 -0.018142
v -0.941172 0.270956 -0.029483
v -0.928949 0.277759 -0.034838
vn -0.0000 0.3563 0.9344
vn -0.2883 0.3602 0.8872
vn -0.0000 0.1734 0.9849
vn -0.0000 0.4670 0.8842
vn -0.2996 0.4492 0.8417
vn -0.2565 0.6047 0.7540
vn 0.2883 0.3602 0.8872
vn 0.2996 0.4492 0.8417
vn -0.3224 0.5885 0.7415
vn 0.2566 0.6048 0.7539
vn 0.3223 0.5887 0.7413
vn 0.0001 0.6694 0.7429
vn -0.2565 0.6732 0.6935
vn 0.0001 0.7246 0.6892
vn 0.2568 0.6735 0.6931
vn -0.2092 0.8271 0.5216
vn -0.3425 0.7826 0.5199
vn -0.2268 0.8875 0.4012
vn 0.0001 0.8516 0.5241
vn -0.0000 0.9094 0.4159
vn -0.1252 0.9389 0.3207
vn -0.3608 0.8470 0.3904
vn -0.4868 0.7763 0.4005
vn -0.4755 0.8209 0.3162
vn -0.3892 0.8878 0.2457
vn -0.3539 0.6499 0.6726
vn -0.4699 0.7272 0.5003
vn -0.2954 0.9205 0.2556
vn -0.1878 0.9420 0.2783
vn -0.2494 0.9548 0.1616
vn -0.1240 0.9742 0.1887
vn -0.3084 0.9417 0.1341
vn -0.3928 0.9148 0.0944
vn -0.4966 0.8478 0.1859
vn 0.2277 0.8869 0.4019
vn 0.2106 0.8266 0.5220
vn 0.3431 0.7821 0.5202
vn 0.3613 0.8462 0.3918
vn 0.4856 0.7765 0.4017
vn 0.4753 0.8209 0.3166
vn 0.3892 0.8876 0.2462
vn 0.3534 0.6511 0.6717
vn 0.4674 0.7290 0.5001
vn 0.2955 0.9204 0.2560
vn 0.1877 0.9421 0.2780
vn 0.2487 0.9550 0.1617
vn 0.1227 0.9746 0.1872
vn 0.1252 0.9389 0.3205
vn 0.3083 0.9417 0.1347
vn 0.3932 0.9146 0.0944
vn 0.4967 0.8478 0.1861
vn -0.8102 -0.2918 -0.5085
vn -0.8190 -0.1142 -0.5624
vn -0.8141 -0.1187 -0.5685
vn -0.8231 0.0405 -0.5664
vn -0.8343 0.0298 -0.5505
vn -0.8094 -0.2929 -0.5090
vn -0.8254 -0.3474 -0.4451
vn -0.8253 -0.3472 -0.4454
vn -0.8353 -0.3478 -0.4258
vn -0.8363 -0.3473 -0.4242
vn -0.8715 -0.3043 -0.3846
vn -0.8093 0.2208 -0.5443
vn -0.8049 0.2309 -0.5467
vn -0.8065 0.2934 -0.5132
vn -0.8065 0.2922 -0.5140
vn -0.8063 0.3466 -0.4793
vn -0.8097 0.3471 -0.4732
vn -0.8168 0.4018 -0.4139
vn -0.8207 0.4664 -0.3301
vn -0.7719 0.5731 -0.2750
vn -0.7845 0.6143 0.0845
vn -0.7931 0.5547 0.2516
vn -0.7897 0.5512 0.2694
vn -0.7923 0.5495 0.2653
vn -0.8001 0.5551 0.2273
vn -0.7904 0.6120 -0.0266
vn -0.7867 0.6090 -0.1010
vn -0.7511 0.6385 -0.1679
vn 0.7931 0.5547 0.2516
vn 0.7897 0.5512 0.2694
vn 0.8001 0.5551 0.2273
vn 0.7922 0.5495 0.2653
vn 0.7845 0.6143 0.0845
vn 0.8207 0.4664 -0.3301
vn 0.7719 0.5731 -0.2750
vn 0.8168 0.4018 -0.4139
vn 0.8097 0.3471 -0.4732
vn 0.8063 0.3466 -0.4793
vn 0.8065 0.2922 -0.5140
vn 0.8065 0.2934 -0.5132
vn 0.8049 0.2309 -0.5467
vn 0.8093 0.2209 -0.5443
vn 0.8238 0.0396 -0.5655
vn 0.7904 0.6120 -0.0266
vn 0.7867 0.6090 -0.1009
vn 0.7511 0.6385 -0.1679
vn 0.8342 0.0276 -0.5508
vn 0.8211 -0.1123 -0.5596
vn 0.8163 -0.1173 -0.5656
vn 0.8105 -0.2913 -0.5081
vn 0.8094 -0.2929 -0.5090
vn 0.8253 -0.3472 -0.4454
vn 0.8254 -0.3474 -0.4451
vn 0.8363 -0.3472 -0.4242
vn 0.8353 -0.3478 -0.4258
vn 0.8715 -0.3044 -0.3846
vn 0.8761 -0.2929 -0.3830
vn 0.8816 -0.2717 -0.3859
vn -0.0000 -0.9241 -0.3821
vn -0.0000 -0.9096 -0.4154
vn -0.0000 -0.7479 0.6638
vn -0.0000 -0.6093 0.7929
vn 0.0001 -0.4837 0.8752
vn -0.0000 -0.4837 0.8752
vn -0.0003 -0.3242 0.9460
vn -0.0000 -0.3242 0.9460
vn -0.0000 -0.0522 0.9986
vn -0.0000 -0.0523 0.9986
vn -0.0000 -0.9535 -0.3015
vn -0.0000 0.1877 0.9822
vn -0.0000 0.4601 0.8879
vn 0.0001 0.4602 0.8878
vn -0.0000 0.6084 0.7936
vn 0.0003 0.6084 0.7936
vn -0.0000 0.6232 0.7820
vn -0.0000 0.6233 0.7820
vn -0.0000 0.6128 0.7903
vn -0.8816 -0.2717 -0.3859
vn -0.8761 -0.2929 -0.3830
vn -0.0000 -0.9973 0.0738
vn 0.5085 -0.2918 -0.8102
vn 0.5624 -0.1142 -0.8190
vn 0.5685 -0.1187 -0.8141
vn 0.5664 0.0405 -0.8231
vn 0.5505 0.0298 -0.8343
vn 0.5090 -0.2929 -0.8094
vn 0.4451 -0.3474 -0.8254
vn 0.4454 -0.3472 -0.8253
vn 0.4258 -0.3478 -0.8353
vn 0.4242 -0.3473 -0.8363
vn 0.3846 -0.3044 -0.8715
vn 0.5443 0.2208 -0.8093
vn 0.5467 0.2309 -0.8049
vn 0.5132 0.2934 -0.8065
vn 0.5140 0.2922 -0.8065
vn 0.4793 0.3466 -0.8063
vn 0.4732 0.3471 -0.8097
vn 0.4139 0.4018 -0.8168
vn 0.3301 0.4664 -0.8207
vn 0.2750 0.5731 -0.7719
vn -0.0845 0.6143 -0.7845
vn -0.2516 0.5547 -0.7931
vn -0.2694 0.5512 -0.7897
vn -0.2653 0.5495 -0.7923
vn -0.2273 0.5551 -0.8001
vn 0.0266 0.6120 -0.7904
vn 0.1009 0.6090 -0.7867
vn 0.1679 0.6385 -0.7511
vn -0.2516 0.5547 0.7931
vn -0.2694 0.5512 0.7897
vn -0.2273 0.5551 0.8001
vn -0.2653 0.5495 0.7922
vn -0.0845 0.6143 0.7845
vn 0.3301 0.4664 0.8207
vn 0.2750 0.5731 0.7719
vn 0.4139 0.4018 0.8168
vn 0.4732 0.3471 0.8097
vn 0.4793 0.3466 0.8063
vn 0.5140 0.2922 0.8065
vn 0.5132 0.2934 0.8065
vn 0.5467 0.2309 0.8049
vn 0.5443 0.2209 0.8093
vn 0.5656 0.0396 0.8238
vn 0.0266 0.6120 0.7904
vn 0.1010 0.6090 0.7867
vn 0.1679 0.6385 0.7511
vn 0.5508 0.0276 0.8342
vn 0.5596 -0.1123 0.8211
vn 0.5656 -0.1174 0.8163
vn 0.5081 -0.2913 0.8105
vn 0.5090 -0.2929 0.8094
vn 0.4454 -0.3472 0.8253
vn 0.4451 -0.3474 0.8254
vn 0.4242 -0.3472 0.8363
vn 0.4258 -0.3478 0.8353
vn 0.3846 -0.3044 0.8715
vn 0.3830 -0.2929 0.8761
vn 0.3859 -0.2717 0.8816
vn 0.3821 -0.9241 -0.0000
vn 0.4154 -0.9096 -0.0000
vn -0.6638 -0.7479 -0.0000
vn -0.7929 -0.6093 -0.0000
vn -0.8752 -0.4837 0.0001
vn -0.8752 -0.4837 -0.0000
vn -0.9460 -0.3242 -0.0003
vn -0.9460 -0.3242 -0.0000
vn -0.9986 -0.0522 -0.0000
vn -0.9986 -0.0524 -0.0000
vn 0.3015 -0.9535 -0.0000
vn -0.9822 0.1877 -0.0000
vn -0.8879 0.4601 -0.0000
vn -0.8878 0.4602 0.0001
vn -0.7936 0.6084 -0.0000
vn -0.7936 0.6084 0.0003
vn -0.7820 0.6233 -0.0000
vn -0.7821 0.6232 -0.0000
vn -0.7903 0.6128 -0.0000
vn 0.3859 -0.2717 -0.8816
vn 0.3830 -0.2929 -0.8761
vn -0.0738 -0.9973 -0.0000
vn -0.6461 0.4063 0.6461
vn -0.6483 0.3994 0.6483
vn -0.6482 0.3994 0.6483
vn -0.6446 0.4109 0.6446
vn -0.6464 0.4053 0.6464
vn 0.6483 0.3994 0.6483
vn 0.6483 0.3994 0.6482
vn 0.6461 0.4063 0.6461
vn 0.6482 0.3994 0.6483
vn 0.6447 0.4108 0.6447
vn 0.6447 0.4109 0.6447
vn 0.6464 0.4053 0.6464
vn -0.6740 -0.3023 0.6740
vn 0.6740 -0.3023 0.6740
vn -0.6914 0.2095 0.6914
vn -0.6719 0.3116 0.6719
vn -0.6958 0.1782 0.6958
vn 0.6914 0.2095 0.6914
vn 0.6719 0.3116 0.6719
vn 0.6958 0.1782 0.6958
vn -0.6482 0.3994 -0.6483
vn -0.6461 0.4063 -0.6461
vn -0.6446 0.4109 -0.6446
vn -0.6447 0.4109 -0.6447
vn -0.6464 0.4053 -0.6464
vn -0.6483 0.3994 -0.6483
vn 0.6483 0.3994 -0.6482
vn 0.6461 0.4063 -0.6461
vn 0.6446 0.4109 -0.6446
vn 0.6447 0.4109 -0.6447
vn 0.6464 0.4053 -0.6464
vn 0.6482 0.3994 -0.6483
vn -0.6740 -0.3023 -0.6740
vn 0.6740 -0.3023 -0.6740
vn -0.6719 0.3116 -0.6719
vn -0.6914 0.2095 -0.6914
vn -0.6958 0.1782 -0.6958
vn 0.6719 0.3116 -0.6719
vn 0.6914 0.2095 -0.6914
vn 0.6958 0.1782 -0.6958
vn 0.8102 -0.2918 0.5085
vn 0.8190 -0.1143 0.5624
vn 0.8141 -0.1187 0.5685
vn 0.8231 0.0405 0.5664
vn 0.8343 0.0298 0.5505
vn 0.8094 -0.2929 0.5090
vn 0.8254 -0.3474 0.4451
vn 0.8253 -0.3472 0.4454
vn 0.8353 -0.3478 0.4258
vn 0.8363 -0.3473 0.4242
vn 0.8715 -0.3043 0.3846
vn 0.8095 0.2208 0.5440
vn 0.8049 0.2310 0.5467
vn 0.8065 0.2934 0.5132
vn 0.8066 0.2921 0.5139
vn 0.8063 0.3466 0.4792
vn 0.8097 0.3471 0.4732
vn 0.8168 0.4019 0.4139
vn 0.8207 0.4664 0.3301
vn 0.7719 0.5731 0.2750
vn 0.7845 0.6143 -0.0845
vn 0.7931 0.5547 -0.2516
vn 0.7897 0.5512 -0.2694
vn 0.7923 0.5495 -0.2653
vn 0.8001 0.5551 -0.2273
vn 0.7904 0.6120 0.0266
vn 0.7867 0.6090 0.1009
vn 0.7511 0.6385 0.1679
vn -0.7931 0.5547 -0.2516
vn -0.7897 0.5512 -0.2694
vn -0.8001 0.5551 -0.2273
vn -0.7922 0.5495 -0.2653
vn -0.7845 0.6143 -0.0845
vn -0.8207 0.4664 0.3301
vn -0.7719 0.5731 0.2750
vn -0.8168 0.4019 0.4139
vn -0.8097 0.3471 0.4732
vn -0.8063 0.3466 0.4792
vn -0.8065 0.2922 0.5140
vn -0.8065 0.2934 0.5132
vn -0.8049 0.2309 0.5467
vn -0.8093 0.2209 0.5443
vn -0.8238 0.0396 0.5655
vn -0.7904 0.6120 0.0266
vn -0.7867 0.6090 0.1010
vn -0.7511 0.6385 0.1679
vn -0.8342 0.0276 0.5508
vn -0.8211 -0.1123 0.5596
vn -0.8163 -0.1173 0.5656
vn -0.8105 -0.2913 0.5081
vn -0.8094 -0.2929 0.5090
vn -0.8253 -0.3472 0.4454
vn -0.8254 -0.3474 0.4451
vn -0.8363 -0.3472 0.4242
vn -0.8353 -0.3478 0.4258
vn -0.8715 -0.3044 0.3846
vn -0.8761 -0.2929 0.3830
vn -0.8816 -0.2717 0.3859
vn -0.0000 -0.9241 0.3821
vn -0.0000 -0.9096 0.4154
vn -0.0000 -0.7479 -0.6638
vn -0.0000 -0.6093 -0.7929
vn -0.0001 -0.4837 -0.8752
vn -0.0000 -0.4837 -0.8752
vn 0.0003 -0.3242 -0.9460
vn -0.0000 -0.3242 -0.9460
vn -0.0000 -0.0522 -0.9986
vn -0.0000 -0.0523 -0.9986
vn -0.0000 -0.9535 0.3015
vn -0.0000 0.1877 -0.9822
vn -0.0000 0.4601 -0.8879
vn -0.0001 0.4602 -0.8878
vn -0.0000 0.6084 -0.7936
vn -0.0003 0.6084 -0.7936
vn -0.0000 0.6232 -0.7820
vn -0.0000 0.6233 -0.7820
vn -0.0000 0.6128 -0.7903
vn 0.8816 -0.2717 0.3859
vn 0.8761 -0.2929 0.3830
vn -0.0000 -0.9973 -0.0738
vn -0.0000 1.0000 -0.0000
vn -0.5085 -0.2918 0.8102
vn -0.5624 -0.1143 0.8190
vn -0.5685 -0.1187 0.8141
vn -0.5664 0.0405 0.8231
vn -0.5505 0.0298 0.8343
vn -0.5090 -0.2929 0.8094
vn -0.4451 -0.3474 0.8254
vn -0.4454 -0.3472 0.8253
vn -0.4258 -0.3478 0.8353
vn -0.4242 -0.3473 0.8363
vn -0.3846 -0.3044 0.8715
vn -0.5443 0.2208 0.8093
vn -0.5467 0.2309 0.8049
vn -0.5132 0.2934 0.8065
vn -0.5140 0.2922 0.8065
vn -0.4793 0.3466 0.8063
vn -0.4732 0.3471 0.8097
vn -0.4139 0.4018 0.8168
vn -0.3301 0.4664 0.8207
vn -0.2750 0.5731 0.7719
vn 0.0845 0.6143 0.7845
vn 0.2516 0.5547 0.7931
vn 0.2694 0.5512 0.7897
vn 0.2653 0.5495 0.7923
vn 0.2273 0.5551 0.8001
vn -0.0266 0.6120 0.7904
vn -0.1009 0.6090 0.7867
vn -0.1679 0.6385 0.7511
vn 0.2516 0.5547 -0.7931
vn 0.2694 0.5512 -0.7897
vn 0.2273 0.5551 -0.8001
vn 0.2653 0.5495 -0.7922
vn 0.0845 0.6143 -0.7845
vn -0.3301 0.4664 -0.8207
vn -0.2750 0.5731 -0.7719
vn -0.4139 0.4018 -0.8168
vn -0.4732 0.3471 -0.8097
vn -0.4793 0.3466 -0.8063
vn -0.5140 0.2922 -0.8065
vn -0.5132 0.2934 -0.8065
vn -0.5467 0.2309 -0.8049
vn -0.5443 0.2209 -0.8093
vn -0.5656 0.0396 -0.8238
vn -0.0266 0.6120 -0.7904
vn -0.1009 0.6090 -0.7867
vn -0.1679 0.6385 -0.7511
vn -0.5508 0.0276 -0.8342
vn -0.5596 -0.1123 -0.8211
vn -0.5656 -0.1174 -0.8163
vn -0.5081 -0.2913 -0.8105
vn -0.5090 -0.2929 -0.8094
vn -0.4454 -0.3472 -0.8253
vn -0.4451 -0.3474 -0.8254
vn -0.4242 -0.3472 -0.8363
vn -0.4258 -0.3478 -0.8353
vn -0.3846 -0.3044 -0.8715
vn -0.3830 -0.2929 -0.8761
vn -0.3859 -0.2717 -0.8816
vn -0.3821 -0.9241 -0.0000
vn -0.4154 -0.9096 -0.0000
vn 0.6638 -0.7479 -0.0000
vn 0.7929 -0.6093 -0.0000
vn 0.8752 -0.4837 -0.0001
vn 0.8752 -0.4837 -0.0000
vn 0.9460 -0.3242 0.0003
vn 0.9460 -0.3242 -0.0000
vn 0.9986 -0.0522 -0.0000
vn 0.9986 -0.0524 -0.0000
vn -0.3015 -0.9535 -0.0000
vn 0.9822 0.1877 -0.0000
vn 0.8879 0.4601 -0.0000
vn 0.8878 0.4602 -0.0001
vn 0.7936 0.6084 -0.0000
vn 0.7936 0.6084 -0.0003
vn 0.7820 0.6233 -0.0000
vn 0.7821 0.6232 -0.0000
vn 0.7903 0.6128 -0.0000
vn -0.3859 -0.2717 0.8816
vn -0.3830 -0.2929 0.8761
vn 0.0738 -0.9973 -0.0000
vn 0.8092 0.3563 -0.4672
vn 0.9125 0.3602 -0.1939
vn 0.8529 0.1734 -0.4924
vn 0.7658 0.4670 -0.4421
vn 0.8787 0.4492 -0.1614
vn 0.7813 0.6047 -0.1548
vn 0.6242 0.3602 -0.6933
vn 0.5792 0.4492 -0.6803
vn 0.8033 0.5884 -0.0915
vn 0.5246 0.6048 -0.5992
vn 0.4808 0.5887 -0.6498
vn 0.6433 0.6694 -0.3715
vn 0.7289 0.6732 -0.1246
vn 0.5968 0.7245 -0.3447
vn 0.4718 0.6735 -0.5690
vn 0.5563 0.8271 -0.0796
vn 0.6215 0.7826 0.0367
vn 0.4608 0.8875 -0.0042
vn 0.4539 0.8516 -0.2621
vn 0.3602 0.9094 -0.2079
vn 0.3403 0.9389 -0.0519
vn 0.5184 0.8470 0.1173
vn 0.5902 0.7763 0.2214
vn 0.5116 0.8209 0.2537
vn 0.4074 0.8878 0.2142
vn 0.7594 0.6499 -0.0298
vn 0.6682 0.7273 0.1568
vn 0.3691 0.9205 0.1280
vn 0.3349 0.9420 0.0235
vn 0.2646 0.9548 0.1352
vn 0.2254 0.9742 0.0130
vn 0.2704 0.9417 0.2001
vn 0.2781 0.9148 0.2929
vn 0.4093 0.8478 0.3371
vn 0.2342 0.8869 -0.3982
vn 0.3467 0.8266 -0.4434
vn 0.2789 0.7821 -0.5572
vn 0.1586 0.8462 -0.5088
vn 0.1051 0.7764 -0.6214
vn 0.0365 0.8209 -0.5699
vn 0.0186 0.8876 -0.4602
vn 0.4050 0.6511 -0.6419
vn 0.1993 0.7290 -0.6548
vn 0.0739 0.9204 -0.3839
vn 0.1469 0.9421 -0.3015
vn 0.0156 0.9550 -0.2963
vn 0.1008 0.9746 -0.1999
vn 0.2150 0.9389 -0.2687
vn -0.0375 0.9417 -0.3344
vn -0.1149 0.9146 -0.3877
vn -0.0872 0.8478 -0.5232
vn -0.8092 0.3563 -0.4672
vn -0.6242 0.3602 -0.6933
vn -0.8529 0.1734 -0.4924
vn -0.7658 0.4670 -0.4421
vn -0.5792 0.4492 -0.6803
vn -0.5247 0.6047 -0.5992
vn -0.9125 0.3602 -0.1939
vn -0.8787 0.4492 -0.1614
vn -0.4809 0.5885 -0.6499
vn -0.7812 0.6048 -0.1548
vn -0.8032 0.5887 -0.0915
vn -0.6434 0.6694 -0.3714
vn -0.4724 0.6732 -0.5689
vn -0.5970 0.7246 -0.3445
vn -0.7287 0.6735 -0.1242
vn -0.3471 0.8271 -0.4420
vn -0.2790 0.7826 -0.5566
vn -0.2340 0.8875 -0.3969
vn -0.4540 0.8516 -0.2620
vn -0.3602 0.9094 -0.2079
vn -0.2151 0.9389 -0.2687
vn -0.1577 0.8470 -0.5076
vn -0.1034 0.7763 -0.6218
vn -0.0361 0.8209 -0.5699
vn -0.0182 0.8878 -0.4599
vn -0.4055 0.6499 -0.6428
vn -0.1983 0.7273 -0.6571
vn -0.0737 0.9205 -0.3836
vn -0.1471 0.9420 -0.3018
vn -0.0152 0.9548 -0.2968
vn -0.1015 0.9742 -0.2017
vn 0.0380 0.9417 -0.3342
vn 0.1146 0.9148 -0.3873
vn 0.0873 0.8478 -0.5231
vn -0.4620 0.8869 -0.0038
vn -0.5573 0.8266 -0.0786
vn -0.6220 0.7821 0.0370
vn -0.5199 0.8462 0.1170
vn -0.5906 0.7765 0.2197
vn -0.5118 0.8209 0.2534
vn -0.4078 0.8876 0.2140
vn -0.7584 0.6511 -0.0297
vn -0.6668 0.7290 0.1548
vn -0.3695 0.9204 0.1279
vn -0.3346 0.9421 0.0235
vn -0.2644 0.9550 0.1346
vn -0.2235 0.9746 0.0127
vn -0.3402 0.9389 -0.0519
vn -0.2708 0.9417 0.1996
vn -0.2784 0.9146 0.2933
vn -0.4095 0.8478 0.3371
vt 0.015305 0.132690
vt 0.109741 0.110596
vt 0.015305 0.012627
vt 0.015305 0.245972
vt 0.216431 0.221802
vt 0.158813 0.336670
vt 0.109741 0.110596
vt 0.216431 0.221802
vt 0.319092 0.333496
vt 0.158813 0.336670
vt 0.319092 0.333496
vt 0.015419 0.367920
vt 0.194458 0.439453
vt 0.000826 0.473633
vt 0.194580 0.439453
vt 0.163696 0.590820
vt 0.322021 0.581055
vt 0.179565 0.750000
vt 0.015305 0.589355
vt 0.015305 0.771973
vt 0.057312 0.858887
vt 0.342773 0.719727
vt 0.494141 0.677734
vt 0.488281 0.797852
vt 0.367188 0.887207
vt 0.404297 0.440186
vt 0.465088 0.559082
vt 0.256348 0.890137
vt 0.159058 0.877930
vt 0.198730 0.977051
vt 0.125977 0.932617
vt 0.286621 0.985352
vt 0.379883 0.956055
vt 0.448486 0.891113
vt 0.179565 0.750000
vt 0.163696 0.590820
vt 0.322021 0.581055
vt 0.342773 0.719727
vt 0.494141 0.677734
vt 0.488281 0.797852
vt 0.367188 0.887207
vt 0.404297 0.440186
vt 0.465088 0.559082
vt 0.256348 0.890137
vt 0.159058 0.877930
vt 0.198730 0.977051
vt 0.125977 0.932617
vt 0.057312 0.858887
vt 0.286621 0.985352
vt 0.379883 0.956055
vt 0.448486 0.891113
vt 0.609375 0.570801
vt 0.609375 0.608887
vt 0.583008 0.608887
vt 0.583008 0.646484
vt 0.609375 0.646484
vt 0.583008 0.570801
vt 0.583008 0.517578
vt 0.609375 0.517578
vt 0.583008 0.370605
vt 0.609375 0.370605
vt 0.583008 0.243164
vt 0.609375 0.683105
vt 0.583008 0.683105
vt 0.583008 0.741699
vt 0.609375 0.741699
vt 0.583008 0.795898
vt 0.609375 0.795898
vt 0.583008 0.838867
vt 0.609375 0.861328
vt 0.583008 0.861328
vt 0.583008 0.870117
vt 0.609375 0.873535
vt 0.583008 0.881348
vt 0.609375 0.934570
vt 0.583008 0.940918
vt 0.609375 0.946777
vt 0.583008 0.960938
vt 0.609375 0.967285
vt 0.557129 0.873535
vt 0.583008 0.881348
vt 0.583008 0.940918
vt 0.557129 0.935059
vt 0.583008 0.870117
vt 0.557129 0.861328
vt 0.583008 0.861328
vt 0.583008 0.838867
vt 0.557129 0.795898
vt 0.583008 0.795898
vt 0.557129 0.741699
vt 0.583008 0.741699
vt 0.583008 0.683105
vt 0.557129 0.683105
vt 0.583008 0.646484
vt 0.557129 0.948242
vt 0.583008 0.960938
vt 0.557129 0.969238
vt 0.557129 0.646484
vt 0.557129 0.608887
vt 0.583008 0.608887
vt 0.557129 0.570801
vt 0.583008 0.570801
vt 0.557129 0.517578
vt 0.583008 0.517578
vt 0.557129 0.370605
vt 0.583008 0.370605
vt 0.583008 0.243164
vt 0.557129 0.226318
vt 0.583008 0.171021
vt 0.525879 0.873535
vt 0.557129 0.873535
vt 0.557129 0.935059
vt 0.525879 0.935059
vt 0.525879 0.861328
vt 0.557129 0.861328
vt 0.525879 0.795898
vt 0.557129 0.795898
vt 0.525879 0.741699
vt 0.557129 0.741699
vt 0.525879 0.683105
vt 0.557129 0.683105
vt 0.525879 0.646484
vt 0.557129 0.646484
vt 0.557129 0.948242
vt 0.525879 0.948242
vt 0.525879 0.608887
vt 0.557129 0.608887
vt 0.525879 0.570801
vt 0.557129 0.570801
vt 0.525879 0.517578
vt 0.557129 0.517578
vt 0.525879 0.370605
vt 0.557129 0.370605
vt 0.525879 0.226318
vt 0.557129 0.226318
vt 0.583008 0.171021
vt 0.609375 0.226074
vt 0.557129 0.969238
vt 0.525879 0.969238
vt 0.525879 0.948242
vt 0.557129 0.948242
vt 0.609375 0.570801
vt 0.609375 0.608887
vt 0.583008 0.608887
vt 0.583008 0.646484
vt 0.609375 0.646484
vt 0.583008 0.570801
vt 0.583008 0.517578
vt 0.609375 0.517578
vt 0.583008 0.370605
vt 0.609375 0.370605
vt 0.583008 0.243164
vt 0.609375 0.683105
vt 0.583008 0.683105
vt 0.583008 0.741699
vt 0.609375 0.741699
vt 0.583008 0.795898
vt 0.609375 0.795898
vt 0.583008 0.838867
vt 0.609375 0.861328
vt 0.583008 0.861328
vt 0.583008 0.870117
vt 0.609375 0.873535
vt 0.583008 0.881348
vt 0.609375 0.934570
vt 0.583008 0.940918
vt 0.609375 0.946777
vt 0.583008 0.960938
vt 0.609375 0.967285
vt 0.557129 0.873535
vt 0.583008 0.881348
vt 0.583008 0.940918
vt 0.557129 0.935059
vt 0.583008 0.870117
vt 0.557129 0.861328
vt 0.583008 0.861328
vt 0.583008 0.838867
vt 0.557129 0.795898
vt 0.583008 0.795898
vt 0.557129 0.741699
vt 0.583008 0.741699
vt 0.583008 0.683105
vt 0.557129 0.683105
vt 0.583008 0.646484
vt 0.557129 0.948242
vt 0.583008 0.960938
vt 0.557129 0.969238
vt 0.557129 0.646484
vt 0.557129 0.608887
vt 0.583008 0.608887
vt 0.557129 0.570801
vt 0.583008 0.570801
vt 0.557129 0.517578
vt 0.583008 0.517578
vt 0.557129 0.370605
vt 0.583008 0.370605
vt 0.583008 0.243164
vt 0.557129 0.226318
vt 0.583008 0.171021
vt 0.525879 0.873535
vt 0.557129 0.873535
vt 0.557129 0.935059
vt 0.525879 0.935059
vt 0.525879 0.861328
vt 0.557129 0.861328
vt 0.525879 0.795898
vt 0.557129 0.795898
vt 0.525879 0.741699
vt 0.557129 0.741699
vt 0.525879 0.683105
vt 0.557129 0.683105
vt 0.525879 0.646484
vt 0.557129 0.646484
vt 0.557129 0.948242
vt 0.525879 0.948242
vt 0.525879 0.608887
vt 0.557129 0.608887
vt 0.525879 0.570801
vt 0.557129 0.570801
vt 0.525879 0.517578
vt 0.557129 0.517578
vt 0.525879 0.370605
vt 0.557129 0.370605
vt 0.525879 0.226318
vt 0.557129 0.226318
vt 0.583008 0.171021
vt 0.609375 0.226074
vt 0.557129 0.969238
vt 0.525879 0.969238
vt 0.525879 0.948242
vt 0.557129 0.948242
vt 0.263916 0.080627
vt 0.263916 0.054993
vt 0.236450 0.008942
vt 0.236450 0.107422
vt 0.292236 0.047241
vt 0.292236 0.107422
vt 0.333496 0.107422
vt 0.333496 0.075623
vt 0.263916 0.027832
vt 0.263916 0.107422
vt 0.236450 0.210449
vt 0.263916 0.191528
vt 0.263916 0.162842
vt 0.236450 0.107422
vt 0.263916 0.135742
vt 0.292236 0.107422
vt 0.292236 0.172119
vt 0.333496 0.143677
vt 0.333496 0.107422
vt 0.263916 0.107422
vt 0.431396 0.107422
vt 0.431396 0.025681
vt 0.333496 0.075623
vt 0.333496 0.107422
vt 0.431396 0.193604
vt 0.431396 0.107422
vt 0.333496 0.107422
vt 0.333496 0.143677
vt 0.526367 0.107422
vt 0.621094 0.107422
vt 0.526367 0.055084
vt 0.431396 0.025681
vt 0.431396 0.107422
vt 0.526367 0.164307
vt 0.621094 0.107422
vt 0.526367 0.107422
vt 0.431396 0.107422
vt 0.431396 0.193604
vt 0.263916 0.191528
vt 0.263916 0.162842
vt 0.236450 0.210449
vt 0.263916 0.136108
vt 0.292236 0.107422
vt 0.292236 0.172119
vt 0.333496 0.143677
vt 0.333496 0.107422
vt 0.236450 0.107422
vt 0.263916 0.107422
vt 0.263916 0.107422
vt 0.263916 0.080322
vt 0.236450 0.107422
vt 0.263916 0.054932
vt 0.292236 0.047241
vt 0.292236 0.107422
vt 0.333496 0.107422
vt 0.333496 0.075623
vt 0.236450 0.008942
vt 0.263916 0.027832
vt 0.431396 0.107422
vt 0.333496 0.107422
vt 0.333496 0.143677
vt 0.431396 0.193604
vt 0.431396 0.025681
vt 0.333496 0.075623
vt 0.333496 0.107422
vt 0.431396 0.107422
vt 0.621094 0.107422
vt 0.526367 0.107422
vt 0.526367 0.164307
vt 0.431396 0.193604
vt 0.431396 0.107422
vt 0.621094 0.107422
vt 0.526367 0.055084
vt 0.526367 0.107422
vt 0.431396 0.107422
vt 0.431396 0.025681
vt 0.609375 0.570801
vt 0.609375 0.608887
vt 0.583008 0.608887
vt 0.583008 0.646484
vt 0.609375 0.646484
vt 0.583008 0.570801
vt 0.583008 0.517578
vt 0.609375 0.517578
vt 0.583008 0.370605
vt 0.609375 0.370605
vt 0.583008 0.243164
vt 0.609375 0.683105
vt 0.583008 0.683105
vt 0.583008 0.741699
vt 0.609375 0.741699
vt 0.583008 0.795898
vt 0.609375 0.795898
vt 0.583008 0.838867
vt 0.609375 0.861328
vt 0.583008 0.861328
vt 0.583008 0.870117
vt 0.609375 0.873535
vt 0.583008 0.881348
vt 0.609375 0.934570
vt 0.583008 0.940918
vt 0.609375 0.946777
vt 0.583008 0.960938
vt 0.609375 0.967285
vt 0.557129 0.873535
vt 0.583008 0.881348
vt 0.583008 0.940918
vt 0.557129 0.935059
vt 0.583008 0.870117
vt 0.557129 0.861328
vt 0.583008 0.861328
vt 0.583008 0.838867
vt 0.557129 0.795898
vt 0.583008 0.795898
vt 0.557129 0.741699
vt 0.583008 0.741699
vt 0.583008 0.683105
vt 0.557129 0.683105
vt 0.583008 0.646484
vt 0.557129 0.948242
vt 0.583008 0.960938
vt 0.557129 0.969238
vt 0.557129 0.646484
vt 0.557129 0.608887
vt 0.583008 0.608887
vt 0.557129 0.570801
vt 0.583008 0.570801
vt 0.557129 0.517578
vt 0.583008 0.517578
vt 0.557129 0.370605
vt 0.583008 0.370605
vt 0.583008 0.243164
vt 0.557129 0.226318
vt 0.583008 0.171021
vt 0.525879 0.873535
vt 0.557129 0.873535
vt 0.557129 0.935059
vt 0.525879 0.935059
vt 0.525879 0.861328
vt 0.557129 0.861328
vt 0.525879 0.795898
vt 0.557129 0.795898
vt 0.525879 0.741699
vt 0.557129 0.741699
vt 0.525879 0.683105
vt 0.557129 0.683105
vt 0.525879 0.646484
vt 0.557129 0.646484
vt 0.557129 0.948242
vt 0.525879 0.948242
vt 0.525879 0.608887
vt 0.557129 0.608887
vt 0.525879 0.570801
vt 0.557129 0.570801
vt 0.525879 0.517578
vt 0.557129 0.517578
vt 0.525879 0.370605
vt 0.557129 0.370605
vt 0.525879 0.226318
vt 0.557129 0.226318
vt 0.583008 0.171021
vt 0.609375 0.226074
vt 0.557129 0.969238
vt 0.525879 0.969238
vt 0.525879 0.948242
vt 0.557129 0.948242
vt 0.550293 0.216309
vt 0.515625 0.216309
vt 0.515625 0.181519
vt 0.550293 0.181519
vt 0.609375 0.570801
vt 0.609375 0.608887
vt 0.583008 0.608887
vt 0.583008 0.646484
vt 0.609375 0.646484
vt 0.583008 0.570801
vt 0.583008 0.517578
vt 0.609375 0.517578
vt 0.583008 0.370605
vt 0.609375 0.370605
vt 0.583008 0.243164
vt 0.609375 0.683105
vt 0.583008 0.683105
vt 0.583008 0.741699
vt 0.609375 0.741699
vt 0.583008 0.795898
vt 0.609375 0.795898
vt 0.583008 0.838867
vt 0.609375 0.861328
vt 0.583008 0.861328
vt 0.583008 0.870117
vt 0.609375 0.873535
vt 0.583008 0.881348
vt 0.609375 0.934570
vt 0.583008 0.940918
vt 0.609375 0.946777
vt 0.583008 0.960938
vt 0.609375 0.967285
vt 0.557129 0.873535
vt 0.583008 0.881348
vt 0.583008 0.940918
vt 0.557129 0.935059
vt 0.583008 0.870117
vt 0.557129 0.861328
vt 0.583008 0.861328
vt 0.583008 0.838867
vt 0.557129 0.795898
vt 0.583008 0.795898
vt 0.557129 0.741699
vt 0.583008 0.741699
vt 0.583008 0.683105
vt 0.557129 0.683105
vt 0.583008 0.646484
vt 0.557129 0.948242
vt 0.583008 0.960938
vt 0.557129 0.969238
vt 0.557129 0.646484
vt 0.557129 0.608887
vt 0.583008 0.608887
vt 0.557129 0.570801
vt 0.583008 0.570801
vt 0.557129 0.517578
vt 0.583008 0.517578
vt 0.557129 0.370605
vt 0.583008 0.370605
vt 0.583008 0.243164
vt 0.557129 0.226318
vt 0.583008 0.171021
vt 0.525879 0.873535
vt 0.557129 0.873535
vt 0.557129 0.935059
vt 0.525879 0.935059
vt 0.525879 0.861328
vt 0.557129 0.861328
vt 0.525879 0.795898
vt 0.557129 0.795898
vt 0.525879 0.741699
vt 0.557129 0.741699
vt 0.525879 0.683105
vt 0.557129 0.683105
vt 0.525879 0.646484
vt 0.557129 0.646484
vt 0.557129 0.948242
vt 0.525879 0.948242
vt 0.525879 0.608887
vt 0.557129 0.608887
vt 0.525879 0.570801
vt 0.557129 0.570801
vt 0.525879 0.517578
vt 0.557129 0.517578
vt 0.525879 0.370605
vt 0.557129 0.370605
vt 0.525879 0.226318
vt 0.557129 0.226318
vt 0.583008 0.171021
vt 0.609375 0.226074
vt 0.557129 0.969238
vt 0.525879 0.969238
vt 0.525879 0.948242
vt 0.557129 0.948242
vt 0.015305 0.132690
vt 0.109741 0.110596
vt 0.015305 0.012627
vt 0.015305 0.245972
vt 0.216431 0.221802
vt 0.158813 0.336670
vt 0.109741 0.110596
vt 0.216431 0.221802
vt 0.319092 0.333496
vt 0.158813 0.336670
vt 0.319092 0.333496
vt 0.015419 0.367920
vt 0.194458 0.439453
vt 0.000825 0.473633
vt 0.194580 0.439453
vt 0.163696 0.590820
vt 0.322021 0.581055
vt 0.179565 0.750000
vt 0.015305 0.589355
vt 0.015305 0.771973
vt 0.057312 0.858887
vt 0.342773 0.719727
vt 0.494141 0.677734
vt 0.488281 0.797852
vt 0.367188 0.887207
vt 0.404297 0.440430
vt 0.465088 0.559082
vt 0.256348 0.890137
vt 0.159058 0.877930
vt 0.198730 0.977051
vt 0.125977 0.932617
vt 0.286621 0.985352
vt 0.379883 0.956055
vt 0.448486 0.891113
vt 0.179565 0.750000
vt 0.163696 0.590820
vt 0.322021 0.581055
vt 0.342773 0.719727
vt 0.494141 0.677734
vt 0.488281 0.797852
vt 0.367188 0.887207
vt 0.404297 0.440430
vt 0.465088 0.559082
vt 0.256348 0.890137
vt 0.159058 0.877930
vt 0.198730 0.977051
vt 0.125977 0.932617
vt 0.057312 0.858887
vt 0.286621 0.985352
vt 0.379883 0.956055
vt 0.448486 0.891113
vt 0.015305 0.132690
vt 0.109741 0.110596
vt 0.015305 0.012627
vt 0.015305 0.245972
vt 0.216431 0.221802
vt 0.158813 0.336670
vt 0.109741 0.110596
vt 0.216431 0.221802
vt 0.319092 0.333496
vt 0.158813 0.336670
vt 0.319092 0.333496
vt 0.015419 0.367920
vt 0.194458 0.439453
vt 0.000825 0.473633
vt 0.194580 0.439453
vt 0.163696 0.590820
vt 0.322021 0.581055
vt 0.179565 0.750000
vt 0.015305 0.589355
vt 0.015305 0.771973
vt 0.057312 0.858887
vt 0.342773 0.719727
vt 0.494141 0.677734
vt 0.488281 0.797852
vt 0.367188 0.887207
vt 0.404297 0.440430
vt 0.465088 0.559082
vt 0.256348 0.890137
vt 0.159058 0.877930
vt 0.198730 0.977051
vt 0.125977 0.932617
vt 0.286621 0.985352
vt 0.379883 0.956055
vt 0.448486 0.891113
vt 0.179565 0.750000
vt 0.163696 0.590820
vt 0.322021 0.581055
vt 0.342773 0.719727
vt 0.494141 0.677734
vt 0.488281 0.797852
vt 0.367188 0.887207
vt 0.404297 0.440430
vt 0.465088 0.559082
vt 0.256348 0.890137
vt 0.159058 0.877930
vt 0.198730 0.977051
vt 0.125977 0.932617
vt 0.057312 0.858887
vt 0.286621 0.985352
vt 0.379883 0.956055
vt 0.448486 0.891113
s 1
usemtl Default_OBJ.002
f 260/260/201 261/261/202 262/262/203
f 260/260/201 263/263/204 261/261/202
f 263/263/204 264/264/205 261/261/202
f 263/263/204 265/265/206 264/264/205
f 266/266/207 260/260/201 262/262/203
f 263/263/204 260/260/201 266/266/207
f 267/267/208 263/263/204 266/266/207
f 268/268/209 264/264/205 265/265/206
f 263/263/204 267/267/208 269/269/210
f 270/270/211 269/269/210 267/267/208
f 271/271/212 265/265/206 263/263/204
f 269/269/210 271/271/212 263/263/204
f 272/272/213 265/265/206 271/271/212
f 273/273/214 272/272/213 271/271/212
f 271/271/212 269/269/210 273/273/214
f 269/269/210 274/274/215 273/273/214
f 275/275/216 272/272/213 273/273/214
f 276/276/217 272/272/213 275/275/216
f 276/276/217 275/275/216 277/277/218
f 277/277/218 275/275/216 278/278/219
f 278/278/219 275/275/216 273/273/214
f 277/277/218 278/278/219 279/279/220
f 279/279/220 280/280/221 277/277/218
f 281/281/222 276/276/217 277/277/218
f 281/281/222 282/282/223 276/276/217
f 281/281/222 283/283/224 282/282/223
f 281/281/222 284/284/225 283/283/224
f 285/285/226 272/272/213 276/276/217
f 286/286/227 285/285/226 276/276/217
f 286/286/227 276/276/217 282/282/223
f 281/281/222 277/277/218 287/287/228
f 284/284/225 281/281/222 287/287/228
f 287/287/228 277/277/218 288/288/229
f 288/288/229 277/277/218 280/280/221
f 288/288/229 289/289/230 287/287/228
f 288/288/229 290/290/231 289/289/230
f 288/288/229 280/280/221 290/290/231
f 284/284/225 287/287/228 291/291/232
f 287/287/228 289/289/230 291/291/232
f 284/284/225 291/291/232 292/292/233
f 284/284/225 292/292/233 293/293/234
f 284/284/225 293/293/234 283/283/224
f 278/278/219 294/294/235 279/279/220
f 295/295/236 294/294/235 278/278/219
f 295/295/236 296/296/237 294/294/235
f 274/274/215 296/296/237 295/295/236
f 296/296/237 297/297/238 294/294/235
f 298/298/239 297/297/238 296/296/237
f 299/299/240 297/297/238 298/298/239
f 300/300/241 297/297/238 299/299/240
f 274/274/215 301/301/242 296/296/237
f 301/301/242 302/302/243 296/296/237
f 296/296/237 302/302/243 298/298/239
f 294/294/235 297/297/238 303/303/244
f 297/297/238 300/300/241 303/303/244
f 294/294/235 303/303/244 304/304/245
f 305/305/246 304/304/245 303/303/244
f 306/306/247 304/304/245 305/305/246
f 307/307/248 304/304/245 306/306/247
f 294/294/235 304/304/245 307/307/248
f 307/307/248 279/279/220 294/294/235
f 303/303/244 300/300/241 308/308/249
f 305/305/246 303/303/244 308/308/249
f 308/308/249 300/300/241 309/309/250
f 309/309/250 300/300/241 310/310/251
f 310/310/251 300/300/241 299/299/240
f 301/301/242 274/274/215 269/269/210
f 270/270/211 301/301/242 269/269/210
f 274/274/215 295/295/236 273/273/214
f 295/295/236 278/278/219 273/273/214
f 311/311/252 312/312/253 313/313/254
f 313/313/254 312/312/253 314/314/255
f 314/314/255 312/312/253 315/315/256
f 316/316/257 311/311/252 313/313/254
f 316/316/257 317/317/258 311/311/252
f 317/317/258 318/318/259 311/311/252
f 317/317/258 319/319/260 318/318/259
f 319/319/260 320/320/261 318/318/259
f 320/320/261 319/319/260 321/321/262
f 314/314/255 315/315/256 322/322/263
f 314/314/255 322/322/263 323/323/264
f 323/323/264 322/322/263 324/324/265
f 322/322/263 325/325/266 324/324/265
f 324/324/265 325/325/266 326/326/267
f 325/325/266 327/327/268 326/326/267
f 326/326/267 327/327/268 328/328/269
f 327/327/268 329/329/270 328/328/269
f 328/328/269 329/329/270 330/330/271
f 331/331/272 330/330/271 329/329/270
f 331/331/272 329/329/270 332/332/273
f 331/331/272 332/332/273 333/333/274
f 333/333/274 332/332/273 334/334/275
f 335/335/276 333/333/274 334/334/275
f 334/334/275 336/336/277 335/335/276
f 336/336/277 337/337/278 335/335/276
f 336/336/277 338/338/279 337/337/278
f 339/339/280 340/340/281 341/341/282
f 342/342/283 339/339/280 341/341/282
f 343/343/284 340/340/281 339/339/280
f 343/343/284 339/339/280 344/344/285
f 345/345/286 343/343/284 344/344/285
f 345/345/286 344/344/285 346/346/287
f 346/346/287 344/344/285 347/347/288
f 348/348/289 346/346/287 347/347/288
f 348/348/289 347/347/288 349/349/290
f 350/350/291 348/348/289 349/349/290
f 350/350/291 349/349/290 351/351/292
f 349/349/290 352/352/293 351/351/292
f 353/353/294 351/351/292 352/352/293
f 341/341/282 354/354/295 342/342/283
f 341/341/282 355/355/296 354/354/295
f 355/355/296 356/356/297 354/354/295
f 353/353/294 352/352/293 357/357/298
f 353/353/294 357/357/298 358/358/299
f 359/359/300 353/353/294 358/358/299
f 359/359/300 358/358/299 360/360/301
f 361/361/302 359/359/300 360/360/301
f 360/360/301 362/362/303 361/361/302
f 362/362/303 363/363/304 361/361/302
f 362/362/303 364/364/305 363/363/304
f 364/364/305 365/365/306 363/363/304
f 366/366/307 365/365/306 364/364/305
f 367/367/308 366/366/307 364/364/305
f 368/368/309 366/366/307 367/367/308
f 369/369/310 370/370/310 371/371/311
f 372/372/311 369/369/310 371/371/311
f 370/370/310 369/369/310 373/373/312
f 374/374/312 370/370/310 373/373/312
f 374/374/312 373/373/312 375/375/313
f 376/376/313 374/374/312 375/375/313
f 376/376/313 375/375/313 377/377/314
f 378/378/315 376/376/313 377/377/314
f 378/378/315 377/377/314 379/379/316
f 380/380/317 378/378/315 379/379/316
f 380/380/317 379/379/316 381/381/318
f 382/382/319 380/380/317 381/381/318
f 371/371/311 383/383/320 372/372/311
f 383/383/320 384/384/320 372/372/311
f 382/382/319 381/381/318 385/385/321
f 386/386/321 382/382/319 385/385/321
f 386/386/321 385/385/321 387/387/322
f 388/388/323 386/386/321 387/387/322
f 387/387/322 389/389/324 388/388/323
f 389/389/324 390/390/325 388/388/323
f 389/389/324 391/391/326 390/390/325
f 391/391/326 392/392/327 390/390/325
f 391/391/326 393/393/328 392/392/327
f 393/393/328 394/394/328 392/392/327
f 321/321/262 395/395/329 396/396/330
f 396/396/330 320/320/261 321/321/262
f 397/397/331 398/398/331 399/399/331
f 400/400/331 397/397/331 399/399/331
f 401/401/332 402/402/333 403/403/334
f 403/403/334 402/402/333 404/404/335
f 404/404/335 402/402/333 405/405/336
f 406/406/337 401/401/332 403/403/334
f 406/406/337 407/407/338 401/401/332
f 407/407/338 408/408/339 401/401/332
f 407/407/338 409/409/340 408/408/339
f 409/409/340 410/410/341 408/408/339
f 410/410/341 409/409/340 411/411/342
f 404/404/335 405/405/336 412/412/343
f 404/404/335 412/412/343 413/413/344
f 413/413/344 412/412/343 414/414/345
f 412/412/343 415/415/346 414/414/345
f 414/414/345 415/415/346 416/416/347
f 415/415/346 417/417/348 416/416/347
f 416/416/347 417/417/348 418/418/349
f 417/417/348 419/419/350 418/418/349
f 418/418/349 419/419/350 420/420/351
f 421/421/352 420/420/351 419/419/350
f 421/421/352 419/419/350 422/422/353
f 421/421/352 422/422/353 423/423/354
f 423/423/354 422/422/353 424/424/355
f 425/425/356 423/423/354 424/424/355
f 424/424/355 426/426/357 425/425/356
f 426/426/357 427/427/358 425/425/356
f 426/426/357 428/428/359 427/427/358
f 429/429/360 430/430/361 431/431/362
f 432/432/363 429/429/360 431/431/362
f 433/433/364 430/430/361 429/429/360
f 433/433/364 429/429/360 434/434/365
f 435/435/366 433/433/364 434/434/365
f 435/435/366 434/434/365 436/436/367
f 436/436/367 434/434/365 437/437/368
f 438/438/369 436/436/367 437/437/368
f 438/438/369 437/437/368 439/439/370
f 440/440/371 438/438/369 439/439/370
f 440/440/371 439/439/370 441/441/372
f 439/439/370 442/442/373 441/441/372
f 443/443/374 441/441/372 442/442/373
f 431/431/362 444/444/375 432/432/363
f 431/431/362 445/445/376 444/444/375
f 445/445/376 446/446/377 444/444/375
f 443/443/374 442/442/373 447/447/378
f 443/443/374 447/447/378 448/448/379
f 449/449/380 443/443/374 448/448/379
f 449/449/380 448/448/379 450/450/381
f 451/451/382 449/449/380 450/450/381
f 450/450/381 452/452/383 451/451/382
f 452/452/383 453/453/384 451/451/382
f 452/452/383 454/454/385 453/453/384
f 454/454/385 455/455/386 453/453/384
f 456/456/387 455/455/386 454/454/385
f 457/457/388 456/456/387 454/454/385
f 458/458/389 456/456/387 457/457/388
f 459/459/390 460/460/390 461/461/391
f 462/462/391 459/459/390 461/461/391
f 460/460/390 459/459/390 463/463/392
f 464/464/392 460/460/390 463/463/392
f 464/464/392 463/463/392 465/465/393
f 466/466/393 464/464/392 465/465/393
f 466/466/393 465/465/393 467/467/394
f 468/468/395 466/466/393 467/467/394
f 468/468/395 467/467/394 469/469/396
f 470/470/397 468/468/395 469/469/396
f 470/470/397 469/469/396 471/471/398
f 472/472/399 470/470/397 471/471/398
f 461/461/391 473/473/400 462/462/391
f 473/473/400 474/474/400 462/462/391
f 472/472/399 471/471/398 475/475/401
f 476/476/401 472/472/399 475/475/401
f 476/476/401 475/475/401 477/477/402
f 478/478/403 476/476/401 477/477/402
f 477/477/402 479/479/404 478/478/403
f 479/479/404 480/480/405 478/478/403
f 479/479/404 481/481/406 480/480/405
f 481/481/406 482/482/407 480/480/405
f 481/481/406 483/483/408 482/482/407
f 483/483/408 484/484/408 482/482/407
f 411/411/342 485/485/409 486/486/410
f 486/486/410 410/410/341 411/411/342
f 487/487/411 488/488/411 489/489/411
f 490/490/411 487/487/411 489/489/411
f 491/491/412 492/492/412 493/493/413
f 494/494/414 491/491/412 493/493/413
f 492/492/412 491/491/412 495/495/415
f 491/491/412 496/496/415 495/495/415
f 496/496/415 497/497/416 495/495/415
f 497/497/416 498/498/416 495/495/415
f 492/492/412 499/499/414 493/493/413
f 494/494/414 500/500/414 491/491/412
f 501/501/417 502/502/418 503/503/419
f 501/501/417 503/503/419 504/504/420
f 503/503/419 505/505/419 504/504/420
f 505/505/419 503/503/419 506/506/421
f 503/503/419 507/507/422 506/506/421
f 507/507/422 508/508/423 506/506/421
f 508/508/423 509/509/423 506/506/421
f 505/505/419 510/510/420 504/504/420
f 511/511/424 512/512/424 513/513/424
f 514/514/424 511/511/424 513/513/424
f 515/515/425 516/516/425 517/517/425
f 518/518/425 515/515/425 517/517/425
f 519/519/426 520/520/427 521/521/426
f 519/519/426 521/521/426 522/522/428
f 523/523/428 519/519/426 522/522/428
f 524/524/429 525/525/430 526/526/429
f 524/524/429 526/526/429 527/527/431
f 528/528/431 524/524/429 527/527/431
f 529/529/432 530/530/433 531/531/432
f 530/530/433 532/532/433 531/531/432
f 532/532/433 530/530/433 533/533/434
f 530/530/433 534/534/435 533/533/434
f 534/534/435 535/535/436 533/533/434
f 535/535/436 536/536/436 533/533/434
f 532/532/433 537/537/437 531/531/432
f 532/532/433 538/538/437 537/537/437
f 539/539/438 540/540/439 541/541/438
f 540/540/439 542/542/439 541/541/438
f 542/542/439 540/540/439 543/543/440
f 540/540/439 544/544/441 543/543/440
f 544/544/441 545/545/442 543/543/440
f 545/545/442 546/546/442 543/543/440
f 542/542/439 547/547/438 541/541/438
f 542/542/439 548/548/443 547/547/438
f 549/549/444 550/550/444 551/551/444
f 552/552/444 549/549/444 551/551/444
f 553/553/445 554/554/445 555/555/445
f 556/556/445 553/553/445 555/555/445
f 557/557/446 558/558/447 559/559/447
f 559/559/447 558/558/447 560/560/448
f 558/558/447 561/561/448 560/560/448
f 562/562/449 563/563/450 564/564/450
f 564/564/450 563/563/450 565/565/451
f 563/563/450 566/566/451 565/565/451
f 567/567/452 568/568/453 569/569/454
f 569/569/454 568/568/453 570/570/455
f 570/570/455 568/568/453 571/571/456
f 572/572/457 567/567/452 569/569/454
f 572/572/457 573/573/458 567/567/452
f 573/573/458 574/574/459 567/567/452
f 573/573/458 575/575/460 574/574/459
f 575/575/460 576/576/461 574/574/459
f 576/576/461 575/575/460 577/577/462
f 570/570/455 571/571/456 578/578/463
f 570/570/455 578/578/463 579/579/464
f 579/579/464 578/578/463 580/580/465
f 578/578/463 581/581/466 580/580/465
f 580/580/465 581/581/466 582/582/467
f 581/581/466 583/583/468 582/582/467
f 582/582/467 583/583/468 584/584/469
f 583/583/468 585/585/470 584/584/469
f 584/584/469 585/585/470 586/586/471
f 587/587/472 586/586/471 585/585/470
f 587/587/472 585/585/470 588/588/473
f 587/587/472 588/588/473 589/589/474
f 589/589/474 588/588/473 590/590/475
f 591/591/476 589/589/474 590/590/475
f 590/590/475 592/592/477 591/591/476
f 592/592/477 593/593/478 591/591/476
f 592/592/477 594/594/479 593/593/478
f 595/595/480 596/596/481 597/597/482
f 598/598/483 595/595/480 597/597/482
f 599/599/484 596/596/481 595/595/480
f 599/599/484 595/595/480 600/600/485
f 601/601/486 599/599/484 600/600/485
f 601/601/486 600/600/485 602/602/487
f 602/602/487 600/600/485 603/603/488
f 604/604/489 602/602/487 603/603/488
f 604/604/489 603/603/488 605/605/490
f 606/606/491 604/604/489 605/605/490
f 606/606/491 605/605/490 607/607/492
f 605/605/490 608/608/493 607/607/492
f 609/609/494 607/607/492 608/608/493
f 597/597/482 610/610/495 598/598/483
f 597/597/482 611/611/496 610/610/495
f 611/611/496 612/612/497 610/610/495
f 609/609/494 608/608/493 613/613/498
f 609/609/494 613/613/498 614/614/499
f 615/615/500 609/609/494 614/614/499
f 615/615/500 614/614/499 616/616/501
f 617/617/502 615/615/500 616/616/501
f 616/616/501 618/618/503 617/617/502
f 618/618/503 619/619/504 617/617/502
f 618/618/503 620/620/505 619/619/504
f 620/620/505 621/621/506 619/619/504
f 622/622/507 621/621/506 620/620/505
f 623/623/508 622/622/507 620/620/505
f 624/624/509 622/622/507 623/623/508
f 625/625/510 626/626/510 627/627/511
f 628/628/511 625/625/510 627/627/511
f 626/626/510 625/625/510 629/629/512
f 630/630/512 626/626/510 629/629/512
f 630/630/512 629/629/512 631/631/513
f 632/632/513 630/630/512 631/631/513
f 632/632/513 631/631/513 633/633/514
f 634/634/515 632/632/513 633/633/514
f 634/634/515 633/633/514 635/635/516
f 636/636/517 634/634/515 635/635/516
f 636/636/517 635/635/516 637/637/518
f 638/638/519 636/636/517 637/637/518
f 627/627/511 639/639/520 628/628/511
f 639/639/520 640/640/520 628/628/511
f 638/638/519 637/637/518 641/641/521
f 642/642/521 638/638/519 641/641/521
f 642/642/521 641/641/521 643/643/522
f 644/644/523 642/642/521 643/643/522
f 643/643/522 645/645/524 644/644/523
f 645/645/524 646/646/525 644/644/523
f 645/645/524 647/647/526 646/646/525
f 647/647/526 648/648/527 646/646/525
f 647/647/526 649/649/528 648/648/527
f 649/649/528 650/650/528 648/648/527
f 577/577/462 651/651/529 652/652/530
f 652/652/530 576/576/461 577/577/462
f 653/653/531 654/654/531 655/655/531
f 656/656/531 653/653/531 655/655/531
f 657/657/532 658/658/532 659/659/532
f 660/660/532 657/657/532 659/659/532
f 661/661/533 662/662/534 663/663/535
f 663/663/535 662/662/534 664/664/536
f 664/664/536 662/662/534 665/665/537
f 666/666/538 661/661/533 663/663/535
f 666/666/538 667/667/539 661/661/533
f 667/667/539 668/668/540 661/661/533
f 667/667/539 669/669/541 668/668/540
f 669/669/541 670/670/542 668/668/540
f 670/670/542 669/669/541 671/671/543
f 664/664/536 665/665/537 672/672/544
f 664/664/536 672/672/544 673/673/545
f 673/673/545 672/672/544 674/674/546
f 672/672/544 675/675/547 674/674/546
f 674/674/546 675/675/547 676/676/548
f 675/675/547 677/677/549 676/676/548
f 676/676/548 677/677/549 678/678/550
f 677/677/549 679/679/551 678/678/550
f 678/678/550 679/679/551 680/680/552
f 681/681/553 680/680/552 679/679/551
f 681/681/553 679/679/551 682/682/554
f 681/681/553 682/682/554 683/683/555
f 683/683/555 682/682/554 684/684/556
f 685/685/557 683/683/555 684/684/556
f 684/684/556 686/686/558 685/685/557
f 686/686/558 687/687/559 685/685/557
f 686/686/558 688/688/560 687/687/559
f 689/689/561 690/690/562 691/691/563
f 692/692/564 689/689/561 691/691/563
f 693/693/565 690/690/562 689/689/561
f 693/693/565 689/689/561 694/694/566
f 695/695/567 693/693/565 694/694/566
f 695/695/567 694/694/566 696/696/568
f 696/696/568 694/694/566 697/697/569
f 698/698/570 696/696/568 697/697/569
f 698/698/570 697/697/569 699/699/571
f 700/700/572 698/698/570 699/699/571
f 700/700/572 699/699/571 701/701/573
f 699/699/571 702/702/574 701/701/573
f 703/703/575 701/701/573 702/702/574
f 691/691/563 704/704/576 692/692/564
f 691/691/563 705/705/577 704/704/576
f 705/705/577 706/706/578 704/704/576
f 703/703/575 702/702/574 707/707/579
f 703/703/575 707/707/579 708/708/580
f 709/709/581 703/703/575 708/708/580
f 709/709/581 708/708/580 710/710/582
f 711/711/583 709/709/581 710/710/582
f 710/710/582 712/712/584 711/711/583
f 712/712/584 713/713/585 711/711/583
f 712/712/584 714/714/586 713/713/585
f 714/714/586 715/715/587 713/713/585
f 716/716/588 715/715/587 714/714/586
f 717/717/589 716/716/588 714/714/586
f 718/718/590 716/716/588 717/717/589
f 719/719/591 720/720/591 721/721/592
f 722/722/592 719/719/591 721/721/592
f 720/720/591 719/719/591 723/723/593
f 724/724/593 720/720/591 723/723/593
f 724/724/593 723/723/593 725/725/594
f 726/726/594 724/724/593 725/725/594
f 726/726/594 725/725/594 727/727/595
f 728/728/596 726/726/594 727/727/595
f 728/728/596 727/727/595 729/729/597
f 730/730/598 728/728/596 729/729/597
f 730/730/598 729/729/597 731/731/599
f 732/732/600 730/730/598 731/731/599
f 721/721/592 733/733/601 722/722/592
f 733/733/601 734/734/601 722/722/592
f 732/732/600 731/731/599 735/735/602
f 736/736/602 732/732/600 735/735/602
f 736/736/602 735/735/602 737/737/603
f 738/738/604 736/736/602 737/737/603
f 737/737/603 739/739/605 738/738/604
f 739/739/605 740/740/606 738/738/604
f 739/739/605 741/741/607 740/740/606
f 741/741/607 742/742/608 740/740/606
f 741/741/607 743/743/609 742/742/608
f 743/743/609 744/744/609 742/742/608
f 671/671/543 745/745/610 746/746/611
f 746/746/611 670/670/542 671/671/543
f 747/747/612 748/748/612 749/749/612
f 750/750/612 747/747/612 749/749/612
f 751/751/613 752/752/614 753/753/615
f 751/751/613 754/754/616 752/752/614
f 754/754/616 755/755/617 752/752/614
f 754/754/616 756/756/618 755/755/617
f 757/757/619 751/751/613 753/753/615
f 754/754/616 751/751/613 757/757/619
f 758/758/620 754/754/616 757/757/619
f 759/759/621 755/755/617 756/756/618
f 754/754/616 758/758/620 760/760/622
f 761/761/623 760/760/622 758/758/620
f 762/762/624 756/756/618 754/754/616
f 760/760/622 762/762/624 754/754/616
f 763/763/625 756/756/618 762/762/624
f 764/764/626 763/763/625 762/762/624
f 762/762/624 760/760/622 764/764/626
f 760/760/622 765/765/627 764/764/626
f 766/766/628 763/763/625 764/764/626
f 767/767/629 763/763/625 766/766/628
f 767/767/629 766/766/628 768/768/630
f 768/768/630 766/766/628 769/769/631
f 769/769/631 766/766/628 764/764/626
f 768/768/630 769/769/631 770/770/632
f 770/770/632 771/771/633 768/768/630
f 772/772/634 767/767/629 768/768/630
f 772/772/634 773/773/635 767/767/629
f 772/772/634 774/774/636 773/773/635
f 772/772/634 775/775/637 774/774/636
f 776/776/638 763/763/625 767/767/629
f 777/777/639 776/776/638 767/767/629
f 777/777/639 767/767/629 773/773/635
f 772/772/634 768/768/630 778/778/640
f 775/775/637 772/772/634 778/778/640
f 778/778/640 768/768/630 779/779/641
f 779/779/641 768/768/630 771/771/633
f 779/779/641 780/780/642 778/778/640
f 779/779/641 781/781/643 780/780/642
f 779/779/641 771/771/633 781/781/643
f 775/775/637 778/778/640 782/782/644
f 778/778/640 780/780/642 782/782/644
f 775/775/637 782/782/644 783/783/645
f 775/775/637 783/783/645 784/784/646
f 775/775/637 784/784/646 774/774/636
f 769/769/631 785/785/647 770/770/632
f 786/786/648 785/785/647 769/769/631
f 786/786/648 787/787/649 785/785/647
f 765/765/627 787/787/649 786/786/648
f 787/787/649 788/788/650 785/785/647
f 789/789/651 788/788/650 787/787/649
f 790/790/652 788/788/650 789/789/651
f 791/791/653 788/788/650 790/790/652
f 765/765/627 792/792/654 787/787/649
f 792/792/654 793/793/655 787/787/649
f 787/787/649 793/793/655 789/789/651
f 785/785/647 788/788/650 794/794/656
f 788/788/650 791/791/653 794/794/656
f 785/785/647 794/794/656 795/795/657
f 796/796/658 795/795/657 794/794/656
f 797/797/659 795/795/657 796/796/658
f 798/798/660 795/795/657 797/797/659
f 785/785/647 795/795/657 798/798/660
f 798/798/660 770/770/632 785/785/647
f 794/794/656 791/791/653 799/799/661
f 796/796/658 794/794/656 799/799/661
f 799/799/661 791/791/653 800/800/662
f 800/800/662 791/791/653 801/801/663
f 801/801/663 791/791/653 790/790/652
f 792/792/654 765/765/627 760/760/622
f 761/761/623 792/792/654 760/760/622
f 765/765/627 786/786/648 764/764/626
f 786/786/648 769/769/631 764/764/626
f 802/802/664 803/803/665 804/804/666
f 802/802/664 805/805/667 803/803/665
f 805/805/667 806/806/668 803/803/665
f 805/805/667 807/807/669 806/806/668
f 808/808/670 802/802/664 804/804/666
f 805/805/667 802/802/664 808/808/670
f 809/809/671 805/805/667 808/808/670
f 810/810/672 806/806/668 807/807/669
f 805/805/667 809/809/671 811/811/673
f 812/812/674 811/811/673 809/809/671
f 813/813/675 807/807/669 805/805/667
f 811/811/673 813/813/675 805/805/667
f 814/814/676 807/807/669 813/813/675
f 815/815/677 814/814/676 813/813/675
f 813/813/675 811/811/673 815/815/677
f 811/811/673 816/816/678 815/815/677
f 817/817/679 814/814/676 815/815/677
f 818/818/680 814/814/676 817/817/679
f 818/818/680 817/817/679 819/819/681
f 819/819/681 817/817/679 820/820/682
f 820/820/682 817/817/679 815/815/677
f 819/819/681 820/820/682 821/821/683
f 821/821/683 822/822/684 819/819/681
f 823/823/685 818/818/680 819/819/681
f 823/823/685 824/824/686 818/818/680
f 823/823/685 825/825/687 824/824/686
f 823/823/685 826/826/688 825/825/687
f 827/827/689 814/814/676 818/818/680
f 828/828/690 827/827/689 818/818/680
f 828/828/690 818/818/680 824/824/686
f 823/823/685 819/819/681 829/829/691
f 826/826/688 823/823/685 829/829/691
f 829/829/691 819/819/681 830/830/692
f 830/830/692 819/819/681 822/822/684
f 830/830/692 831/831/693 829/829/691
f 830/830/692 832/832/694 831/831/693
f 830/830/692 822/822/684 832/832/694
f 826/826/688 829/829/691 833/833/695
f 829/829/691 831/831/693 833/833/695
f 826/826/688 833/833/695 834/834/696
f 826/826/688 834/834/696 835/835/697
f 826/826/688 835/835/697 825/825/687
f 820/820/682 836/836/698 821/821/683
f 837/837/699 836/836/698 820/820/682
f 837/837/699 838/838/700 836/836/698
f 816/816/678 838/838/700 837/837/699
f 838/838/700 839/839/701 836/836/698
f 840/840/702 839/839/701 838/838/700
f 841/841/703 839/839/701 840/840/702
f 842/842/704 839/839/701 841/841/703
f 816/816/678 843/843/705 838/838/700
f 843/843/705 844/844/706 838/838/700
f 838/838/700 844/844/706 840/840/702
f 836/836/698 839/839/701 845/845/707
f 839/839/701 842/842/704 845/845/707
f 836/836/698 845/845/707 846/846/708
f 847/847/709 846/846/708 845/845/707
f 848/848/710 846/846/708 847/847/709
f 849/849/711 846/846/708 848/848/710
f 836/836/698 846/846/708 849/849/711
f 849/849/711 821/821/683 836/836/698
f 845/845/707 842/842/704 850/850/712
f 847/847/709 845/845/707 850/850/712
f 850/850/712 842/842/704 851/851/713
f 851/851/713 842/842/704 852/852/714
f 852/852/714 842/842/704 841/841/703
f 843/843/705 816/816/678 811/811/673
f 812/812/674 843/843/705 811/811/673
f 816/816/678 837/837/699 815/815/677
f 837/837/699 820/820/682 815/815/677
f 285/285/226 268/268/209 265/265/206
f 272/272/213 285/285/226 265/265/206
f 776/776/638 759/759/621 756/756/618
f 763/763/625 776/776/638 756/756/618
f 827/827/689 810/810/672 807/807/669
f 814/814/676 827/827/689 807/807/669
