g SkillObj_OverGrow_Seed2_Model
v -0 0.37002888 -0.1602455
v 0.014718041 0.35178986 -0.15287416
v -0 0.34907222 -0.15655643
v -0 0.3289023 -0.14764412
v 0.031491783 0.33528832 -0.14002882
v 0.022950012 0.31563035 -0.13133642
v -0.014718041 0.35178986 -0.15287416
v -0.031491783 0.33528832 -0.14002882
v 0.047634866 0.32062945 -0.12477342
v -0.022950267 0.31563157 -0.13133721
v -0.047634866 0.32062945 -0.12477342
v -2.4258372E-18 0.31118682 -0.13373823
v 0.029015457 0.30154437 -0.11715404
v 6.160171E-08 0.2964288 -0.11880301
v -0.029020088 0.30155548 -0.11714877
v 0.024450937 0.28253713 -0.09688629
v 0.04933228 0.2897552 -0.094610326
v 0.026798405 0.27139267 -0.073262796
v -0 0.2805108 -0.0980489
v -0 0.26674268 -0.07103608
v 0.005129506 0.2626653 -0.057357226
v 0.052307665 0.2801675 -0.074008614
v 0.073967226 0.2938954 -0.07440029
v 0.07252826 0.28509918 -0.05698477
v 0.05448242 0.2719122 -0.047408007
v 0.060971808 0.31065628 -0.11029046
v 0.07005538 0.30161056 -0.09238086
v 0.037431598 0.26671627 -0.04967428
v 0.022300443 0.26344582 -0.053394783
v 0.02662733 0.26146418 -0.037115168
v 0.014794836 0.2609005 -0.04518624
v 0.040563334 0.26535982 -0.033973172
v 0.054947153 0.27095568 -0.036204886
v 0.06569616 0.2777585 -0.04411347
v -0.026798405 0.27139267 -0.073262796
v -0.024450937 0.28254467 -0.09688629
v -0.04933228 0.28987694 -0.094621696
v -0.052307665 0.2801863 -0.074008614
v -0.073967226 0.2939046 -0.07440029
v -0.07252826 0.28510338 -0.05698477
v -0.05448242 0.2719122 -0.047408007
v -0.060971808 0.31066126 -0.11029046
v -0.07005538 0.30162755 -0.09238086
v -0.037431598 0.26671627 -0.04967428
v -0.022300443 0.26344436 -0.053394783
v -0.02662733 0.26146418 -0.037115168
v -0.014794836 0.26092246 -0.04518624
v -0.005129506 0.26266092 -0.057357226
v -0.040563334 0.26534712 -0.033973172
v -0.054947153 0.27095568 -0.036204886
v -0.06569616 0.2777585 -0.04411347
v -1.832445E-10 0.09468521 -0.09915736
v -0.006762518 0.096306704 -0.089767486
v -0.006607874 0.08337665 -0.08518141
v -1.8500819E-10 0.11140708 -0.10040189
v -0.006711814 0.110056385 -0.09030347
v -1.7468732E-10 0.079145424 -0.09311899
v -1.582503E-10 0.061257116 -0.08152019
v -0.00638704 0.06662011 -0.0742989
v -1.3215934E-09 0.017395793 -0.045741733
v -0.00566617 0.023084037 -0.038775083
v -6.0925415E-10 -0.020829158 -0.015890399
v -0.006671413 0.12317842 -0.08834229
v -1.7959341E-10 0.12681335 -0.09658096
v -1.6012058E-09 0.14762513 -0.08657212
v -0.006698404 0.14300165 -0.08159192
v -1.531954E-09 0.1651591 -0.0746479
v -0.006469373 0.15983091 -0.07030548
v -2.7996923E-09 0.17861599 -0.06330237
v -0.0059320545 0.17806804 -0.051877577
v -1.1925108E-10 0.18503904 -0.05400042
v -1.0436069E-09 0.18581386 -0.048636816
v -0.0057908646 0.17731847 -0.047049236
v -2.5738602E-09 0.18343219 -0.042764734
v -0.0054409527 0.16756769 -0.02672209
v -7.5687075E-11 0.1736817 -0.022349214
v -0.0054409527 0.16597076 -0.021671886
v 2.0446434E-11 0.17406929 -0.015217877
v -0.0067750383 0.16658525 -0.013368921
v -7.5687075E-11 0.1736817 -0.022349214
v -2.5738602E-09 0.18343219 -0.042764734
v 0.0057908664 0.17731847 -0.04704923
v 0.0054409527 0.16756769 -0.02672209
v -1.0436069E-09 0.18581386 -0.048636816
v 0.005932054 0.17806804 -0.051877577
v -1.1925108E-10 0.18503904 -0.05400042
v -2.7996923E-09 0.17861599 -0.06330237
v 0.006469374 0.15983091 -0.07030548
v -1.531954E-09 0.1651591 -0.0746479
v 0.0066984054 0.14300165 -0.08159193
v -1.6012058E-09 0.14762513 -0.08657212
v -1.7959341E-10 0.12681335 -0.09658096
v 0.006671413 0.12317842 -0.08834229
v -1.8500819E-10 0.11140708 -0.10040189
v 0.0054409527 0.16597076 -0.021671886
v 2.0446434E-11 0.17406929 -0.015217877
v 0.0067750383 0.16658524 -0.013368921
v 0.006711814 0.110056385 -0.09030347
v 0.0066931704 0.096306704 -0.089767486
v -1.832445E-10 0.09468521 -0.09915736
v 0.006607874 0.08337665 -0.08518141
v -1.7468732E-10 0.079145424 -0.09311899
v 0.00638704 0.06662011 -0.0742989
v -1.582503E-10 0.061257116 -0.08152019
v 0.005666171 0.023084035 -0.038775086
v -1.3215934E-09 0.017395793 -0.045741733
v -6.0925415E-10 -0.020829158 -0.015890399
v 0.00488127 -0.020626206 -0.00488127
v -0 -0.043393817 -9.214851E-17
v 0.0054409527 0.16756769 -0.02672209
v 0.0057908664 0.17731847 -0.04704923
v -0.0057908646 0.17731847 -0.047049236
v -0.0054409527 0.16756769 -0.02672209
v -0.0059320545 0.17806804 -0.051877577
v 0.005932054 0.17806804 -0.051877577
v -0.006469373 0.15983091 -0.07030548
v 0.006469374 0.15983091 -0.07030548
v -0.006698404 0.14300165 -0.08159192
v 0.0066984054 0.14300165 -0.08159193
v -0.006671413 0.12317842 -0.08834229
v 0.006671413 0.12317842 -0.08834229
v -0.006711814 0.110056385 -0.09030347
v 0.006711814 0.110056385 -0.09030347
v 0.0054409527 0.16597076 -0.021671886
v -0.0054409527 0.16597076 -0.021671886
v -0.006762518 0.096306704 -0.089767486
v 0.0066931704 0.096306704 -0.089767486
v -0.006607874 0.08337665 -0.08518141
v 0.006607874 0.08337665 -0.08518141
v -0.00638704 0.06662011 -0.0742989
v 0.00638704 0.06662011 -0.0742989
v -0.00566617 0.023084037 -0.038775083
v 0.005666171 0.023084035 -0.038775086
v -0.00488127 -0.020626206 -0.00488127
v 0.00488127 -0.020626206 -0.00488127
v -0.00488127 -0.020626206 -0.00488127
v -0 -0.043393817 -9.214851E-17
v -0.0054409527 0.16597076 -0.021671886
v -0.0067750383 0.16658525 -0.013368921
v 0.0067750383 0.16658524 -0.013368921
v 0.0054409527 0.16597076 -0.021671886
v 0.09915736 0.09468521 -1.8324453E-10
v 0.089767486 0.096306704 -0.006762518
v 0.08518141 0.08337665 -0.006607874
v 0.10040189 0.11140708 -1.850082E-10
v 0.09030347 0.110056385 -0.006711814
v 0.09311899 0.079145424 -1.7468733E-10
v 0.08152019 0.061257116 -1.5825032E-10
v 0.0742989 0.06662011 -0.00638704
v 0.045741733 0.017395793 -1.3215934E-09
v 0.038775083 0.023084037 -0.00566617
v 0.015890399 -0.020829158 -6.0925415E-10
v 0.08834229 0.12317842 -0.006671413
v 0.09658096 0.12681335 -1.7959342E-10
v 0.08657212 0.14762513 -1.6012058E-09
v 0.08159192 0.14300165 -0.006698404
v 0.0746479 0.1651591 -1.531954E-09
v 0.07030548 0.15983091 -0.006469373
v 0.06330237 0.17861599 -2.7996923E-09
v 0.051877577 0.17806804 -0.0059320545
v 0.05400042 0.18503904 -1.1925108E-10
v 0.048636816 0.18581386 -1.0436069E-09
v 0.047049236 0.17731847 -0.0057908646
v 0.042764734 0.18343219 -2.5738602E-09
v 0.02672209 0.16756769 -0.0054409527
v 0.022349214 0.1736817 -7.568708E-11
v 0.021671886 0.16597076 -0.0054409527
v 0.015217877 0.17406929 4.4365253E-10
v 0.013368921 0.16658525 -0.0067750383
v 0.022349214 0.1736817 -7.568708E-11
v 0.042764734 0.18343219 -2.5738602E-09
v 0.04704923 0.17731847 0.0057908664
v 0.02672209 0.16756769 0.0054409527
v 0.048636816 0.18581386 -1.0436069E-09
v 0.051877577 0.17806804 0.005932054
v 0.05400042 0.18503904 -1.1925108E-10
v 0.06330237 0.17861599 -2.7996923E-09
v 0.07030548 0.15983091 0.006469374
v 0.0746479 0.1651591 -1.531954E-09
v 0.08159193 0.14300165 0.0066984054
v 0.08657212 0.14762513 -1.6012058E-09
v 0.09658096 0.12681335 -1.7959342E-10
v 0.08834229 0.12317842 0.006671413
v 0.10040189 0.11140708 -1.850082E-10
v 0.021671886 0.16597076 0.0054409527
v 0.015217877 0.17406929 4.4365253E-10
v 0.013368921 0.16658527 0.0067750392
v 0.09030347 0.110056385 0.006711814
v 0.089767486 0.096306704 0.0066931704
v 0.09915736 0.09468521 -1.8324453E-10
v 0.08518141 0.08337665 0.006607874
v 0.09311899 0.079145424 -1.7468733E-10
v 0.0742989 0.06662011 0.00638704
v 0.08152019 0.061257116 -1.5825032E-10
v 0.038775086 0.023084035 0.005666171
v 0.045741733 0.017395793 -1.3215934E-09
v 0.015890399 -0.020829158 -6.0925415E-10
v 0.00488127 -0.020626206 0.00488127
v -0 -0.043393817 -9.214851E-17
v 0.02672209 0.16756769 0.0054409527
v 0.04704923 0.17731847 0.0057908664
v 0.047049236 0.17731847 -0.0057908646
v 0.02672209 0.16756769 -0.0054409527
v 0.051877577 0.17806804 -0.0059320545
v 0.051877577 0.17806804 0.005932054
v 0.07030548 0.15983091 -0.006469373
v 0.07030548 0.15983091 0.006469374
v 0.08159192 0.14300165 -0.006698404
v 0.08159193 0.14300165 0.0066984054
v 0.08834229 0.12317842 -0.006671413
v 0.08834229 0.12317842 0.006671413
v 0.09030347 0.110056385 -0.006711814
v 0.09030347 0.110056385 0.006711814
v 0.021671886 0.16597076 0.0054409527
v 0.021671886 0.16597076 -0.0054409527
v 0.089767486 0.096306704 -0.006762518
v 0.089767486 0.096306704 0.0066931704
v 0.08518141 0.08337665 -0.006607874
v 0.08518141 0.08337665 0.006607874
v 0.0742989 0.06662011 -0.00638704
v 0.0742989 0.06662011 0.00638704
v 0.038775083 0.023084037 -0.00566617
v 0.038775086 0.023084035 0.005666171
v 0.00488127 -0.020626206 -0.00488127
v 0.00488127 -0.020626206 0.00488127
v 0.00488127 -0.020626206 -0.00488127
v -0 -0.043393817 -9.214851E-17
v 0.021671886 0.16597076 -0.0054409527
v 0.013368921 0.16658525 -0.0067750383
v 0.013368921 0.16658527 0.0067750392
v 0.021671886 0.16597076 0.0054409527
v -0.026191978 0.15676966 0
v -0.013368921 0.16658525 0.0067750383
v -0.0067750392 0.16658525 0.013368922
v -1.2360329E-09 0.15676966 0.026191978
v -0.015217877 0.17406929 -4.4365253E-10
v -8.8730506E-10 0.17406929 0.015217877
v -5.822025E-10 0.18503502 0.008342445
v -0.008342445 0.18503502 4.5404888E-11
v -0.020143962 0.16658525 0
v -1.0340152E-09 0.16658525 0.020143962
v 0.013368921 0.16658527 0.0067750392
v 0.020143962 0.16658525 0
v 0.026191978 0.15676966 0
v -1.2360329E-09 0.15676966 0.026191978
v 0.0067750383 0.16658525 0.013368921
v -8.8730506E-10 0.17406929 0.015217877
v 0.015217877 0.17406929 4.4365253E-10
v 0.008342445 0.18503502 -3.783739E-11
v -5.822025E-10 0.18503502 0.008342445
v -1.0340152E-09 0.16658525 0.020143962
v -0.008342445 0.18503502 4.5404888E-11
v -0.020597886 0.21236284 0
v -8.287141E-10 0.21236284 0.020597886
v -5.822025E-10 0.18503502 0.008342445
v -5.822025E-10 0.18503502 0.008342445
v -8.287141E-10 0.21236284 0.020597886
v 0.020597886 0.21236284 3.1323368E-11
v 0.008342445 0.18503502 -3.783739E-11
v -0.013370024 0.24058387 0
v -2.238147E-09 0.26941514 -2.6166803E-11
v -4.4805762E-10 0.24058387 0.013370024
v -0.020597886 0.21236284 0
v -8.287141E-10 0.21236284 0.020597886
v -4.4805762E-10 0.24058387 0.013370024
v -2.238147E-09 0.26941514 -2.6166803E-11
v 0.013370024 0.24058387 0
v -8.287141E-10 0.21236284 0.020597886
v 0.020597886 0.21236284 3.1323368E-11
v -0.026191978 0.15676966 0
v -0.013368922 0.16658525 -0.0067750392
v -0.020143962 0.16658525 0
v -0.0067750383 0.16658525 -0.013368921
v 2.0446434E-11 0.17406929 -0.015217877
v -0.015217877 0.17406929 -4.4365253E-10
v -0.008342445 0.18503502 4.5404888E-11
v -6.200399E-10 0.18503502 -0.008342445
v -1.1350709E-09 0.15676966 -0.026191978
v -9.651261E-10 0.16658525 -0.020143962
v -1.1350709E-09 0.15676966 -0.026191978
v 0.0067750383 0.16658524 -0.013368921
v -9.651261E-10 0.16658525 -0.020143962
v 0.013368921 0.16658525 -0.0067750383
v 0.015217877 0.17406929 4.4365253E-10
v 2.0446434E-11 0.17406929 -0.015217877
v -6.200399E-10 0.18503502 -0.008342445
v 0.008342445 0.18503502 -3.783739E-11
v 0.026191978 0.15676966 0
v 0.020143962 0.16658525 0
v -0.008342445 0.18503502 4.5404888E-11
v -6.200399E-10 0.18503502 -0.008342445
v -1.0039322E-09 0.21236284 -0.020597886
v -0.020597886 0.21236284 0
v -6.200399E-10 0.18503502 -0.008342445
v 0.008342445 0.18503502 -3.783739E-11
v 0.020597886 0.21236284 3.1323368E-11
v -1.0039322E-09 0.21236284 -0.020597886
v -0.013370024 0.24058387 0
v -6.526801E-10 0.24058387 -0.013370024
v -2.238147E-09 0.26941514 -2.6166803E-11
v -0.020597886 0.21236284 0
v -1.0039322E-09 0.21236284 -0.020597886
v -6.526801E-10 0.24058387 -0.013370024
v 0.013370024 0.24058387 0
v -2.238147E-09 0.26941514 -2.6166803E-11
v -1.0039322E-09 0.21236284 -0.020597886
v 0.020597886 0.21236284 3.1323368E-11
v 1.832446E-10 0.09468521 0.09915736
v 0.006762518 0.096306704 0.089767486
v 0.006607874 0.08337665 0.08518141
v 1.8500827E-10 0.11140708 0.10040189
v 0.006711814 0.110056385 0.09030347
v 1.746874E-10 0.079145424 0.09311899
v 1.5825039E-10 0.061257116 0.08152019
v 0.00638704 0.06662011 0.0742989
v 1.3215934E-09 0.017395793 0.045741733
v 0.00566617 0.023084037 0.038775083
v 6.0925415E-10 -0.020829158 0.015890399
v 0.006671413 0.12317842 0.08834229
v 1.7959349E-10 0.12681335 0.09658096
v 1.6548182E-09 0.14762513 0.08947077
v 0.006698404 0.14300165 0.08159192
v 1.5832475E-09 0.1651591 0.0771473
v 0.006469373 0.15983091 0.07030548
v 2.7996923E-09 0.17861599 0.06330237
v 0.0059320545 0.17806804 0.051877577
v 1.1925114E-10 0.18503904 0.05400042
v 1.0436069E-09 0.18581386 0.048636816
v 0.0057908646 0.17731847 0.047049236
v 2.5738602E-09 0.18343219 0.042764734
v 0.0054409527 0.16756769 0.02672209
v 7.56871E-11 0.1736817 0.022349214
v 0.0054409527 0.16597076 0.021671886
v -8.8730506E-10 0.17406929 0.015217877
v 0.0067750383 0.16658525 0.013368921
v 7.56871E-11 0.1736817 0.022349214
v 2.5738602E-09 0.18343219 0.042764734
v -0.0057908664 0.17731847 0.04704923
v -0.0054409527 0.16756769 0.02672209
v 1.0436069E-09 0.18581386 0.048636816
v -0.005932054 0.17806804 0.051877577
v 1.1925114E-10 0.18503904 0.05400042
v 2.7996923E-09 0.17861599 0.06330237
v -0.006469374 0.15983091 0.07030548
v 1.5832475E-09 0.1651591 0.0771473
v -0.0066984054 0.14300165 0.08159193
v 1.6548182E-09 0.14762513 0.08947077
v 1.7959349E-10 0.12681335 0.09658096
v -0.006671413 0.12317842 0.08834229
v 1.8500827E-10 0.11140708 0.10040189
v -0.0054409527 0.16597076 0.021671886
v -8.8730506E-10 0.17406929 0.015217877
v -0.0067750392 0.16658525 0.013368922
v -0.006711814 0.110056385 0.09030347
v -0.0066931704 0.096306704 0.089767486
v 1.832446E-10 0.09468521 0.09915736
v -0.006607874 0.08337665 0.08518141
v 1.746874E-10 0.079145424 0.09311899
v -0.00638704 0.06662011 0.0742989
v 1.5825039E-10 0.061257116 0.08152019
v -0.005666171 0.023084035 0.038775086
v 1.3215934E-09 0.017395793 0.045741733
v 6.0925415E-10 -0.020829158 0.015890399
v -0.00488127 -0.020626206 0.00488127
v -0 -0.043393817 -9.214851E-17
v -0.0054409527 0.16756769 0.02672209
v -0.0057908664 0.17731847 0.04704923
v 0.0057908646 0.17731847 0.047049236
v 0.0054409527 0.16756769 0.02672209
v 0.0059320545 0.17806804 0.051877577
v -0.005932054 0.17806804 0.051877577
v 0.006469373 0.15983091 0.07030548
v -0.006469374 0.15983091 0.07030548
v 0.006698404 0.14300165 0.08159192
v -0.0066984054 0.14300165 0.08159193
v 0.006671413 0.12317842 0.08834229
v -0.006671413 0.12317842 0.08834229
v 0.006711814 0.110056385 0.09030347
v -0.006711814 0.110056385 0.09030347
v -0.0054409527 0.16597076 0.021671886
v 0.0054409527 0.16597076 0.021671886
v 0.006762518 0.096306704 0.089767486
v -0.0066931704 0.096306704 0.089767486
v 0.006607874 0.08337665 0.08518141
v -0.006607874 0.08337665 0.08518141
v 0.00638704 0.06662011 0.0742989
v -0.00638704 0.06662011 0.0742989
v 0.00566617 0.023084037 0.038775083
v -0.005666171 0.023084035 0.038775086
v 0.00488127 -0.020626206 0.00488127
v -0.00488127 -0.020626206 0.00488127
v 0.00488127 -0.020626206 0.00488127
v -0 -0.043393817 -9.214851E-17
v 0.0054409527 0.16597076 0.021671886
v 0.0067750383 0.16658525 0.013368921
v -0.0067750392 0.16658525 0.013368922
v -0.0054409527 0.16597076 0.021671886
v -0.00488127 -0.020626206 0.00488127
v -0.00488127 -0.020626206 -0.00488127
v 0.00488127 -0.020626206 -0.00488127
v 0.00488127 -0.020626206 0.00488127
v -0.09915736 0.09468521 1.8324448E-10
v -0.089767486 0.096306704 0.006762518
v -0.08518141 0.08337665 0.006607874
v -0.10040189 0.11140708 1.8500815E-10
v -0.09030347 0.110056385 0.006711814
v -0.09311899 0.079145424 1.7468728E-10
v -0.08152019 0.061257116 1.5825026E-10
v -0.0742989 0.06662011 0.00638704
v -0.045741733 0.017395793 1.3215934E-09
v -0.038775083 0.023084037 0.00566617
v -0.015890399 -0.020829158 6.0925415E-10
v -0.08834229 0.12317842 0.006671413
v -0.09658096 0.12681335 1.7959337E-10
v -0.08657212 0.14762513 1.6012058E-09
v -0.08159192 0.14300165 0.006698404
v -0.0746479 0.1651591 1.531954E-09
v -0.07030548 0.15983091 0.006469373
v -0.06330237 0.17861599 2.7996923E-09
v -0.051877577 0.17806804 0.0059320545
v -0.05400042 0.18503904 1.1925105E-10
v -0.048636816 0.18581386 1.0436069E-09
v -0.047049236 0.17731847 0.0057908646
v -0.042764734 0.18343219 2.5738602E-09
v -0.02672209 0.16756769 0.0054409527
v -0.022349214 0.1736817 7.5687075E-11
v -0.021671886 0.16597076 0.0054409527
v -0.015217877 0.17406929 -4.4365253E-10
v -0.013368921 0.16658525 0.0067750383
v -0.022349214 0.1736817 7.5687075E-11
v -0.042764734 0.18343219 2.5738602E-09
v -0.04704923 0.17731847 -0.0057908664
v -0.02672209 0.16756769 -0.0054409527
v -0.048636816 0.18581386 1.0436069E-09
v -0.051877577 0.17806804 -0.005932054
v -0.05400042 0.18503904 1.1925105E-10
v -0.06330237 0.17861599 2.7996923E-09
v -0.07030548 0.15983091 -0.006469374
v -0.0746479 0.1651591 1.531954E-09
v -0.08159193 0.14300165 -0.0066984054
v -0.08657212 0.14762513 1.6012058E-09
v -0.09658096 0.12681335 1.7959337E-10
v -0.08834229 0.12317842 -0.006671413
v -0.10040189 0.11140708 1.8500815E-10
v -0.021671886 0.16597076 -0.0054409527
v -0.015217877 0.17406929 -4.4365253E-10
v -0.013368922 0.16658525 -0.0067750392
v -0.09030347 0.110056385 -0.006711814
v -0.089767486 0.096306704 -0.0066931704
v -0.09915736 0.09468521 1.8324448E-10
v -0.08518141 0.08337665 -0.006607874
v -0.09311899 0.079145424 1.7468728E-10
v -0.0742989 0.06662011 -0.00638704
v -0.08152019 0.061257116 1.5825026E-10
v -0.038775086 0.023084035 -0.005666171
v -0.045741733 0.017395793 1.3215934E-09
v -0.015890399 -0.020829158 6.0925415E-10
v -0.00488127 -0.020626206 -0.00488127
v -0 -0.043393817 -9.214851E-17
v -0.02672209 0.16756769 -0.0054409527
v -0.04704923 0.17731847 -0.0057908664
v -0.047049236 0.17731847 0.0057908646
v -0.02672209 0.16756769 0.0054409527
v -0.051877577 0.17806804 0.0059320545
v -0.051877577 0.17806804 -0.005932054
v -0.07030548 0.15983091 0.006469373
v -0.07030548 0.15983091 -0.006469374
v -0.08159192 0.14300165 0.006698404
v -0.08159193 0.14300165 -0.0066984054
v -0.08834229 0.12317842 0.006671413
v -0.08834229 0.12317842 -0.006671413
v -0.09030347 0.110056385 0.006711814
v -0.09030347 0.110056385 -0.006711814
v -0.021671886 0.16597076 -0.0054409527
v -0.021671886 0.16597076 0.0054409527
v -0.089767486 0.096306704 0.006762518
v -0.089767486 0.096306704 -0.0066931704
v -0.08518141 0.08337665 0.006607874
v -0.08518141 0.08337665 -0.006607874
v -0.0742989 0.06662011 0.00638704
v -0.0742989 0.06662011 -0.00638704
v -0.038775083 0.023084037 0.00566617
v -0.038775086 0.023084035 -0.005666171
v -0.00488127 -0.020626206 0.00488127
v -0.00488127 -0.020626206 -0.00488127
v -0.00488127 -0.020626206 0.00488127
v -0 -0.043393817 -9.214851E-17
v -0.021671886 0.16597076 0.0054409527
v -0.013368921 0.16658525 0.0067750383
v -0.013368922 0.16658525 -0.0067750392
v -0.021671886 0.16597076 -0.0054409527
v -0.13877666 0.37002888 0.08012275
v -0.13975191 0.35178986 0.06369088
v -0.13558184 0.34907222 0.078278214
v -0.12786356 0.3289023 0.07382206
v -0.1370144 0.33528832 0.042741727
v -0.1252154 0.31563088 0.045792364
v -0.12503389 0.35178986 0.08918327
v -0.10552261 0.33528832 0.09728709
v -0.13187438 0.32062945 0.021133708
v -0.10226626 0.31563157 0.085544184
v -0.08423952 0.32062945 0.103639714
v -0.115820654 0.31118682 0.066869125
v -0.11596639 0.3015438 0.033449452
v -0.10288651 0.2964288 0.05940145
v -0.08694373 0.30155548 0.08370645
v -0.09613146 0.28253713 0.027268011
v -0.10660108 0.2897552 0.004582157
v -0.076846644 0.27139267 0.013423298
v -0.084912844 0.2805108 0.04902445
v -0.061519045 0.26674268 0.03551804
v -0.052237567 0.2626653 0.02423633
v -0.09024717 0.2801675 -0.00829546
v -0.101416156 0.2938954 -0.02685735
v -0.08561439 0.28509918 -0.03431893
v -0.068297744 0.2719122 -0.023479156
v -0.12600024 0.31065628 0.0023420954
v -0.11503185 0.30161056 -0.014479307
v -0.06173499 0.26671627 -0.007579572
v -0.05739146 0.26344582 0.007384642
v -0.045456342 0.26146418 -0.0045023607
v -0.046529848 0.2609005 0.009780417
v -0.049703296 0.26535982 -0.01814229
v -0.05882792 0.27095568 -0.029483186
v -0.07105146 0.2777585 -0.034837805
v -0.050048236 0.27139267 0.059839495
v -0.07168052 0.28254467 0.06961828
v -0.05727865 0.28987694 0.09003385
v -0.037939508 0.2801863 0.082304075
v -0.02744893 0.2939046 0.101257645
v -0.01308613 0.28510338 0.0913037
v -0.013815327 0.2719122 0.07088716
v -0.06502843 0.31066126 0.107948355
v -0.044976477 0.30162755 0.10686016
v -0.02430339 0.26671627 0.057253856
v -0.035091016 0.26344436 0.04601014
v -0.018829012 0.26146418 0.041617528
v -0.031735014 0.26092246 0.035405826
v -0.047108058 0.26266092 0.033120893
v -0.009139962 0.26534712 0.052115463
v -0.0038807748 0.27095568 0.06568807
v -0.0053553055 0.2777585 0.07895127
v 0.13877666 0.37002888 0.08012275
v 0.12503389 0.35178986 0.08918327
v 0.13558184 0.34907222 0.078278214
v 0.12786356 0.3289023 0.07382206
v 0.10552261 0.33528832 0.09728709
v 0.102265686 0.31563035 0.085543565
v 0.13975191 0.35178986 0.06369088
v 0.1370144 0.33528832 0.042741727
v 0.08423952 0.32062945 0.103639714
v 0.12521623 0.31563237 0.04579254
v 0.13187438 0.32062945 0.021133708
v 0.115820654 0.31118682 0.066869125
v 0.086950615 0.30154437 0.08370508
v 0.10288645 0.2964288 0.059401553
v 0.11596412 0.30155465 0.033442836
v 0.07168052 0.28253713 0.06961828
v 0.05726881 0.2897552 0.09002817
v 0.050048236 0.27139267 0.059839495
v 0.084912844 0.2805108 0.04902445
v 0.061519045 0.26674268 0.03551804
v 0.047108058 0.2626653 0.033120893
v 0.037939508 0.2801675 0.082304075
v 0.02744893 0.2938954 0.101257645
v 0.01308613 0.28509918 0.0913037
v 0.013815327 0.2719122 0.07088716
v 0.06502843 0.31065628 0.107948355
v 0.044976477 0.30161056 0.10686016
v 0.02430339 0.26671627 0.057253856
v 0.035091016 0.26344582 0.04601014
v 0.018829012 0.26146418 0.041617528
v 0.031735014 0.2609005 0.035405826
v 0.009139962 0.26535982 0.052115463
v 0.0038807748 0.27095568 0.06568807
v 0.0053553055 0.2777585 0.07895127
v 0.076846644 0.27139267 0.013423298
v 0.09613146 0.28254467 0.027268011
v 0.106610924 0.28987694 0.0045878408
v 0.09024717 0.2801863 -0.00829546
v 0.101416156 0.2939046 -0.02685735
v 0.08561439 0.28510338 -0.03431893
v 0.068297744 0.2719122 -0.023479156
v 0.12600024 0.31066126 0.0023420954
v 0.11503185 0.30162755 -0.014479307
v 0.06173499 0.26671627 -0.007579572
v 0.05739146 0.26344436 0.007384642
v 0.045456342 0.26146418 -0.0045023607
v 0.046529848 0.26092246 0.009780417
v 0.052237567 0.26266092 0.02423633
v 0.049703296 0.26534712 -0.01814229
v 0.05882792 0.27095568 -0.029483186
v 0.07105146 0.2777585 -0.034837805
vt 0.015304565 0.012626648
vt 0.10974121 0.1105957
vt 0.015304565 0.13269043
vt 0.015304565 0.24597168
vt 0.21643066 0.22180176
vt 0.15881348 0.33666992
vt 0.10974121 0.1105957
vt 0.21643066 0.22180176
vt 0.3190918 0.3334961
vt 0.15881348 0.33666992
vt 0.3190918 0.3334961
vt 0.015419006 0.36791992
vt 0.19445801 0.43945312
vt 0.0008263588 0.4736328
vt 0.19458008 0.43945312
vt 0.16369629 0.5908203
vt 0.32202148 0.5810547
vt 0.17956543 0.75
vt 0.015304565 0.58935547
vt 0.015304565 0.77197266
vt 0.05731201 0.8588867
vt 0.34277344 0.71972656
vt 0.49414062 0.6777344
vt 0.48828125 0.79785156
vt 0.3671875 0.88720703
vt 0.40429688 0.44018555
vt 0.4650879 0.55908203
vt 0.25634766 0.8901367
vt 0.15905762 0.8779297
vt 0.19873047 0.9770508
vt 0.12597656 0.9326172
vt 0.2866211 0.98535156
vt 0.3798828 0.9560547
vt 0.44848633 0.8911133
vt 0.17956543 0.75
vt 0.16369629 0.5908203
vt 0.32202148 0.5810547
vt 0.34277344 0.71972656
vt 0.49414062 0.6777344
vt 0.48828125 0.79785156
vt 0.3671875 0.88720703
vt 0.40429688 0.44018555
vt 0.4650879 0.55908203
vt 0.25634766 0.8901367
vt 0.15905762 0.8779297
vt 0.19873047 0.9770508
vt 0.12597656 0.9326172
vt 0.05731201 0.8588867
vt 0.2866211 0.98535156
vt 0.3798828 0.9560547
vt 0.44848633 0.8911133
vt 0.5830078 0.6088867
vt 0.609375 0.6088867
vt 0.609375 0.5708008
vt 0.5830078 0.6464844
vt 0.609375 0.6464844
vt 0.5830078 0.5708008
vt 0.5830078 0.5175781
vt 0.609375 0.5175781
vt 0.5830078 0.37060547
vt 0.609375 0.37060547
vt 0.5830078 0.24316406
vt 0.609375 0.68310547
vt 0.5830078 0.68310547
vt 0.5830078 0.7416992
vt 0.609375 0.7416992
vt 0.5830078 0.79589844
vt 0.609375 0.79589844
vt 0.5830078 0.8388672
vt 0.609375 0.8613281
vt 0.5830078 0.8613281
vt 0.5830078 0.8701172
vt 0.609375 0.87353516
vt 0.5830078 0.88134766
vt 0.609375 0.9345703
vt 0.5830078 0.94091797
vt 0.609375 0.94677734
vt 0.5830078 0.9609375
vt 0.609375 0.96728516
vt 0.5830078 0.94091797
vt 0.5830078 0.88134766
vt 0.5571289 0.87353516
vt 0.5571289 0.9350586
vt 0.5830078 0.8701172
vt 0.5571289 0.8613281
vt 0.5830078 0.8613281
vt 0.5830078 0.8388672
vt 0.5571289 0.79589844
vt 0.5830078 0.79589844
vt 0.5571289 0.7416992
vt 0.5830078 0.7416992
vt 0.5830078 0.68310547
vt 0.5571289 0.68310547
vt 0.5830078 0.6464844
vt 0.5571289 0.9482422
vt 0.5830078 0.9609375
vt 0.5571289 0.9692383
vt 0.5571289 0.6464844
vt 0.5571289 0.6088867
vt 0.5830078 0.6088867
vt 0.5571289 0.5708008
vt 0.5830078 0.5708008
vt 0.5571289 0.5175781
vt 0.5830078 0.5175781
vt 0.5571289 0.37060547
vt 0.5830078 0.37060547
vt 0.5830078 0.24316406
vt 0.5571289 0.22631836
vt 0.5830078 0.17102051
vt 0.5571289 0.9350586
vt 0.5571289 0.87353516
vt 0.5258789 0.87353516
vt 0.5258789 0.9350586
vt 0.5258789 0.8613281
vt 0.5571289 0.8613281
vt 0.5258789 0.79589844
vt 0.5571289 0.79589844
vt 0.5258789 0.7416992
vt 0.5571289 0.7416992
vt 0.5258789 0.68310547
vt 0.5571289 0.68310547
vt 0.5258789 0.6464844
vt 0.5571289 0.6464844
vt 0.5571289 0.9482422
vt 0.5258789 0.9482422
vt 0.5258789 0.6088867
vt 0.5571289 0.6088867
vt 0.5258789 0.5708008
vt 0.5571289 0.5708008
vt 0.5258789 0.5175781
vt 0.5571289 0.5175781
vt 0.5258789 0.37060547
vt 0.5571289 0.37060547
vt 0.5258789 0.22631836
vt 0.5571289 0.22631836
vt 0.609375 0.22607422
vt 0.5830078 0.17102051
vt 0.5258789 0.9482422
vt 0.5258789 0.9692383
vt 0.5571289 0.9692383
vt 0.5571289 0.9482422
vt 0.5830078 0.6088867
vt 0.609375 0.6088867
vt 0.609375 0.5708008
vt 0.5830078 0.6464844
vt 0.609375 0.6464844
vt 0.5830078 0.5708008
vt 0.5830078 0.5175781
vt 0.609375 0.5175781
vt 0.5830078 0.37060547
vt 0.609375 0.37060547
vt 0.5830078 0.24316406
vt 0.609375 0.68310547
vt 0.5830078 0.68310547
vt 0.5830078 0.7416992
vt 0.609375 0.7416992
vt 0.5830078 0.79589844
vt 0.609375 0.79589844
vt 0.5830078 0.8388672
vt 0.609375 0.8613281
vt 0.5830078 0.8613281
vt 0.5830078 0.8701172
vt 0.609375 0.87353516
vt 0.5830078 0.88134766
vt 0.609375 0.9345703
vt 0.5830078 0.94091797
vt 0.609375 0.94677734
vt 0.5830078 0.9609375
vt 0.609375 0.96728516
vt 0.5830078 0.94091797
vt 0.5830078 0.88134766
vt 0.5571289 0.87353516
vt 0.5571289 0.9350586
vt 0.5830078 0.8701172
vt 0.5571289 0.8613281
vt 0.5830078 0.8613281
vt 0.5830078 0.8388672
vt 0.5571289 0.79589844
vt 0.5830078 0.79589844
vt 0.5571289 0.7416992
vt 0.5830078 0.7416992
vt 0.5830078 0.68310547
vt 0.5571289 0.68310547
vt 0.5830078 0.6464844
vt 0.5571289 0.9482422
vt 0.5830078 0.9609375
vt 0.5571289 0.9692383
vt 0.5571289 0.6464844
vt 0.5571289 0.6088867
vt 0.5830078 0.6088867
vt 0.5571289 0.5708008
vt 0.5830078 0.5708008
vt 0.5571289 0.5175781
vt 0.5830078 0.5175781
vt 0.5571289 0.37060547
vt 0.5830078 0.37060547
vt 0.5830078 0.24316406
vt 0.5571289 0.22631836
vt 0.5830078 0.17102051
vt 0.5571289 0.9350586
vt 0.5571289 0.87353516
vt 0.5258789 0.87353516
vt 0.5258789 0.9350586
vt 0.5258789 0.8613281
vt 0.5571289 0.8613281
vt 0.5258789 0.79589844
vt 0.5571289 0.79589844
vt 0.5258789 0.7416992
vt 0.5571289 0.7416992
vt 0.5258789 0.68310547
vt 0.5571289 0.68310547
vt 0.5258789 0.6464844
vt 0.5571289 0.6464844
vt 0.5571289 0.9482422
vt 0.5258789 0.9482422
vt 0.5258789 0.6088867
vt 0.5571289 0.6088867
vt 0.5258789 0.5708008
vt 0.5571289 0.5708008
vt 0.5258789 0.5175781
vt 0.5571289 0.5175781
vt 0.5258789 0.37060547
vt 0.5571289 0.37060547
vt 0.5258789 0.22631836
vt 0.5571289 0.22631836
vt 0.609375 0.22607422
vt 0.5830078 0.17102051
vt 0.5258789 0.9482422
vt 0.5258789 0.9692383
vt 0.5571289 0.9692383
vt 0.5571289 0.9482422
vt 0.2364502 0.00894165
vt 0.26391602 0.054992676
vt 0.26391602 0.08062744
vt 0.2364502 0.107421875
vt 0.29223633 0.04724121
vt 0.29223633 0.107421875
vt 0.3334961 0.107421875
vt 0.3334961 0.07562256
vt 0.26391602 0.027832031
vt 0.26391602 0.107421875
vt 0.26391602 0.1628418
vt 0.26391602 0.19152832
vt 0.2364502 0.21044922
vt 0.2364502 0.107421875
vt 0.26391602 0.13574219
vt 0.29223633 0.107421875
vt 0.29223633 0.17211914
vt 0.3334961 0.14367676
vt 0.3334961 0.107421875
vt 0.26391602 0.107421875
vt 0.3334961 0.07562256
vt 0.43139648 0.025680542
vt 0.43139648 0.107421875
vt 0.3334961 0.107421875
vt 0.3334961 0.107421875
vt 0.43139648 0.107421875
vt 0.43139648 0.19360352
vt 0.3334961 0.14367676
vt 0.5263672 0.05508423
vt 0.62109375 0.107421875
vt 0.5263672 0.107421875
vt 0.43139648 0.025680542
vt 0.43139648 0.107421875
vt 0.5263672 0.107421875
vt 0.62109375 0.107421875
vt 0.5263672 0.16430664
vt 0.43139648 0.107421875
vt 0.43139648 0.19360352
vt 0.2364502 0.21044922
vt 0.26391602 0.1628418
vt 0.26391602 0.19152832
vt 0.26391602 0.1361084
vt 0.29223633 0.107421875
vt 0.29223633 0.17211914
vt 0.3334961 0.14367676
vt 0.3334961 0.107421875
vt 0.2364502 0.107421875
vt 0.26391602 0.107421875
vt 0.2364502 0.107421875
vt 0.26391602 0.080322266
vt 0.26391602 0.107421875
vt 0.26391602 0.05493164
vt 0.29223633 0.04724121
vt 0.29223633 0.107421875
vt 0.3334961 0.107421875
vt 0.3334961 0.07562256
vt 0.2364502 0.00894165
vt 0.26391602 0.027832031
vt 0.3334961 0.14367676
vt 0.3334961 0.107421875
vt 0.43139648 0.107421875
vt 0.43139648 0.19360352
vt 0.3334961 0.107421875
vt 0.3334961 0.07562256
vt 0.43139648 0.025680542
vt 0.43139648 0.107421875
vt 0.5263672 0.16430664
vt 0.5263672 0.107421875
vt 0.62109375 0.107421875
vt 0.43139648 0.19360352
vt 0.43139648 0.107421875
vt 0.5263672 0.107421875
vt 0.5263672 0.05508423
vt 0.62109375 0.107421875
vt 0.43139648 0.107421875
vt 0.43139648 0.025680542
vt 0.5830078 0.6088867
vt 0.609375 0.6088867
vt 0.609375 0.5708008
vt 0.5830078 0.6464844
vt 0.609375 0.6464844
vt 0.5830078 0.5708008
vt 0.5830078 0.5175781
vt 0.609375 0.5175781
vt 0.5830078 0.37060547
vt 0.609375 0.37060547
vt 0.5830078 0.24316406
vt 0.609375 0.68310547
vt 0.5830078 0.68310547
vt 0.5830078 0.7416992
vt 0.609375 0.7416992
vt 0.5830078 0.79589844
vt 0.609375 0.79589844
vt 0.5830078 0.8388672
vt 0.609375 0.8613281
vt 0.5830078 0.8613281
vt 0.5830078 0.8701172
vt 0.609375 0.87353516
vt 0.5830078 0.88134766
vt 0.609375 0.9345703
vt 0.5830078 0.94091797
vt 0.609375 0.94677734
vt 0.5830078 0.9609375
vt 0.609375 0.96728516
vt 0.5830078 0.94091797
vt 0.5830078 0.88134766
vt 0.5571289 0.87353516
vt 0.5571289 0.9350586
vt 0.5830078 0.8701172
vt 0.5571289 0.8613281
vt 0.5830078 0.8613281
vt 0.5830078 0.8388672
vt 0.5571289 0.79589844
vt 0.5830078 0.79589844
vt 0.5571289 0.7416992
vt 0.5830078 0.7416992
vt 0.5830078 0.68310547
vt 0.5571289 0.68310547
vt 0.5830078 0.6464844
vt 0.5571289 0.9482422
vt 0.5830078 0.9609375
vt 0.5571289 0.9692383
vt 0.5571289 0.6464844
vt 0.5571289 0.6088867
vt 0.5830078 0.6088867
vt 0.5571289 0.5708008
vt 0.5830078 0.5708008
vt 0.5571289 0.5175781
vt 0.5830078 0.5175781
vt 0.5571289 0.37060547
vt 0.5830078 0.37060547
vt 0.5830078 0.24316406
vt 0.5571289 0.22631836
vt 0.5830078 0.17102051
vt 0.5571289 0.9350586
vt 0.5571289 0.87353516
vt 0.5258789 0.87353516
vt 0.5258789 0.9350586
vt 0.5258789 0.8613281
vt 0.5571289 0.8613281
vt 0.5258789 0.79589844
vt 0.5571289 0.79589844
vt 0.5258789 0.7416992
vt 0.5571289 0.7416992
vt 0.5258789 0.68310547
vt 0.5571289 0.68310547
vt 0.5258789 0.6464844
vt 0.5571289 0.6464844
vt 0.5571289 0.9482422
vt 0.5258789 0.9482422
vt 0.5258789 0.6088867
vt 0.5571289 0.6088867
vt 0.5258789 0.5708008
vt 0.5571289 0.5708008
vt 0.5258789 0.5175781
vt 0.5571289 0.5175781
vt 0.5258789 0.37060547
vt 0.5571289 0.37060547
vt 0.5258789 0.22631836
vt 0.5571289 0.22631836
vt 0.609375 0.22607422
vt 0.5830078 0.17102051
vt 0.5258789 0.9482422
vt 0.5258789 0.9692383
vt 0.5571289 0.9692383
vt 0.5571289 0.9482422
vt 0.515625 0.18151855
vt 0.515625 0.2163086
vt 0.55029297 0.2163086
vt 0.55029297 0.18151855
vt 0.5830078 0.6088867
vt 0.609375 0.6088867
vt 0.609375 0.5708008
vt 0.5830078 0.6464844
vt 0.609375 0.6464844
vt 0.5830078 0.5708008
vt 0.5830078 0.5175781
vt 0.609375 0.5175781
vt 0.5830078 0.37060547
vt 0.609375 0.37060547
vt 0.5830078 0.24316406
vt 0.609375 0.68310547
vt 0.5830078 0.68310547
vt 0.5830078 0.7416992
vt 0.609375 0.7416992
vt 0.5830078 0.79589844
vt 0.609375 0.79589844
vt 0.5830078 0.8388672
vt 0.609375 0.8613281
vt 0.5830078 0.8613281
vt 0.5830078 0.8701172
vt 0.609375 0.87353516
vt 0.5830078 0.88134766
vt 0.609375 0.9345703
vt 0.5830078 0.94091797
vt 0.609375 0.94677734
vt 0.5830078 0.9609375
vt 0.609375 0.96728516
vt 0.5830078 0.94091797
vt 0.5830078 0.88134766
vt 0.5571289 0.87353516
vt 0.5571289 0.9350586
vt 0.5830078 0.8701172
vt 0.5571289 0.8613281
vt 0.5830078 0.8613281
vt 0.5830078 0.8388672
vt 0.5571289 0.79589844
vt 0.5830078 0.79589844
vt 0.5571289 0.7416992
vt 0.5830078 0.7416992
vt 0.5830078 0.68310547
vt 0.5571289 0.68310547
vt 0.5830078 0.6464844
vt 0.5571289 0.9482422
vt 0.5830078 0.9609375
vt 0.5571289 0.9692383
vt 0.5571289 0.6464844
vt 0.5571289 0.6088867
vt 0.5830078 0.6088867
vt 0.5571289 0.5708008
vt 0.5830078 0.5708008
vt 0.5571289 0.5175781
vt 0.5830078 0.5175781
vt 0.5571289 0.37060547
vt 0.5830078 0.37060547
vt 0.5830078 0.24316406
vt 0.5571289 0.22631836
vt 0.5830078 0.17102051
vt 0.5571289 0.9350586
vt 0.5571289 0.87353516
vt 0.5258789 0.87353516
vt 0.5258789 0.9350586
vt 0.5258789 0.8613281
vt 0.5571289 0.8613281
vt 0.5258789 0.79589844
vt 0.5571289 0.79589844
vt 0.5258789 0.7416992
vt 0.5571289 0.7416992
vt 0.5258789 0.68310547
vt 0.5571289 0.68310547
vt 0.5258789 0.6464844
vt 0.5571289 0.6464844
vt 0.5571289 0.9482422
vt 0.5258789 0.9482422
vt 0.5258789 0.6088867
vt 0.5571289 0.6088867
vt 0.5258789 0.5708008
vt 0.5571289 0.5708008
vt 0.5258789 0.5175781
vt 0.5571289 0.5175781
vt 0.5258789 0.37060547
vt 0.5571289 0.37060547
vt 0.5258789 0.22631836
vt 0.5571289 0.22631836
vt 0.609375 0.22607422
vt 0.5830078 0.17102051
vt 0.5258789 0.9482422
vt 0.5258789 0.9692383
vt 0.5571289 0.9692383
vt 0.5571289 0.9482422
vt 0.015304565 0.012626648
vt 0.10974121 0.1105957
vt 0.015304565 0.13269043
vt 0.015304565 0.24597168
vt 0.21643066 0.22180176
vt 0.15881348 0.33666992
vt 0.10974121 0.1105957
vt 0.21643066 0.22180176
vt 0.3190918 0.3334961
vt 0.15881348 0.33666992
vt 0.3190918 0.3334961
vt 0.015419006 0.36791992
vt 0.19445801 0.43945312
vt 0.0008249283 0.4736328
vt 0.19458008 0.43945312
vt 0.16369629 0.5908203
vt 0.32202148 0.5810547
vt 0.17956543 0.75
vt 0.015304565 0.58935547
vt 0.015304565 0.77197266
vt 0.05731201 0.8588867
vt 0.34277344 0.71972656
vt 0.49414062 0.6777344
vt 0.48828125 0.79785156
vt 0.3671875 0.88720703
vt 0.40429688 0.4404297
vt 0.4650879 0.55908203
vt 0.25634766 0.8901367
vt 0.15905762 0.8779297
vt 0.19873047 0.9770508
vt 0.12597656 0.9326172
vt 0.2866211 0.98535156
vt 0.3798828 0.9560547
vt 0.44848633 0.8911133
vt 0.17956543 0.75
vt 0.16369629 0.5908203
vt 0.32202148 0.5810547
vt 0.34277344 0.71972656
vt 0.49414062 0.6777344
vt 0.48828125 0.79785156
vt 0.3671875 0.88720703
vt 0.40429688 0.4404297
vt 0.4650879 0.55908203
vt 0.25634766 0.8901367
vt 0.15905762 0.8779297
vt 0.19873047 0.9770508
vt 0.12597656 0.9326172
vt 0.05731201 0.8588867
vt 0.2866211 0.98535156
vt 0.3798828 0.9560547
vt 0.44848633 0.8911133
vt 0.015304565 0.012626648
vt 0.10974121 0.1105957
vt 0.015304565 0.13269043
vt 0.015304565 0.24597168
vt 0.21643066 0.22180176
vt 0.15881348 0.33666992
vt 0.10974121 0.1105957
vt 0.21643066 0.22180176
vt 0.3190918 0.3334961
vt 0.15881348 0.33666992
vt 0.3190918 0.3334961
vt 0.015419006 0.36791992
vt 0.19445801 0.43945312
vt 0.0008249283 0.4736328
vt 0.19458008 0.43945312
vt 0.16369629 0.5908203
vt 0.32202148 0.5810547
vt 0.17956543 0.75
vt 0.015304565 0.58935547
vt 0.015304565 0.77197266
vt 0.05731201 0.8588867
vt 0.34277344 0.71972656
vt 0.49414062 0.6777344
vt 0.48828125 0.79785156
vt 0.3671875 0.88720703
vt 0.40429688 0.4404297
vt 0.4650879 0.55908203
vt 0.25634766 0.8901367
vt 0.15905762 0.8779297
vt 0.19873047 0.9770508
vt 0.12597656 0.9326172
vt 0.2866211 0.98535156
vt 0.3798828 0.9560547
vt 0.44848633 0.8911133
vt 0.17956543 0.75
vt 0.16369629 0.5908203
vt 0.32202148 0.5810547
vt 0.34277344 0.71972656
vt 0.49414062 0.6777344
vt 0.48828125 0.79785156
vt 0.3671875 0.88720703
vt 0.40429688 0.4404297
vt 0.4650879 0.55908203
vt 0.25634766 0.8901367
vt 0.15905762 0.8779297
vt 0.19873047 0.9770508
vt 0.12597656 0.9326172
vt 0.05731201 0.8588867
vt 0.2866211 0.98535156
vt 0.3798828 0.9560547
vt 0.44848633 0.8911133
vn -0 0.1733684 0.9848571
vn -0.28828946 0.36017436 0.8872224
vn -0 0.3563481 0.9343532
vn -2.6466114E-06 0.46702352 0.88424486
vn -0.29956096 0.44916335 0.84173363
vn -0.2565366 0.6046995 0.75400764
vn 0.2882893 0.36017436 0.8872225
vn 0.29956162 0.44915885 0.8417357
vn -0.3224067 0.5884642 0.74146056
vn 0.25657555 0.604836 0.75388485
vn 0.32233953 0.58872324 0.7412841
vn 8.4082785E-05 0.66941273 0.7428908
vn -0.25650132 0.67321265 0.69353575
vn 0.00013327203 0.7245438 0.6892287
vn 0.25682256 0.6735401 0.69309866
vn -0.20924544 0.8271439 0.52158356
vn -0.34250656 0.7825574 0.5198971
vn -0.22677833 0.8874946 0.4011545
vn 9.0540336E-05 0.85164243 0.5241232
vn -2.8073732E-06 0.90941286 0.41589457
vn -0.12518536 0.93888545 0.32065982
vn -0.36078212 0.84702945 0.3903552
vn -0.48677284 0.7762877 0.40053672
vn -0.47554156 0.820902 0.31619626
vn -0.38921922 0.8877641 0.24573009
vn -0.35390902 0.6499293 0.67256254
vn -0.4698731 0.72724617 0.5003322
vn -0.29540253 0.92053914 0.2556266
vn -0.18778378 0.9419643 0.27828124
vn -0.24941683 0.95482105 0.16157934
vn -0.12394146 0.97417396 0.18874247
vn -0.30843046 0.94174355 0.13412577
vn -0.39273614 0.9147938 0.094396085
vn -0.4966345 0.8478114 0.18592991
vn 0.22771099 0.8869029 0.40193403
vn 0.21062365 0.8265585 0.5219567
vn 0.343044 0.782155 0.52014846
vn 0.3613088 0.8461497 0.3917735
vn 0.48557392 0.7764319 0.40171057
vn 0.47532 0.82087326 0.31660396
vn 0.38921955 0.887632 0.24620612
vn 0.35341817 0.6511066 0.6716814
vn 0.46743333 0.7289914 0.5000777
vn 0.29553425 0.9203962 0.2559891
vn 0.18765345 0.9420712 0.27800742
vn 0.24875207 0.9549766 0.16168505
vn 0.12268671 0.9746207 0.18724978
vn 0.12518972 0.93892664 0.32053748
vn 0.30829248 0.9417038 0.13472131
vn 0.39320135 0.91459334 0.0944014
vn 0.4966578 0.84775966 0.18610406
vn -0.8140622 -0.11872865 -0.5685122
vn -0.81895745 -0.11422818 -0.5623705
vn -0.8101561 -0.29175934 -0.5084523
vn -0.8231089 0.0405139 -0.5664366
vn -0.83428705 0.029680105 -0.5505307
vn -0.80942655 -0.2928557 -0.50898343
vn -0.82537377 -0.3473681 -0.44507697
vn -0.8252682 -0.34719294 -0.4454094
vn -0.83528394 -0.347814 -0.42582402
vn -0.8363302 -0.34724602 -0.42423108
vn -0.871475 -0.3043455 -0.38458452
vn -0.8092734 0.22086225 -0.5443312
vn -0.80486536 0.23094675 -0.5466765
vn -0.8065337 0.29341346 -0.51323664
vn -0.8065123 0.29220697 -0.51395804
vn -0.8063326 0.34660867 -0.4792599
vn -0.80969244 0.3470784 -0.47321743
vn -0.81681526 0.40184492 -0.4139244
vn -0.82069457 0.46634942 -0.33011925
vn -0.7719363 0.5731525 -0.27497354
vn -0.7844957 0.61434764 0.08451916
vn -0.79313153 0.55464834 0.25161
vn -0.7897341 0.5511477 0.26936275
vn -0.7922486 0.5495165 0.26528034
vn -0.8001208 0.5551115 0.2272836
vn -0.79041934 0.61198837 -0.026597891
vn -0.7867243 0.6089966 -0.100935414
vn -0.75110805 0.6384627 -0.16793463
vn 0.80012065 0.5551119 0.22728351
vn 0.7897337 0.5511481 0.26936305
vn 0.79313123 0.55464864 0.2516103
vn 0.79224837 0.5495169 0.2652803
vn 0.7844955 0.6143478 0.08451942
vn 0.8206946 0.4663495 -0.33011892
vn 0.77193683 0.5731525 -0.2749725
vn 0.816815 0.4018452 -0.4139247
vn 0.8096922 0.3470786 -0.47321773
vn 0.80633247 0.3466088 -0.47926018
vn 0.80651206 0.2922071 -0.51395845
vn 0.8065335 0.2934136 -0.51323706
vn 0.80486506 0.23094681 -0.54667693
vn 0.80927306 0.22086228 -0.5443317
vn 0.8237687 0.0396012 -0.5655412
vn 0.79041964 0.611988 -0.026597865
vn 0.7867246 0.6089963 -0.10093529
vn 0.7511088 0.63846207 -0.1679339
vn 0.8342051 0.027496193 -0.5507684
vn 0.8211212 -0.112318546 -0.559593
vn 0.8162778 -0.11735397 -0.56561345
vn 0.81049675 -0.29131982 -0.50816125
vn 0.8094268 -0.2928555 -0.5089832
vn 0.82526815 -0.34719297 -0.4454094
vn 0.8253737 -0.34736815 -0.4450771
vn 0.83633 -0.34724623 -0.42423135
vn 0.8352839 -0.34781414 -0.42582425
vn 0.8714748 -0.3043457 -0.38458472
vn 0.8760686 -0.2928955 -0.3830353
vn 0.8816161 -0.27174634 -0.3858848
vn 1.496164E-07 -0.9096309 -0.41541728
vn 1.5330136E-07 -0.9241256 -0.38208893
vn 1.5330131E-07 -0.9241256 -0.38208884
vn 1.496164E-07 -0.9096309 -0.41541734
vn -0 -0.74794155 0.66376454
vn -0 -0.74794155 0.66376454
vn -0 -0.60932845 0.79291797
vn -0 -0.60932845 0.79291797
vn -0 -0.4836808 0.87524444
vn -0 -0.48368075 0.87524444
vn -0 -0.3242067 0.9459863
vn -0 -0.3242067 0.9459863
vn -0 -0.052166056 0.99863845
vn -0 -0.052315705 0.99863064
vn -0 -0.9534671 -0.30149713
vn -0 -0.9534671 -0.30149713
vn -0 0.18759803 0.9822459
vn -0 0.1875999 0.98224545
vn -0 0.46005905 0.8878883
vn -0 0.46022213 0.88780385
vn 4.0591456E-07 0.60839975 0.7936308
vn 4.0591456E-07 0.60839975 0.7936308
vn 4.549352E-07 0.62334746 0.78194505
vn 4.549352E-07 0.62334746 0.78194505
vn 3.2693885E-07 0.61277926 0.7902541
vn 3.2693885E-07 0.61277926 0.7902541
vn -0.87606865 -0.29289535 -0.38303512
vn -0.8816162 -0.2717463 -0.38588464
vn -7.765116E-07 -0.99727255 0.07380599
vn -7.765116E-07 -0.99727255 0.07380599
vn -7.765116E-07 -0.99727255 0.07380599
vn -7.765116E-07 -0.99727255 0.07380599
vn 0.56851256 -0.11872859 -0.81406194
vn 0.5623706 -0.11422832 -0.8189573
vn 0.50845206 -0.29175907 -0.8101562
vn 0.5664367 0.04051387 -0.8231088
vn 0.55053073 0.02967998 -0.83428717
vn 0.5089832 -0.29285544 -0.8094268
vn 0.44507685 -0.34736797 -0.82537395
vn 0.44540915 -0.34719285 -0.8252683
vn 0.425824 -0.3478139 -0.83528405
vn 0.42423102 -0.347246 -0.83633024
vn 0.38458452 -0.30434555 -0.871475
vn 0.54433125 0.22086231 -0.80927336
vn 0.5466765 0.23094681 -0.80486536
vn 0.5132367 0.2934134 -0.8065337
vn 0.5139582 0.29220694 -0.8065123
vn 0.47925997 0.3466084 -0.8063327
vn 0.47321746 0.34707817 -0.8096925
vn 0.41392434 0.40184486 -0.81681544
vn 0.33011875 0.4663492 -0.8206948
vn 0.27497327 0.5731537 -0.7719356
vn -0.08452088 0.61434877 -0.78449464
vn -0.25161 0.5546483 -0.79313153
vn -0.26936266 0.551148 -0.789734
vn -0.26528004 0.54951656 -0.79224867
vn -0.22728324 0.55511165 -0.8001208
vn 0.026598485 0.6119877 -0.79041994
vn 0.10093662 0.6089966 -0.7867242
vn 0.16793644 0.6384622 -0.7511081
vn -0.22728331 0.5551119 0.8001207
vn -0.26936278 0.55114824 0.78973377
vn -0.25161007 0.5546486 0.7931314
vn -0.26528013 0.5495168 0.79224855
vn -0.084521145 0.61434895 0.78449446
vn 0.3301192 0.46634957 0.8206944
vn 0.27497384 0.57315385 0.7719352
vn 0.41392457 0.40184507 0.81681514
vn 0.4732178 0.34707862 0.80969214
vn 0.47926024 0.34660903 0.8063324
vn 0.51395833 0.292207 0.8065122
vn 0.5132369 0.29341346 0.80653363
vn 0.54667664 0.23094662 0.8048655
vn 0.5443313 0.22086212 0.80927336
vn 0.5655414 0.039601192 0.8237686
vn 0.026598925 0.6119889 0.7904189
vn 0.10093759 0.60899764 0.78672326
vn 0.16793826 0.6384644 0.7511058
vn 0.5507683 0.027496072 0.8342051
vn 0.5595934 -0.1123189 0.82112104
vn 0.5656139 -0.11735395 0.8162775
vn 0.50816125 -0.29131973 0.81049675
vn 0.5089832 -0.29285532 0.8094268
vn 0.44540927 -0.34719294 0.8252682
vn 0.44507697 -0.34736803 0.82537377
vn 0.42423126 -0.34724623 0.83633006
vn 0.42582414 -0.34781405 0.8352839
vn 0.38458464 -0.30434564 0.87147486
vn 0.3830353 -0.29289547 0.87606865
vn 0.38588488 -0.27174643 0.881616
vn 0.41541773 -0.9096308 0
vn 0.38208893 -0.9241256 0
vn 0.38208884 -0.9241256 0
vn 0.41541764 -0.9096308 0
vn -0.6637646 -0.74794155 0
vn -0.66376454 -0.74794155 0
vn -0.7929181 -0.60932827 0
vn -0.79291815 -0.60932815 0
vn -0.87524444 -0.48368087 0
vn -0.87524444 -0.48368075 0
vn -0.94598615 -0.3242069 0
vn -0.94598615 -0.32420686 0
vn -0.99863845 -0.052166022 0
vn -0.99863064 -0.052315664 0
vn 0.30149645 -0.9534673 0
vn 0.30149645 -0.9534673 0
vn -0.9822459 0.18759814 0
vn -0.98224545 0.18759999 0
vn -0.8878883 0.4600592 0
vn -0.88780373 0.4602222 0
vn -0.7936308 0.60839975 0
vn -0.7936308 0.60839975 0
vn -0.78194505 0.62334746 0
vn -0.78194505 0.62334746 0
vn -0.7902542 0.61277926 1.5836103E-07
vn -0.7902542 0.61277926 1.5836103E-07
vn 0.38303515 -0.2928954 -0.87606865
vn 0.38588476 -0.27174637 -0.8816161
vn -0.07380783 -0.99727243 1.8753482E-06
vn -0.07380784 -0.99727243 1.8753483E-06
vn -0.07380784 -0.99727243 1.8753483E-06
vn -0.073807836 -0.99727243 1.8753481E-06
vn -0.64824986 0.3994287 0.64825064
vn -0.646126 0.40625402 0.64612603
vn -0.64612585 0.40625408 0.64612603
vn -0.64824986 0.39942873 0.6482506
vn -0.64465934 0.4108874 0.6446596
vn -0.64465934 0.4108874 0.6446596
vn -0.64642406 0.40530318 0.646425
vn -0.64642406 0.40530318 0.646425
vn -0.6482499 0.39942867 0.6482505
vn -0.64825004 0.3994286 0.6482505
vn 0.6461259 0.40625387 0.64612615
vn 0.64825076 0.39942908 0.64824945
vn 0.6482504 0.39942855 0.6482501
vn 0.64825034 0.39942846 0.6482503
vn 0.646126 0.40625387 0.6461262
vn 0.6446592 0.41088754 0.6446595
vn 0.6446592 0.41088754 0.6446595
vn 0.64642453 0.40530348 0.6464243
vn 0.64642453 0.40530348 0.6464243
vn 0.64824975 0.39942846 0.6482509
vn -0.6740285 -0.3022749 0.6740292
vn -0.6740285 -0.3022749 0.6740293
vn -0.6740285 -0.3022749 0.6740293
vn -0.6740285 -0.3022749 0.6740292
vn 0.674029 -0.30227524 0.67402864
vn 0.67402905 -0.3022752 0.67402864
vn 0.67402905 -0.3022752 0.67402864
vn 0.674029 -0.30227524 0.67402864
vn -0.6914114 0.20952553 0.6914111
vn -0.6719061 0.31158525 0.67190534
vn -0.6914114 0.20952553 0.6914111
vn -0.69578874 0.17820275 0.69578856
vn -0.69578874 0.17820275 0.69578856
vn 0.69141126 0.20952551 0.69141126
vn 0.67190564 0.31158516 0.67190593
vn 0.69141126 0.2095255 0.69141126
vn 0.6957886 0.17820275 0.6957886
vn 0.6957886 0.17820275 0.6957886
vn -0.64825034 0.39942896 -0.64825
vn -0.64612603 0.4062541 -0.646126
vn -0.6482509 0.39942905 -0.6482494
vn -0.646126 0.40625402 -0.646126
vn -0.64465916 0.41088733 -0.6446597
vn -0.64465916 0.41088736 -0.6446597
vn -0.6464242 0.40530327 -0.6464248
vn -0.6464242 0.40530324 -0.6464248
vn -0.6482502 0.3994289 -0.64825016
vn -0.6482503 0.39942867 -0.6482502
vn 0.64824945 0.39942873 -0.64825094
vn 0.6461254 0.4062539 -0.6461267
vn 0.64825153 0.39942884 -0.648249
vn 0.6461254 0.40625387 -0.6461267
vn 0.64465946 0.41088736 -0.6446595
vn 0.64465934 0.41088724 -0.64465964
vn 0.64642423 0.40530336 -0.6464247
vn 0.64642423 0.40530336 -0.6464247
vn 0.6482492 0.39942876 -0.6482512
vn 0.6482499 0.39942867 -0.6482505
vn -0.6740286 -0.302275 -0.6740292
vn -0.6740286 -0.302275 -0.6740292
vn -0.67402864 -0.30227503 -0.67402905
vn -0.67402864 -0.30227503 -0.67402905
vn 0.6740288 -0.30227515 -0.6740289
vn 0.6740288 -0.30227515 -0.6740289
vn 0.67402875 -0.30227512 -0.67402893
vn 0.67402875 -0.30227512 -0.67402893
vn -0.69141155 0.20952559 -0.69141096
vn -0.69141155 0.20952556 -0.69141096
vn -0.6719055 0.31158498 -0.67190605
vn -0.6957892 0.17820285 -0.69578815
vn -0.6957892 0.17820285 -0.69578815
vn 0.69141126 0.2095255 -0.69141126
vn 0.69141126 0.2095255 -0.69141126
vn 0.6719061 0.31158537 -0.67190534
vn 0.6957887 0.17820275 -0.69578874
vn 0.6957887 0.17820275 -0.69578874
vn 0.8140622 -0.11872865 0.5685122
vn 0.81895745 -0.11422818 0.5623705
vn 0.8101561 -0.29175934 0.5084523
vn 0.8231089 0.0405139 0.5664366
vn 0.83428705 0.029680105 0.5505307
vn 0.80942655 -0.2928557 0.50898343
vn 0.82537377 -0.3473681 0.44507697
vn 0.8252682 -0.34719294 0.4454094
vn 0.83528394 -0.347814 0.42582402
vn 0.8363302 -0.34724602 0.42423108
vn 0.871475 -0.3043455 0.38458452
vn 0.8092734 0.22086225 0.5443312
vn 0.80486536 0.23094675 0.5466765
vn 0.8065337 0.29341346 0.51323664
vn 0.8065123 0.29220697 0.51395804
vn 0.8063326 0.34660867 0.4792599
vn 0.80969244 0.3470784 0.47321743
vn 0.81681526 0.40184492 0.4139244
vn 0.82069457 0.46634942 0.33011925
vn 0.7719363 0.5731525 0.27497354
vn 0.7844957 0.61434764 -0.08451916
vn 0.79313153 0.55464834 -0.25161
vn 0.7897341 0.5511477 -0.26936275
vn 0.7922486 0.5495165 -0.26528034
vn 0.8001208 0.5551115 -0.2272838
vn 0.7904194 0.6119883 0.026598532
vn 0.7867242 0.6089966 0.10093574
vn 0.75110775 0.6384625 0.16793683
vn -0.8001207 0.5551119 -0.22728315
vn -0.7897337 0.5511481 -0.26936305
vn -0.79313123 0.55464864 -0.2516103
vn -0.79224837 0.5495169 -0.2652803
vn -0.7844955 0.6143478 -0.08451942
vn -0.8206946 0.4663495 0.33011892
vn -0.77193683 0.5731525 0.2749725
vn -0.816815 0.4018452 0.4139247
vn -0.8096922 0.3470786 0.47321773
vn -0.80633247 0.3466088 0.47926018
vn -0.80651206 0.2922071 0.51395845
vn -0.8065335 0.2934136 0.51323706
vn -0.80486506 0.23094681 0.54667693
vn -0.80927306 0.22086228 0.5443317
vn -0.8237687 0.0396012 0.5655412
vn -0.7904194 0.61198837 0.026599208
vn -0.7867242 0.60899645 0.10093759
vn -0.7511078 0.6384627 0.16793577
vn -0.8342051 0.027496193 0.5507684
vn -0.8211212 -0.112318546 0.559593
vn -0.8162778 -0.11735397 0.56561345
vn -0.81049675 -0.29131982 0.50816125
vn -0.8094268 -0.2928555 0.5089832
vn -0.82526815 -0.34719297 0.4454094
vn -0.8253737 -0.34736815 0.4450771
vn -0.83633 -0.34724623 0.42423135
vn -0.8352839 -0.34781414 0.42582425
vn -0.8714748 -0.3043457 0.38458472
vn -0.8760686 -0.2928955 0.3830353
vn -0.8816161 -0.27174634 0.3858848
vn -1.496164E-07 -0.9096309 0.41541728
vn -1.5330136E-07 -0.9241256 0.38208893
vn -1.5330131E-07 -0.9241256 0.38208884
vn -1.496164E-07 -0.9096309 0.41541734
vn -0 -0.74794155 -0.66376454
vn -0 -0.74794155 -0.66376454
vn -0 -0.60932845 -0.79291797
vn -0 -0.60932845 -0.79291797
vn -0 -0.4836808 -0.87524444
vn -0 -0.48368075 -0.87524444
vn -0 -0.3242067 -0.9459863
vn -0 -0.3242067 -0.9459863
vn -0 -0.052166056 -0.99863845
vn -0 -0.052315705 -0.99863064
vn -0 -0.9534671 0.30149713
vn -0 -0.9534671 0.30149713
vn -0 0.18759803 -0.9822459
vn -0 0.1875999 -0.98224545
vn -0 0.46005905 -0.8878883
vn -0 0.46022213 -0.88780385
vn -4.0591456E-07 0.60839975 -0.7936308
vn -4.0591456E-07 0.60839975 -0.7936308
vn -4.549352E-07 0.62334746 -0.78194505
vn -4.549352E-07 0.62334746 -0.78194505
vn -3.2693885E-07 0.61277926 -0.7902541
vn -3.2693885E-07 0.61277926 -0.7902541
vn 0.87606865 -0.29289535 0.38303512
vn 0.8816162 -0.2717463 0.38588464
vn -0 -0.99727243 -0.07380786
vn -0 -0.99727243 -0.07380786
vn -0 -0.99727243 -0.07380786
vn -0 -0.99727243 -0.07380786
vn -0 1 0
vn -0 1 0
vn -0 1 0
vn -0 1 0
vn -0.56851256 -0.11872859 0.81406194
vn -0.5623706 -0.11422832 0.8189573
vn -0.50845206 -0.29175907 0.8101562
vn -0.5664367 0.04051387 0.8231088
vn -0.55053073 0.02967998 0.83428717
vn -0.5089832 -0.29285544 0.8094268
vn -0.44507685 -0.34736797 0.82537395
vn -0.44540915 -0.34719285 0.8252683
vn -0.425824 -0.3478139 0.83528405
vn -0.42423102 -0.347246 0.83633024
vn -0.38458452 -0.30434555 0.871475
vn -0.54433125 0.22086231 0.80927336
vn -0.5466765 0.23094681 0.80486536
vn -0.5132367 0.2934134 0.8065337
vn -0.5139582 0.29220694 0.8065123
vn -0.47925997 0.3466084 0.8063327
vn -0.47321746 0.34707817 0.8096925
vn -0.41392434 0.40184486 0.81681544
vn -0.33011875 0.4663492 0.8206948
vn -0.27497327 0.5731537 0.7719356
vn 0.08452088 0.61434877 0.78449464
vn 0.25161 0.5546483 0.79313153
vn 0.26936266 0.551148 0.789734
vn 0.26528004 0.54951656 0.79224867
vn 0.22728324 0.55511165 0.8001208
vn -0.026598485 0.6119877 0.79041994
vn -0.10093662 0.6089966 0.7867242
vn -0.16793644 0.6384622 0.7511081
vn 0.22728331 0.5551119 -0.8001207
vn 0.26936278 0.55114824 -0.78973377
vn 0.25161007 0.5546486 -0.7931314
vn 0.26528013 0.5495168 -0.79224855
vn 0.084521145 0.61434895 -0.78449446
vn -0.3301192 0.46634957 -0.8206944
vn -0.27497384 0.57315385 -0.7719352
vn -0.41392457 0.40184507 -0.81681514
vn -0.4732178 0.34707862 -0.80969214
vn -0.47926024 0.34660903 -0.8063324
vn -0.51395833 0.292207 -0.8065122
vn -0.5132369 0.29341346 -0.80653363
vn -0.54667664 0.23094662 -0.8048655
vn -0.5443313 0.22086212 -0.80927336
vn -0.5655414 0.039601192 -0.8237686
vn -0.026598379 0.6119879 -0.7904197
vn -0.10093672 0.6089965 -0.78672427
vn -0.16793656 0.6384622 -0.7511081
vn -0.5507683 0.027496072 -0.8342051
vn -0.5595934 -0.1123189 -0.82112104
vn -0.5656139 -0.11735395 -0.8162775
vn -0.50816125 -0.29131973 -0.81049675
vn -0.5089832 -0.29285532 -0.8094268
vn -0.44540927 -0.34719294 -0.8252682
vn -0.44507697 -0.34736803 -0.82537377
vn -0.42423126 -0.34724623 -0.83633006
vn -0.42582414 -0.34781405 -0.8352839
vn -0.38458464 -0.30434564 -0.87147486
vn -0.3830353 -0.29289547 -0.87606865
vn -0.38588488 -0.27174643 -0.881616
vn -0.41541773 -0.9096308 0
vn -0.38208893 -0.9241256 0
vn -0.38208884 -0.9241256 0
vn -0.41541764 -0.9096308 0
vn 0.6637646 -0.74794155 0
vn 0.66376454 -0.74794155 0
vn 0.7929181 -0.60932827 0
vn 0.79291815 -0.60932815 0
vn 0.87524444 -0.48368087 0
vn 0.87524444 -0.48368075 0
vn 0.94598615 -0.3242069 0
vn 0.94598615 -0.32420686 0
vn 0.99863845 -0.052166022 0
vn 0.99863064 -0.052315664 0
vn -0.30149645 -0.9534673 0
vn -0.30149645 -0.9534673 0
vn 0.9822459 0.18759814 0
vn 0.98224545 0.18759999 0
vn 0.8878883 0.4600592 0
vn 0.88780373 0.4602222 0
vn 0.7936308 0.60839975 0
vn 0.7936308 0.60839975 0
vn 0.78194505 0.62334746 0
vn 0.78194505 0.62334746 0
vn 0.7902542 0.61277926 -1.5836103E-07
vn 0.7902542 0.61277926 -1.5836103E-07
vn -0.38303515 -0.2928954 0.87606865
vn -0.38588476 -0.27174637 0.8816161
vn 0.07380671 -0.99727255 0
vn 0.07380671 -0.99727255 0
vn 0.07380671 -0.99727255 0
vn 0.0738067 -0.99727255 0
vn 0.85291225 0.17336796 -0.49242678
vn 0.9125021 0.36017394 -0.19394489
vn 0.8091741 0.35634777 -0.4671761
vn 0.76577985 0.4670264 -0.44211727
vn 0.87873626 0.44917646 -0.16144054
vn 0.78126603 0.60468787 -0.15484178
vn 0.62421304 0.36017415 -0.69327676
vn 0.5791829 0.44915763 -0.6802974
vn 0.80333817 0.5884473 -0.09152891
vn 0.52459466 0.6048367 -0.59914356
vn 0.4807996 0.58872545 -0.6497954
vn 0.6433294 0.66940343 -0.3715189
vn 0.72887635 0.67320484 -0.12463786
vn 0.59682554 0.72453904 -0.3447354
vn 0.47182894 0.6735411 -0.56896377
vn 0.55632013 0.8271487 -0.07957866
vn 0.6214953 0.782559 0.03667585
vn 0.46079898 0.8874946 -0.0041814656
vn 0.4538585 0.8516426 -0.26213977
vn 0.36017707 0.9094127 -0.20794468
vn 0.34029275 0.93888545 -0.051914975
vn 0.5184489 0.84702945 0.117268346
vn 0.5902615 0.7762875 0.22128929
vn 0.5116053 0.82090193 0.25373206
vn 0.4074182 0.88776416 0.21420851
vn 0.7594186 0.64992017 -0.029784419
vn 0.6682362 0.72724664 0.15675712
vn 0.36908075 0.9205389 0.1280134
vn 0.33489034 0.9419643 0.023485702
vn 0.26464015 0.95482105 0.13521253
vn 0.22542724 0.9741737 0.012963116
vn 0.27037257 0.94174325 0.20004581
vn 0.2781176 0.9147937 0.2929216
vn 0.40933904 0.8478108 0.33713266
vn 0.23422967 0.886903 -0.39817035
vn 0.3467159 0.82655853 -0.44338366
vn 0.27894005 0.78215486 -0.5571591
vn 0.15863125 0.8461497 -0.50878966
vn 0.105104335 0.77643186 -0.6213748
vn 0.03652702 0.82087326 -0.5699411
vn 0.01861069 0.8876322 -0.46017686
vn 0.40498397 0.65110743 -0.641909
vn 0.19936357 0.7289917 -0.6548475
vn 0.07392594 0.9203961 -0.38393477
vn 0.14693443 0.9420711 -0.30151668
vn 0.015645254 0.9549766 -0.29626837
vn 0.10082039 0.9746206 -0.19987471
vn 0.21499877 0.9389265 -0.2686867
vn -0.037474986 0.9417038 -0.3343494
vn -0.114848934 0.9145929 -0.38772345
vn -0.08715806 0.84775996 -0.52316964
vn -0.8529124 0.17336799 -0.4924265
vn -0.62421304 0.3601742 -0.6932767
vn -0.8091741 0.3563477 -0.46717608
vn -0.7657772 0.4670271 -0.442121
vn -0.57918155 0.4491621 -0.6802956
vn -0.52472097 0.6046996 -0.5991712
vn -0.9125021 0.36017388 -0.19394502
vn -0.8787372 0.44917437 -0.16144127
vn -0.48091817 0.58846605 -0.6499427
vn -0.78118104 0.60482174 -0.15474766
vn -0.80315465 0.58870196 -0.09150172
vn -0.6434159 0.6694015 -0.37137243
vn -0.47236824 0.673213 -0.56890476
vn -0.5969598 0.7245375 -0.34450614
vn -0.72865987 0.67353046 -0.12414269
vn -0.3470811 0.8271438 -0.44200432
vn -0.27899098 0.7825574 -0.55656785
vn -0.23402072 0.8874948 -0.39697257
vn -0.4539491 0.85164267 -0.26198262
vn -0.36017424 0.90941274 -0.20794953
vn -0.21510728 0.93888545 -0.26874322
vn -0.15766655 0.84702975 -0.5076237
vn -0.103488706 0.7762875 -0.62182605
vn -0.036063444 0.8209021 -0.56992924
vn -0.018198961 0.8877639 -0.45993906
vn -0.4055014 0.64993024 -0.6427747
vn -0.19836313 0.72724575 -0.6570889
vn -0.07367826 0.92053884 -0.38364017
vn -0.14710653 0.94196445 -0.30176574
vn -0.015223204 0.95482093 -0.29679167
vn -0.10148602 0.9741743 -0.20170529
vn 0.03805783 0.94174314 -0.33417284
vn 0.11461827 0.9147937 -0.3873179
vn 0.087294675 0.8478112 -0.5230638
vn -0.4619406 0.8869029 -0.003764016
vn -0.55733085 0.8265645 -0.07857163
vn -0.62198097 0.78215694 0.037017357
vn -0.51994026 0.8461498 0.117015645
vn -0.59067875 0.7764319 0.21966375
vn -0.5118474 0.8208728 0.25333792
vn -0.40783045 0.887632 0.21397126
vn -0.75841266 0.6510946 -0.029768452
vn -0.6667966 0.7289915 0.15476981
vn -0.36946025 0.9203963 0.12794495
vn -0.33458793 0.9420713 0.023509376
vn -0.26439756 0.95497704 0.13458389
vn -0.22350705 0.9746206 0.012624897
vn -0.3401885 0.93892664 -0.051850323
vn -0.2708176 0.9417041 0.19962731
vn -0.2783522 0.9145932 0.2933245
vn -0.40950003 0.84776014 0.3370644
g SkillObj_OverGrow_Seed2_Model_0
f 3/3/3 2/2/2 1/1/1
f 3/3/3 4/4/4 2/2/2
f 4/4/4 5/5/5 2/2/2
f 4/4/4 6/6/6 5/5/5
f 7/7/7 3/3/3 1/1/1
f 4/4/4 3/3/3 7/7/7
f 8/8/8 4/4/4 7/7/7
f 9/9/9 5/5/5 6/6/6
f 4/4/4 8/8/8 10/10/10
f 11/11/11 10/10/10 8/8/8
f 12/12/12 6/6/6 4/4/4
f 10/10/10 12/12/12 4/4/4
f 13/13/13 6/6/6 12/12/12
f 14/14/14 13/13/13 12/12/12
f 12/12/12 10/10/10 14/14/14
f 10/10/10 15/15/15 14/14/14
f 16/16/16 13/13/13 14/14/14
f 17/17/17 13/13/13 16/16/16
f 17/17/17 16/16/16 18/18/18
f 18/18/18 16/16/16 19/19/19
f 19/19/19 16/16/16 14/14/14
f 18/18/18 19/19/19 20/20/20
f 20/20/20 21/21/21 18/18/18
f 22/22/22 17/17/17 18/18/18
f 22/22/22 23/23/23 17/17/17
f 22/22/22 24/24/24 23/23/23
f 22/22/22 25/25/25 24/24/24
f 26/26/26 13/13/13 17/17/17
f 27/27/27 26/26/26 17/17/17
f 27/27/27 17/17/17 23/23/23
f 22/22/22 18/18/18 28/28/28
f 25/25/25 22/22/22 28/28/28
f 28/28/28 18/18/18 29/29/29
f 29/29/29 18/18/18 21/21/21
f 29/29/29 30/30/30 28/28/28
f 29/29/29 31/31/31 30/30/30
f 29/29/29 21/21/21 31/31/31
f 25/25/25 28/28/28 32/32/32
f 28/28/28 30/30/30 32/32/32
f 25/25/25 32/32/32 33/33/33
f 25/25/25 33/33/33 34/34/34
f 25/25/25 34/34/34 24/24/24
f 19/19/19 35/35/35 20/20/20
f 36/36/36 35/35/35 19/19/19
f 36/36/36 37/37/37 35/35/35
f 15/15/15 37/37/37 36/36/36
f 37/37/37 38/38/38 35/35/35
f 39/39/39 38/38/38 37/37/37
f 40/40/40 38/38/38 39/39/39
f 41/41/41 38/38/38 40/40/40
f 15/15/15 42/42/42 37/37/37
f 42/42/42 43/43/43 37/37/37
f 37/37/37 43/43/43 39/39/39
f 35/35/35 38/38/38 44/44/44
f 38/38/38 41/41/41 44/44/44
f 35/35/35 44/44/44 45/45/45
f 46/46/46 45/45/45 44/44/44
f 47/47/47 45/45/45 46/46/46
f 48/48/48 45/45/45 47/47/47
f 35/35/35 45/45/45 48/48/48
f 48/48/48 20/20/20 35/35/35
f 44/44/44 41/41/41 49/49/49
f 46/46/46 44/44/44 49/49/49
f 49/49/49 41/41/41 50/50/50
f 50/50/50 41/41/41 51/51/51
f 51/51/51 41/41/41 40/40/40
f 42/42/42 15/15/15 10/10/10
f 11/11/11 42/42/42 10/10/10
f 15/15/15 36/36/36 14/14/14
f 36/36/36 19/19/19 14/14/14
f 54/54/54 53/53/53 52/52/52
f 52/52/52 53/53/53 55/55/55
f 55/55/55 53/53/53 56/56/56
f 57/57/57 54/54/54 52/52/52
f 57/57/57 58/58/58 54/54/54
f 58/58/58 59/59/59 54/54/54
f 58/58/58 60/60/60 59/59/59
f 60/60/60 61/61/61 59/59/59
f 61/61/61 60/60/60 62/62/62
f 55/55/55 56/56/56 63/63/63
f 55/55/55 63/63/63 64/64/64
f 64/64/64 63/63/63 65/65/65
f 63/63/63 66/66/66 65/65/65
f 65/65/65 66/66/66 67/67/67
f 66/66/66 68/68/68 67/67/67
f 67/67/67 68/68/68 69/69/69
f 68/68/68 70/70/70 69/69/69
f 69/69/69 70/70/70 71/71/71
f 72/72/72 71/71/71 70/70/70
f 72/72/72 70/70/70 73/73/73
f 72/72/72 73/73/73 74/74/74
f 74/74/74 73/73/73 75/75/75
f 76/76/76 74/74/74 75/75/75
f 75/75/75 77/77/77 76/76/76
f 77/77/77 78/78/78 76/76/76
f 77/77/77 79/79/79 78/78/78
f 82/82/82 81/81/81 80/80/80
f 83/83/83 82/82/82 80/80/80
f 84/84/84 81/81/81 82/82/82
f 84/84/84 82/82/82 85/85/85
f 86/86/86 84/84/84 85/85/85
f 86/86/86 85/85/85 87/87/87
f 87/87/87 85/85/85 88/88/88
f 89/89/89 87/87/87 88/88/88
f 89/89/89 88/88/88 90/90/90
f 91/91/91 89/89/89 90/90/90
f 91/91/91 90/90/90 92/92/92
f 90/90/90 93/93/93 92/92/92
f 94/94/94 92/92/92 93/93/93
f 80/80/80 95/95/95 83/83/83
f 80/80/80 96/96/96 95/95/95
f 96/96/96 97/97/97 95/95/95
f 94/94/94 93/93/93 98/98/98
f 94/94/94 98/98/98 99/99/99
f 100/100/100 94/94/94 99/99/99
f 100/100/100 99/99/99 101/101/101
f 102/102/102 100/100/100 101/101/101
f 101/101/101 103/103/103 102/102/102
f 103/103/103 104/104/104 102/102/102
f 103/103/103 105/105/105 104/104/104
f 105/105/105 106/106/106 104/104/104
f 107/107/107 106/106/106 105/105/105
f 108/108/108 107/107/107 105/105/105
f 109/109/109 107/107/107 108/108/108
f 112/112/112 111/111/111 110/110/110
f 113/113/113 112/112/112 110/110/110
f 111/111/111 112/112/112 114/114/114
f 115/115/115 111/111/111 114/114/114
f 115/115/115 114/114/114 116/116/116
f 117/117/117 115/115/115 116/116/116
f 117/117/117 116/116/116 118/118/118
f 119/119/119 117/117/117 118/118/118
f 119/119/119 118/118/118 120/120/120
f 121/121/121 119/119/119 120/120/120
f 121/121/121 120/120/120 122/122/122
f 123/123/123 121/121/121 122/122/122
f 110/110/110 124/124/124 113/113/113
f 124/124/124 125/125/125 113/113/113
f 123/123/123 122/122/122 126/126/126
f 127/127/127 123/123/123 126/126/126
f 127/127/127 126/126/126 128/128/128
f 129/129/129 127/127/127 128/128/128
f 128/128/128 130/130/130 129/129/129
f 130/130/130 131/131/131 129/129/129
f 130/130/130 132/132/132 131/131/131
f 132/132/132 133/133/133 131/131/131
f 132/132/132 134/134/134 133/133/133
f 134/134/134 135/135/135 133/133/133
f 62/62/62 137/137/137 136/136/136
f 136/136/136 61/61/61 62/62/62
f 140/140/140 139/139/139 138/138/138
f 141/141/141 140/140/140 138/138/138
f 144/144/144 143/143/143 142/142/142
f 142/142/142 143/143/143 145/145/145
f 145/145/145 143/143/143 146/146/146
f 147/147/147 144/144/144 142/142/142
f 147/147/147 148/148/148 144/144/144
f 148/148/148 149/149/149 144/144/144
f 148/148/148 150/150/150 149/149/149
f 150/150/150 151/151/151 149/149/149
f 151/151/151 150/150/150 152/152/152
f 145/145/145 146/146/146 153/153/153
f 145/145/145 153/153/153 154/154/154
f 154/154/154 153/153/153 155/155/155
f 153/153/153 156/156/156 155/155/155
f 155/155/155 156/156/156 157/157/157
f 156/156/156 158/158/158 157/157/157
f 157/157/157 158/158/158 159/159/159
f 158/158/158 160/160/160 159/159/159
f 159/159/159 160/160/160 161/161/161
f 162/162/162 161/161/161 160/160/160
f 162/162/162 160/160/160 163/163/163
f 162/162/162 163/163/163 164/164/164
f 164/164/164 163/163/163 165/165/165
f 166/166/166 164/164/164 165/165/165
f 165/165/165 167/167/167 166/166/166
f 167/167/167 168/168/168 166/166/166
f 167/167/167 169/169/169 168/168/168
f 172/172/172 171/171/171 170/170/170
f 173/173/173 172/172/172 170/170/170
f 174/174/174 171/171/171 172/172/172
f 174/174/174 172/172/172 175/175/175
f 176/176/176 174/174/174 175/175/175
f 176/176/176 175/175/175 177/177/177
f 177/177/177 175/175/175 178/178/178
f 179/179/179 177/177/177 178/178/178
f 179/179/179 178/178/178 180/180/180
f 181/181/181 179/179/179 180/180/180
f 181/181/181 180/180/180 182/182/182
f 180/180/180 183/183/183 182/182/182
f 184/184/184 182/182/182 183/183/183
f 170/170/170 185/185/185 173/173/173
f 170/170/170 186/186/186 185/185/185
f 186/186/186 187/187/187 185/185/185
f 184/184/184 183/183/183 188/188/188
f 184/184/184 188/188/188 189/189/189
f 190/190/190 184/184/184 189/189/189
f 190/190/190 189/189/189 191/191/191
f 192/192/192 190/190/190 191/191/191
f 191/191/191 193/193/193 192/192/192
f 193/193/193 194/194/194 192/192/192
f 193/193/193 195/195/195 194/194/194
f 195/195/195 196/196/196 194/194/194
f 197/197/197 196/196/196 195/195/195
f 198/198/198 197/197/197 195/195/195
f 199/199/199 197/197/197 198/198/198
f 202/202/202 201/201/201 200/200/200
f 203/203/203 202/202/202 200/200/200
f 201/201/201 202/202/202 204/204/204
f 205/205/205 201/201/201 204/204/204
f 205/205/205 204/204/204 206/206/206
f 207/207/207 205/205/205 206/206/206
f 207/207/207 206/206/206 208/208/208
f 209/209/209 207/207/207 208/208/208
f 209/209/209 208/208/208 210/210/210
f 211/211/211 209/209/209 210/210/210
f 211/211/211 210/210/210 212/212/212
f 213/213/213 211/211/211 212/212/212
f 200/200/200 214/214/214 203/203/203
f 214/214/214 215/215/215 203/203/203
f 213/213/213 212/212/212 216/216/216
f 217/217/217 213/213/213 216/216/216
f 217/217/217 216/216/216 218/218/218
f 219/219/219 217/217/217 218/218/218
f 218/218/218 220/220/220 219/219/219
f 220/220/220 221/221/221 219/219/219
f 220/220/220 222/222/222 221/221/221
f 222/222/222 223/223/223 221/221/221
f 222/222/222 224/224/224 223/223/223
f 224/224/224 225/225/225 223/223/223
f 152/152/152 227/227/227 226/226/226
f 226/226/226 151/151/151 152/152/152
f 230/230/230 229/229/229 228/228/228
f 231/231/231 230/230/230 228/228/228
f 234/234/234 233/233/233 232/232/232
f 235/235/235 234/234/234 232/232/232
f 233/233/233 234/234/234 236/236/236
f 234/234/234 237/237/237 236/236/236
f 237/237/237 238/238/238 236/236/236
f 238/238/238 239/239/239 236/236/236
f 233/233/233 240/240/240 232/232/232
f 235/235/235 241/241/241 234/234/234
f 244/244/244 243/243/243 242/242/242
f 244/244/244 242/242/242 245/245/245
f 242/242/242 246/246/246 245/245/245
f 246/246/246 242/242/242 247/247/247
f 242/242/242 248/248/248 247/247/247
f 248/248/248 249/249/249 247/247/247
f 249/249/249 250/250/250 247/247/247
f 246/246/246 251/251/251 245/245/245
f 254/254/254 253/253/253 252/252/252
f 255/255/255 254/254/254 252/252/252
f 258/258/258 257/257/257 256/256/256
f 259/259/259 258/258/258 256/256/256
f 262/262/262 261/261/261 260/260/260
f 262/262/262 260/260/260 263/263/263
f 264/264/264 262/262/262 263/263/263
f 267/267/267 266/266/266 265/265/265
f 267/267/267 265/265/265 268/268/268
f 269/269/269 267/267/267 268/268/268
f 272/272/272 271/271/271 270/270/270
f 271/271/271 273/273/273 270/270/270
f 273/273/273 271/271/271 274/274/274
f 271/271/271 275/275/275 274/274/274
f 275/275/275 276/276/276 274/274/274
f 276/276/276 277/277/277 274/274/274
f 273/273/273 278/278/278 270/270/270
f 273/273/273 279/279/279 278/278/278
f 282/282/282 281/281/281 280/280/280
f 281/281/281 283/283/283 280/280/280
f 283/283/283 281/281/281 284/284/284
f 281/281/281 285/285/285 284/284/284
f 285/285/285 286/286/286 284/284/284
f 286/286/286 287/287/287 284/284/284
f 283/283/283 288/288/288 280/280/280
f 283/283/283 289/289/289 288/288/288
f 292/292/292 291/291/291 290/290/290
f 293/293/293 292/292/292 290/290/290
f 296/296/296 295/295/295 294/294/294
f 297/297/297 296/296/296 294/294/294
f 300/300/300 299/299/299 298/298/298
f 298/298/298 299/299/299 301/301/301
f 299/299/299 302/302/302 301/301/301
f 305/305/305 304/304/304 303/303/303
f 303/303/303 304/304/304 306/306/306
f 304/304/304 307/307/307 306/306/306
f 310/310/310 309/309/309 308/308/308
f 308/308/308 309/309/309 311/311/311
f 311/311/311 309/309/309 312/312/312
f 313/313/313 310/310/310 308/308/308
f 313/313/313 314/314/314 310/310/310
f 314/314/314 315/315/315 310/310/310
f 314/314/314 316/316/316 315/315/315
f 316/316/316 317/317/317 315/315/315
f 317/317/317 316/316/316 318/318/318
f 311/311/311 312/312/312 319/319/319
f 311/311/311 319/319/319 320/320/320
f 320/320/320 319/319/319 321/321/321
f 319/319/319 322/322/322 321/321/321
f 321/321/321 322/322/322 323/323/323
f 322/322/322 324/324/324 323/323/323
f 323/323/323 324/324/324 325/325/325
f 324/324/324 326/326/326 325/325/325
f 325/325/325 326/326/326 327/327/327
f 328/328/328 327/327/327 326/326/326
f 328/328/328 326/326/326 329/329/329
f 328/328/328 329/329/329 330/330/330
f 330/330/330 329/329/329 331/331/331
f 332/332/332 330/330/330 331/331/331
f 331/331/331 333/333/333 332/332/332
f 333/333/333 334/334/334 332/332/332
f 333/333/333 335/335/335 334/334/334
f 338/338/338 337/337/337 336/336/336
f 339/339/339 338/338/338 336/336/336
f 340/340/340 337/337/337 338/338/338
f 340/340/340 338/338/338 341/341/341
f 342/342/342 340/340/340 341/341/341
f 342/342/342 341/341/341 343/343/343
f 343/343/343 341/341/341 344/344/344
f 345/345/345 343/343/343 344/344/344
f 345/345/345 344/344/344 346/346/346
f 347/347/347 345/345/345 346/346/346
f 347/347/347 346/346/346 348/348/348
f 346/346/346 349/349/349 348/348/348
f 350/350/350 348/348/348 349/349/349
f 336/336/336 351/351/351 339/339/339
f 336/336/336 352/352/352 351/351/351
f 352/352/352 353/353/353 351/351/351
f 350/350/350 349/349/349 354/354/354
f 350/350/350 354/354/354 355/355/355
f 356/356/356 350/350/350 355/355/355
f 356/356/356 355/355/355 357/357/357
f 358/358/358 356/356/356 357/357/357
f 357/357/357 359/359/359 358/358/358
f 359/359/359 360/360/360 358/358/358
f 359/359/359 361/361/361 360/360/360
f 361/361/361 362/362/362 360/360/360
f 363/363/363 362/362/362 361/361/361
f 364/364/364 363/363/363 361/361/361
f 365/365/365 363/363/363 364/364/364
f 368/368/368 367/367/367 366/366/366
f 369/369/369 368/368/368 366/366/366
f 367/367/367 368/368/368 370/370/370
f 371/371/371 367/367/367 370/370/370
f 371/371/371 370/370/370 372/372/372
f 373/373/373 371/371/371 372/372/372
f 373/373/373 372/372/372 374/374/374
f 375/375/375 373/373/373 374/374/374
f 375/375/375 374/374/374 376/376/376
f 377/377/377 375/375/375 376/376/376
f 377/377/377 376/376/376 378/378/378
f 379/379/379 377/377/377 378/378/378
f 366/366/366 380/380/380 369/369/369
f 380/380/380 381/381/381 369/369/369
f 379/379/379 378/378/378 382/382/382
f 383/383/383 379/379/379 382/382/382
f 383/383/383 382/382/382 384/384/384
f 385/385/385 383/383/383 384/384/384
f 384/384/384 386/386/386 385/385/385
f 386/386/386 387/387/387 385/385/385
f 386/386/386 388/388/388 387/387/387
f 388/388/388 389/389/389 387/387/387
f 388/388/388 390/390/390 389/389/389
f 390/390/390 391/391/391 389/389/389
f 318/318/318 393/393/393 392/392/392
f 392/392/392 317/317/317 318/318/318
f 396/396/396 395/395/395 394/394/394
f 397/397/397 396/396/396 394/394/394
f 400/400/400 399/399/399 398/398/398
f 401/401/401 400/400/400 398/398/398
f 404/404/404 403/403/403 402/402/402
f 402/402/402 403/403/403 405/405/405
f 405/405/405 403/403/403 406/406/406
f 407/407/407 404/404/404 402/402/402
f 407/407/407 408/408/408 404/404/404
f 408/408/408 409/409/409 404/404/404
f 408/408/408 410/410/410 409/409/409
f 410/410/410 411/411/411 409/409/409
f 411/411/411 410/410/410 412/412/412
f 405/405/405 406/406/406 413/413/413
f 405/405/405 413/413/413 414/414/414
f 414/414/414 413/413/413 415/415/415
f 413/413/413 416/416/416 415/415/415
f 415/415/415 416/416/416 417/417/417
f 416/416/416 418/418/418 417/417/417
f 417/417/417 418/418/418 419/419/419
f 418/418/418 420/420/420 419/419/419
f 419/419/419 420/420/420 421/421/421
f 422/422/422 421/421/421 420/420/420
f 422/422/422 420/420/420 423/423/423
f 422/422/422 423/423/423 424/424/424
f 424/424/424 423/423/423 425/425/425
f 426/426/426 424/424/424 425/425/425
f 425/425/425 427/427/427 426/426/426
f 427/427/427 428/428/428 426/426/426
f 427/427/427 429/429/429 428/428/428
f 432/432/432 431/431/431 430/430/430
f 433/433/433 432/432/432 430/430/430
f 434/434/434 431/431/431 432/432/432
f 434/434/434 432/432/432 435/435/435
f 436/436/436 434/434/434 435/435/435
f 436/436/436 435/435/435 437/437/437
f 437/437/437 435/435/435 438/438/438
f 439/439/439 437/437/437 438/438/438
f 439/439/439 438/438/438 440/440/440
f 441/441/441 439/439/439 440/440/440
f 441/441/441 440/440/440 442/442/442
f 440/440/440 443/443/443 442/442/442
f 444/444/444 442/442/442 443/443/443
f 430/430/430 445/445/445 433/433/433
f 430/430/430 446/446/446 445/445/445
f 446/446/446 447/447/447 445/445/445
f 444/444/444 443/443/443 448/448/448
f 444/444/444 448/448/448 449/449/449
f 450/450/450 444/444/444 449/449/449
f 450/450/450 449/449/449 451/451/451
f 452/452/452 450/450/450 451/451/451
f 451/451/451 453/453/453 452/452/452
f 453/453/453 454/454/454 452/452/452
f 453/453/453 455/455/455 454/454/454
f 455/455/455 456/456/456 454/454/454
f 457/457/457 456/456/456 455/455/455
f 458/458/458 457/457/457 455/455/455
f 459/459/459 457/457/457 458/458/458
f 462/462/462 461/461/461 460/460/460
f 463/463/463 462/462/462 460/460/460
f 461/461/461 462/462/462 464/464/464
f 465/465/465 461/461/461 464/464/464
f 465/465/465 464/464/464 466/466/466
f 467/467/467 465/465/465 466/466/466
f 467/467/467 466/466/466 468/468/468
f 469/469/469 467/467/467 468/468/468
f 469/469/469 468/468/468 470/470/470
f 471/471/471 469/469/469 470/470/470
f 471/471/471 470/470/470 472/472/472
f 473/473/473 471/471/471 472/472/472
f 460/460/460 474/474/474 463/463/463
f 474/474/474 475/475/475 463/463/463
f 473/473/473 472/472/472 476/476/476
f 477/477/477 473/473/473 476/476/476
f 477/477/477 476/476/476 478/478/478
f 479/479/479 477/477/477 478/478/478
f 478/478/478 480/480/480 479/479/479
f 480/480/480 481/481/481 479/479/479
f 480/480/480 482/482/482 481/481/481
f 482/482/482 483/483/483 481/481/481
f 482/482/482 484/484/484 483/483/483
f 484/484/484 485/485/485 483/483/483
f 412/412/412 487/487/487 486/486/486
f 486/486/486 411/411/411 412/412/412
f 490/490/490 489/489/489 488/488/488
f 491/491/491 490/490/490 488/488/488
f 494/494/494 493/493/493 492/492/492
f 494/494/494 495/495/495 493/493/493
f 495/495/495 496/496/496 493/493/493
f 495/495/495 497/497/497 496/496/496
f 498/498/498 494/494/494 492/492/492
f 495/495/495 494/494/494 498/498/498
f 499/499/499 495/495/495 498/498/498
f 500/500/500 496/496/496 497/497/497
f 495/495/495 499/499/499 501/501/501
f 502/502/502 501/501/501 499/499/499
f 503/503/503 497/497/497 495/495/495
f 501/501/501 503/503/503 495/495/495
f 504/504/504 497/497/497 503/503/503
f 505/505/505 504/504/504 503/503/503
f 503/503/503 501/501/501 505/505/505
f 501/501/501 506/506/506 505/505/505
f 507/507/507 504/504/504 505/505/505
f 508/508/508 504/504/504 507/507/507
f 508/508/508 507/507/507 509/509/509
f 509/509/509 507/507/507 510/510/510
f 510/510/510 507/507/507 505/505/505
f 509/509/509 510/510/510 511/511/511
f 511/511/511 512/512/512 509/509/509
f 513/513/513 508/508/508 509/509/509
f 513/513/513 514/514/514 508/508/508
f 513/513/513 515/515/515 514/514/514
f 513/513/513 516/516/516 515/515/515
f 517/517/517 504/504/504 508/508/508
f 518/518/518 517/517/517 508/508/508
f 518/518/518 508/508/508 514/514/514
f 513/513/513 509/509/509 519/519/519
f 516/516/516 513/513/513 519/519/519
f 519/519/519 509/509/509 520/520/520
f 520/520/520 509/509/509 512/512/512
f 520/520/520 521/521/521 519/519/519
f 520/520/520 522/522/522 521/521/521
f 520/520/520 512/512/512 522/522/522
f 516/516/516 519/519/519 523/523/523
f 519/519/519 521/521/521 523/523/523
f 516/516/516 523/523/523 524/524/524
f 516/516/516 524/524/524 525/525/525
f 516/516/516 525/525/525 515/515/515
f 510/510/510 526/526/526 511/511/511
f 527/527/527 526/526/526 510/510/510
f 527/527/527 528/528/528 526/526/526
f 506/506/506 528/528/528 527/527/527
f 528/528/528 529/529/529 526/526/526
f 530/530/530 529/529/529 528/528/528
f 531/531/531 529/529/529 530/530/530
f 532/532/532 529/529/529 531/531/531
f 506/506/506 533/533/533 528/528/528
f 533/533/533 534/534/534 528/528/528
f 528/528/528 534/534/534 530/530/530
f 526/526/526 529/529/529 535/535/535
f 529/529/529 532/532/532 535/535/535
f 526/526/526 535/535/535 536/536/536
f 537/537/537 536/536/536 535/535/535
f 538/538/538 536/536/536 537/537/537
f 539/539/539 536/536/536 538/538/538
f 526/526/526 536/536/536 539/539/539
f 539/539/539 511/511/511 526/526/526
f 535/535/535 532/532/532 540/540/540
f 537/537/537 535/535/535 540/540/540
f 540/540/540 532/532/532 541/541/541
f 541/541/541 532/532/532 542/542/542
f 542/542/542 532/532/532 531/531/531
f 533/533/533 506/506/506 501/501/501
f 502/502/502 533/533/533 501/501/501
f 506/506/506 527/527/527 505/505/505
f 527/527/527 510/510/510 505/505/505
f 545/545/545 544/544/544 543/543/543
f 545/545/545 546/546/546 544/544/544
f 546/546/546 547/547/547 544/544/544
f 546/546/546 548/548/548 547/547/547
f 549/549/549 545/545/545 543/543/543
f 546/546/546 545/545/545 549/549/549
f 550/550/550 546/546/546 549/549/549
f 551/551/551 547/547/547 548/548/548
f 546/546/546 550/550/550 552/552/552
f 553/553/553 552/552/552 550/550/550
f 554/554/554 548/548/548 546/546/546
f 552/552/552 554/554/554 546/546/546
f 555/555/555 548/548/548 554/554/554
f 556/556/556 555/555/555 554/554/554
f 554/554/554 552/552/552 556/556/556
f 552/552/552 557/557/557 556/556/556
f 558/558/558 555/555/555 556/556/556
f 559/559/559 555/555/555 558/558/558
f 559/559/559 558/558/558 560/560/560
f 560/560/560 558/558/558 561/561/561
f 561/561/561 558/558/558 556/556/556
f 560/560/560 561/561/561 562/562/562
f 562/562/562 563/563/563 560/560/560
f 564/564/564 559/559/559 560/560/560
f 564/564/564 565/565/565 559/559/559
f 564/564/564 566/566/566 565/565/565
f 564/564/564 567/567/567 566/566/566
f 568/568/568 555/555/555 559/559/559
f 569/569/569 568/568/568 559/559/559
f 569/569/569 559/559/559 565/565/565
f 564/564/564 560/560/560 570/570/570
f 567/567/567 564/564/564 570/570/570
f 570/570/570 560/560/560 571/571/571
f 571/571/571 560/560/560 563/563/563
f 571/571/571 572/572/572 570/570/570
f 571/571/571 573/573/573 572/572/572
f 571/571/571 563/563/563 573/573/573
f 567/567/567 570/570/570 574/574/574
f 570/570/570 572/572/572 574/574/574
f 567/567/567 574/574/574 575/575/575
f 567/567/567 575/575/575 576/576/576
f 567/567/567 576/576/576 566/566/566
f 561/561/561 577/577/577 562/562/562
f 578/578/578 577/577/577 561/561/561
f 578/578/578 579/579/579 577/577/577
f 557/557/557 579/579/579 578/578/578
f 579/579/579 580/580/580 577/577/577
f 581/581/581 580/580/580 579/579/579
f 582/582/582 580/580/580 581/581/581
f 583/583/583 580/580/580 582/582/582
f 557/557/557 584/584/584 579/579/579
f 584/584/584 585/585/585 579/579/579
f 579/579/579 585/585/585 581/581/581
f 577/577/577 580/580/580 586/586/586
f 580/580/580 583/583/583 586/586/586
f 577/577/577 586/586/586 587/587/587
f 588/588/588 587/587/587 586/586/586
f 589/589/589 587/587/587 588/588/588
f 590/590/590 587/587/587 589/589/589
f 577/577/577 587/587/587 590/590/590
f 590/590/590 562/562/562 577/577/577
f 586/586/586 583/583/583 591/591/591
f 588/588/588 586/586/586 591/591/591
f 591/591/591 583/583/583 592/592/592
f 592/592/592 583/583/583 593/593/593
f 593/593/593 583/583/583 582/582/582
f 584/584/584 557/557/557 552/552/552
f 553/553/553 584/584/584 552/552/552
f 557/557/557 578/578/578 556/556/556
f 578/578/578 561/561/561 556/556/556
f 26/26/26 9/9/9 6/6/6
f 13/13/13 26/26/26 6/6/6
f 517/517/517 500/500/500 497/497/497
f 504/504/504 517/517/517 497/497/497
f 568/568/568 551/551/551 548/548/548
f 555/555/555 568/568/568 548/548/548
