g SkillObj_OverGrow_Seed_Model
v 0.004586635 0.011833372 0.004486926
v 0.012762317 0.026359877 0.012484876
v 0.018744506 0.02705038 0.00759544
v 0.033299513 0.043968003 0.013493259
v 0.022588916 0.042560644 0.022097865
v 0.042383917 0.046082128 0
v 0.023601936 0.028162045 0
v 0.00847438 0.012090874 0
v 0.051061895 0.06722976 0.020690741
v 0.03453155 0.0653632 0.033780873
v 0.06523566 0.06993951 0
v 0.06321154 0.08989228 0.02561389
v 0.04286032 0.08791763 0.041928582
v 0.080215834 0.09186279 0
v 0.06873266 0.1110847 0.027851084
v 0.046770725 0.10824425 0.045753974
v 0.0866309 0.11148724 0
v 0.06908311 0.124453925 0.0279931
v 0.047085512 0.12245844 0.046061914
v 0.086822115 0.12618671 0
v 0.06408171 0.14058788 0.025966492
v 0.043676734 0.13839684 0.04272724
v 0.0805365 0.1437874 0
v 0.05539647 0.15580125 0.022447154
v 0.037757 0.15342581 0.036936212
v 0.069621034 0.16038379 0
v 0.041342232 0.17182706 0.01675225
v 0.028177967 0.16925736 0.027565414
v 0.051958002 0.17786652 0
v 0.028469972 0.1110847 0.06723848
v 0.026183065 0.08989228 0.061837386
v 4.053116E-09 0.09186279 0.07847202
v 4.0531165E-09 0.06993951 0.06381749
v 0.021150522 0.06722976 0.049951863
v 4.053116E-09 0.046082128 0.041462526
v 0.013793108 0.043968003 0.032575615
v 4.053116E-09 0.028162045 0.02308885
v 0.0077642226 0.02705038 0.01833702
v 4.053116E-09 0.11148724 0.08474762
v 0.02861515 0.124453925 0.06758131
v 4.053115E-09 0.12618671 0.084934674
v 0.026543517 0.14058788 0.06268864
v 4.0531165E-09 0.1437874 0.07878569
v 0.022945965 0.15580125 0.0541922
v 4.053116E-09 0.16038379 0.06810753
v 0.01712451 0.17182706 0.040443495
v 4.053116E-09 0.17786652 0.05082848
v -0.028615134 0.124453925 0.06758131
v -0.028469963 0.1110847 0.06723848
v -0.047085505 0.12245844 0.046061914
v -0.046770714 0.10824425 0.045753974
v -0.069083095 0.124453925 0.0279931
v -0.06873265 0.1110847 0.027851084
v -0.04286031 0.08791763 0.041928582
v -0.06321153 0.08989228 0.02561389
v -0.03453154 0.0653632 0.033780873
v -0.051061887 0.06722976 0.020690741
v -0.022588905 0.042560644 0.022097865
v -0.033299502 0.043968003 0.013493259
v -0.01276231 0.026359877 0.012484876
v -0.018744497 0.02705038 0.00759544
v -0.04238391 0.046082128 0
v -0.023601929 0.028162045 0
v -0.06523565 0.06993951 0
v -0.080215834 0.09186279 0
v -0.086630896 0.11148724 0
v -0.0868221 0.12618671 0
v -0.08053647 0.1437874 0
v -0.007764214 0.02705038 0.01833702
v -0.013793101 0.043968003 0.032575615
v -0.021150514 0.06722976 0.049951863
v -0.026183052 0.08989228 0.061837386
v 4.053116E-09 0.012090874 0.008290154
v -0.004586627 0.011833372 0.004486926
v 4.053116E-09 0.00027234553 0
v -0.008474371 0.012090874 0
v 0.004586635 0.011833372 -0.004486926
v 0.00847438 0.012090874 0
v 4.053116E-09 0.012090874 -0.008290154
v -0.004586627 0.011833372 -0.004486926
v -0.008474371 0.012090874 0
v -0.018744497 0.02705038 -0.00759544
v 0.018744506 0.02705038 -0.00759544
v 0.012762317 0.026359877 -0.012484876
v 0.023601936 0.028162045 0
v 0.033299513 0.043968003 -0.013493259
v 0.022588916 0.042560644 -0.022097865
v 0.042383917 0.046082128 0
v 0.051061895 0.06722976 -0.020690741
v 0.03453155 0.0653632 -0.033780873
v 0.06523566 0.06993951 0
v 0.06321154 0.08989228 -0.02561389
v 0.04286032 0.08791763 -0.041928582
v 0.080215834 0.09186279 0
v 0.06873266 0.1110847 -0.027851084
v 0.046770725 0.10824425 -0.045753974
v 0.0866309 0.11148724 0
v 0.06908311 0.124453925 -0.0279931
v 0.047085512 0.12245844 -0.046061914
v 0.086822115 0.12618671 0
v 0.06408171 0.14058788 -0.025966492
v 0.043676734 0.13839684 -0.04272724
v 0.0805365 0.1437874 0
v 0.05539647 0.15580125 -0.022447154
v 0.037757 0.15342581 -0.036936212
v 0.069621034 0.16038379 0
v 0.041342232 0.17182706 -0.01675225
v 0.028177967 0.16925736 -0.027565414
v 0.051958002 0.17786652 0
v 0.028469972 0.1110847 -0.06723848
v 0.026183065 0.08989228 -0.061837386
v 4.053116E-09 0.09186279 -0.07847202
v 4.0531165E-09 0.06993951 -0.06381749
v 0.021150522 0.06722976 -0.049951863
v 4.053116E-09 0.046082128 -0.041462526
v 0.013793108 0.043968003 -0.032575615
v 4.053116E-09 0.028162045 -0.02308885
v 0.0077642226 0.02705038 -0.01833702
v 4.053116E-09 0.11148724 -0.08474762
v -0.007764214 0.02705038 -0.01833702
v -0.013793101 0.043968003 -0.032575615
v -0.022588905 0.042560644 -0.022097865
v -0.01276231 0.026359877 -0.012484876
v -0.033299502 0.043968003 -0.013493259
v -0.04238391 0.046082128 0
v -0.023601929 0.028162045 0
v -0.051061887 0.06722976 -0.020690741
v -0.03453154 0.0653632 -0.033780873
v -0.06523565 0.06993951 0
v -0.06321153 0.08989228 -0.02561389
v -0.04286031 0.08791763 -0.041928582
v -0.080215834 0.09186279 0
v -0.06873265 0.1110847 -0.027851084
v -0.046770714 0.10824425 -0.045753974
v -0.086630896 0.11148724 0
v -0.069083095 0.124453925 -0.0279931
v -0.047085505 0.12245844 -0.046061914
v -0.0868221 0.12618671 0
v -0.0640817 0.14058788 -0.025966492
v -0.04367672 0.13839684 -0.04272724
v -0.08053647 0.1437874 0
v -0.05539646 0.15580125 -0.022447154
v -0.03775698 0.15342581 -0.036936212
v -0.06962101 0.16038379 0
v -0.04134222 0.17182706 -0.01675225
v -0.028177962 0.16925736 -0.027565414
v -0.05195799 0.17786652 0
v -0.028469963 0.1110847 -0.06723848
v -0.026183052 0.08989228 -0.061837386
v -0.021150514 0.06722976 -0.049951863
v -0.028615134 0.124453925 -0.06758131
v 4.053115E-09 0.12618671 -0.084934674
v 0.02861515 0.124453925 -0.06758131
v 0.026543517 0.14058788 -0.06268864
v 4.0531165E-09 0.1437874 -0.07878569
v 0.022945965 0.15580125 -0.0541922
v 4.053116E-09 0.16038379 -0.06810753
v 0.01712451 0.17182706 -0.040443495
v 4.053116E-09 0.17786652 -0.05082848
v -0.026543502 0.14058788 -0.06268864
v -0.022945954 0.15580125 -0.0541922
v -0.017124502 0.17182706 -0.040443495
v -0.0640817 0.14058788 0.025966492
v -0.04367672 0.13839684 0.04272724
v -0.05539646 0.15580125 0.022447154
v -0.03775698 0.15342581 0.036936212
v -0.06962101 0.16038379 0
v -0.04134222 0.17182706 0.01675225
v -0.028177962 0.16925736 0.027565414
v -0.05195799 0.17786652 0
v -0.026543502 0.14058788 0.06268864
v -0.022945954 0.15580125 0.0541922
v -0.017124502 0.17182706 0.040443495
v 0.028177967 0.16925736 0.027565414
v 1.2159347E-08 0.14887227 0
v 0.041342232 0.17182706 0.01675225
v 0.051958002 0.17786652 0
v 0.01712451 0.17182706 0.040443495
v 4.053116E-09 0.17786652 0.05082848
v 0.028177967 0.16925736 -0.027565414
v 0.041342232 0.17182706 -0.01675225
v 0.051958002 0.17786652 0
v 0.01712451 0.17182706 -0.040443495
v 4.053116E-09 0.17786652 -0.05082848
v -0.04134222 0.17182706 0.01675225
v 1.2159347E-08 0.14887227 0
v -0.028177962 0.16925736 0.027565414
v -0.05195799 0.17786652 0
v -0.017124502 0.17182706 0.040443495
v 4.053116E-09 0.17786652 0.05082848
v -0.04134222 0.17182706 -0.01675225
v -0.028177962 0.16925736 -0.027565414
v -0.05195799 0.17786652 0
v -0.017124502 0.17182706 -0.040443495
v 4.053116E-09 0.17786652 -0.05082848
v 1.8577337E-10 0.11595079 0
v -0.02325467 0.15924403 0
v -1.0164938E-09 0.15924403 0.02325467
v 1.8577337E-10 0.11595079 0
v -1.0164938E-09 0.15924403 0.02325467
v 0.02325467 0.15924403 0
v -0.02325467 0.15924403 0
v -0.0063519264 0.18481565 0
v -2.7765162E-10 0.18481565 0.0063519264
v -1.0164938E-09 0.15924403 0.02325467
v -1.0164938E-09 0.15924403 0.02325467
v -2.7765162E-10 0.18481565 0.0063519264
v 0.0063519264 0.18481565 0
v 0.02325467 0.15924403 0
v -0.0063519264 0.18481565 0
v -0.018600468 0.2125064 0
v -8.1305235E-10 0.2125064 0.018600468
v -2.7765162E-10 0.18481565 0.0063519264
v -2.7765162E-10 0.18481565 0.0063519264
v -8.1305235E-10 0.2125064 0.018600468
v 0.018600468 0.2125064 0
v 0.0063519264 0.18481565 0
v -0.01146729 0.23995951 0
v 1.8577337E-10 0.26741257 0
v -3.867209E-10 0.23995951 0.01146729
v -0.018600468 0.2125064 0
v -8.1305235E-10 0.2125064 0.018600468
v -3.867209E-10 0.23995951 0.01146729
v 1.8577337E-10 0.26741257 0
v 0.01146729 0.23995951 0
v -8.1305235E-10 0.2125064 0.018600468
v 0.018600468 0.2125064 0
v 1.8577337E-10 0.11595079 0
v -1.0164938E-09 0.15924403 -0.02325467
v -0.02325467 0.15924403 0
v 1.8577337E-10 0.11595079 0
v 0.02325467 0.15924403 0
v -1.0164938E-09 0.15924403 -0.02325467
v -0.02325467 0.15924403 0
v -1.0164938E-09 0.15924403 -0.02325467
v -2.7765162E-10 0.18481565 -0.0063519264
v -0.0063519264 0.18481565 0
v -1.0164938E-09 0.15924403 -0.02325467
v 0.02325467 0.15924403 0
v 0.0063519264 0.18481565 0
v -2.7765162E-10 0.18481565 -0.0063519264
v -0.0063519264 0.18481565 0
v -2.7765162E-10 0.18481565 -0.0063519264
v -8.1305235E-10 0.2125064 -0.018600468
v -0.018600468 0.2125064 0
v -2.7765162E-10 0.18481565 -0.0063519264
v 0.0063519264 0.18481565 0
v 0.018600468 0.2125064 0
v -8.1305235E-10 0.2125064 -0.018600468
v -0.01146729 0.23995951 0
v -3.867209E-10 0.23995951 -0.01146729
v 1.8577337E-10 0.26741257 0
v -0.018600468 0.2125064 0
v -8.1305235E-10 0.2125064 -0.018600468
v -3.867209E-10 0.23995951 -0.01146729
v 0.01146729 0.23995951 0
v 1.8577337E-10 0.26741257 0
v -8.1305235E-10 0.2125064 -0.018600468
v 0.018600468 0.2125064 0
vt 0.49558043 0.20765036
vt 0.4531033 0.27632362
vt 0.41922688 0.2669127
vt 0.34563765 0.3447305
vt 0.40561903 0.35579032
vt 0.27709275 0.32258886
vt 0.38274837 0.25004655
vt 0.47165763 0.19666833
vt 0.2647518 0.45722675
vt 0.35246375 0.46523336
vt 0.15896478 0.43827173
vt 0.21549356 0.56379783
vt 0.31823468 0.56855524
vt 0.08978593 0.55001366
vt 0.1925515 0.6582577
vt 0.301445 0.6583004
vt 0.060459405 0.6451831
vt 0.18751109 0.71665543
vt 0.29674745 0.720611
vt 0.05531907 0.71471727
vt 0.1942228 0.7908002
vt 0.29997385 0.79285073
vt 0.06857157 0.8018639
vt 0.2115184 0.86670345
vt 0.3089131 0.86639774
vt 0.10083142 0.88890624
vt 0.24276295 0.95638573
vt 0.32307625 0.95213556
vt 0.15772542 0.98494595
vt 0.40277088 0.6806178
vt 0.41035682 0.5961869
vt 0.520667 0.61891866
vt 0.520667 0.5283704
vt 0.4273433 0.49714977
vt 0.520667 0.40885824
vt 0.45581082 0.38283598
vt 0.520667 0.30856055
vt 0.48230517 0.2932186
vt 0.520667 0.6880237
vt 0.401721 0.73247063
vt 0.520667 0.7367505
vt 0.4020717 0.7983256
vt 0.520667 0.8003186
vt 0.405415 0.86794245
vt 0.520667 0.8698317
vt 0.40850702 0.9546524
vt 0.5207255 0.96544194
vt 0.6397368 0.7323776
vt 0.6386665 0.68052566
vt 0.74470574 0.7204358
vt 0.73996156 0.658129
vt 0.85394067 0.71665543
vt 0.8488774 0.6582577
vt 0.7232163 0.56839716
vt 0.8258984 0.56379783
vt 0.6888897 0.46516782
vt 0.7765987 0.45722675
vt 0.63583195 0.3557456
vt 0.6956691 0.3447305
vt 0.5880066 0.27627158
vt 0.6218757 0.2668735
vt 0.7643582 0.32258886
vt 0.65852195 0.24999332
vt 0.8824862 0.43827173
vt 0.95166504 0.55001366
vt 0.9809916 0.6451831
vt 0.9861319 0.71471727
vt 0.9728794 0.8018639
vt 0.55881774 0.29318923
vt 0.5855107 0.3828108
vt 0.6140225 0.4971134
vt 0.63109416 0.5961007
vt 0.520667 0.21823019
vt 0.5454768 0.20763129
vt 0.5207255 0.15796274
vt 0.56959236 0.19666833
vt 0.54587054 0.20765036
vt 0.56959236 0.19666833
vt 0.52078396 0.21823019
vt 0.4959742 0.20763129
vt 0.47205955 0.19666833
vt 0.41957527 0.26683432
vt 0.6222241 0.2668735
vt 0.5883477 0.27632362
vt 0.65852195 0.24999332
vt 0.69595754 0.3447305
vt 0.63583195 0.35583502
vt 0.7643582 0.32258886
vt 0.7767997 0.45722675
vt 0.68908477 0.46516782
vt 0.8824862 0.43827173
vt 0.8260164 0.56379783
vt 0.7232163 0.56855524
vt 0.95166504 0.55001366
vt 0.8488774 0.6582577
vt 0.74000597 0.6583004
vt 0.9809916 0.6451831
vt 0.85394067 0.71665543
vt 0.74470574 0.720611
vt 0.9861319 0.71471727
vt 0.84722817 0.7908002
vt 0.74147713 0.79285073
vt 0.9728794 0.8018639
vt 0.8299326 0.86670345
vt 0.7324784 0.86631477
vt 0.9406196 0.88890624
vt 0.79868805 0.95638573
vt 0.7183747 0.95213556
vt 0.8837255 0.98494595
vt 0.6386665 0.6806178
vt 0.63109416 0.5961869
vt 0.52078396 0.61891866
vt 0.52078396 0.5283704
vt 0.61419284 0.4971134
vt 0.52078396 0.40885824
vt 0.58576965 0.3828108
vt 0.52078396 0.30856055
vt 0.5591458 0.2932186
vt 0.52078396 0.6880237
vt 0.48263323 0.29318923
vt 0.45581082 0.38278562
vt 0.40561903 0.35579032
vt 0.45344433 0.27627158
vt 0.34563765 0.3447305
vt 0.27709275 0.32258886
vt 0.3831097 0.2499401
vt 0.2647518 0.45722675
vt 0.35246375 0.4651023
vt 0.15896478 0.43827173
vt 0.21549356 0.56379783
vt 0.31823468 0.56839716
vt 0.08978593 0.55001366
vt 0.1925957 0.6582577
vt 0.3014894 0.658129
vt 0.060459405 0.6451831
vt 0.18750954 0.71665543
vt 0.296743 0.7204358
vt 0.05531907 0.71471727
vt 0.1942228 0.7908002
vt 0.2999126 0.79285073
vt 0.06857157 0.8018639
vt 0.21139911 0.86670345
vt 0.3089131 0.8662318
vt 0.10083142 0.88890624
vt 0.24276295 0.95638573
vt 0.32307625 0.95213556
vt 0.15772542 0.98494595
vt 0.4027981 0.68052566
vt 0.41035682 0.5961007
vt 0.4273433 0.49707702
vt 0.40170735 0.7323776
vt 0.52078396 0.7367505
vt 0.6397368 0.73247063
vt 0.6394119 0.7983256
vt 0.52078396 0.8003186
vt 0.636036 0.8678973
vt 0.52078396 0.8698317
vt 0.632944 0.9546524
vt 0.5207255 0.96544194
vt 0.40200633 0.7982327
vt 0.405415 0.8678521
vt 0.40850702 0.9546524
vt 0.84722817 0.7908002
vt 0.7415384 0.79285073
vt 0.8300519 0.86670345
vt 0.73259735 0.86631477
vt 0.9406196 0.88890624
vt 0.79868805 0.95638573
vt 0.7183747 0.95213556
vt 0.8837255 0.98494595
vt 0.6394119 0.7982327
vt 0.636036 0.8678973
vt 0.632944 0.9546524
vt 0.7996704 0.17644608
vt 0.9153328 0.05477333
vt 0.8455597 0.23784149
vt 0.91533273 0.2953986
vt 0.7453804 0.12673557
vt 0.6979258 0.05477333
vt 0.7996704 0.17644608
vt 0.8455597 0.23784149
vt 0.91533273 0.2953986
vt 0.7453804 0.12673557
vt 0.6979258 0.05477333
vt 0.8455597 0.2378416
vt 0.9153328 0.05477333
vt 0.7996704 0.17644608
vt 0.9153328 0.2953986
vt 0.7453804 0.12673545
vt 0.6979258 0.05477333
vt 0.8455597 0.2378416
vt 0.7996704 0.17644608
vt 0.9153328 0.2953986
vt 0.7453804 0.12673545
vt 0.6979258 0.05477333
vt 0.013173252 0.10742139
vt 0.16705921 0.008944929
vt 0.16705927 0.10742139
vt 0.013173252 0.10742139
vt 0.16705927 0.10742139
vt 0.16705918 0.2103911
vt 0.16705921 0.008944929
vt 0.26403856 0.0756146
vt 0.26403853 0.10742139
vt 0.16705927 0.10742139
vt 0.16705927 0.10742139
vt 0.26403853 0.10742139
vt 0.26403853 0.14372143
vt 0.16705918 0.2103911
vt 0.26403856 0.0756146
vt 0.36195317 0.0256868
vt 0.36195302 0.10742139
vt 0.26403853 0.10742139
vt 0.26403853 0.10742139
vt 0.36195302 0.10742139
vt 0.36195314 0.19364923
vt 0.26403853 0.14372143
vt 0.45692915 0.05507934
vt 0.5515403 0.10742139
vt 0.45692924 0.10742139
vt 0.36195317 0.0256868
vt 0.36195302 0.10742139
vt 0.45692924 0.10742139
vt 0.5515403 0.10742139
vt 0.45692918 0.16425669
vt 0.36195302 0.10742139
vt 0.36195314 0.19364923
vt 0.013173252 0.10742139
vt 0.16705927 0.10742139
vt 0.16705921 0.2103911
vt 0.013173252 0.10742139
vt 0.16705918 0.008944929
vt 0.16705927 0.10742139
vt 0.16705921 0.2103911
vt 0.16705927 0.10742139
vt 0.26403853 0.10742139
vt 0.26403856 0.14372143
vt 0.16705927 0.10742139
vt 0.16705918 0.008944929
vt 0.26403853 0.0756146
vt 0.26403853 0.10742139
vt 0.26403856 0.14372143
vt 0.26403853 0.10742139
vt 0.36195302 0.10742139
vt 0.36195317 0.19364923
vt 0.26403853 0.10742139
vt 0.26403853 0.0756146
vt 0.36195314 0.0256868
vt 0.36195302 0.10742139
vt 0.45692915 0.16425669
vt 0.45692924 0.10742139
vt 0.5515403 0.10742139
vt 0.36195317 0.19364923
vt 0.36195302 0.10742139
vt 0.45692924 0.10742139
vt 0.45692918 0.05507934
vt 0.5515403 0.10742139
vt 0.36195302 0.10742139
vt 0.36195314 0.0256868
vn 0.5676778 -0.5837607 0.5804871
vn 0.5378632 -0.63910556 0.54977024
vn 0.60134774 -0.6625668 0.4465269
vn 0.6122027 -0.6372729 0.4680716
vn 0.5524378 -0.613277 0.5645386
vn 0.7200148 -0.69395876 0
vn 0.6976023 -0.7164853 0
vn 0.7218618 -0.6920373 0
vn 0.65301585 -0.5494352 0.52124006
vn 0.5941668 -0.5274618 0.60724777
vn 0.7974687 -0.6033603 0
vn 0.7116832 -0.37631097 0.5932091
vn 0.6508793 -0.3654911 0.6654115
vn 0.90769476 -0.41963112 0
vn 0.75252086 -0.16223216 0.6382735
vn 0.68906254 -0.16965325 0.7045641
vn 0.9824095 -0.18673927 0
vn 0.74587405 0.15075195 0.64880335
vn 0.69256616 0.13657628 0.7083072
vn 0.98321956 0.18242595 0
vn 0.6782358 0.38482222 0.6260256
vn 0.6479097 0.37581572 0.66255224
vn 0.89194405 0.4521459 0
vn 0.57663345 0.5552857 0.5992926
vn 0.58118564 0.5557525 0.59444284
vn 0.75961995 0.65036714 0
vn 0.50886124 0.63035655 0.5862686
vn 0.54097253 0.63525647 0.5511787
vn 0.6709556 0.7414976 0
vn 0.62235653 -0.16152832 0.76588565
vn 0.5784579 -0.37468722 0.7245661
vn -0 -0.41314864 0.9106636
vn -0 -0.5956148 0.8032702
vn 0.50808024 -0.54725266 0.6651083
vn -0 -0.68615764 0.72745293
vn 0.45564282 -0.6349935 0.62383723
vn -0 -0.7086709 0.7055391
vn 0.43421426 -0.66021025 0.61284614
vn -0 -0.18327212 0.98306227
vn 0.6330608 0.15020363 0.7593898
vn -0 0.17909083 0.98383254
vn 0.61139804 0.3840369 0.6918873
vn -0 0.44509122 0.8954852
vn 0.58634686 0.5554248 0.5896614
vn -0 0.6429427 0.76591426
vn 0.57356626 0.63132507 0.52196777
vn -0 0.7341088 0.6790317
vn -0.6330608 0.15020369 0.75938976
vn -0.62235653 -0.16152829 0.7658858
vn -0.69256604 0.13657634 0.70830727
vn -0.68906254 -0.1696532 0.7045641
vn -0.7458741 0.1507522 0.64880323
vn -0.7525209 -0.16223192 0.6382735
vn -0.6508792 -0.3654911 0.66541153
vn -0.7116832 -0.37631097 0.5932091
vn -0.59416676 -0.5274618 0.6072478
vn -0.6530158 -0.5494354 0.5212401
vn -0.55243784 -0.613277 0.5645384
vn -0.6122027 -0.6372729 0.46807167
vn -0.5378633 -0.6391055 0.5497702
vn -0.60134774 -0.6625668 0.4465269
vn -0.7200148 -0.69395876 0
vn -0.6976023 -0.7164853 0
vn -0.7974686 -0.6033604 0
vn -0.90769476 -0.41963118 0
vn -0.9824096 -0.18673888 0
vn -0.98321956 0.1824265 0
vn -0.8919439 0.45214608 0
vn -0.43421435 -0.66021025 0.61284614
vn -0.4556429 -0.6349935 0.62383723
vn -0.50808036 -0.54725254 0.66510826
vn -0.5784579 -0.3746872 0.7245661
vn -0 -0.68325007 0.73018444
vn -0.5676779 -0.5837607 0.58048713
vn -0 -1 0
vn -0.7218618 -0.6920373 0
vn 0.5676779 -0.5837607 -0.58048713
vn 0.7218618 -0.6920373 0
vn -0 -0.68325007 -0.73018444
vn -0.56767786 -0.5837607 -0.58048713
vn -0.7218618 -0.6920373 0
vn -0.60134774 -0.6625668 -0.44652686
vn 0.60134774 -0.6625668 -0.4465269
vn 0.53786325 -0.63910556 -0.54977024
vn 0.6976023 -0.7164853 0
vn 0.6122027 -0.6372729 -0.46807167
vn 0.5524378 -0.613277 -0.5645386
vn 0.7200148 -0.69395876 0
vn 0.65301585 -0.5494353 -0.5212401
vn 0.59416676 -0.5274618 -0.60724777
vn 0.7974687 -0.6033603 0
vn 0.7116832 -0.37631097 -0.5932091
vn 0.6508792 -0.3654911 -0.66541153
vn 0.90769476 -0.41963112 0
vn 0.75252086 -0.16223216 -0.6382736
vn 0.6890625 -0.16965324 -0.7045641
vn 0.9824095 -0.18673927 0
vn 0.7458741 0.15075186 -0.64880323
vn 0.69256616 0.13657627 -0.7083072
vn 0.98321956 0.18242595 0
vn 0.6782358 0.38482207 -0.6260257
vn 0.6479096 0.37581557 -0.6625525
vn 0.89194405 0.4521459 0
vn 0.57663345 0.5552856 -0.5992927
vn 0.5811856 0.5557524 -0.59444296
vn 0.75961995 0.65036714 0
vn 0.5088613 0.63035655 -0.5862686
vn 0.54097253 0.63525635 -0.5511787
vn 0.6709556 0.7414976 0
vn 0.62235653 -0.1615283 -0.76588565
vn 0.57845783 -0.37468725 -0.72456604
vn -0 -0.41314858 -0.9106636
vn -0 -0.5956148 -0.8032702
vn 0.50808024 -0.54725266 -0.6651083
vn -0 -0.68615764 -0.72745293
vn 0.4556428 -0.6349936 -0.6238371
vn -0 -0.708671 -0.70553905
vn 0.4342143 -0.66021025 -0.6128461
vn -0 -0.18327214 -0.98306227
vn -0.43421435 -0.66021025 -0.612846
vn -0.45564288 -0.63499355 -0.62383723
vn -0.5524379 -0.613277 -0.56453854
vn -0.53786325 -0.63910556 -0.5497701
vn -0.6122027 -0.6372729 -0.4680716
vn -0.7200148 -0.69395876 0
vn -0.6976023 -0.7164853 0
vn -0.65301573 -0.5494353 -0.52124006
vn -0.5941668 -0.5274618 -0.6072478
vn -0.7974686 -0.6033604 0
vn -0.7116832 -0.37631097 -0.5932091
vn -0.65087914 -0.365491 -0.66541153
vn -0.90769476 -0.41963118 0
vn -0.7525209 -0.16223186 -0.6382735
vn -0.68906254 -0.16965318 -0.7045641
vn -0.9824096 -0.18673888 0
vn -0.7458741 0.15075216 -0.64880323
vn -0.69256616 0.1365763 -0.70830727
vn -0.98321956 0.1824265 0
vn -0.6782359 0.3848223 -0.62602544
vn -0.6479097 0.37581575 -0.6625523
vn -0.8919439 0.45214608 0
vn -0.5766336 0.55528563 -0.5992925
vn -0.5811857 0.5557525 -0.5944429
vn -0.75962013 0.650367 0
vn -0.50886136 0.6303563 -0.58626866
vn -0.54097265 0.63525635 -0.5511787
vn -0.67095584 0.7414972 0
vn -0.6223566 -0.16152827 -0.76588565
vn -0.5784579 -0.3746872 -0.7245661
vn -0.50808024 -0.54725254 -0.6651084
vn -0.633061 0.1502037 -0.7593897
vn -0 0.1790908 -0.98383254
vn 0.6330608 0.15020365 -0.75938976
vn 0.611398 0.38403693 -0.69188744
vn -0 0.44509122 -0.8954852
vn 0.5863468 0.55542487 -0.58966154
vn -0 0.6429426 -0.7659144
vn 0.5735663 0.63132507 -0.5219678
vn -0 0.7341087 -0.67903197
vn -0.6113981 0.38403684 -0.6918873
vn -0.58634704 0.5554249 -0.5896613
vn -0.57356656 0.6313251 -0.52196723
vn -0.6782358 0.3848224 0.6260255
vn -0.6479096 0.37581572 0.66255236
vn -0.5766335 0.55528563 0.5992925
vn -0.58118564 0.55575246 0.5944429
vn -0.75962013 0.650367 0
vn -0.5088614 0.63035625 0.5862687
vn -0.54097265 0.63525635 0.5511787
vn -0.67095584 0.7414972 0
vn -0.6113981 0.38403693 0.6918873
vn -0.58634704 0.55542487 0.58966124
vn -0.5735666 0.6313253 0.5219672
vn -0.32202592 0.888218 -0.32767072
vn -1.0879276E-07 1 0
vn -0.46075678 0.8843746 -0.07473119
vn -0.4872948 0.87323755 -1.9126762E-07
vn -0.07541252 0.8805769 -0.46786454
vn -0 0.8686153 -0.49548724
vn -0.32202592 0.888218 0.32767072
vn -0.46075678 0.8843746 0.07473091
vn -0.4872948 0.87323755 -1.9126762E-07
vn -0.07541248 0.8805769 0.46786454
vn -0 0.8686153 0.49548724
vn 0.4607567 0.8843747 -0.07473084
vn -1.0879276E-07 1 0
vn 0.32202592 0.8882182 -0.3276703
vn 0.48729464 0.87323755 0
vn 0.07541246 0.88057715 -0.4678642
vn -0 0.8686153 -0.49548724
vn 0.4607567 0.8843747 0.07473055
vn 0.32202592 0.8882183 0.3276698
vn 0.48729464 0.87323755 0
vn 0.07541248 0.88057715 0.4678642
vn -0 0.8686153 0.49548724
vn -0.66103184 -0.35506883 0.66103166
vn -0.6610319 -0.3550688 0.6610317
vn -0.66103184 -0.35506883 0.6610318
vn 0.66103196 -0.3550688 0.66103166
vn 0.661032 -0.35506883 0.6610316
vn 0.661032 -0.35506883 0.6610316
vn -0.6405895 0.4234274 0.6405892
vn -0.6405895 0.42342737 0.6405892
vn -0.6405895 0.42342737 0.6405892
vn -0.6405895 0.42342737 0.6405892
vn 0.6405893 0.42342725 0.64058936
vn 0.6405893 0.42342725 0.64058936
vn 0.6405893 0.42342725 0.64058936
vn 0.6405893 0.42342725 0.64058936
vn -0.6748665 -0.2985159 0.6748655
vn -0.6748665 -0.29851592 0.6748655
vn -0.6748665 -0.29851592 0.6748655
vn -0.6748665 -0.2985159 0.6748655
vn 0.6748661 -0.29851577 0.674866
vn 0.6748661 -0.29851574 0.674866
vn 0.6748661 -0.29851574 0.6748661
vn 0.6748661 -0.29851577 0.674866
vn -0.6922481 0.20392369 0.6922483
vn -0.67814523 0.28326473 0.6781445
vn -0.6922481 0.20392369 0.6922483
vn -0.6954659 0.18070391 0.6954663
vn -0.6954659 0.18070391 0.6954663
vn 0.6922483 0.2039237 0.692248
vn 0.6781446 0.28326446 0.67814535
vn 0.6922483 0.2039237 0.692248
vn 0.69546634 0.18070403 0.69546574
vn 0.69546634 0.18070403 0.69546574
vn -0.66103184 -0.3550687 -0.66103184
vn -0.66103184 -0.3550687 -0.66103184
vn -0.66103184 -0.35506874 -0.66103184
vn 0.66103184 -0.35506883 -0.66103166
vn 0.6610319 -0.3550688 -0.6610317
vn 0.6610319 -0.3550688 -0.6610317
vn -0.64058936 0.4234272 -0.64058936
vn -0.6405893 0.4234272 -0.6405893
vn -0.6405893 0.4234272 -0.6405893
vn -0.6405893 0.4234272 -0.6405893
vn 0.6405893 0.42342725 -0.6405893
vn 0.6405893 0.42342725 -0.6405893
vn 0.6405893 0.42342725 -0.6405893
vn 0.6405893 0.42342725 -0.6405893
vn -0.6748665 -0.2985159 -0.6748655
vn -0.6748665 -0.2985159 -0.6748655
vn -0.6748665 -0.2985159 -0.6748655
vn -0.6748665 -0.2985159 -0.6748655
vn 0.6748659 -0.29851562 -0.67486626
vn 0.6748659 -0.29851562 -0.67486626
vn 0.6748659 -0.2985157 -0.6748662
vn 0.6748659 -0.29851562 -0.6748662
vn -0.6922483 0.2039237 -0.6922481
vn -0.6922482 0.20392367 -0.69224817
vn -0.67814523 0.28326473 -0.6781445
vn -0.69546604 0.18070395 -0.6954661
vn -0.69546604 0.18070395 -0.6954661
vn 0.6922483 0.2039237 -0.692248
vn 0.6922483 0.2039237 -0.692248
vn 0.6781445 0.2832644 -0.67814547
vn 0.69546634 0.18070403 -0.69546574
vn 0.69546634 0.18070403 -0.69546574
g SkillObj_OverGrow_Seed_Model_0
f 3/3/3 2/2/2 1/1/1
f 3/3/3 4/4/4 2/2/2
f 4/4/4 5/5/5 2/2/2
f 6/6/6 4/4/4 3/3/3
f 7/7/7 6/6/6 3/3/3
f 8/8/8 7/7/7 3/3/3
f 1/1/1 8/8/8 3/3/3
f 4/4/4 9/9/9 5/5/5
f 9/9/9 10/10/10 5/5/5
f 11/11/11 9/9/9 4/4/4
f 6/6/6 11/11/11 4/4/4
f 9/9/9 12/12/12 10/10/10
f 12/12/12 13/13/13 10/10/10
f 14/14/14 12/12/12 9/9/9
f 11/11/11 14/14/14 9/9/9
f 12/12/12 15/15/15 13/13/13
f 15/15/15 16/16/16 13/13/13
f 17/17/17 15/15/15 12/12/12
f 14/14/14 17/17/17 12/12/12
f 15/15/15 18/18/18 16/16/16
f 18/18/18 19/19/19 16/16/16
f 20/20/20 18/18/18 15/15/15
f 17/17/17 20/20/20 15/15/15
f 18/18/18 21/21/21 19/19/19
f 21/21/21 22/22/22 19/19/19
f 23/23/23 21/21/21 18/18/18
f 20/20/20 23/23/23 18/18/18
f 21/21/21 24/24/24 22/22/22
f 24/24/24 25/25/25 22/22/22
f 26/26/26 24/24/24 21/21/21
f 23/23/23 26/26/26 21/21/21
f 24/24/24 27/27/27 25/25/25
f 27/27/27 28/28/28 25/25/25
f 29/29/29 27/27/27 24/24/24
f 26/26/26 29/29/29 24/24/24
f 16/16/16 19/19/19 30/30/30
f 16/16/16 30/30/30 31/31/31
f 31/31/31 30/30/30 32/32/32
f 31/31/31 32/32/32 33/33/33
f 34/34/34 31/31/31 33/33/33
f 34/34/34 33/33/33 35/35/35
f 36/36/36 34/34/34 35/35/35
f 36/36/36 35/35/35 37/37/37
f 38/38/38 36/36/36 37/37/37
f 5/5/5 36/36/36 38/38/38
f 2/2/2 5/5/5 38/38/38
f 10/10/10 34/34/34 36/36/36
f 5/5/5 10/10/10 36/36/36
f 13/13/13 31/31/31 34/34/34
f 10/10/10 13/13/13 34/34/34
f 30/30/30 39/39/39 32/32/32
f 13/13/13 16/16/16 31/31/31
f 30/30/30 40/40/40 39/39/39
f 40/40/40 41/41/41 39/39/39
f 40/40/40 42/42/42 41/41/41
f 42/42/42 43/43/43 41/41/41
f 22/22/22 42/42/42 40/40/40
f 19/19/19 22/22/22 40/40/40
f 19/19/19 40/40/40 30/30/30
f 42/42/42 44/44/44 43/43/43
f 44/44/44 45/45/45 43/43/43
f 25/25/25 44/44/44 42/42/42
f 22/22/22 25/25/25 42/42/42
f 44/44/44 46/46/46 45/45/45
f 46/46/46 47/47/47 45/45/45
f 28/28/28 46/46/46 44/44/44
f 25/25/25 28/28/28 44/44/44
f 41/41/41 48/48/48 39/39/39
f 48/48/48 49/49/49 39/39/39
f 48/48/48 50/50/50 49/49/49
f 50/50/50 51/51/51 49/49/49
f 50/50/50 52/52/52 51/51/51
f 52/52/52 53/53/53 51/51/51
f 51/51/51 53/53/53 54/54/54
f 53/53/53 55/55/55 54/54/54
f 54/54/54 55/55/55 56/56/56
f 55/55/55 57/57/57 56/56/56
f 56/56/56 57/57/57 58/58/58
f 57/57/57 59/59/59 58/58/58
f 58/58/58 59/59/59 60/60/60
f 59/59/59 61/61/61 60/60/60
f 59/59/59 62/62/62 61/61/61
f 62/62/62 63/63/63 61/61/61
f 64/64/64 62/62/62 59/59/59
f 57/57/57 64/64/64 59/59/59
f 65/65/65 64/64/64 57/57/57
f 55/55/55 65/65/65 57/57/57
f 66/66/66 65/65/65 55/55/55
f 53/53/53 66/66/66 55/55/55
f 67/67/67 66/66/66 53/53/53
f 52/52/52 67/67/67 53/53/53
f 68/68/68 67/67/67 52/52/52
f 58/58/58 60/60/60 69/69/69
f 70/70/70 58/58/58 69/69/69
f 56/56/56 58/58/58 70/70/70
f 70/70/70 69/69/69 37/37/37
f 35/35/35 70/70/70 37/37/37
f 71/71/71 70/70/70 35/35/35
f 33/33/33 71/71/71 35/35/35
f 71/71/71 56/56/56 70/70/70
f 72/72/72 71/71/71 33/33/33
f 32/32/32 72/72/72 33/33/33
f 54/54/54 56/56/56 71/71/71
f 72/72/72 54/54/54 71/71/71
f 49/49/49 72/72/72 32/32/32
f 39/39/39 49/49/49 32/32/32
f 51/51/51 54/54/54 72/72/72
f 49/49/49 51/51/51 72/72/72
f 37/37/37 69/69/69 73/73/73
f 74/74/74 73/73/73 69/69/69
f 74/74/74 75/75/75 73/73/73
f 73/73/73 75/75/75 1/1/1
f 1/1/1 75/75/75 8/8/8
f 73/73/73 1/1/1 38/38/38
f 76/76/76 75/75/75 74/74/74
f 76/76/76 74/74/74 61/61/61
f 1/1/1 2/2/2 38/38/38
f 38/38/38 37/37/37 73/73/73
f 60/60/60 61/61/61 74/74/74
f 69/69/69 60/60/60 74/74/74
f 61/61/61 63/63/63 76/76/76
f 78/78/78 75/75/75 77/77/77
f 77/77/77 75/75/75 79/79/79
f 79/79/79 75/75/75 80/80/80
f 80/80/80 75/75/75 81/81/81
f 80/80/80 81/81/81 82/82/82
f 78/78/78 77/77/77 83/83/83
f 84/84/84 83/83/83 77/77/77
f 83/83/83 85/85/85 78/78/78
f 86/86/86 83/83/83 84/84/84
f 87/87/87 86/86/86 84/84/84
f 88/88/88 85/85/85 83/83/83
f 86/86/86 88/88/88 83/83/83
f 89/89/89 86/86/86 87/87/87
f 90/90/90 89/89/89 87/87/87
f 91/91/91 88/88/88 86/86/86
f 89/89/89 91/91/91 86/86/86
f 92/92/92 89/89/89 90/90/90
f 93/93/93 92/92/92 90/90/90
f 94/94/94 91/91/91 89/89/89
f 92/92/92 94/94/94 89/89/89
f 95/95/95 92/92/92 93/93/93
f 96/96/96 95/95/95 93/93/93
f 97/97/97 94/94/94 92/92/92
f 95/95/95 97/97/97 92/92/92
f 98/98/98 95/95/95 96/96/96
f 99/99/99 98/98/98 96/96/96
f 100/100/100 97/97/97 95/95/95
f 98/98/98 100/100/100 95/95/95
f 101/101/101 98/98/98 99/99/99
f 102/102/102 101/101/101 99/99/99
f 103/103/103 100/100/100 98/98/98
f 101/101/101 103/103/103 98/98/98
f 104/104/104 101/101/101 102/102/102
f 105/105/105 104/104/104 102/102/102
f 106/106/106 103/103/103 101/101/101
f 104/104/104 106/106/106 101/101/101
f 107/107/107 104/104/104 105/105/105
f 108/108/108 107/107/107 105/105/105
f 109/109/109 106/106/106 104/104/104
f 107/107/107 109/109/109 104/104/104
f 99/99/99 96/96/96 110/110/110
f 110/110/110 96/96/96 111/111/111
f 110/110/110 111/111/111 112/112/112
f 112/112/112 111/111/111 113/113/113
f 111/111/111 114/114/114 113/113/113
f 113/113/113 114/114/114 115/115/115
f 114/114/114 116/116/116 115/115/115
f 115/115/115 116/116/116 117/117/117
f 116/116/116 118/118/118 117/117/117
f 117/117/117 118/118/118 79/79/79
f 116/116/116 87/87/87 118/118/118
f 87/87/87 84/84/84 118/118/118
f 118/118/118 84/84/84 77/77/77
f 77/77/77 79/79/79 118/118/118
f 90/90/90 87/87/87 116/116/116
f 114/114/114 90/90/90 116/116/116
f 93/93/93 90/90/90 114/114/114
f 111/111/111 93/93/93 114/114/114
f 119/119/119 110/110/110 112/112/112
f 96/96/96 93/93/93 111/111/111
f 120/120/120 117/117/117 79/79/79
f 121/121/121 115/115/115 117/117/117
f 120/120/120 121/121/121 117/117/117
f 122/122/122 121/121/121 120/120/120
f 123/123/123 122/122/122 120/120/120
f 124/124/124 122/122/122 123/123/123
f 82/82/82 124/124/124 123/123/123
f 125/125/125 124/124/124 82/82/82
f 126/126/126 125/125/125 82/82/82
f 124/124/124 127/127/127 122/122/122
f 127/127/127 128/128/128 122/122/122
f 122/122/122 128/128/128 121/121/121
f 129/129/129 127/127/127 124/124/124
f 125/125/125 129/129/129 124/124/124
f 127/127/127 130/130/130 128/128/128
f 130/130/130 131/131/131 128/128/128
f 132/132/132 130/130/130 127/127/127
f 129/129/129 132/132/132 127/127/127
f 130/130/130 133/133/133 131/131/131
f 133/133/133 134/134/134 131/131/131
f 135/135/135 133/133/133 130/130/130
f 132/132/132 135/135/135 130/130/130
f 133/133/133 136/136/136 134/134/134
f 136/136/136 137/137/137 134/134/134
f 138/138/138 136/136/136 133/133/133
f 135/135/135 138/138/138 133/133/133
f 136/136/136 139/139/139 137/137/137
f 139/139/139 140/140/140 137/137/137
f 141/141/141 139/139/139 136/136/136
f 138/138/138 141/141/141 136/136/136
f 139/139/139 142/142/142 140/140/140
f 142/142/142 143/143/143 140/140/140
f 144/144/144 142/142/142 139/139/139
f 141/141/141 144/144/144 139/139/139
f 142/142/142 145/145/145 143/143/143
f 145/145/145 146/146/146 143/143/143
f 147/147/147 145/145/145 142/142/142
f 144/144/144 147/147/147 142/142/142
f 134/134/134 137/137/137 148/148/148
f 134/134/134 148/148/148 149/149/149
f 149/149/149 148/148/148 112/112/112
f 149/149/149 112/112/112 113/113/113
f 150/150/150 149/149/149 113/113/113
f 150/150/150 113/113/113 115/115/115
f 121/121/121 150/150/150 115/115/115
f 128/128/128 150/150/150 121/121/121
f 131/131/131 149/149/149 150/150/150
f 128/128/128 131/131/131 150/150/150
f 148/148/148 119/119/119 112/112/112
f 131/131/131 134/134/134 149/149/149
f 148/148/148 151/151/151 119/119/119
f 151/151/151 152/152/152 119/119/119
f 152/152/152 153/153/153 119/119/119
f 153/153/153 110/110/110 119/119/119
f 153/153/153 99/99/99 110/110/110
f 154/154/154 153/153/153 152/152/152
f 155/155/155 154/154/154 152/152/152
f 102/102/102 99/99/99 153/153/153
f 154/154/154 102/102/102 153/153/153
f 156/156/156 154/154/154 155/155/155
f 157/157/157 156/156/156 155/155/155
f 105/105/105 102/102/102 154/154/154
f 156/156/156 105/105/105 154/154/154
f 158/158/158 156/156/156 157/157/157
f 159/159/159 158/158/158 157/157/157
f 108/108/108 105/105/105 156/156/156
f 158/158/158 108/108/108 156/156/156
f 160/160/160 155/155/155 152/152/152
f 151/151/151 160/160/160 152/152/152
f 140/140/140 160/160/160 151/151/151
f 137/137/137 140/140/140 151/151/151
f 161/161/161 157/157/157 155/155/155
f 160/160/160 161/161/161 155/155/155
f 143/143/143 161/161/161 160/160/160
f 140/140/140 143/143/143 160/160/160
f 162/162/162 159/159/159 157/157/157
f 161/161/161 162/162/162 157/157/157
f 146/146/146 162/162/162 161/161/161
f 143/143/143 146/146/146 161/161/161
f 137/137/137 151/151/151 148/148/148
f 163/163/163 52/52/52 50/50/50
f 164/164/164 163/163/163 50/50/50
f 163/163/163 68/68/68 52/52/52
f 165/165/165 163/163/163 164/164/164
f 166/166/166 165/165/165 164/164/164
f 167/167/167 68/68/68 163/163/163
f 165/165/165 167/167/167 163/163/163
f 168/168/168 165/165/165 166/166/166
f 169/169/169 168/168/168 166/166/166
f 170/170/170 167/167/167 165/165/165
f 168/168/168 170/170/170 165/165/165
f 164/164/164 50/50/50 48/48/48
f 171/171/171 164/164/164 48/48/48
f 166/166/166 164/164/164 171/171/171
f 171/171/171 48/48/48 41/41/41
f 43/43/43 171/171/171 41/41/41
f 172/172/172 171/171/171 43/43/43
f 172/172/172 166/166/166 171/171/171
f 169/169/169 166/166/166 172/172/172
f 45/45/45 172/172/172 43/43/43
f 173/173/173 172/172/172 45/45/45
f 173/173/173 169/169/169 172/172/172
f 47/47/47 173/173/173 45/45/45
f 176/176/176 175/175/175 174/174/174
f 177/177/177 175/175/175 176/176/176
f 174/174/174 175/175/175 178/178/178
f 178/178/178 175/175/175 179/179/179
f 175/175/175 181/181/181 180/180/180
f 175/175/175 182/182/182 181/181/181
f 175/175/175 180/180/180 183/183/183
f 175/175/175 183/183/183 184/184/184
f 187/187/187 186/186/186 185/185/185
f 185/185/185 186/186/186 188/188/188
f 189/189/189 186/186/186 187/187/187
f 190/190/190 186/186/186 189/189/189
f 186/186/186 192/192/192 191/191/191
f 186/186/186 191/191/191 193/193/193
f 186/186/186 194/194/194 192/192/192
f 186/186/186 195/195/195 194/194/194
f 198/198/198 197/197/197 196/196/196
f 201/201/201 200/200/200 199/199/199
f 204/204/204 203/203/203 202/202/202
f 205/205/205 204/204/204 202/202/202
f 208/208/208 207/207/207 206/206/206
f 209/209/209 208/208/208 206/206/206
f 212/212/212 211/211/211 210/210/210
f 213/213/213 212/212/212 210/210/210
f 216/216/216 215/215/215 214/214/214
f 217/217/217 216/216/216 214/214/214
f 220/220/220 219/219/219 218/218/218
f 220/220/220 218/218/218 221/221/221
f 222/222/222 220/220/220 221/221/221
f 225/225/225 224/224/224 223/223/223
f 225/225/225 223/223/223 226/226/226
f 227/227/227 225/225/225 226/226/226
f 80/80/80 123/123/123 120/120/120
f 82/82/82 123/123/123 80/80/80
f 79/79/79 80/80/80 120/120/120
f 81/81/81 126/126/126 82/82/82
f 230/230/230 229/229/229 228/228/228
f 233/233/233 232/232/232 231/231/231
f 236/236/236 235/235/235 234/234/234
f 237/237/237 236/236/236 234/234/234
f 240/240/240 239/239/239 238/238/238
f 241/241/241 240/240/240 238/238/238
f 244/244/244 243/243/243 242/242/242
f 245/245/245 244/244/244 242/242/242
f 248/248/248 247/247/247 246/246/246
f 249/249/249 248/248/248 246/246/246
f 252/252/252 251/251/251 250/250/250
f 250/250/250 251/251/251 253/253/253
f 251/251/251 254/254/254 253/253/253
f 257/257/257 256/256/256 255/255/255
f 255/255/255 256/256/256 258/258/258
f 256/256/256 259/259/259 258/258/258
